<svg xmlns="http://www.w3.org/2000/svg" viewBox="0 0 583.12 331.09"><defs><style>.cls-1{fill:#f5f7f5;}.cls-2{fill:#f4ce43;}.cls-3{fill:#393637;}</style></defs><g id="Layer_2" data-name="Layer 2"><g id="Layer_1-2" data-name="Layer 1"><path class="cls-1" d="M226.41,236V191.37h8.94l24.46,31.43V191.37h8.93V236h-8.93l-24.46-31.43V236Z"/><path class="cls-1" d="M328.67,236V191.37h14.21l2.22,0a30,30,0,0,1,3.2.22,16.92,16.92,0,0,1,9,3.76,19.38,19.38,0,0,1,5.56,7.85,29.75,29.75,0,0,1,0,20.87,19.38,19.38,0,0,1-5.56,7.85,17,17,0,0,1-9,3.77,31.84,31.84,0,0,1-3.19.21l-2.23,0Zm7.59-7h6.62q.93,0,2.37-.06a16.69,16.69,0,0,0,2.56-.28,8.8,8.8,0,0,0,5.14-2.82,14,14,0,0,0,2.92-5.41,24.37,24.37,0,0,0,0-13.51,13.63,13.63,0,0,0-3-5.36,9,9,0,0,0-5.09-2.75,14.4,14.4,0,0,0-2.56-.3c-1,0-1.75,0-2.37,0h-6.62Z"/><path class="cls-1" d="M372.05,236V191.37h28.81v7H379.52v11h17.62v7H379.52V229h21.34v7Z"/><path class="cls-1" d="M408.29,236V191.37h2.6v21h27v-21h2.61V236h-2.61V215h-27v21Z"/><path class="cls-1" d="M447.9,236V191.37h27.25V194H450.5v18.4h20.93V215H450.5v18.39h24.65V236Z"/><path class="cls-1" d="M481.15,236l15.67-22.6-15.3-22h3.1l13.63,19.88,13.68-19.88H515l-15.3,22L515.4,236h-3.09l-14.06-20.44-14,20.44Z"/><path class="cls-2" d="M307.6,198.48l8.85,15.33-8.85,15.33H289.9L281,213.81l8.86-15.33h17.7m4.1-7.11H285.79l-13,22.44,13,22.44H311.7l13-22.44-13-22.44Z"/><path class="cls-1" d="M307.74,280.44a10.25,10.25,0,0,1-3.95-.75,9.88,9.88,0,0,1-3.2-2.08,9.67,9.67,0,0,1-2.12-3.14,10.26,10.26,0,0,1,0-7.75,9.53,9.53,0,0,1,2.12-3.13,9.7,9.7,0,0,1,3.19-2.09,10.27,10.27,0,0,1,4-.75,10.45,10.45,0,0,1,3.35.53,9.26,9.26,0,0,1,2.76,1.43l-.83,1.46a7.37,7.37,0,0,0-2.35-1.26,9.06,9.06,0,0,0-2.83-.43,8.44,8.44,0,0,0-3.3.62,8,8,0,0,0-2.61,1.72,7.82,7.82,0,0,0-1.7,2.59,8.62,8.62,0,0,0,0,6.37,7.69,7.69,0,0,0,4.31,4.31,8.44,8.44,0,0,0,3.3.62,9.06,9.06,0,0,0,2.83-.43A7.17,7.17,0,0,0,313,277l.83,1.47a9.79,9.79,0,0,1-2.75,1.42A10.43,10.43,0,0,1,307.74,280.44Z"/><path class="cls-1" d="M326.36,280.44a9.15,9.15,0,0,1-3.73-.76,9.49,9.49,0,0,1-3-2.11,10,10,0,0,1,0-13.95,9.49,9.49,0,0,1,3-2.11,9.51,9.51,0,0,1,7.45,0,9.53,9.53,0,0,1,3.05,2.11,10.06,10.06,0,0,1,0,13.95,9.53,9.53,0,0,1-3.05,2.11A9.1,9.1,0,0,1,326.36,280.44Zm0-1.69a7.37,7.37,0,0,0,3-.62,7.67,7.67,0,0,0,2.45-1.74,8,8,0,0,0,1.63-2.6,8.95,8.95,0,0,0,0-6.39,8,8,0,0,0-1.63-2.6,7.82,7.82,0,0,0-2.45-1.74,7.64,7.64,0,0,0-6,0,7.56,7.56,0,0,0-2.44,1.74,8,8,0,0,0-1.64,2.6,8.95,8.95,0,0,0,0,6.39,8,8,0,0,0,1.64,2.6,7.34,7.34,0,0,0,5.46,2.36Z"/><path class="cls-1" d="M341,280.07v-19h1.75l10.19,16v-16h1.75v19h-1.75l-10.19-16v16Z"/><path class="cls-1" d="M365.1,280.44a7.13,7.13,0,0,1-2.59-.44,7.41,7.41,0,0,1-1.89-1.07,8,8,0,0,1-1.24-1.23c-.31-.4-.53-.69-.65-.89l1-1.29q.21.32.63.87a7.8,7.8,0,0,0,1.07,1.1,6,6,0,0,0,1.58.94,5.4,5.4,0,0,0,2.13.39,5.18,5.18,0,0,0,2.1-.42,3.35,3.35,0,0,0,2.09-3.25,3.53,3.53,0,0,0-.39-1.72,3.69,3.69,0,0,0-1.1-1.2,8.74,8.74,0,0,0-1.61-.88q-.9-.39-1.89-.75-.69-.27-1.44-.63a7.06,7.06,0,0,1-1.41-.91,4.19,4.19,0,0,1-1.06-1.33,4,4,0,0,1-.41-1.88,5,5,0,0,1,.39-2,5.42,5.42,0,0,1,1.09-1.63,5.13,5.13,0,0,1,1.68-1.11,6,6,0,0,1,4.26,0,6.29,6.29,0,0,1,1.67.94,4.86,4.86,0,0,1,1.11,1.18l-.9,1.2a4.31,4.31,0,0,0-.89-1,4.88,4.88,0,0,0-1.36-.78,4.49,4.49,0,0,0-1.71-.31,3.72,3.72,0,0,0-2,.51,3.39,3.39,0,0,0-1.25,1.3,3.61,3.61,0,0,0-.42,1.69,2.63,2.63,0,0,0,.33,1.36,2.89,2.89,0,0,0,.89,1,6.39,6.39,0,0,0,1.21.67c.44.18.88.35,1.33.51.74.28,1.46.57,2.14.88a8.57,8.57,0,0,1,1.84,1.11,4.66,4.66,0,0,1,1.27,1.55,4.71,4.71,0,0,1,.47,2.21,4.91,4.91,0,0,1-3,4.72A7.37,7.37,0,0,1,365.1,280.44Z"/><path class="cls-1" d="M379,280.07V262.68h-5.78V261.1h13.33v1.58h-5.8v17.39Z"/><path class="cls-1" d="M390.87,280.07v-19h4.93a7.38,7.38,0,0,1,3.21.64,4.8,4.8,0,0,1,2.1,1.85,5.29,5.29,0,0,1,.75,2.87,5.57,5.57,0,0,1-.63,2.69,5,5,0,0,1-1.77,1.89,6.29,6.29,0,0,1-2.72.88l6.31,8.15h-2.22l-6.05-8h-2.16v8Zm1.75-9.51h2.76a5.81,5.81,0,0,0,2.5-.49,3.76,3.76,0,0,0,1.61-1.41,4,4,0,0,0,.57-2.16,3.63,3.63,0,0,0-1.24-2.92,5.16,5.16,0,0,0-3.44-1.06h-2.76Z"/><path class="cls-1" d="M413.25,280.44a6.4,6.4,0,0,1-4.93-1.79,7.71,7.71,0,0,1-1.65-5.37V261.1h1.75v11.8a6.72,6.72,0,0,0,1.2,4.37,5.28,5.28,0,0,0,7.25,0,6.72,6.72,0,0,0,1.2-4.37V261.1h1.76v12.18a7.71,7.71,0,0,1-1.65,5.37A6.39,6.39,0,0,1,413.25,280.44Z"/><path class="cls-1" d="M434,280.44a10.34,10.34,0,0,1-4-.75,9.84,9.84,0,0,1-3.19-2.08,9.73,9.73,0,0,1-2.88-7,9.8,9.8,0,0,1,.76-3.88,9.53,9.53,0,0,1,2.12-3.13,9.7,9.7,0,0,1,3.19-2.09,10.27,10.27,0,0,1,4-.75,10.5,10.5,0,0,1,3.35.53,9.26,9.26,0,0,1,2.76,1.43l-.83,1.46a7.47,7.47,0,0,0-2.35-1.26,9.06,9.06,0,0,0-2.83-.43,8.44,8.44,0,0,0-3.3.62,7.75,7.75,0,0,0-4.32,4.31,8.75,8.75,0,0,0,0,6.37,8,8,0,0,0,1.71,2.59,7.86,7.86,0,0,0,2.61,1.72,8.44,8.44,0,0,0,3.3.62,9.06,9.06,0,0,0,2.83-.43,7.28,7.28,0,0,0,2.35-1.26l.83,1.47a9.79,9.79,0,0,1-2.75,1.42A10.47,10.47,0,0,1,434,280.44Z"/><path class="cls-1" d="M448.2,280.07V262.68h-5.78V261.1h13.34v1.58H450v17.39Z"/><path class="cls-1" d="M460.11,280.07v-19h1.75v19Z"/><path class="cls-1" d="M476.45,280.44a9.14,9.14,0,0,1-3.72-.76,9.64,9.64,0,0,1-3.05-2.11,9.92,9.92,0,0,1-2.05-3.14,10.33,10.33,0,0,1,0-7.68,10,10,0,0,1,2.05-3.13,9.64,9.64,0,0,1,3.05-2.11,9.51,9.51,0,0,1,7.45,0,9.64,9.64,0,0,1,3.05,2.11,10.06,10.06,0,0,1,0,13.95,9.64,9.64,0,0,1-3.05,2.11A9.15,9.15,0,0,1,476.45,280.44Zm0-1.69a7.38,7.38,0,0,0,3-.62,7.63,7.63,0,0,0,2.44-1.74,8,8,0,0,0,1.64-2.6,8.95,8.95,0,0,0,0-6.39,8,8,0,0,0-1.64-2.6,7.78,7.78,0,0,0-2.44-1.74,7.64,7.64,0,0,0-6,0A7.6,7.6,0,0,0,471,264.8a8.21,8.21,0,0,0-1.64,2.6,8.95,8.95,0,0,0,0,6.39,8.21,8.21,0,0,0,1.64,2.6,7.45,7.45,0,0,0,2.45,1.74A7.37,7.37,0,0,0,476.45,278.75Z"/><path class="cls-1" d="M491.05,280.07v-19h1.75l10.18,16v-16h1.75v19H503l-10.18-16v16Z"/><path class="cls-1" d="M516.83,280.07v-19h4.28a9.71,9.71,0,0,1,3.75.72,9.34,9.34,0,0,1,3,2,9.46,9.46,0,0,1,2.77,6.76,9.39,9.39,0,0,1-.73,3.72,9.18,9.18,0,0,1-2,3,9.37,9.37,0,0,1-3,2,9.81,9.81,0,0,1-3.77.72Zm1.75-1.56H521a7.81,7.81,0,0,0,3.11-.61,7.63,7.63,0,0,0,4.18-4.19,8.12,8.12,0,0,0,.6-3.13,8,8,0,0,0-.6-3.11,7.77,7.77,0,0,0-7.29-4.81h-2.37Z"/><path class="cls-1" d="M533.82,280.07l7.47-19h1.62l7.47,19h-1.89L546.18,274H538l-2.34,6.05Zm4.79-7.59h7l-3.48-9.08Z"/><path class="cls-1" d="M557.6,280.07V262.68h-5.79V261.1h13.34v1.58h-5.8v17.39Z"/><path class="cls-1" d="M566.56,280.07l7.47-19h1.62l7.47,19h-1.89L578.92,274h-8.15l-2.34,6.05Zm4.79-7.59h7l-3.48-9.08Z"/><path class="cls-1" d="M299,320.07v-19h5.2a9.77,9.77,0,0,1,3.77.72,9.4,9.4,0,0,1,5.8,8.78,9.57,9.57,0,0,1-.72,3.73,9.29,9.29,0,0,1-5.08,5,9.77,9.77,0,0,1-3.77.72Zm3.72-3.33h1.07a6.19,6.19,0,0,0,2.38-.46A5.82,5.82,0,0,0,308,315a6,6,0,0,0,1.25-1.95,6.56,6.56,0,0,0,.45-2.46,6.5,6.5,0,0,0-.45-2.44,6,6,0,0,0-1.25-1.95,5.69,5.69,0,0,0-1.9-1.3,6.19,6.19,0,0,0-2.38-.46h-1.07Z"/><path class="cls-1" d="M318.64,320.07v-19h3.73v19Z"/><path class="cls-1" d="M336.64,320.44a8.93,8.93,0,0,1-3.65-.75,9.14,9.14,0,0,1-2.95-2.08,10,10,0,0,1-2-3.14,10.51,10.51,0,0,1-.71-3.89,10.72,10.72,0,0,1,.66-3.77,9.55,9.55,0,0,1,1.93-3.14,8.87,8.87,0,0,1,3-2.14,9.73,9.73,0,0,1,4-.78,12,12,0,0,1,4.92,1.09,9.81,9.81,0,0,1,2.09,1.3L342.19,306a6.86,6.86,0,0,0-2.42-1.44,8.22,8.22,0,0,0-2.8-.51,5.79,5.79,0,0,0-2.39.47,5,5,0,0,0-1.76,1.34,6.22,6.22,0,0,0-1.08,2,8.41,8.41,0,0,0-.37,2.51,8.22,8.22,0,0,0,.42,2.7,6.45,6.45,0,0,0,1.15,2.08,5.22,5.22,0,0,0,1.74,1.34,4.85,4.85,0,0,0,2.14.47,5.32,5.32,0,0,0,1.78-.3,4.84,4.84,0,0,0,1.52-.86,4.13,4.13,0,0,0,1.06-1.3,3.47,3.47,0,0,0,.39-1.63v-.29h-5v-2.89h8.78v2.88a7,7,0,0,1-.72,3.17,7.69,7.69,0,0,1-2,2.47,9.48,9.48,0,0,1-6.05,2.18Z"/><path class="cls-1" d="M350.28,320.07v-19H354v19Z"/><path class="cls-1" d="M361.91,320.07V304.39H357.1V301.1h13.34v3.29h-4.82v15.68Z"/><path class="cls-1" d="M371.14,320.07l7.62-19h3.47l7.61,19h-4l-1.61-4.32h-7.46l-1.61,4.32Zm6.9-7.59H383l-2.46-6.36Z"/><path class="cls-1" d="M393.81,320.07v-19h3.72v15.71h6.86v3.26Z"/><path class="cls-1" d="M408.57,320.07v-19h3.73v19Z"/><path class="cls-1" d="M423.12,320.44a9.89,9.89,0,0,1-2.44-.29,10.06,10.06,0,0,1-2-.74,9.87,9.87,0,0,1-1.51-.91,9.31,9.31,0,0,1-1-.83l1.9-3.08c.26.22.56.47.91.74a9.83,9.83,0,0,0,1.19.79,7,7,0,0,0,1.42.62,5.09,5.09,0,0,0,1.62.25,3.67,3.67,0,0,0,1.42-.25,2.19,2.19,0,0,0,1-.76,2.42,2.42,0,0,0,.06-2.4,2.74,2.74,0,0,0-.84-.86,8.94,8.94,0,0,0-1.37-.76l-1.84-.82a11.44,11.44,0,0,1-1.47-.79,6.53,6.53,0,0,1-1.24-1,4.51,4.51,0,0,1-.85-1.33,4.2,4.2,0,0,1-.32-1.66,5.16,5.16,0,0,1,.44-2.09,5.59,5.59,0,0,1,1.24-1.79,6.26,6.26,0,0,1,1.94-1.24,6.63,6.63,0,0,1,2.5-.46,7.76,7.76,0,0,1,2.07.28,9.85,9.85,0,0,1,1.93.72,7.82,7.82,0,0,1,1.52,1l-1.55,2.92a6.2,6.2,0,0,0-1.13-.76,6.53,6.53,0,0,0-1.33-.55,5,5,0,0,0-1.43-.21,3.07,3.07,0,0,0-1.39.29,2.12,2.12,0,0,0-.87.77,1.94,1.94,0,0,0-.31,1.06,1.51,1.51,0,0,0,.21.82,1.84,1.84,0,0,0,.56.59,6.63,6.63,0,0,0,.89.47l1.14.48c.89.37,1.69.74,2.41,1.11a9.38,9.38,0,0,1,1.86,1.23,4.58,4.58,0,0,1,1.17,1.57,5,5,0,0,1,.41,2.14,5.3,5.3,0,0,1-3.29,5.1A9,9,0,0,1,423.12,320.44Z"/><path class="cls-1" d="M435,320.07v-19h10.56v3.26h-6.84v4.57h6.56v3.26h-6.56v4.62h6.84v3.26Z"/><path class="cls-1" d="M451.26,320.07v-19h5.21a9.72,9.72,0,0,1,3.76.72,9.27,9.27,0,0,1,3,2,9.37,9.37,0,0,1,2,3,9.58,9.58,0,0,1,.73,3.73,9.4,9.4,0,0,1-.73,3.73,9.25,9.25,0,0,1-2,3,9.37,9.37,0,0,1-3,2,9.81,9.81,0,0,1-3.77.72Zm3.73-3.33h1.07a6.23,6.23,0,0,0,2.38-.46,5.67,5.67,0,0,0,1.89-1.29,5.85,5.85,0,0,0,1.26-1.95,6.56,6.56,0,0,0,.45-2.46,6.5,6.5,0,0,0-.45-2.44,5.85,5.85,0,0,0-1.26-1.95,5.55,5.55,0,0,0-1.89-1.3,6.23,6.23,0,0,0-2.38-.46H455Z"/><path class="cls-3" d="M200.57,63l20.78,36-20.78,36H159L138.29,99,159,63h41.53m2.77-4.77h-47L132.78,99l23.52,40.74h47L226.86,99Z"/><path class="cls-3" d="M180.64,139h-24l-12-20.83,12-20.83h24l12,20.83Zm-22.13-3.33h20.21l10.1-17.5-10.1-17.5H158.51l-10.1,17.5Z"/><path class="cls-3" d="M180.64,100.63h-24l-12-20.83,12-20.83h24l12,20.83ZM158.51,97.3h20.21l10.1-17.5-10.1-17.5H158.51l-10.1,17.5Z"/><path class="cls-3" d="M214,119.82H189.92L177.9,99l12-20.83H214L226,99Zm-22.13-3.33h20.2L222.15,99l-10.1-17.5h-20.2L181.74,99Z"/><path class="cls-3" d="M134.15,24.67l20.77,36-20.77,36H92.61l-20.75-36,20.75-36h41.54m2.76-4.76h-47L66.36,60.65,89.87,101.4h47l23.52-40.75Z"/><path class="cls-3" d="M114.21,100.62h-24l-12-20.83L90.16,59h24l12,20.83ZM92.08,97.29h20.21l10.1-17.5L112.29,62.3H92.08L82,79.79Z"/><path class="cls-3" d="M114.21,62.3h-24l-12-20.84,12-20.83h24l12,20.83ZM92.08,59h20.21l10.1-17.5L112.29,24H92.08L82,41.46Z"/><path class="cls-3" d="M147.55,81.48H123.49l-12-20.83,12-20.83h24.06l12,20.83Zm-22.13-3.33h20.2l10.11-17.5-10.11-17.5h-20.2l-10.1,17.5Z"/><path class="cls-3" d="M267.07,101.41l20.78,36-20.78,36H225.54l-20.76-36,20.76-36h41.53m2.76-4.77h-47l-23.52,40.75,23.52,40.75h47l23.52-40.75Z"/><path class="cls-3" d="M247.14,177.36H223.08l-12-20.83,12-20.83h24.06l12,20.83ZM225,174h20.2l10.11-17.5L245.21,139H225l-10.1,17.49Z"/><path class="cls-3" d="M247.14,139H223.08l-12-20.84,12-20.83h24.06l12,20.83ZM225,135.7h20.2l10.11-17.5-10.11-17.49H225l-10.1,17.49Z"/><path class="cls-3" d="M280.47,158.22H256.42l-12-20.83,12-20.83h24.05l12,20.83Zm-22.13-3.33h20.21l10.1-17.5-10.1-17.5H258.34l-10.1,17.5Z"/><path class="cls-3" d="M277.6,4.77l20.78,36-20.78,36H236.07l-20.75-36,20.75-36H277.6M280.37,0h-47L209.81,40.75l23.52,40.74h47l23.51-40.74Z"/><path class="cls-3" d="M257.67,80.72H233.62l-12-20.83,12-20.83h24.05l12,20.83Zm-22.13-3.33h20.2l10.11-17.5-10.11-17.5h-20.2l-10.1,17.5Z"/><path class="cls-3" d="M257.67,42.39H233.62l-12-20.83,12-20.83h24.05l12,20.83Zm-22.13-3.33h20.2l10.11-17.5L255.74,4.06h-20.2l-10.1,17.5Z"/><path class="cls-3" d="M291,61.58H267l-12-20.83,12-20.84H291l12,20.84Zm-22.13-3.34h20.21l10.1-17.49-10.1-17.5H268.87l-10.1,17.5Z"/><path class="cls-3" d="M200.57,139.73l20.78,36-20.78,36H159l-20.75-36,20.75-36h41.53m2.77-4.76h-47l-23.52,40.74,23.52,40.75h47l23.52-40.75Z"/><path class="cls-3" d="M180.64,215.69h-24l-12-20.83,12-20.83h24l12,20.83Zm-22.13-3.34h20.21l10.1-17.49-10.1-17.5H158.51l-10.1,17.5Z"/><path class="cls-3" d="M180.64,177.36h-24l-12-20.83,12-20.83h24l12,20.83ZM158.51,174h20.21l10.1-17.5L178.72,139H158.51l-10.1,17.5Z"/><path class="cls-3" d="M214,196.55H189.92l-12-20.84,12-20.83H214l12,20.83Zm-22.13-3.34h20.2l10.1-17.5-10.1-17.49h-20.2l-10.11,17.49Z"/><path class="cls-3" d="M200.85,216.46l20.78,36-20.78,36H159.32l-20.76-36,20.76-36h41.53m2.76-4.77h-47l-23.52,40.75,23.52,40.75h47l23.52-40.75Z"/><path class="cls-3" d="M180.92,292.41H156.86l-12-20.83,12-20.83h24.06l12,20.83Zm-22.13-3.33H179l10.11-17.5L179,254.08h-20.2l-10.1,17.5Z"/><path class="cls-3" d="M180.92,254.08H156.86l-12-20.83,12-20.83h24.06l12,20.83Zm-22.13-3.33H179l10.11-17.5L179,215.76h-20.2l-10.1,17.49Z"/><path class="cls-3" d="M214.25,273.27H190.2l-12-20.83,12-20.83h24.05l12,20.83Zm-22.13-3.33h20.21l10.1-17.5-10.1-17.5H192.12L182,252.44Z"/><path class="cls-3" d="M266.94,254.37l20.77,36-20.77,36H225.4l-20.75-36,20.75-36h41.54m2.76-4.77h-47l-23.51,40.75,23.51,40.74h47l23.52-40.74Z"/><path class="cls-3" d="M247,330.32H223l-12-20.83,12-20.83H247l12,20.83ZM224.87,327h20.21l10.1-17.5L245.08,292H224.87l-10.1,17.5Z"/><path class="cls-3" d="M247,292H223l-12-20.83,12-20.83H247l12,20.83Zm-22.13-3.33h20.21l10.1-17.5-10.1-17.5H224.87l-10.1,17.5Z"/><path class="cls-3" d="M280.34,311.18H256.28l-12-20.83,12-20.83h24.06l12,20.83Zm-22.13-3.33h20.2l10.1-17.5-10.1-17.5h-20.2l-10.1,17.5Z"/><path class="cls-3" d="M134.36,178.39l20.78,36-20.78,36H92.83l-20.76-36,20.76-36h41.53m2.76-4.77h-47L66.57,214.37l23.52,40.74h47l23.52-40.74Z"/><path class="cls-3" d="M114.43,254.34H90.37l-12-20.83,12-20.83h24.06l12,20.83ZM92.3,251h20.2l10.1-17.5L112.5,216H92.3l-10.1,17.5Z"/><path class="cls-3" d="M114.43,216H90.37l-12-20.83,12-20.83h24.06l12,20.83ZM92.3,212.68h20.2l10.1-17.5-10.1-17.5H92.3l-10.1,17.5Z"/><path class="cls-3" d="M147.76,235.2h-24l-12-20.83,12-20.83h24l12,20.83Zm-22.13-3.34h20.21l10.1-17.49-10.1-17.5H125.63l-10.1,17.5Z"/><path class="cls-3" d="M67.79,63.13l20.78,36-20.78,36H26.26L5.5,99.11l20.76-36H67.79m2.76-4.77h-47L0,99.11l23.52,40.75h47L94.07,99.11Z"/><path class="cls-3" d="M47.86,139.08H23.8l-12-20.83,12-20.83H47.86l12,20.83Zm-22.13-3.33h20.2L56,118.25l-10.11-17.5H25.73l-10.1,17.5Z"/><path class="cls-3" d="M47.86,100.75H23.8l-12-20.83,12-20.83H47.86l12,20.83ZM25.73,97.42h20.2L56,79.92,45.93,62.43H25.73L15.63,79.92Z"/><path class="cls-3" d="M81.19,119.94h-24l-12-20.83,12-20.83h24l12,20.83Zm-22.13-3.33H79.27l10.1-17.5-10.1-17.5H59.06L49,99.11Z"/></g></g></svg>