<svg xmlns="http://www.w3.org/2000/svg" viewBox="0 0 489.93 21.4"><defs><style>.cls-1{fill:#f5f7f5;}</style></defs><g id="Layer_2" data-name="Layer 2"><g id="Layer_1-2" data-name="Layer 1"><path class="cls-1" d="M10.9,21.4a11.27,11.27,0,0,1-4.3-.81A10.5,10.5,0,0,1,.82,14.91,10.68,10.68,0,0,1,0,10.7,10.68,10.68,0,0,1,.82,6.49,10.55,10.55,0,0,1,3.13,3.08,10.66,10.66,0,0,1,6.59.81,11.29,11.29,0,0,1,10.9,0a11.42,11.42,0,0,1,3.64.57,10.64,10.64,0,0,1,3,1.55l-.9,1.59a8.21,8.21,0,0,0-2.55-1.36A9.74,9.74,0,0,0,11,1.88a9.29,9.29,0,0,0-3.59.67A8.57,8.57,0,0,0,4.59,4.42,8.45,8.45,0,0,0,2.73,7.24a9,9,0,0,0-.66,3.46,9,9,0,0,0,.66,3.46,8.52,8.52,0,0,0,4.69,4.69,9.3,9.3,0,0,0,3.59.68,9.74,9.74,0,0,0,3.08-.48,8.21,8.21,0,0,0,2.55-1.36l.9,1.59a11.06,11.06,0,0,1-3,1.55A11.41,11.41,0,0,1,10.9,21.4Z"/><path class="cls-1" d="M31.14,21.4a10.14,10.14,0,0,1-4.05-.82,10.36,10.36,0,0,1-3.32-2.3,10.77,10.77,0,0,1-2.23-3.41,10.94,10.94,0,0,1-.8-4.17,10.75,10.75,0,0,1,3-7.58A10.33,10.33,0,0,1,27.09.83a10.3,10.3,0,0,1,8.1,0A10.29,10.29,0,0,1,38.5,3.12a10.81,10.81,0,0,1,3,7.58,10.81,10.81,0,0,1-3,7.58,10.32,10.32,0,0,1-3.31,2.3A10.18,10.18,0,0,1,31.14,21.4Zm0-1.84a7.94,7.94,0,0,0,3.27-.67A8.18,8.18,0,0,0,37.07,17a8.88,8.88,0,0,0,1.78-2.83,9.75,9.75,0,0,0,0-6.95A9,9,0,0,0,37.07,4.4a8.18,8.18,0,0,0-2.66-1.89,8.34,8.34,0,0,0-6.55,0A8.08,8.08,0,0,0,25.2,4.4a9,9,0,0,0-1.78,2.82,9.32,9.32,0,0,0-.65,3.48,9.23,9.23,0,0,0,.65,3.47A8.88,8.88,0,0,0,25.2,17a8.08,8.08,0,0,0,2.66,1.89A8,8,0,0,0,31.14,19.56Z"/><path class="cls-1" d="M47,21V.38h1.9L60,17.76V.38h1.9V21H60L48.9,3.64V21Z"/><path class="cls-1" d="M73.25,21.4a7.55,7.55,0,0,1-2.81-.48,7.92,7.92,0,0,1-2.06-1.16A8.55,8.55,0,0,1,67,18.42c-.34-.43-.57-.75-.71-1l1.09-1.4c.15.23.38.55.68.94a8.17,8.17,0,0,0,1.17,1.2,6.54,6.54,0,0,0,1.71,1,6,6,0,0,0,2.32.42,5.66,5.66,0,0,0,2.28-.45,3.88,3.88,0,0,0,1.65-1.34,3.69,3.69,0,0,0,.63-2.2,3.75,3.75,0,0,0-.43-1.87,4,4,0,0,0-1.2-1.31,9.84,9.84,0,0,0-1.74-1c-.65-.28-1.34-.55-2.06-.82-.5-.19-1-.42-1.56-.68a7.21,7.21,0,0,1-1.54-1,4.63,4.63,0,0,1-1.15-1.44,4.34,4.34,0,0,1-.45-2,5.48,5.48,0,0,1,.43-2.13,5.69,5.69,0,0,1,1.19-1.77A5.35,5.35,0,0,1,71.16.44,6.15,6.15,0,0,1,73.51,0a6.25,6.25,0,0,1,2.28.41,7.27,7.27,0,0,1,1.82,1,5.26,5.26,0,0,1,1.2,1.28L77.84,4a4.74,4.74,0,0,0-1-1.11,5.4,5.4,0,0,0-1.47-.85,5.06,5.06,0,0,0-1.87-.33,4,4,0,0,0-2.16.55A3.63,3.63,0,0,0,70,3.71a3.82,3.82,0,0,0-.46,1.83A2.91,2.91,0,0,0,69.9,7a3.36,3.36,0,0,0,1,1,7,7,0,0,0,1.32.72l1.44.56c.81.3,1.59.62,2.34.95a9.74,9.74,0,0,1,2,1.2,5.41,5.41,0,0,1,1.39,1.69,5.23,5.23,0,0,1,.51,2.41A5.48,5.48,0,0,1,79,18.74a5.66,5.66,0,0,1-2.36,2A8,8,0,0,1,73.25,21.4Z"/><path class="cls-1" d="M88.31,21V2.1H82V.38h14.5V2.1H90.21V21Z"/><path class="cls-1" d="M101.26,21V.38h5.35a8,8,0,0,1,3.5.7,5.24,5.24,0,0,1,2.28,2,5.8,5.8,0,0,1,.81,3.12,6.12,6.12,0,0,1-.68,2.93,5.42,5.42,0,0,1-1.93,2,6.81,6.81,0,0,1-3,1L114.5,21h-2.41l-6.58-8.69h-2.35V21Zm1.9-10.34h3a6.24,6.24,0,0,0,2.71-.54,3.94,3.94,0,0,0,1.76-1.53,4.35,4.35,0,0,0,.62-2.34,3.93,3.93,0,0,0-1.35-3.17,5.58,5.58,0,0,0-3.74-1.16h-3Z"/><path class="cls-1" d="M125.59,21.4a6.92,6.92,0,0,1-5.36-1.95c-1.2-1.3-1.79-3.25-1.79-5.84V.38h1.9V13.2a7.33,7.33,0,0,0,1.3,4.76,5.73,5.73,0,0,0,7.88,0,7.33,7.33,0,0,0,1.3-4.76V.38h1.92V13.61q0,3.88-1.8,5.84A6.91,6.91,0,0,1,125.59,21.4Z"/><path class="cls-1" d="M148.15,21.4a11.27,11.27,0,0,1-4.3-.81,10.6,10.6,0,0,1-3.47-2.27,10.4,10.4,0,0,1-2.31-3.41,10.68,10.68,0,0,1-.82-4.21,10.68,10.68,0,0,1,.82-4.21,10.4,10.4,0,0,1,2.31-3.41A10.66,10.66,0,0,1,143.84.81,11.29,11.29,0,0,1,148.15,0a11.42,11.42,0,0,1,3.64.57,10.64,10.64,0,0,1,3,1.55l-.91,1.59a8,8,0,0,0-2.55-1.36,9.67,9.67,0,0,0-3.07-.47,9.26,9.26,0,0,0-3.59.67A8.36,8.36,0,0,0,140,7.24a9,9,0,0,0-.66,3.46,9,9,0,0,0,.66,3.46,8.44,8.44,0,0,0,4.69,4.69,9.26,9.26,0,0,0,3.59.68,9.68,9.68,0,0,0,3.07-.48,8,8,0,0,0,2.55-1.36l.91,1.59a11,11,0,0,1-3,1.55A11.35,11.35,0,0,1,148.15,21.4Z"/><path class="cls-1" d="M163.57,21V2.1h-6.28V.38h14.5V2.1h-6.32V21Z"/><path class="cls-1" d="M176.52,21V.38h1.9V21Z"/><path class="cls-1" d="M194.28,21.4a10.18,10.18,0,0,1-4.05-.82,10.43,10.43,0,0,1-3.31-2.3,10.81,10.81,0,0,1-3-7.58,10.81,10.81,0,0,1,3-7.58A10.4,10.4,0,0,1,190.23.83a10.3,10.3,0,0,1,8.1,0,10.33,10.33,0,0,1,3.32,2.29,10.75,10.75,0,0,1,3,7.58,10.75,10.75,0,0,1-3,7.58,10.36,10.36,0,0,1-3.32,2.3A10.11,10.11,0,0,1,194.28,21.4Zm0-1.84a8,8,0,0,0,3.28-.67A8.29,8.29,0,0,0,200.22,17,8.88,8.88,0,0,0,202,14.17a9.43,9.43,0,0,0,.63-3.47A9.52,9.52,0,0,0,202,7.22a9,9,0,0,0-1.78-2.82,8.29,8.29,0,0,0-2.66-1.89,8.36,8.36,0,0,0-6.56,0,8,8,0,0,0-2.65,1.89,8.78,8.78,0,0,0-1.78,2.82,9.32,9.32,0,0,0-.65,3.48,9.23,9.23,0,0,0,.65,3.47A8.71,8.71,0,0,0,188.35,17a8,8,0,0,0,5.93,2.56Z"/><path class="cls-1" d="M210.15,21V.38h1.9l11.07,17.38V.38H225V21h-1.9L212.05,3.64V21Z"/><path class="cls-1" d="M238.17,21V.38h4.65a10.59,10.59,0,0,1,4.08.78,10.2,10.2,0,0,1,5.52,5.48,10.28,10.28,0,0,1,.8,4.06,10.26,10.26,0,0,1-.79,4.05,10.07,10.07,0,0,1-2.2,3.28,10.17,10.17,0,0,1-3.31,2.19,10.69,10.69,0,0,1-4.1.78Zm1.9-1.7h2.58a8.6,8.6,0,0,0,3.38-.66,8.39,8.39,0,0,0,2.72-1.82,8.26,8.26,0,0,0,1.82-2.74,8.82,8.82,0,0,0,.65-3.39,8.79,8.79,0,0,0-.65-3.39A8.4,8.4,0,0,0,246,2.73a8.58,8.58,0,0,0-3.37-.65h-2.58Z"/><path class="cls-1" d="M256.63,21,264.76.38h1.76L274.63,21h-2.05l-2.51-6.58h-8.86L258.67,21Zm5.22-8.25h7.57l-3.79-9.87Z"/><path class="cls-1" d="M282.48,21V2.1H276.2V.38h14.5V2.1h-6.32V21Z"/><path class="cls-1" d="M292.22,21,300.34.38h1.77L310.22,21h-2.05l-2.51-6.58h-8.87L294.26,21Zm5.21-8.25H305l-3.79-9.87Z"/><path class="cls-1" d="M320.82,21V.38h5.66a10.6,10.6,0,0,1,4.09.78,10.17,10.17,0,0,1,5.52,5.49,10.26,10.26,0,0,1,.79,4,10.28,10.28,0,0,1-.79,4.06,10.1,10.1,0,0,1-5.51,5.46,10.69,10.69,0,0,1-4.1.78Zm4.05-3.62H326a6.68,6.68,0,0,0,2.59-.5,6.15,6.15,0,0,0,2.06-1.41A6.28,6.28,0,0,0,332,13.36a7.08,7.08,0,0,0,.49-2.67A7,7,0,0,0,332,8a6.43,6.43,0,0,0-1.36-2.12,6,6,0,0,0-2.06-1.41A6.68,6.68,0,0,0,326,4h-1.16Z"/><path class="cls-1" d="M341,21V.38h4V21Z"/><path class="cls-1" d="M359.28,21.4a9.7,9.7,0,0,1-7.17-3.08A10.46,10.46,0,0,1,350,14.91a11.27,11.27,0,0,1-.78-4.22,11.47,11.47,0,0,1,.73-4.11A10.29,10.29,0,0,1,352,3.17,9.7,9.7,0,0,1,355.28.84,10.69,10.69,0,0,1,359.59,0a13,13,0,0,1,5.35,1.18,10.31,10.31,0,0,1,2.28,1.42l-1.9,3.14a7.52,7.52,0,0,0-2.63-1.57,9,9,0,0,0-3.05-.56,6.25,6.25,0,0,0-2.6.52,5.3,5.3,0,0,0-1.91,1.46A6.4,6.4,0,0,0,354,7.78a8.88,8.88,0,0,0-.4,2.73,9,9,0,0,0,.45,2.93,7.06,7.06,0,0,0,1.25,2.26,5.66,5.66,0,0,0,1.89,1.46,5.4,5.4,0,0,0,2.33.51,5.71,5.71,0,0,0,1.93-.33,5.39,5.39,0,0,0,1.66-.93A4.58,4.58,0,0,0,364.22,15a3.8,3.8,0,0,0,.42-1.78v-.31h-5.41V9.78h9.54V12.9a7.53,7.53,0,0,1-.78,3.44A8.3,8.3,0,0,1,365.86,19a9.94,9.94,0,0,1-3.05,1.75A10.33,10.33,0,0,1,359.28,21.4Z"/><path class="cls-1" d="M372.86,21V.38h4.05V21Z"/><path class="cls-1" d="M384.24,21V4H379V.38h14.5V4h-5.24V21Z"/><path class="cls-1" d="M393,21,401.32.38h3.76L413.36,21H409l-1.75-4.7h-8.11L397.39,21Zm7.5-8.25h5.34L403.2,5.84Z"/><path class="cls-1" d="M416.42,21V.38h4.05V17.45h7.45V21Z"/><path class="cls-1" d="M431.22,21V.38h4V21Z"/><path class="cls-1" d="M445.78,21.4a10.52,10.52,0,0,1-2.65-.32,11,11,0,0,1-2.17-.8,11.64,11.64,0,0,1-1.64-1,11.12,11.12,0,0,1-1.09-.9L440.31,15c.27.24.6.51,1,.81a11.56,11.56,0,0,0,1.29.86,8.33,8.33,0,0,0,1.55.67,5.64,5.64,0,0,0,1.76.27,4.13,4.13,0,0,0,1.55-.27,2.49,2.49,0,0,0,1.06-.82,2.37,2.37,0,0,0,.38-1.36,2.4,2.4,0,0,0-.31-1.26,3.24,3.24,0,0,0-.92-.93,9.55,9.55,0,0,0-1.49-.83c-.58-.27-1.25-.57-2-.89a12.91,12.91,0,0,1-1.6-.86,6.59,6.59,0,0,1-1.34-1.12,5,5,0,0,1-.93-1.44,4.56,4.56,0,0,1-.35-1.81,5.54,5.54,0,0,1,.48-2.27,6,6,0,0,1,1.36-1.94A6.32,6.32,0,0,1,443.88.5a7.11,7.11,0,0,1,2.71-.5,8.7,8.7,0,0,1,2.25.3,10.72,10.72,0,0,1,2.1.79,8.09,8.09,0,0,1,1.65,1.06l-1.68,3.18a7.3,7.3,0,0,0-1.22-.84,8,8,0,0,0-1.45-.59,5.51,5.51,0,0,0-1.56-.23,3.26,3.26,0,0,0-1.5.32,2.28,2.28,0,0,0-.95.83A2,2,0,0,0,443.89,6a1.79,1.79,0,0,0,.22.9,2.21,2.21,0,0,0,.62.64,6.09,6.09,0,0,0,1,.51l1.24.52c1,.41,1.84.81,2.63,1.21a9.88,9.88,0,0,1,2,1.33,5.06,5.06,0,0,1,1.28,1.71,5.49,5.49,0,0,1,.44,2.32,5.94,5.94,0,0,1-.94,3.39,6,6,0,0,1-2.63,2.16A9.82,9.82,0,0,1,445.78,21.4Z"/><path class="cls-1" d="M457.44,21V.38h11.48V3.92h-7.43v5h7.13v3.55h-7.13v5h7.43V21Z"/><path class="cls-1" d="M473.87,21V.38h5.66a10.6,10.6,0,0,1,4.09.78,10.17,10.17,0,0,1,5.52,5.49,10.26,10.26,0,0,1,.79,4,10.28,10.28,0,0,1-.79,4.06,10.08,10.08,0,0,1-5.52,5.46,10.6,10.6,0,0,1-4.09.78Zm4.05-3.62h1.16a6.68,6.68,0,0,0,2.59-.5,6.15,6.15,0,0,0,2.06-1.41,6.28,6.28,0,0,0,1.36-2.11,7.08,7.08,0,0,0,.49-2.67A7,7,0,0,0,485.09,8a6.43,6.43,0,0,0-1.36-2.12,6,6,0,0,0-2.06-1.41,6.68,6.68,0,0,0-2.59-.5h-1.16Z"/></g></g></svg>