<svg xmlns="http://www.w3.org/2000/svg" viewBox="0 0 285.4 59.69"><defs><style>.cls-1{fill:#f5f7f5;}</style></defs><g id="Layer_2" data-name="Layer 2"><g id="Layer_1-2" data-name="Layer 1"><path class="cls-1" d="M10,19.69a10.34,10.34,0,0,1-4-.75,9.7,9.7,0,0,1-3.19-2.09A9.38,9.38,0,0,1,.76,13.72,9.8,9.8,0,0,1,0,9.84,9.79,9.79,0,0,1,.76,6,9.52,9.52,0,0,1,2.88,2.83,9.84,9.84,0,0,1,6.07.75,10.27,10.27,0,0,1,10,0a10.39,10.39,0,0,1,3.34.52A9.27,9.27,0,0,1,16.13,2l-.82,1.46A7.28,7.28,0,0,0,13,2.16a9.06,9.06,0,0,0-2.83-.43,8.44,8.44,0,0,0-3.3.62A7.76,7.76,0,0,0,4.22,4.07,7.85,7.85,0,0,0,2.51,6.66a8.41,8.41,0,0,0-.6,3.18A8.42,8.42,0,0,0,2.51,13a7.75,7.75,0,0,0,4.32,4.31,8.44,8.44,0,0,0,3.3.62A9.06,9.06,0,0,0,13,17.53a7.28,7.28,0,0,0,2.35-1.26l.82,1.46a9.5,9.5,0,0,1-2.74,1.43A10.47,10.47,0,0,1,10,19.69Z"/><path class="cls-1" d="M28.65,19.69a9.15,9.15,0,0,1-3.73-.76,9.64,9.64,0,0,1-3.05-2.11,9.93,9.93,0,0,1-2.79-7,9.89,9.89,0,0,1,2.79-7A9.64,9.64,0,0,1,24.92.76a9.51,9.51,0,0,1,7.45,0,9.64,9.64,0,0,1,3.05,2.11,10,10,0,0,1,2,3.13,9.81,9.81,0,0,1,.74,3.84,9.81,9.81,0,0,1-.74,3.84,9.92,9.92,0,0,1-2,3.14,9.64,9.64,0,0,1-3.05,2.11A9.14,9.14,0,0,1,28.65,19.69Zm0-1.69a7.37,7.37,0,0,0,3-.62,7.67,7.67,0,0,0,2.44-1.74A8,8,0,0,0,35.74,13a8.63,8.63,0,0,0,.59-3.2,8.61,8.61,0,0,0-.59-3.19,8,8,0,0,0-1.64-2.6,7.52,7.52,0,0,0-2.44-1.74,7.64,7.64,0,0,0-6,0,7.56,7.56,0,0,0-2.45,1.74,8.39,8.39,0,0,0-1.64,2.6A8.61,8.61,0,0,0,21,9.84a8.63,8.63,0,0,0,.59,3.2,8.39,8.39,0,0,0,1.64,2.6,7.71,7.71,0,0,0,2.45,1.74A7.38,7.38,0,0,0,28.65,18Z"/><path class="cls-1" d="M43.24,19.32V.35H45l10.19,16V.35h1.74v19H55.18L45,3.35v16Z"/><path class="cls-1" d="M67.39,19.69a7.1,7.1,0,0,1-2.59-.44,7.72,7.72,0,0,1-1.89-1.07A7.59,7.59,0,0,1,61.67,17a10.75,10.75,0,0,1-.65-.9l1-1.28c.14.21.35.5.63.86a6.48,6.48,0,0,0,1.07,1.11,6.06,6.06,0,0,0,1.58.94,5.38,5.38,0,0,0,2.12.39,5.11,5.11,0,0,0,2.1-.42,3.5,3.5,0,0,0,1.53-1.23,3.44,3.44,0,0,0,.57-2,3.39,3.39,0,0,0-.4-1.72,3.66,3.66,0,0,0-1.09-1.2,8.48,8.48,0,0,0-1.61-.88c-.6-.26-1.23-.51-1.89-.76-.46-.17-.94-.38-1.44-.62a6.54,6.54,0,0,1-1.41-.91A4.36,4.36,0,0,1,62.71,7a4.06,4.06,0,0,1-.4-1.89,5,5,0,0,1,.39-1.95A5,5,0,0,1,65.47.4a6.06,6.06,0,0,1,4.25,0,6.5,6.5,0,0,1,1.68,1A4.86,4.86,0,0,1,72.51,2.5l-.9,1.2a4.17,4.17,0,0,0-.9-1,5,5,0,0,0-1.35-.79,4.74,4.74,0,0,0-1.72-.3,3.79,3.79,0,0,0-2,.5A3.41,3.41,0,0,0,64.4,3.41,3.56,3.56,0,0,0,64,5.09a2.56,2.56,0,0,0,.34,1.37,2.85,2.85,0,0,0,.88,1,5.93,5.93,0,0,0,1.22.66c.44.19.88.36,1.32.52.75.28,1.46.57,2.15.88a8.88,8.88,0,0,1,1.83,1.1,4.52,4.52,0,0,1,1.75,3.77,5.12,5.12,0,0,1-.8,2.9,5.18,5.18,0,0,1-2.18,1.82A7.29,7.29,0,0,1,67.39,19.69Z"/><path class="cls-1" d="M81.25,19.32V1.93H75.46V.35H88.8V1.93H83V19.32Z"/><path class="cls-1" d="M93.16,19.32V.35h4.92A7.43,7.43,0,0,1,101.3,1a4.78,4.78,0,0,1,2.1,1.84,5.33,5.33,0,0,1,.74,2.87,5.72,5.72,0,0,1-.62,2.7,5,5,0,0,1-1.77,1.89,6.29,6.29,0,0,1-2.72.88l6.31,8.15h-2.22l-6.05-8H94.91v8Zm1.75-9.51h2.76a5.76,5.76,0,0,0,2.49-.49,3.73,3.73,0,0,0,1.62-1.41,4,4,0,0,0,.57-2.16,3.66,3.66,0,0,0-1.24-2.92,5.13,5.13,0,0,0-3.44-1.06H94.91Z"/><path class="cls-1" d="M115.54,19.69a6.36,6.36,0,0,1-4.93-1.8A7.67,7.67,0,0,1,109,12.52V.35h1.75V12.14a6.73,6.73,0,0,0,1.2,4.38,5.28,5.28,0,0,0,7.25,0,6.73,6.73,0,0,0,1.2-4.38V.35h1.76V12.52a7.67,7.67,0,0,1-1.65,5.37A6.37,6.37,0,0,1,115.54,19.69Z"/><path class="cls-1" d="M136.3,19.69a10.34,10.34,0,0,1-4-.75,9.7,9.7,0,0,1-3.19-2.09A9.38,9.38,0,0,1,127,13.72a9.8,9.8,0,0,1-.76-3.88A9.79,9.79,0,0,1,127,6a9.52,9.52,0,0,1,2.12-3.14A9.9,9.9,0,0,1,132.33.75a10.93,10.93,0,0,1,7.31-.23A9.27,9.27,0,0,1,142.4,2l-.82,1.46a7.28,7.28,0,0,0-2.35-1.26,9.06,9.06,0,0,0-2.83-.43,8.49,8.49,0,0,0-3.31.62,7.77,7.77,0,0,0-4.31,4.31,8.41,8.41,0,0,0-.6,3.18,8.42,8.42,0,0,0,.6,3.19,7.7,7.7,0,0,0,1.71,2.59,7.87,7.87,0,0,0,2.6,1.72,8.49,8.49,0,0,0,3.31.62,9.06,9.06,0,0,0,2.83-.43,7.28,7.28,0,0,0,2.35-1.26l.82,1.46a9.5,9.5,0,0,1-2.74,1.43A10.47,10.47,0,0,1,136.3,19.69Z"/><path class="cls-1" d="M150.49,19.32V1.93H144.7V.35H158V1.93h-5.81V19.32Z"/><path class="cls-1" d="M162.4,19.32V.35h1.75v19Z"/><path class="cls-1" d="M178.74,19.69a9.1,9.1,0,0,1-3.72-.76A9.53,9.53,0,0,1,172,16.82a9.75,9.75,0,0,1-2.05-3.14,9.81,9.81,0,0,1-.75-3.84,10,10,0,0,1,2.8-7A9.53,9.53,0,0,1,175,.76a9.51,9.51,0,0,1,7.45,0,9.6,9.6,0,0,1,3,2.11,10,10,0,0,1,0,14,9.6,9.6,0,0,1-3,2.11A9.15,9.15,0,0,1,178.74,19.69Zm0-1.69a7.34,7.34,0,0,0,3-.62,7.71,7.71,0,0,0,2.45-1.74,8,8,0,0,0,1.64-2.6,8.62,8.62,0,0,0,.58-3.2,8.61,8.61,0,0,0-.58-3.19,8,8,0,0,0-1.64-2.6,7.56,7.56,0,0,0-2.45-1.74,7.34,7.34,0,0,0-3-.62,7.42,7.42,0,0,0-3,.62,7.52,7.52,0,0,0-2.44,1.74,8.21,8.21,0,0,0-1.64,2.6,8.61,8.61,0,0,0-.59,3.19,8.63,8.63,0,0,0,.59,3.2,8.21,8.21,0,0,0,1.64,2.6,7.67,7.67,0,0,0,2.44,1.74A7.42,7.42,0,0,0,178.74,18Z"/><path class="cls-1" d="M193.33,19.32V.35h1.75l10.19,16V.35H207v19h-1.75l-10.19-16v16Z"/><path class="cls-1" d="M219.12,19.32V.35h4.28a9.71,9.71,0,0,1,3.75.72,9.41,9.41,0,0,1,5.08,5A9.4,9.4,0,0,1,233,9.84a9.57,9.57,0,0,1-.72,3.73,9.18,9.18,0,0,1-2,3,9.42,9.42,0,0,1-3.05,2,9.72,9.72,0,0,1-3.76.72Zm1.75-1.56h2.37a8,8,0,0,0,3.11-.61A7.8,7.8,0,0,0,230.53,13a8.3,8.3,0,0,0,.59-3.13,8.13,8.13,0,0,0-.59-3.11,7.81,7.81,0,0,0-4.19-4.21,8,8,0,0,0-3.1-.6h-2.37Z"/><path class="cls-1" d="M236.1,19.32l7.48-19h1.62l7.46,19h-1.88l-2.31-6.05h-8.16L238,19.32Zm4.8-7.59h7l-3.49-9.08Z"/><path class="cls-1" d="M259.89,19.32V1.93H254.1V.35h13.34V1.93h-5.81V19.32Z"/><path class="cls-1" d="M268.84,19.32l7.48-19h1.62l7.46,19h-1.88l-2.31-6.05h-8.16l-2.33,6.05Zm4.8-7.59h7l-3.49-9.08Z"/><path class="cls-1" d="M1.24,59.32v-19H6.45a9.72,9.72,0,0,1,3.76.72,9.4,9.4,0,0,1,3,2,9.52,9.52,0,0,1,2,3,9.89,9.89,0,0,1,0,7.46,9.25,9.25,0,0,1-2,3,9.37,9.37,0,0,1-3,2,9.77,9.77,0,0,1-3.77.72ZM5,56H6a6.19,6.19,0,0,0,2.38-.46,5.82,5.82,0,0,0,1.9-1.29,6,6,0,0,0,1.25-2A6.56,6.56,0,0,0,12,49.83a6.5,6.5,0,0,0-.45-2.44,6.14,6.14,0,0,0-1.25-2,5.82,5.82,0,0,0-1.9-1.29A6,6,0,0,0,6,43.68H5Z"/><path class="cls-1" d="M20.93,59.32v-19h3.73v19Z"/><path class="cls-1" d="M38.93,59.69a8.94,8.94,0,0,1-6.6-2.84,9.48,9.48,0,0,1-2-3.13,10.35,10.35,0,0,1-.72-3.89,10.82,10.82,0,0,1,.67-3.78,9.64,9.64,0,0,1,1.92-3.13,8.87,8.87,0,0,1,3-2.14,9.72,9.72,0,0,1,4-.78,11.36,11.36,0,0,1,2.51.28,11.67,11.67,0,0,1,2.42.81,9.43,9.43,0,0,1,2.09,1.3l-1.75,2.89a7,7,0,0,0-2.42-1.44,8,8,0,0,0-2.8-.52,5.71,5.71,0,0,0-2.4.48,4.94,4.94,0,0,0-1.75,1.34,5.86,5.86,0,0,0-1.08,2,8.1,8.1,0,0,0-.37,2.51,8.39,8.39,0,0,0,.41,2.69,6.45,6.45,0,0,0,1.16,2.08,5,5,0,0,0,3.88,1.82,5.37,5.37,0,0,0,1.78-.3,5,5,0,0,0,1.52-.86,4.13,4.13,0,0,0,1.06-1.3,3.47,3.47,0,0,0,.39-1.63v-.29h-5V49h8.78v2.88A7,7,0,0,1,46.94,55a7.82,7.82,0,0,1-2,2.47,9.48,9.48,0,0,1-6,2.18Z"/><path class="cls-1" d="M52.57,59.32v-19h3.72v19Z"/><path class="cls-1" d="M64.19,59.32V43.63H59.38V40.35H72.72v3.28H67.91V59.32Z"/><path class="cls-1" d="M73.43,59.32l7.62-19h3.46l7.62,19h-4L86.5,55H79.05l-1.61,4.32Zm6.9-7.59h4.91l-2.46-6.36Z"/><path class="cls-1" d="M96.09,59.32v-19h3.73v15.7h6.85v3.27Z"/><path class="cls-1" d="M110.86,59.32v-19h3.73v19Z"/><path class="cls-1" d="M125.41,59.69A9.83,9.83,0,0,1,123,59.4a11.12,11.12,0,0,1-2-.74,11.35,11.35,0,0,1-1.51-.91c-.42-.32-.75-.6-1-.83l1.91-3.09c.25.23.56.48.91.75a9.69,9.69,0,0,0,1.18.79,7.26,7.26,0,0,0,1.42.62,5.15,5.15,0,0,0,1.63.25,3.87,3.87,0,0,0,1.42-.25,2.11,2.11,0,0,0,1-.76,2.08,2.08,0,0,0,.36-1.25,2.21,2.21,0,0,0-.29-1.15,2.74,2.74,0,0,0-.84-.86,9.45,9.45,0,0,0-1.37-.76l-1.85-.83a10.72,10.72,0,0,1-1.46-.78,6.23,6.23,0,0,1-1.24-1,4.67,4.67,0,0,1-.86-1.33,4.2,4.2,0,0,1-.31-1.66,5.23,5.23,0,0,1,.43-2.1,5.75,5.75,0,0,1,1.25-1.78,6.21,6.21,0,0,1,1.93-1.24,6.52,6.52,0,0,1,2.51-.46,7.69,7.69,0,0,1,2.06.28,9.71,9.71,0,0,1,1.94.72,7.72,7.72,0,0,1,1.51,1l-1.55,2.92a6.69,6.69,0,0,0-1.12-.77,7.41,7.41,0,0,0-1.33-.54,5,5,0,0,0-1.43-.21,3.07,3.07,0,0,0-1.39.29,2.17,2.17,0,0,0-.87.76,1.91,1.91,0,0,0-.31,1.07,1.63,1.63,0,0,0,.2.82,2,2,0,0,0,.57.59,6.07,6.07,0,0,0,.89.47c.34.15.72.31,1.14.47.88.38,1.69.75,2.41,1.12a9,9,0,0,1,1.85,1.23,4.45,4.45,0,0,1,1.18,1.56,5.2,5.2,0,0,1,.41,2.14,5.47,5.47,0,0,1-.87,3.12A5.4,5.4,0,0,1,129,59,8.82,8.82,0,0,1,125.41,59.69Z"/><path class="cls-1" d="M137.29,59.32v-19h10.55v3.26H141v4.57h6.56v3.26H141v4.61h6.83v3.27Z"/><path class="cls-1" d="M153.55,59.32v-19h5.21a9.72,9.72,0,0,1,3.76.72,9.51,9.51,0,0,1,3,2,9.5,9.5,0,0,1,2.77,6.75,9.59,9.59,0,0,1-.73,3.74,9.25,9.25,0,0,1-2,3,9.42,9.42,0,0,1-3,2,9.72,9.72,0,0,1-3.76.72ZM157.27,56h1.07a6.16,6.16,0,0,0,2.38-.46,5.82,5.82,0,0,0,1.9-1.29,5.68,5.68,0,0,0,1.25-2,6.56,6.56,0,0,0,.45-2.46,6.5,6.5,0,0,0-.45-2.44,5.72,5.72,0,0,0-3.15-3.25,6,6,0,0,0-2.38-.46h-1.07Z"/></g></g></svg>