<svg xmlns="http://www.w3.org/2000/svg" viewBox="0 0 1649.58 929"><defs><style>.cls-1{fill:#f4ce45;}.cls-2{fill:#f5f7f5;stroke:#f5f7f5;stroke-width:6px;}.cls-11,.cls-2,.cls-3,.cls-5,.cls-8{stroke-miterlimit:10;}.cls-3{stroke:#000;stroke-width:0.5px;}.cls-10,.cls-4,.cls-5{fill-rule:evenodd;}.cls-5,.cls-9{fill:#fff;}.cls-11,.cls-5,.cls-8{stroke:#fff;}.cls-6{fill:#191919;}.cls-10,.cls-7{fill:#1c1a18;}.cls-8{fill:none;}.cls-11,.cls-8{stroke-width:3px;}</style></defs><g id="Layer_2" data-name="Layer 2"><g id="Layer_1-2" data-name="Layer 1"><polygon class="cls-1" points="354.64 477 292 368.5 354.64 260 479.93 260 542.57 368.5 479.93 477 354.64 477"/><polygon class="cls-2" points="474.16 270 360.41 270 303.55 368.5 360.41 467 474.16 467 531.02 368.5 474.16 270"/><polygon class="cls-1" points="353.64 687 291 578.5 353.64 470 478.93 470 541.57 578.5 478.93 687 353.64 687"/><polygon class="cls-2" points="473.16 480 359.41 480 302.55 578.5 359.41 677 473.16 677 530.02 578.5 473.16 480"/><polygon class="cls-1" points="354.64 929 292 820.5 354.64 712 479.93 712 542.57 820.5 479.93 929 354.64 929"/><polygon class="cls-2" points="474.16 721 360.41 721 303.55 819.5 360.41 918 474.16 918 531.02 819.5 474.16 721"/><polygon class="cls-1" points="354.64 217 292 108.5 354.64 0 479.93 0 542.57 108.5 479.93 217 354.64 217"/><polygon class="cls-2" points="474.16 10 360.41 10 303.55 108.5 360.41 207 474.16 207 531.02 108.5 474.16 10"/><path d="M456.79,395.68a22.9,22.9,0,0,0-11.18,2.88l-11.48-4.69v-8.44a22,22,0,0,0,1.77-1.84c3.76-4.35,6.06-10.24,6.9-17.33l1.4-1.73a2.07,2.07,0,0,0,.46-1.45V359.7h-4.38v2.82l-1.34,1.65a2,2,0,0,0-.46,1.09c-.62,6.5-2.61,11.81-5.92,15.65a20.75,20.75,0,0,1-12.94,6.82c-5.06-.79-9.51-2.24-12.92-5.61s-5.71-8.63-6.3-16.84a2,2,0,0,0-.6-1.31l-1.49-1.51v-2.61h-4.39v3.45a2.07,2.07,0,0,0,.72,1.55l1.45,1.48c.77,8.88,3.48,14.72,7.48,18.72q.4.4.84.78v8.41L375.66,406c-.1.05-.2.09-.3.15a25.79,25.79,0,0,0-9.08,7.94,22,22,0,0,0-3.72,11,.33.33,0,0,0,0,.14v4.89l.07.08c.16.31.33.61.51.91a.47.47,0,0,1,.07.12h3.73v-6a17.75,17.75,0,0,1,3-8.85,21.33,21.33,0,0,1,7.55-6.54l4.89-2,0-.22s.07-.07.09,0,0,0,0,0h0l0,.12h0a.49.49,0,0,1,.09-.31,3,3,0,0,1,.2-.29,0,0,0,0,1,.06,0l0,0h0L383,407a2.64,2.64,0,0,1,.2-.37,0,0,0,0,1,0-.06l.08-.1s-.09,0-.06-.07.11-.17.17-.26a.55.55,0,0,1,.13-.17h.05a1.13,1.13,0,0,0,.21-.35h0s0,0,0,0,0,0,.05,0,0,0,0-.05l0,0h0l0,0a.08.08,0,0,1,0,0l0,0,0,0s0-.07.05-.1,0,0,0,0l0,0h0s0,0,0,0h0v0h0v0h0v0a.5.5,0,0,1,.09-.24l.09-.12h0a0,0,0,0,1,0-.05s0-.07,0-.1,0,0,.05,0c-.07-.19.48-.57.63-.58l0,0,.09,0a.56.56,0,0,1,.44,0s0,0,0,0a.89.89,0,0,1,.49.16.06.06,0,0,1,0,.07l0,0h0s.08,0,.07,0l0,.07s.06.05,0,.08l-.06.05h0a0,0,0,0,1,0,0s0,0,0,0v.06a0,0,0,0,1,.07,0v0a0,0,0,0,1,0,.06,1.17,1.17,0,0,1-.09.32h0v0s0,0,0,0a1,1,0,0,1-.05.24s.07,0,.06,0a1.25,1.25,0,0,1-.12.43,1.73,1.73,0,0,1,0,.32h0a0,0,0,0,1,.09,0h0a.32.32,0,0,0,0,.09s0,.1,0,.14,0,.17,0,.25,0,.19,0,.29.15,0,.15.11a.3.3,0,0,1-.12.21A6.58,6.58,0,0,1,388,407v-1.38l8.34-3.41v1.14a6.41,6.41,0,0,1,2.76-1.4s0,0,0,0a.22.22,0,0,1,0-.13.86.86,0,0,1,.15-.44,3.41,3.41,0,0,1,.38-.38,2,2,0,0,1,.49-.29,6.73,6.73,0,0,1,1.05-.5h0l5.21-2.13L418.12,411h3.29l11.84-12.88,5.59,2.29v3.88c-.46.58-.89,1.18-1.29,1.79a23.22,23.22,0,1,0,39,25.21h.38v-.79a23.23,23.23,0,0,0-20.15-34.77Zm-27-.18-10,10.86-11-11.93v-5.61h.07a32.86,32.86,0,0,0,10.48,3.12,2.24,2.24,0,0,0,.73,0,27.48,27.48,0,0,0,9.72-3.27Zm41.47,25.28a1.35,1.35,0,0,1-.41,1,1.45,1.45,0,0,1-1,.41h-2.36c-.16.47-.34.92-.54,1.38a10.78,10.78,0,0,1-.69,1.3l1.55,1.52a1.5,1.5,0,0,1,0,2l-2.07,2.07a1.31,1.31,0,0,1-1,.42,1.29,1.29,0,0,1-1-.42l-1.66-1.67c-.47.22-.92.43-1.39.61a11.62,11.62,0,0,1-1.42.43v2.11a1.38,1.38,0,0,1-1.38,1.38H455a1.38,1.38,0,0,1-1.38-1.38v-2.35a11.6,11.6,0,0,1-1.38-.54,8.09,8.09,0,0,1-1.3-.69l-1.52,1.56a1.48,1.48,0,0,1-2,0l-2.07-2.07a1.38,1.38,0,0,1-.42-1,1.29,1.29,0,0,1,.42-.94l1.67-1.67a12.69,12.69,0,0,1-1-2.8H443.8a1.31,1.31,0,0,1-1-.42,1.41,1.41,0,0,1-.41-1v-2.95a1.38,1.38,0,0,1,1.38-1.38h2.33q.24-.7.54-1.38a10,10,0,0,1,.69-1.29l-1.53-1.53,0,0a1.4,1.4,0,0,1,0-2l2.08-2.07a1.38,1.38,0,0,1,1-.42,1.31,1.31,0,0,1,1,.42l1.69,1.67a9.27,9.27,0,0,1,1.32-.61,10.14,10.14,0,0,1,1.42-.44v-2.16a1.42,1.42,0,0,1,1.4-1.4h3a1.4,1.4,0,0,1,1.39,1.39v2.42c.46.16.93.34,1.38.54a10.65,10.65,0,0,1,1.29.69L464.3,408l.05-.05a1.38,1.38,0,0,1,1.95.05l0-.09,2.07,2.07a1.38,1.38,0,0,1,.42,1,1.31,1.31,0,0,1-.42,1l-1.67,1.69a12.32,12.32,0,0,1,.61,1.33,13,13,0,0,1,.44,1.38h2.16a1.42,1.42,0,0,1,1.39,1.4Z"/><path d="M393.22,354c5.6,3.5,15.11,5.2,24.66,5.22s19.36-1.57,25.79-4.62a15.63,15.63,0,0,0,6.73-5.38L446.64,347a11.55,11.55,0,0,1-4.91,3.77c-5.84,2.76-15,4.22-23.84,4.19s-17.41-1.54-22.28-4.54a8.2,8.2,0,0,1-3.18-3.22l-4,1.74A12.31,12.31,0,0,0,393.22,354Z"/><path d="M394.11,346.74a2.18,2.18,0,0,0,2.45-1.82c1.43-10.47,6.6-16.75,13-19.61a1.94,1.94,0,0,0,.72.11c2-.05,2.56,3.58,2.67,8.49.1,2.17,0,4.66,0,7.17-.07,2-.07,4-.07,5.31a2.12,2.12,0,0,0,4.24,0c0-2.16.06-3.71.06-5.24,0-2.56.05-5.06,0-7.35-.11-4.23-.61-7.84-2.06-10.09a23.26,23.26,0,0,1,4.86-.21,25,25,0,0,1,3.86.52c-1.58,2.17-2.09,5.85-2.2,10.17-.09,2.22,0,4.62,0,7.09.06,1.48.06,3,.06,5.11a2.18,2.18,0,0,0,4.36,0c0-1.3-.08-3.26-.08-5.18,0-2.41-.06-4.77,0-6.91.12-4.79.63-8.29,2.63-8.29a2.09,2.09,0,0,0,.78-.12l.87.43a21.58,21.58,0,0,1,12.09,18.47,2.15,2.15,0,0,0,2.28,2h0a2.14,2.14,0,0,0,2.07-2.19c-.39-10.22-6.47-17.89-14.39-22a30.16,30.16,0,0,0-12.11-3.31,26.93,26.93,0,0,0-12.38,2.11c-7.74,3.43-14,10.8-15.64,23v0A2.11,2.11,0,0,0,394.11,346.74Z"/><rect x="416.68" y="425.75" width="5.32" height="5.12"/><path d="M462.19,416.85l0-.06a5.76,5.76,0,0,0-10.6,4.52v.06a5.72,5.72,0,0,0,3,2.87,5.87,5.87,0,0,0,2.23.44,5.74,5.74,0,0,0,5.75-5.76,5.93,5.93,0,0,0-.35-2Z"/><rect x="416.68" y="415.24" width="5.32" height="5.12"/><path class="cls-3" d="M406,418.9a23.21,23.21,0,0,0-23.22-23.22A23,23,0,0,0,372.61,398a8.65,8.65,0,0,1-1.36.94,14.8,14.8,0,0,1-2,1.55,26.3,26.3,0,0,0-2.52,2l-.57.53c-.56.53-1.1,1.09-1.62,1.65-.33.45-.66.89-1,1.35a23.22,23.22,0,1,0,39,25.21H403v-.79A23.09,23.09,0,0,0,406,418.9Zm-15-2.1L381,433.72a1.09,1.09,0,0,1-2-.78l1.5-10.39-5,.09a1.08,1.08,0,0,1-1.08-1.08,1.12,1.12,0,0,1,.15-.56l9.75-16.92a1.09,1.09,0,0,1,2,.71l-.5,10.31H390a1.08,1.08,0,0,1,1.1,1.08A1.06,1.06,0,0,1,391,416.8Z"/><path d="M464.73,867.53a.87.87,0,0,0,0,1.72h2.17a.82.82,0,0,0,.76-.86V849.56a.82.82,0,0,0-.76-.85H448.15a.82.82,0,0,0-.75.86v18.82a.82.82,0,0,0,.75.86h13.9a.87.87,0,0,0,0-1.72h-1.73v-1.68a.81.81,0,0,0-.81-.81.84.84,0,0,0-.7.92v1.57h-4.29v-10.2a.82.82,0,0,0-.75-.87h-4.86v-6h9.93v12.45a.81.81,0,0,0,.7.81.8.8,0,0,0,.8-.81v-1.74h1.37a.8.8,0,0,0,.7-.8.84.84,0,0,0-.7-.93h-1.37v-9h5.8v9h-1.36a.82.82,0,0,0-.71.81.85.85,0,0,0,.71.92h1.37v6.38ZM453,858.2v9.33h-4.11V858.2Z"/><path d="M444.26,846.8a4.75,4.75,0,0,1-.54,0,4.8,4.8,0,0,1-.55,0h-.8v-.14l-.44-.13a4.68,4.68,0,0,1-1-.38v22.37a8.06,8.06,0,0,0-1.06.32,5.18,5.18,0,0,0-1.1.62,4.72,4.72,0,0,0-.48.41l-.08.07V851.07a4.69,4.69,0,0,0,0-.75,11.81,11.81,0,0,1,.65-5l-.2-.08c-.14,0-.27-.1-.41-.15a4.77,4.77,0,0,1-.89-.38.2.2,0,0,0,0,.08,16,16,0,0,0-.58,5.52c-.3,7.14,0,15.21,0,22.45a10.56,10.56,0,0,0,.16,2.45,6.26,6.26,0,0,0,.77,2,5.35,5.35,0,0,0,1.76,1.69,4.27,4.27,0,0,0,2.12.72H472a2.74,2.74,0,0,1-.08-.5V878H441.58a4.65,4.65,0,0,1-1.67-.63,3.22,3.22,0,0,1-1.06-1.05,4.25,4.25,0,0,1-.54-1.48,9,9,0,0,1-.13-1.87,5.93,5.93,0,0,1,.63-1.29,3,3,0,0,1,.76-.83,3.21,3.21,0,0,1,1-.51,8.29,8.29,0,0,1,1.19-.3h0a.7.7,0,0,0,.44-.28.93.93,0,0,0,.17-.49V848.46h31.41l.24-.5v-.05l0-.1.05-.1.08-.21.05-.1,0-.1.22-.5Z"/><path class="cls-4" d="M398.68,600.72l9.74,28.64,4.89-17-2.4-2.62c-1.08-1.58-1.32-3-.71-4.15,1.3-2.58,4-2.1,6.5-2.1s5.88-.49,6.71,2.8a4.35,4.35,0,0,1-.84,3.45l-2.4,2.62,4.89,17,8.78-28.64c6.36,5.72,25.19,6.87,32.2,10.78a18.2,18.2,0,0,1,5.87,5c4.36,5.76,4.69,15,5.81,22.11-.36,3.79-2.5,6-6.73,6.29H361.57c-4.23-.32-6.37-2.5-6.73-6.29,1.12-7.17,1.45-16.37,5.81-22.11a18.21,18.21,0,0,1,5.83-4.93c7-3.91,25.84-5.06,32.2-10.78ZM408,535.45a2.12,2.12,0,0,1-.7-.1c-6.22,2.79-11.25,8.9-12.62,19.1a2.12,2.12,0,0,1-2.38,1.77A2.06,2.06,0,0,1,390.4,554v0c1.59-11.86,7.68-19,15.21-22.33a26,26,0,0,1,12-2.09,29,29,0,0,1,11.79,3.2c7.71,4,13.58,11.46,14,21.39a2.13,2.13,0,1,1-4.26.16,21,21,0,0,0-11.76-17.94c-.28-.14-.55-.28-.84-.41a2.16,2.16,0,0,1-.76.11c-1.94,0-2.44,3.42-2.56,8.06v6.73c0,1.87.08,3.77.08,5a2.12,2.12,0,1,1-4.24,0c0-2.07,0-3.53-.06-5,0-2.4-.09-4.74,0-6.89.11-4.21.61-7.76,2.15-9.9a23.83,23.83,0,0,0-8.49-.3c1.41,2.19,1.89,5.69,2,9.82.06,2.22,0,4.65,0,7.14,0,1.49-.05,3-.05,5.1a2.06,2.06,0,0,1-2.2,1.92,2.08,2.08,0,0,1-1.93-1.92c0-1.31,0-3.25.07-5.16,0-2.45.09-4.83,0-7C410.44,538.94,409.92,535.45,408,535.45Zm33.42,27.85q.24.59.45,1.17h0c.22.6.42,1.22.61,1.84v.06c.24,1.21.38,1.82.47,2.19h0a3.53,3.53,0,0,1,.13.63v2.94h0a15.11,15.11,0,0,1-.35,2.32,21.69,21.69,0,0,1-.67,2.39h0a11.33,11.33,0,0,1-2,3.59,4.35,4.35,0,0,1-2.17,1.55l-.45,1.7a25,25,0,0,1-7.75,12.6h0a18.46,18.46,0,0,1-12.53,4.46,19.22,19.22,0,0,1-12.66-4.88,29.29,29.29,0,0,1-8.14-13.36c-.09-.34-.23-.73-.34-1.08a4.61,4.61,0,0,1-3.2-2.48,16.77,16.77,0,0,1-2-6.32,13.85,13.85,0,0,1,.5-4.75,33.19,33.19,0,0,1,1.39-4c-.43-.22-.83-.45-1.22-.7a12,12,0,0,1-4.65-4.86l3.88-1.69h0a7.91,7.91,0,0,0,3.1,3.13c4.73,3,13.06,4.38,21.67,4.41s17.4-1.36,23.1-4a11.12,11.12,0,0,0,4.77-3.66l3.66,2.1a14.12,14.12,0,0,1-5.6,4.76Zm-45,2.24c-1.39,1.39-1.81,3.88-1.65,6.31a15.47,15.47,0,0,0,.82,4.1,5.25,5.25,0,0,0,1.4,2.34h0a.54.54,0,0,0,.42.12,1.25,1.25,0,0,1,1,.12,1.33,1.33,0,0,1,.63.75c.24.67.45,1.44.66,2.13a22.32,22.32,0,0,0,8.66,12.14,16.74,16.74,0,0,0,9,2.86,15.28,15.28,0,0,0,8.82-2.65,19.88,19.88,0,0,0,7.57-11c.17-.65.34-1.24.53-1.9l.22-.75a1.44,1.44,0,0,1,.53-.75h0a1.21,1.21,0,0,1,.92-.2c.36.06.8-.21,1.24-.7a8.43,8.43,0,0,0,1.49-2.62,15.29,15.29,0,0,0,.4-5.47,25.9,25.9,0,0,0-1.41-5.1.53.53,0,0,1,0-.25v0c-11,4-29.57,4.68-41.22.61Z"/><path d="M392.28,795.51a2.18,2.18,0,0,0,2.45-1.82c1.43-10.47,6.6-16.75,13-19.61a2,2,0,0,0,.72.11c2-.05,2.56,3.58,2.67,8.49.1,2.17,0,4.66,0,7.17-.07,2-.07,4-.07,5.31a2.12,2.12,0,0,0,4.24,0c0-2.16.06-3.71.06-5.24,0-2.56,0-5.06,0-7.35-.11-4.23-.61-7.84-2.06-10.09a23.26,23.26,0,0,1,4.86-.21,23.88,23.88,0,0,1,3.86.52c-1.58,2.17-2.09,5.85-2.2,10.17-.09,2.22,0,4.62,0,7.09.06,1.48.06,3,.06,5.11a2.18,2.18,0,1,0,4.36,0c0-1.3-.08-3.26-.08-5.18,0-2.41-.06-4.77,0-6.91.12-4.79.63-8.29,2.63-8.29a2.54,2.54,0,0,0,.78-.12l.87.43a21.58,21.58,0,0,1,12.09,18.47,2.15,2.15,0,0,0,2.28,2h0a2.14,2.14,0,0,0,2.07-2.19c-.39-10.22-6.47-17.89-14.39-22a30.16,30.16,0,0,0-12.11-3.31A26.82,26.82,0,0,0,406,770.17c-7.74,3.43-14,10.8-15.64,23v0A2.13,2.13,0,0,0,392.28,795.51Z"/><rect x="414.85" y="864.01" width="5.32" height="5.12"/><path d="M441.73,846.49a4.31,4.31,0,0,1-.76-.31l-2.09-.85-.17-.07-.52-.19a5,5,0,0,1-.88-.39l-5-2V834.2a21.91,21.91,0,0,0,1.77-1.84c3.76-4.35,6.06-10.24,6.9-17.33l1.4-1.73a2.07,2.07,0,0,0,.46-1.45v-3.38h-4.38v2.82l-1.34,1.65a2,2,0,0,0-.46,1.09c-.62,6.5-2.61,11.81-5.92,15.65a20.75,20.75,0,0,1-12.94,6.82c-5.06-.79-9.51-2.24-12.92-5.61s-5.71-8.63-6.3-16.84a2,2,0,0,0-.6-1.31l-1.49-1.51v-2.61h-4.39v3.45a2.07,2.07,0,0,0,.72,1.55l1.45,1.48c.77,8.88,3.48,14.72,7.48,18.72q.4.4.84.78V843l-28.75,11.75-.3.15a25.79,25.79,0,0,0-9.08,7.94,22,22,0,0,0-3.72,11V880h4.38v-6a17.84,17.84,0,0,1,3-8.85,21.33,21.33,0,0,1,7.55-6.54l6.07-2.48V880h4.39V854.42l8.34-3.41v29h4.4V849.13l5.59-2.29,11.84,12.88h3.29l11.84-12.88,5.59,2.29V853a1.43,1.43,0,0,0-.14.2,7.57,7.57,0,0,1,1.1-.65l.92-.38s0,0,.2-.11c.34-.2.67-.4,1-.61.52-.35,1.42-1,1.72-1.19.7-.57,1.7-1.63,2.57-2.51a4.4,4.4,0,0,1-.8-.52ZM428,844.27l-10,10.86L407,843.2v-5.61h.07a32.86,32.86,0,0,0,10.48,3.12,2.24,2.24,0,0,0,.73,0,27.88,27.88,0,0,0,9.72-3.27Z"/><rect x="414.85" y="874.52" width="5.32" height="5.12"/><path d="M391.39,802.75c5.6,3.5,15.11,5.2,24.66,5.22s19.36-1.57,25.79-4.62a15.63,15.63,0,0,0,6.73-5.38l-3.76-2.16a11.55,11.55,0,0,1-4.91,3.77c-5.84,2.76-15,4.22-23.84,4.19s-17.41-1.54-22.28-4.54A8.27,8.27,0,0,1,390.6,796l-4,1.74A12.31,12.31,0,0,0,391.39,802.75Z"/><path d="M453,131.7v1.84a.93.93,0,0,1-.84.91.86.86,0,0,1-.32.05h-3.39v3.8h17v-3.78h-3.39a1.26,1.26,0,0,1-.33-.05.94.94,0,0,1-.83-.93V131.7Zm-6.81,16.21a.82.82,0,0,1,1.36-.92h0l.45.67,1.78-2.17a.81.81,0,0,1,1.15-.11.82.82,0,0,1,.12,1.16l-2.45,3a1.12,1.12,0,0,1-.2.18.81.81,0,0,1-1.14-.22h0Zm0,8.53a.82.82,0,0,1,.22-1.15.81.81,0,0,1,1.14.22h0l.45.67,1.78-2.18a.81.81,0,0,1,1.15-.11.83.83,0,0,1,.12,1.16l-2.45,3a.72.72,0,0,1-.2.19.83.83,0,0,1-1.14-.22h0Zm0,8.86a.82.82,0,1,1,1.36-.92l.45.67,1.78-2.17a.82.82,0,0,1,1.16-.11.82.82,0,0,1,.11,1.16h0l-2.45,3a1.12,1.12,0,0,1-.2.18.82.82,0,0,1-1.14-.22h0ZM448,140.19a1.45,1.45,0,0,1-1-.41l-.08-.1a1.49,1.49,0,0,1-.33-.88v-1.87h-5.1a.21.21,0,0,0-.15.07.26.26,0,0,0-.07.15v35.67a.16.16,0,0,0,.07.14.21.21,0,0,0,.15.07h30.91a.21.21,0,0,0,.15-.07.15.15,0,0,0,.06-.14V137.15a.25.25,0,0,0-.06-.15.21.21,0,0,0-.15-.07h-5.11v1.87a1.43,1.43,0,0,1-.33.88s0,.07-.08.1a1.43,1.43,0,0,1-1,.41Zm-6.49,34.68a2.06,2.06,0,0,1-2.05-2.05V137.15a2.06,2.06,0,0,1,2.05-2.06h5.11v-1a1.38,1.38,0,0,1,1.38-1.38h3.16v-1.28a1.52,1.52,0,0,1,.46-1.08,1.54,1.54,0,0,1,1.07-.46h8.54a1.57,1.57,0,0,1,1.53,1.56v1.26H466a1.38,1.38,0,0,1,1.38,1.38h0v1h5.11a2.05,2.05,0,0,1,2.05,2.06v35.67a2.05,2.05,0,0,1-2.05,2.05Zm25.82-8.52a.94.94,0,0,0,0-1.87H455a.94.94,0,0,0,0,1.87Zm0-17.87a.94.94,0,0,0,0-1.87H455a.94.94,0,0,0,0,1.87Zm0,8.81a.93.93,0,0,0,0-1.86H455a.93.93,0,0,0,0,1.86Z"/><path d="M394.75,85.73a2.19,2.19,0,0,0,2.45-1.82c1.43-10.47,6.6-16.75,13-19.61a1.94,1.94,0,0,0,.72.11c2,0,2.56,3.58,2.67,8.49.1,2.17,0,4.66,0,7.17-.07,2-.07,4-.07,5.31a2.12,2.12,0,0,0,4.24,0c0-2.16.06-3.71.06-5.24,0-2.56.05-5.06,0-7.35-.11-4.23-.61-7.84-2.06-10.09a23.2,23.2,0,0,1,4.86-.21,25.38,25.38,0,0,1,3.86.52c-1.58,2.17-2.09,5.85-2.2,10.17-.09,2.22,0,4.62,0,7.09.06,1.48.06,3,.06,5.11a2.18,2.18,0,0,0,4.36,0c0-1.3-.08-3.26-.08-5.18,0-2.41-.06-4.77,0-6.91.12-4.79.63-8.29,2.63-8.29a2.12,2.12,0,0,0,.78-.12l.87.43A21.58,21.58,0,0,1,443,83.78a2.15,2.15,0,0,0,2.28,2h0a2.13,2.13,0,0,0,2.07-2.19C447,73.37,440.9,65.7,433,61.59a30.16,30.16,0,0,0-12.11-3.31,26.93,26.93,0,0,0-12.38,2.11c-7.74,3.43-14,10.8-15.64,23v0A2.13,2.13,0,0,0,394.75,85.73Z"/><path d="M439.33,143.43a8.38,8.38,0,0,1,.91-.54,4.57,4.57,0,0,1-.65-2.11,5.54,5.54,0,0,1,.81-4,6.32,6.32,0,0,1,.35-1c.06-.15.12-.3.19-.45l-.28-.1a3.9,3.9,0,0,1-.88-.38l-5-2v-8.44a23.69,23.69,0,0,0,1.77-1.84c3.76-4.35,6.06-10.24,6.9-17.33l1.4-1.73a2.12,2.12,0,0,0,.46-1.45V98.69h-4.38v2.82l-1.34,1.65a2,2,0,0,0-.46,1.09c-.62,6.5-2.61,11.81-5.92,15.65a20.8,20.8,0,0,1-12.94,6.82c-5.06-.79-9.51-2.24-12.92-5.61s-5.71-8.63-6.3-16.84a2,2,0,0,0-.6-1.31L399,101.45V98.84h-4.39v3.45a2,2,0,0,0,.72,1.55l1.45,1.48c.77,8.88,3.48,14.72,7.48,18.72q.41.4.84.78v8.41L376.3,145l-.3.15a25.7,25.7,0,0,0-9.08,7.94,21.93,21.93,0,0,0-3.72,11,.33.33,0,0,0,0,.14v6h4.38v-6a17.75,17.75,0,0,1,3-8.85,21.24,21.24,0,0,1,7.55-6.54l6.07-2.48v23.92h4.39V144.64l8.34-3.41v29h4.4V139.35l5.59-2.29,11.84,12.88h3.29l11.84-12.88,5.59,2.29v3.88A1.49,1.49,0,0,0,439.33,143.43Zm-8.88-8.94-10,10.86-11-11.93v-5.61h.07A32.79,32.79,0,0,0,420,130.92a2.24,2.24,0,0,0,.73,0,27.55,27.55,0,0,0,9.72-3.27Z"/><path d="M393.86,93c5.6,3.5,15.11,5.2,24.66,5.22s19.36-1.57,25.79-4.62A15.69,15.69,0,0,0,451,88.19L447.28,86a11.68,11.68,0,0,1-4.91,3.77c-5.84,2.76-15,4.22-23.84,4.19s-17.41-1.54-22.28-4.54a8.14,8.14,0,0,1-3.18-3.22l-4,1.74A12.31,12.31,0,0,0,393.86,93Z"/><polygon class="cls-1" points="62.64 582 0 473.5 62.64 365 187.93 365 250.57 473.5 187.93 582 62.64 582"/><polygon class="cls-2" points="182.16 375 68.41 375 11.55 473.5 68.41 572 182.16 572 239.02 473.5 182.16 375"/><path d="M100.24,489.56a1.44,1.44,0,0,1-2.88,0V454.29H67.12v71.08h5a1.44,1.44,0,1,1,0,2.88H65.68a1.44,1.44,0,0,1-1.44-1.44V453.52a2.15,2.15,0,0,1,.62-1.5,2.12,2.12,0,0,1,1.5-.62h31V423.31a2.49,2.49,0,0,1,.74-1.78h0a2.52,2.52,0,0,1,1.79-.74h51.35a2.52,2.52,0,0,1,1.79.74l.11.12a2.55,2.55,0,0,1,.64,1.67V451.4H185a2.11,2.11,0,0,1,1.49.62h0a2.11,2.11,0,0,1,.62,1.49v73.29a1.44,1.44,0,0,1-1.44,1.44h-9.14a1.44,1.44,0,1,1,0-2.88h7.7V454.29H153.77v34.85a1.44,1.44,0,1,1-2.88,0V423.66H100.24v65.9Zm61.15-.24h15.9c.13,0,.24.08.24.17v4.7c0,.1-.11.18-.24.18h-15.9c-.13,0-.24-.08-.24-.18v-4.7c0-.09.11-.17.24-.17Zm-87.44,0h15.9c.13,0,.24.08.24.17v4.7c0,.1-.11.18-.24.18H74c-.13,0-.24-.08-.24-.18v-4.7c0-.09.11-.17.24-.17Zm32.75-60.07h37.74a1.16,1.16,0,0,1,1.15,1.15v12.31a1.16,1.16,0,0,1-1.15,1.15H106.7a1.16,1.16,0,0,1-1.15-1.15V430.4a1.14,1.14,0,0,1,1.15-1.15Zm54.94,96.55a23.53,23.53,0,0,0-3.94-5.58,50,50,0,0,1,8.12,3.64c4,2.52,4.32,5.57,4.65,9.95H150.54v-.1l-.37-3.13,1.43,1.24,7-6.09,3,.07Zm-71.32-4.94,2.53,7.44,1.27-4.42-.62-.68a1.05,1.05,0,0,1-.19-1.08c.34-.67,1-.54,1.69-.54s1.53-.13,1.74.73a1.15,1.15,0,0,1-.22.9l-.62.68,1.27,4.42,2.29-7.44a4.59,4.59,0,0,0,1.34.77,11.66,11.66,0,0,0-.51,1.25,15.18,15.18,0,0,0-.75,3.77h0a.34.34,0,0,1,0,.1L99,533.82H80.68a1.67,1.67,0,0,1-1.75-1.63l.38-3.9A6.22,6.22,0,0,1,80.44,525,4.84,4.84,0,0,1,82,523.69c1.82-1.05,6.72-1.34,8.37-2.83Zm-1.24-10.55a1.33,1.33,0,0,0-.57.16.47.47,0,0,0-.17.2.86.86,0,0,0-.06.34,3.23,3.23,0,0,0,.66,1.59h0l1.41,2.25a12.16,12.16,0,0,0,1.88,2.48,3.85,3.85,0,0,0,2.65,1.07,3.93,3.93,0,0,0,2.81-1.11,12.5,12.5,0,0,0,1.94-2.65l1.59-2.62c.32-.73.42-1.17.32-1.38s-.33-.16-.76-.13a1.26,1.26,0,0,1-.87-.15l.79-2.38a12.4,12.4,0,0,1-7.26-2.05c-.77-.49-1-1.06-1.78-1a2.61,2.61,0,0,0-1.47.8,3.66,3.66,0,0,0-.84,1.66l.47,2.86a.8.8,0,0,1-.75.06Zm12.61-.71a1.19,1.19,0,0,1,.75.6,2.76,2.76,0,0,1-.3,2.23h0l0,.06-1.61,2.65A13.15,13.15,0,0,1,98.39,518a4.86,4.86,0,0,1-3.48,1.38,4.71,4.71,0,0,1-3.31-1.33,12.46,12.46,0,0,1-2-2.68l-1.41-2.25a4.22,4.22,0,0,1-.82-2.1,1.65,1.65,0,0,1,.15-.78,1.43,1.43,0,0,1,.52-.6,1.42,1.42,0,0,1,.39-.19,34.5,34.5,0,0,1-.06-3.95,5.94,5.94,0,0,1,.17-.92,5.39,5.39,0,0,1,2.39-3,7,7,0,0,1,1.29-.63c2.72-1,6.32-.45,8.25,1.64A5.44,5.44,0,0,1,101.8,506l-.11,3.58Zm14.23-10a1.85,1.85,0,0,0-.74.23.69.69,0,0,0-.25.29,1.28,1.28,0,0,0-.09.5,5,5,0,0,0,1,2.37v0h0l2.11,3.36a17.85,17.85,0,0,0,2.81,3.7,5.63,5.63,0,0,0,4,1.59,5.82,5.82,0,0,0,4.18-1.66,18.3,18.3,0,0,0,2.89-4l2.37-3.9c.48-1.09.62-1.75.47-2.05s-.51-.25-1.21-.18h-.16a2.27,2.27,0,0,1-1-.23l1.07-3.56a18.49,18.49,0,0,1-10.84-3.06c-1.16-.74-1.5-1.58-2.66-1.5a3.92,3.92,0,0,0-2.19,1.19,5.69,5.69,0,0,0-1.26,2.48l.75,4.31a1.46,1.46,0,0,1-1.24.05Zm2,15.73,3.78,11.11,1.9-6.59-.93-1a1.55,1.55,0,0,1-.28-1.61c.5-1,1.55-.81,2.52-.81s2.28-.19,2.6,1.08a1.7,1.7,0,0,1-.33,1.34l-.93,1,1.9,6.59,3.42-11.11c2.47,2.22,8.82,2.67,11.54,4.18a7.3,7.3,0,0,1,2,1.57.52.52,0,0,1,.07-.21c.3-.59.92-.48,1.5-.48s1.36-.11,1.55.65a1.07,1.07,0,0,1-.19.8l-.55.61,1.13,3.92-1.45,1.15.48,6.29a2.5,2.5,0,0,1-2.61,2.44H104.44a2.5,2.5,0,0,1-2.61-2.44l.57-7.41a9.18,9.18,0,0,1,1.69-5,7.12,7.12,0,0,1,2.26-1.91c2.71-1.53,9.06-2,11.53-4.2Zm17-16.8a1.73,1.73,0,0,1,1.12.9c.36.73.22,1.8-.45,3.33h0l0,.09-2.41,4a19.52,19.52,0,0,1-3.15,4.26,7.22,7.22,0,0,1-5.19,2.06,7.05,7.05,0,0,1-5-2,19.07,19.07,0,0,1-3.07-4l-2.11-3.36a6.26,6.26,0,0,1-1.22-3.14,2.56,2.56,0,0,1,.22-1.16,2.18,2.18,0,0,1,.78-.9,2.62,2.62,0,0,1,.58-.29,54.84,54.84,0,0,1-.09-5.89,8.26,8.26,0,0,1,.26-1.37,8,8,0,0,1,3.57-4.54,9.21,9.21,0,0,1,1.92-.93c4-1.47,9.43-.67,12.31,2.45a8.22,8.22,0,0,1,2.07,5.17l-.15,5.34Zm7.33,18.34,1.86,0,1.55,0c-1.8-5.55-1.2-10.65,3.14-15a9.72,9.72,0,0,0,5.2,5.8,27.5,27.5,0,0,1,3.9,3.59c.22-.92-.63-2-1.66-3.18a5,5,0,0,1,2.45,2.4,6.65,6.65,0,0,1,.47,4.31,8.86,8.86,0,0,1-.55,2.07h2.57c2.71-5.8,1-14.41-4.55-18.06-1.7-1.12-2.92-1.08-4.92-1.08-2.28,0-3.45.07-5.41,1.37-2.88,1.91-4.66,5.21-5.4,9.79-.15,2.29-.25,6.24,1.35,8.07Zm19.22-37.86h15.9c.13,0,.24.08.24.18v4.7c0,.1-.11.18-.24.18h-15.9c-.13,0-.24-.08-.24-.18v-4.7c0-.1.11-.18.24-.18Zm0-10.28h15.9c.13,0,.24.08.24.18v4.7c0,.1-.11.18-.24.18h-15.9c-.13,0-.24-.08-.24-.18V469c0-.1.11-.18.24-.18ZM74,479.05h15.9c.13,0,.24.08.24.18v4.7c0,.1-.11.18-.24.18H74c-.13,0-.24-.08-.24-.18v-4.7c0-.1.11-.18.24-.18Zm0-10.28h15.9c.13,0,.24.08.24.18v4.7c0,.1-.11.18-.24.18H74c-.13,0-.24-.08-.24-.18V469c0-.1.11-.18.24-.18Zm62,1.09h8.49a.24.24,0,0,1,.24.24v8.49a.24.24,0,0,1-.24.24h-8.49a.24.24,0,0,1-.24-.24V470.1a.24.24,0,0,1,.24-.24Zm-14.59,0h8.49a.24.24,0,0,1,.24.24v8.49a.24.24,0,0,1-.24.24h-8.49a.24.24,0,0,1-.24-.24V470.1a.24.24,0,0,1,.24-.24Zm-14.59,0h8.49a.24.24,0,0,1,.24.24v8.49a.24.24,0,0,1-.24.24h-8.49a.24.24,0,0,1-.24-.24V470.1a.24.24,0,0,1,.24-.24Zm29.18-16.47h8.49a.24.24,0,0,1,.24.24v8.49a.24.24,0,0,1-.24.24h-8.49a.24.24,0,0,1-.24-.24v-8.49a.24.24,0,0,1,.24-.24Zm-14.59,0h8.49a.24.24,0,0,1,.24.24v8.49a.24.24,0,0,1-.24.24h-8.49a.24.24,0,0,1-.24-.24v-8.49a.24.24,0,0,1,.24-.24Zm-14.59,0h8.49a.24.24,0,0,1,.24.24v8.49a.24.24,0,0,1-.24.24h-8.49a.24.24,0,0,1-.24-.24v-8.49a.24.24,0,0,1,.24-.24Z"/><polygon class="cls-1" points="802.03 582 739.39 473.5 802.03 365 927.32 365 989.96 473.5 927.32 582 802.03 582"/><polygon class="cls-2" points="921.55 377 807.81 377 750.94 475.5 807.81 574 921.55 574 978.41 475.5 921.55 377"/><path class="cls-4" d="M898.78,485.67c12.89,0,23.34,11.09,23.34,24.76s-10.45,24.76-23.34,24.76-23.34-11.08-23.34-24.76,10.45-24.76,23.34-24.76Zm7.75,18.52a7.52,7.52,0,0,1,1.15-.09,5.74,5.74,0,0,1,4.4,2,6.62,6.62,0,0,1,.73,1,8.71,8.71,0,0,1,1.14,4.56,7.88,7.88,0,0,1-1.26,4.38,6.62,6.62,0,0,1-2.08,1.89,10.3,10.3,0,0,1-2.81,1.1l-.19,0H889.94a6.35,6.35,0,0,1-1.75-.48,5.18,5.18,0,0,1-1.45-.92,6.77,6.77,0,0,1-1.06-1.21,7.28,7.28,0,0,1-1.24-4,6.44,6.44,0,0,1,1.32-4,6,6,0,0,1,1-1,7,7,0,0,1,1.6-.9,9.72,9.72,0,0,1,1.32-.43,9.3,9.3,0,0,1,3.1-5.13,8.74,8.74,0,0,1,4.66-1.93,9,9,0,0,1,4.94.91,9.2,9.2,0,0,1,4.11,4.3ZM831.79,450.3c7,2.47,16.64,4,27.4,4s20.45-1.52,27.4-4c6.11-2.16,9.89-4.79,9.89-7.35s-3.78-5.18-9.89-7.34c-7-2.46-16.64-4-27.4-4s-20.44,1.52-27.4,4c-13,4.59-13.32,10,0,14.69ZM822,469.6c.48,2.39,4.15,4.79,9.83,6.81,7,2.46,16.64,4,27.4,4s20.45-1.53,27.4-4c6.11-2.16,9.89-4.79,9.89-7.35h0V451.48a32.56,32.56,0,0,1-8.23,4.13c-7.5,2.65-17.79,4.3-29.08,4.3s-21.58-1.64-29.07-4.3a32.76,32.76,0,0,1-8.15-4.07V469.6Zm49,40.7a108.46,108.46,0,0,1-11.77.61c-11.3,0-21.58-1.64-29.07-4.3a32.09,32.09,0,0,1-8.15-4.07v16.85c.48,2.38,4.14,4.79,9.83,6.8,7,2.46,16.64,4,27.4,4A99.57,99.57,0,0,0,877,528.66a28.57,28.57,0,0,0,4.55,4.77,100.21,100.21,0,0,1-22.39,2.37c-11.3,0-21.58-1.64-29.08-4.3-4-1.4-13.45-6-13.45-11.49V518.2q0-37.61-.07-75.25c0-5.24,5.16-9.7,13.51-12.66,7.49-2.65,17.78-4.29,29.08-4.29s21.58,1.64,29.08,4.3,12.55,6.62,13.38,11.27a2.67,2.67,0,0,1,.16.95v38.6a25.09,25.09,0,0,0-3.14-.2c-.73,0-1.45,0-2.16.1v-3.41a32.89,32.89,0,0,1-8.23,4.13c-7.5,2.65-17.79,4.3-29.08,4.3s-21.58-1.64-29.08-4.3a32.52,32.52,0,0,1-8.14-4.08v16.85c.48,2.38,4.14,4.79,9.83,6.8,7,2.46,16.64,4,27.4,4a106.59,106.59,0,0,0,12.29-.69,29.52,29.52,0,0,0-.54,5.69Z"/><path class="cls-5" d="M651.49,479.05h26.06c3.47,0,6.29,3.15,6.3,7v27.49c0,3.86-2.83,7-6.3,7H651.49c-3.48,0-6.29-3.14-6.3-7V486.06C645.2,482.2,648,479.06,651.49,479.05Zm-31.77,5.24a2.61,2.61,0,0,1-2.3-2.8,2.58,2.58,0,0,1,2.27-2.8h12.15a2.61,2.61,0,0,1,2.31,2.8,2.58,2.58,0,0,1-2.27,2.8H619.72Zm54.76-15h-5.1V427.56a1,1,0,0,0-.24-.66.83.83,0,0,0-.57-.23h-62.1a.8.8,0,0,0-.6.27,1,1,0,0,0-.24.66v78.06a.88.88,0,0,0,.8.94H633.5v5.67h-27c-3.28,0-5.92-3-5.9-6.65V427.56a6.76,6.76,0,0,1,1.74-4.62A5.57,5.57,0,0,1,606.5,421h62.11a5.47,5.47,0,0,1,4.16,1.94,6.88,6.88,0,0,1,1.74,4.62v41.77Zm-54.79-21.5a2.61,2.61,0,0,1-2.3-2.8,2.57,2.57,0,0,1,2.28-2.8h35.65a2.62,2.62,0,0,1,2.31,2.8,2.59,2.59,0,0,1-2.28,2.8H619.69Zm0,18.23a2.62,2.62,0,0,1-2.3-2.8,2.58,2.58,0,0,1,2.27-2.8h35.66a2.62,2.62,0,0,1,2.31,2.8,2.58,2.58,0,0,1-2.27,2.8H619.69Zm53.89,31.8a1.73,1.73,0,0,1,1.52.81c.8,1.33-.29,2.65-1,3.57-2.19,2.62-7,7.36-8.06,8.75a1.63,1.63,0,0,1-2.45.32,1.47,1.47,0,0,1-.29-.32c-1.1-1.42-6.21-6.49-8.25-9-.73-.88-1.59-2.09-.85-3.32a1.73,1.73,0,0,1,1.52-.81h3.84v-7.61a2.32,2.32,0,0,1,2.14-2.43h6a2.31,2.31,0,0,1,2.18,2.43v7.61Z"/><polygon class="cls-1" points="1131.65 582 1069.01 473.5 1131.65 365 1256.94 365 1319.58 473.5 1256.94 582 1131.65 582"/><polygon class="cls-2" points="1251.16 375 1137.42 375 1080.56 473.5 1137.42 572 1251.16 572 1308.03 473.5 1251.16 375"/><polygon class="cls-1" points="1461.65 582 1399.01 473.5 1461.65 365 1586.94 365 1649.58 473.5 1586.94 582 1461.65 582"/><polygon class="cls-2" points="1581.16 375 1467.42 375 1410.56 473.5 1467.42 572 1581.16 572 1638.03 473.5 1581.16 375"/><path d="M1565.73,518.84V425h-75.25a14.75,14.75,0,0,0-10.86,5.09,18.54,18.54,0,0,0-4,12.16v78.91a22.9,22.9,0,0,0,.32,3.85,17.3,17.3,0,0,0,1,3.49l0,0,.11.26a9,9,0,0,0,8.77,5.51h75.5a4.42,4.42,0,0,0,3.13-1.31h0a4.45,4.45,0,0,0,1.29-3.13V519.2A2.11,2.11,0,0,0,1565.73,518.84ZM1486.11,430a12.33,12.33,0,0,1,4.46-1.06h71.28v86.9h-75.74Zm-6.62,12.3a14.71,14.71,0,0,1,3.08-9.63l.21-.24v83.82a8.83,8.83,0,0,0-3.29,1.73Zm82.38,87.55a.51.51,0,0,1-.16.38h0a.55.55,0,0,1-.39.16h-75.5a5.29,5.29,0,0,1-5.2-3.12,5.65,5.65,0,0,1-.45-2.22,5.78,5.78,0,0,1,.44-2.22,5.3,5.3,0,0,1,5.21-3.1h76Z"/><path d="M1523.81,468.07a15.85,15.85,0,0,0,11.21-4.62l.09-.08a16,16,0,0,0-22.51-22.76l-.09.08a16,16,0,0,0,11.3,27.38Zm-9.24-25.31.07-.07a13.07,13.07,0,0,1,22.24,9.34,13.15,13.15,0,0,1-3.83,9.28l-.07.07a13,13,0,0,1-18.41-.07,13.17,13.17,0,0,1,0-18.55Z"/><path d="M1521,459.42a2,2,0,0,0,.71.39,3.36,3.36,0,0,0,1,.13,3.27,3.27,0,0,0,1.22-.24A4.45,4.45,0,0,0,1525,459h0a6.88,6.88,0,0,0,1.11-1.16,12.84,12.84,0,0,0,1.07-1.61.08.08,0,0,0,0-.12l-.77-.57a.1.1,0,0,0-.12,0c-.22.38-.44.72-.65,1a9.49,9.49,0,0,1-.6.77,3.7,3.7,0,0,1-.5.49.64.64,0,0,1-.34.15.25.25,0,0,1-.13,0,.19.19,0,0,1-.09-.05.31.31,0,0,1,0-.1h0a.61.61,0,0,1,0-.15v-.14l0-.12,0-.15,2.46-8.2v0a.09.09,0,0,0-.09-.09l-5.54.18a.08.08,0,0,0-.08.06l-.29,1v0a.09.09,0,0,0,.09.09h1.08a1,1,0,0,1,.3,0,.8.8,0,0,1,.22.13.59.59,0,0,1,.13.19h0a.71.71,0,0,1,0,.26,1.21,1.21,0,0,1,0,.18c0,.06,0,.13,0,.21s0,.18-.07.29l-.11.39-1.35,4.19c-.06.19-.11.37-.15.53a2.89,2.89,0,0,0-.1.43h0c0,.13,0,.26,0,.37a2,2,0,0,0,0,.34,2.26,2.26,0,0,0,.14.85A1.67,1.67,0,0,0,1521,459.42Z"/><path d="M1483.21,527.06h76v-1.71h-76.8A9.56,9.56,0,0,0,1483.21,527.06Z"/><path d="M1523.82,447.4a1.79,1.79,0,0,0,.61.43,2,2,0,0,0,.73.14,1.73,1.73,0,0,0,1.32-.57,1.81,1.81,0,0,0,.41-.62,2,2,0,0,0,0-1.47,2,2,0,0,0-1-1,1.92,1.92,0,0,0-.72-.14,2,2,0,0,0-.72.14,2,2,0,0,0-1,1,2,2,0,0,0-.14.74,1.83,1.83,0,0,0,.14.73A1.64,1.64,0,0,0,1523.82,447.4Z"/><path d="M1482.4,522.71h76.8V521h-76A9,9,0,0,0,1482.4,522.71Z"/><g id="Layer_2-2" data-name="Layer 2"><g id="Layer_2-2-2" data-name="Layer 2-2"><path class="cls-1" d="M1241.06,392.38l47.32,81.93-47.3,81.92h-94.63l-47.3-81.92,47.3-81.93h94.61m2.88-5H1143.57l-50.19,86.93,50.19,86.92h100.37l50.19-86.92Z"/><path class="cls-6" d="M1226.38,417.83,1259,474.31l-32.61,56.48h-65.23l-32.61-56.48,32.61-56.48h65.23m12.13-21H1149l-44.73,77.48L1149,551.79h89.47l44.73-77.48-44.73-77.48Z"/><path class="cls-6" d="M1159.1,510.82v-73h14.63l40,51.47V437.8h14.6v73h-14.6l-40-51.42v51.47Z"/></g></g><polyline class="cls-7" points="291.6 820 186.6 820 186.6 582"/><polyline class="cls-8" points="284.07 820 186.6 820 186.6 582"/><polygon class="cls-9" points="282.53 814.76 291.6 820 282.53 825.24 282.53 814.76"/><polyline class="cls-7" points="291.6 108 186.6 108 186.6 365"/><polyline class="cls-8" points="285.26 108 186.6 108 186.6 365"/><path class="cls-9" d="M291.6,108a31.75,31.75,0,0,1-9-5l1.8,5-1.8,5A31.75,31.75,0,0,1,291.6,108Z"/><polyline class="cls-10" points="542.1 108.5 637.6 108.5 637.6 390"/><polyline class="cls-8" points="542.1 108.5 637.6 108.5 637.6 382.46"/><polygon class="cls-9" points="632.37 380.93 637.6 390 642.84 380.93 632.37 380.93"/><polyline class="cls-10" points="542.1 820.5 636.6 820.5 636.6 556"/><polyline class="cls-8" points="542.1 820.5 636.6 820.5 636.6 563.53"/><polygon class="cls-9" points="641.84 565.07 636.6 556 631.37 565.07 641.84 565.07"/><line class="cls-9" x1="542.1" y1="368.5" x2="637.51" y2="368.5"/><line class="cls-11" x1="542.1" y1="578.5" x2="637.1" y2="578.5"/><line class="cls-9" x1="685.1" y1="473.5" x2="739.1" y2="473.5"/><line class="cls-8" x1="685.1" y1="473.5" x2="731.57" y2="473.5"/><polygon class="cls-9" points="730.03 478.74 739.1 473.5 730.03 468.26 730.03 478.74"/><path d="M108,404.19a5.64,5.64,0,0,1-2.1-.39,5.45,5.45,0,0,1-1.74-1.11,5,5,0,0,1-1.17-1.63,4.81,4.81,0,0,1-.42-2,4.67,4.67,0,0,1,.43-2,5,5,0,0,1,1.17-1.64,5.33,5.33,0,0,1,1.72-1.1,5.49,5.49,0,0,1,2.1-.4,5.86,5.86,0,0,1,1.74.26,4.87,4.87,0,0,1,1.41.68l-.84,1.65a2.83,2.83,0,0,0-1-.5,4,4,0,0,0-1.2-.18,3.83,3.83,0,0,0-1.37.24,3.49,3.49,0,0,0-1.09.69,3.05,3.05,0,0,0-.72,1,3.22,3.22,0,0,0-.26,1.28,3.17,3.17,0,0,0,.26,1.27,3.05,3.05,0,0,0,.72,1,3.32,3.32,0,0,0,1.09.69,3.83,3.83,0,0,0,1.37.24,4,4,0,0,0,1.2-.18,3,3,0,0,0,1-.49l.84,1.65a5.07,5.07,0,0,1-1.38.67A6,6,0,0,1,108,404.19Z"/><path d="M112.75,404v-9.9h1.94v8.2h3.58V404Z"/><path d="M119.85,404v-9.9h1.94V404Z"/><path d="M124.5,404v-9.9H130v1.7h-3.57v2.39h3.42v1.7h-3.42v2.41H130V404Z"/><path d="M132.38,404v-9.9h2l4.26,6.66V394.1h1.95V404h-1.95l-4.26-6.66V404Z"/><path d="M144.05,404v-8.18h-2.51V394.1h7v1.72H146V404Z"/><path d="M366.41,45.19a5.69,5.69,0,0,1-2.11-.39,5.51,5.51,0,0,1-1.73-1.11,5,5,0,0,1-1.17-1.63,5,5,0,0,1,0-4,5,5,0,0,1,1.17-1.64,5.48,5.48,0,0,1,1.73-1.1,5.42,5.42,0,0,1,2.1-.4,5.84,5.84,0,0,1,1.73.26,5.06,5.06,0,0,1,1.42.68l-.84,1.65a2.92,2.92,0,0,0-1-.5,4.07,4.07,0,0,0-1.21-.18,3.78,3.78,0,0,0-1.36.24,3.66,3.66,0,0,0-1.1.69,3.05,3.05,0,0,0-.72,1,3.22,3.22,0,0,0-.26,1.28,3.17,3.17,0,0,0,.26,1.27,3.05,3.05,0,0,0,.72,1,3.47,3.47,0,0,0,1.1.69,3.78,3.78,0,0,0,1.36.24,4.07,4.07,0,0,0,1.21-.18,3.11,3.11,0,0,0,1-.49l.84,1.65a5.14,5.14,0,0,1-1.39.67A5.88,5.88,0,0,1,366.41,45.19Z"/><path d="M375.4,45.19a4.8,4.8,0,0,1-3.53-1.5,5,5,0,0,1-1.07-1.63,5.32,5.32,0,0,1,0-4,5.06,5.06,0,0,1,1.07-1.64,4.77,4.77,0,0,1,1.59-1.1,4.68,4.68,0,0,1,1.94-.4,4.76,4.76,0,0,1,2,.4,5,5,0,0,1,1.59,1.1A5.23,5.23,0,0,1,380,38.06a5.45,5.45,0,0,1,0,4,5.18,5.18,0,0,1-1.07,1.63,5,5,0,0,1-1.59,1.11A4.92,4.92,0,0,1,375.4,45.19Zm0-1.87a2.71,2.71,0,0,0,2.08-.92,3,3,0,0,0,.6-1,3.71,3.71,0,0,0,.22-1.31,3.64,3.64,0,0,0-.22-1.31,3.05,3.05,0,0,0-.6-1,2.78,2.78,0,0,0-4.16,0,3.05,3.05,0,0,0-.6,1,3.87,3.87,0,0,0-.22,1.31,4,4,0,0,0,.22,1.31,3,3,0,0,0,.6,1,2.71,2.71,0,0,0,2.08.92Z"/><path d="M381.91,45l1-9.9H385l2.36,6.19,2.37-6.19h2.06l1,9.9h-1.95l-.61-6.41-2.26,6.16h-1.2l-2.25-6.16L383.85,45Z"/><path d="M394.52,45l1-9.9h2.07l2.36,6.19,2.36-6.19h2.07l1,9.9H403.4l-.61-6.41-2.27,6.16h-1.19l-2.26-6.16L396.46,45Z"/><path d="M407.58,45V35.1h1.94V45Z"/><path d="M414.57,45.19A5.08,5.08,0,0,1,413.3,45a4.69,4.69,0,0,1-1-.39,5.15,5.15,0,0,1-.79-.47,5.94,5.94,0,0,1-.52-.43l1-1.61.48.39a5.88,5.88,0,0,0,.61.41,3.76,3.76,0,0,0,.74.32,2.65,2.65,0,0,0,.85.13,2,2,0,0,0,.75-.13,1.15,1.15,0,0,0,.5-.39,1.06,1.06,0,0,0,.19-.65,1.17,1.17,0,0,0-.15-.61,1.69,1.69,0,0,0-.44-.45,5.19,5.19,0,0,0-.72-.39c-.28-.13-.6-.28-1-.43a7.08,7.08,0,0,1-.77-.41,3.73,3.73,0,0,1-.64-.54,2.29,2.29,0,0,1-.45-.69,2.21,2.21,0,0,1-.16-.87,2.57,2.57,0,0,1,.23-1.09,2.84,2.84,0,0,1,.65-.93,3.19,3.19,0,0,1,1-.65,3.35,3.35,0,0,1,1.3-.24,4.45,4.45,0,0,1,1.08.14,6,6,0,0,1,1,.38,4.49,4.49,0,0,1,.79.51L417,37.48a3,3,0,0,0-.58-.4,3.33,3.33,0,0,0-.7-.29,2.78,2.78,0,0,0-.75-.11,1.59,1.59,0,0,0-.72.15,1.21,1.21,0,0,0-.46.4,1.08,1.08,0,0,0-.16.56.83.83,0,0,0,.11.43,1,1,0,0,0,.3.3,2.44,2.44,0,0,0,.46.25l.59.25c.47.19.89.39,1.26.58a4.41,4.41,0,0,1,1,.64,2.32,2.32,0,0,1,.61.82,2.68,2.68,0,0,1,.22,1.11,2.87,2.87,0,0,1-.46,1.63,2.8,2.8,0,0,1-1.26,1A4.62,4.62,0,0,1,414.57,45.19Z"/><path d="M422.51,45.19a5.05,5.05,0,0,1-2.32-.54,5.54,5.54,0,0,1-.78-.47c-.22-.17-.4-.31-.53-.43l1-1.61.47.39a6.06,6.06,0,0,0,.62.41,3.76,3.76,0,0,0,.74.32,2.65,2.65,0,0,0,.85.13,1.88,1.88,0,0,0,.74-.13,1.06,1.06,0,0,0,.7-1,1.17,1.17,0,0,0-.15-.61,1.6,1.6,0,0,0-.45-.45,5,5,0,0,0-.71-.39c-.28-.13-.6-.28-1-.43a6.26,6.26,0,0,1-.77-.41,3.73,3.73,0,0,1-.64-.54,2.29,2.29,0,0,1-.45-.69,2.21,2.21,0,0,1-.16-.87,2.72,2.72,0,0,1,.22-1.09,3,3,0,0,1,.65-.93,3.31,3.31,0,0,1,1-.65,3.43,3.43,0,0,1,1.31-.24,4.45,4.45,0,0,1,1.08.14,6.39,6.39,0,0,1,1,.38,4.49,4.49,0,0,1,.79.51L425,37.48a2.78,2.78,0,0,0-.59-.4,3.48,3.48,0,0,0-.69-.29,2.78,2.78,0,0,0-.75-.11,1.57,1.57,0,0,0-.72.15,1.21,1.21,0,0,0-.46.4,1,1,0,0,0-.16.56.83.83,0,0,0,.11.43,1,1,0,0,0,.29.3,2.92,2.92,0,0,0,.47.25l.59.25c.46.19.88.39,1.26.58a4.41,4.41,0,0,1,1,.64,2.44,2.44,0,0,1,.61.82,2.68,2.68,0,0,1,.21,1.11,2.86,2.86,0,0,1-.45,1.63,2.8,2.8,0,0,1-1.26,1A4.62,4.62,0,0,1,422.51,45.19Z"/><path d="M428.11,45V35.1h1.94V45Z"/><path d="M437,45.19a4.92,4.92,0,0,1-1.95-.39,5,5,0,0,1-1.59-1.11,5.18,5.18,0,0,1-1.07-1.63,5.45,5.45,0,0,1,0-4,5.23,5.23,0,0,1,1.07-1.64,5,5,0,0,1,1.59-1.1,4.76,4.76,0,0,1,1.95-.4,4.68,4.68,0,0,1,1.94.4,4.77,4.77,0,0,1,1.59,1.1,4.9,4.9,0,0,1,1.07,1.64,5.32,5.32,0,0,1,0,4,4.86,4.86,0,0,1-1.07,1.63,4.8,4.8,0,0,1-3.53,1.5Zm0-1.87a2.81,2.81,0,0,0,1.17-.24,2.75,2.75,0,0,0,.91-.68,3,3,0,0,0,.61-1,4,4,0,0,0,.22-1.31,3.87,3.87,0,0,0-.22-1.31,3.07,3.07,0,0,0-.61-1,2.75,2.75,0,0,0-.91-.68,2.81,2.81,0,0,0-1.17-.24,2.75,2.75,0,0,0-1.15.24,2.69,2.69,0,0,0-.92.68,3.07,3.07,0,0,0-.61,1,3.87,3.87,0,0,0-.21,1.31,4,4,0,0,0,.21,1.31,3,3,0,0,0,.61,1,2.69,2.69,0,0,0,.92.68A2.75,2.75,0,0,0,437,43.32Z"/><path d="M444,45V35.1h1.95l4.26,6.66V35.1h1.95V45H450.2l-4.26-6.66V45Z"/><path d="M454.85,45V35.1h1.94V45Z"/><path d="M459.5,45V35.1h1.94l4.27,6.66V35.1h1.94V45h-1.94l-4.27-6.66V45Z"/><path d="M474.49,45.19a4.66,4.66,0,0,1-3.44-1.48,4.92,4.92,0,0,1-1-1.63,5.43,5.43,0,0,1-.38-2,5.59,5.59,0,0,1,.35-2,5.09,5.09,0,0,1,1-1.64,4.8,4.8,0,0,1,1.58-1.11,5.13,5.13,0,0,1,2.07-.41,6.56,6.56,0,0,1,1.31.14,6.25,6.25,0,0,1,1.26.43,4.66,4.66,0,0,1,1.09.68l-.91,1.5a3.77,3.77,0,0,0-1.26-.75,4.27,4.27,0,0,0-1.46-.27,3.11,3.11,0,0,0-1.26.25,2.61,2.61,0,0,0-.91.7,3,3,0,0,0-.56,1,4.3,4.3,0,0,0-.2,1.32,4.42,4.42,0,0,0,.22,1.4,3.29,3.29,0,0,0,.6,1.09,2.81,2.81,0,0,0,.91.7,2.62,2.62,0,0,0,1.12.24,2.82,2.82,0,0,0,.92-.15,2.72,2.72,0,0,0,.8-.45,2.12,2.12,0,0,0,.55-.68,1.76,1.76,0,0,0,.21-.85v-.15h-2.6V39.61h4.58v1.5a3.65,3.65,0,0,1-.38,1.66,4.22,4.22,0,0,1-1,1.29,4.85,4.85,0,0,1-1.47.84A5,5,0,0,1,474.49,45.19Z"/><path d="M358.38,306.19a5.17,5.17,0,0,1-1.28-.15,5.1,5.1,0,0,1-1-.39,5.68,5.68,0,0,1-.79-.47c-.22-.17-.39-.31-.52-.43l1-1.61.47.39a6.06,6.06,0,0,0,.62.41,3.76,3.76,0,0,0,.74.32,2.65,2.65,0,0,0,.85.13,1.88,1.88,0,0,0,.74-.13,1.18,1.18,0,0,0,.51-.39,1.13,1.13,0,0,0,.18-.65,1.17,1.17,0,0,0-.15-.61,1.55,1.55,0,0,0-.44-.45,5,5,0,0,0-.71-.39c-.28-.13-.6-.28-1-.43a6.26,6.26,0,0,1-.77-.41,3.39,3.39,0,0,1-.64-.54,2.29,2.29,0,0,1-.45-.69,2.21,2.21,0,0,1-.17-.87,2.73,2.73,0,0,1,.23-1.09,2.84,2.84,0,0,1,.65-.93,3.31,3.31,0,0,1,1-.65,3.43,3.43,0,0,1,1.31-.24,4.45,4.45,0,0,1,1.08.14,5.92,5.92,0,0,1,1,.38,4.25,4.25,0,0,1,.8.51l-.81,1.53a3.06,3.06,0,0,0-.59-.4,3.48,3.48,0,0,0-.69-.29,2.78,2.78,0,0,0-.75-.11,1.54,1.54,0,0,0-.72.15,1.21,1.21,0,0,0-.46.4,1,1,0,0,0-.16.56.83.83,0,0,0,.11.43.92.92,0,0,0,.29.3,2.79,2.79,0,0,0,.46.25l.6.25c.46.19.88.39,1.26.58a4.34,4.34,0,0,1,1,.64,2.35,2.35,0,0,1,.62.82,2.68,2.68,0,0,1,.21,1.11,2.86,2.86,0,0,1-.45,1.63,2.8,2.8,0,0,1-1.26,1A4.62,4.62,0,0,1,358.38,306.19Z"/><path d="M367.57,306.19a3.87,3.87,0,0,1-2.81-.93,3.7,3.7,0,0,1-.95-2.77V296.1h1.94v5.83a2.9,2.9,0,0,0,.43,1.8,1.64,1.64,0,0,0,1.39.55,1.66,1.66,0,0,0,1.4-.55,3,3,0,0,0,.43-1.8V296.1h1.94v6.39a3.74,3.74,0,0,1-.95,2.77A3.87,3.87,0,0,1,367.57,306.19Z"/><path d="M373.36,306v-9.9h2.84a3.63,3.63,0,0,1,2.24.62,2.53,2.53,0,0,1-.46,4,2.57,2.57,0,0,1,1.59.79,2.43,2.43,0,0,1,.56,1.66,2.76,2.76,0,0,1-.39,1.49,2.55,2.55,0,0,1-1.11,1,4.08,4.08,0,0,1-1.71.33Zm1.94-5.89h.45a1.92,1.92,0,0,0,1.21-.33,1.12,1.12,0,0,0,.42-.94,1.08,1.08,0,0,0-.41-.92,2,2,0,0,0-1.22-.31h-.45Zm0,4.38h1a2.25,2.25,0,0,0,1.37-.34,1.13,1.13,0,0,0,.46-1,1.22,1.22,0,0,0-.47-1,2.2,2.2,0,0,0-1.36-.36h-1Z"/><path d="M386.28,306.19a5.6,5.6,0,0,1-2.1-.39,5.45,5.45,0,0,1-1.74-1.11,5,5,0,0,1-1.17-1.63,5,5,0,0,1,0-4,5.34,5.34,0,0,1,1.17-1.64,5.57,5.57,0,0,1,3.83-1.5,5.86,5.86,0,0,1,1.74.26,4.87,4.87,0,0,1,1.41.68l-.84,1.65a2.83,2.83,0,0,0-1-.5,4,4,0,0,0-1.2-.18,3.79,3.79,0,0,0-1.37.24,3.49,3.49,0,0,0-1.09.69,3.11,3.11,0,0,0-1,2.3,3,3,0,0,0,.26,1.27,3.05,3.05,0,0,0,.72,1A3.32,3.32,0,0,0,385,304a3.79,3.79,0,0,0,1.37.24,4,4,0,0,0,1.2-.18,3,3,0,0,0,1-.49l.84,1.65a5.14,5.14,0,0,1-1.39.67A5.83,5.83,0,0,1,386.28,306.19Z"/><path d="M395.28,306.19a4.89,4.89,0,0,1-1.95-.39,5,5,0,0,1-1.59-1.11,5.18,5.18,0,0,1-1.07-1.63,5.32,5.32,0,0,1,0-4,5.23,5.23,0,0,1,1.07-1.64,5,5,0,0,1,1.59-1.1,4.93,4.93,0,0,1,3.89,0,5,5,0,0,1,1.59,1.1,5.21,5.21,0,0,1,1.46,3.64,5.13,5.13,0,0,1-.39,2,5.14,5.14,0,0,1-2.66,2.74A4.84,4.84,0,0,1,395.28,306.19Zm0-1.87a2.77,2.77,0,0,0,1.16-.24,2.69,2.69,0,0,0,.92-.68,3.2,3.2,0,0,0,.61-1,4,4,0,0,0,.21-1.31,3.87,3.87,0,0,0-.21-1.31,3.25,3.25,0,0,0-.61-1,2.69,2.69,0,0,0-.92-.68,2.77,2.77,0,0,0-1.16-.24,2.71,2.71,0,0,0-2.08.92,3.05,3.05,0,0,0-.6,1,3.87,3.87,0,0,0-.21,1.31,4,4,0,0,0,.21,1.31,3,3,0,0,0,.6,1,2.71,2.71,0,0,0,2.08.92Z"/><path d="M402.24,306v-9.9h1.95l4.26,6.66V296.1h1.95V306h-1.95l-4.26-6.66V306Z"/><path d="M413.91,306v-8.18H411.4V296.1h7v1.72h-2.51V306Z"/><path d="M419.94,306v-9.9h3.37a4,4,0,0,1,1.76.36,2.63,2.63,0,0,1,1.16,1,3,3,0,0,1,.41,1.61,3.25,3.25,0,0,1-.26,1.35,2.77,2.77,0,0,1-.76,1,3.27,3.27,0,0,1-1.19.61l3.24,3.95H425.2l-2.85-3.73h-.46V306Zm1.95-5.35h.82a2.6,2.6,0,0,0,1-.18,1.31,1.31,0,0,0,.64-.51,1.45,1.45,0,0,0,.23-.81,1.33,1.33,0,0,0-.5-1.11,2.2,2.2,0,0,0-1.4-.39h-.82Z"/><path d="M427.76,306l4-9.9h1.8l4,9.9h-2.1l-.84-2.26h-3.89l-.84,2.26Zm3.6-4h2.56l-1.28-3.32Z"/><path d="M443.44,306.19a5.64,5.64,0,0,1-2.1-.39,5.45,5.45,0,0,1-1.74-1.11,5,5,0,0,1-1.17-1.63,4.81,4.81,0,0,1-.42-2,4.67,4.67,0,0,1,.43-2,5,5,0,0,1,1.17-1.64,5.33,5.33,0,0,1,1.72-1.1,5.49,5.49,0,0,1,2.1-.4,5.86,5.86,0,0,1,1.74.26,4.87,4.87,0,0,1,1.41.68l-.84,1.65a2.83,2.83,0,0,0-1-.5,4,4,0,0,0-1.2-.18,3.83,3.83,0,0,0-1.37.24,3.49,3.49,0,0,0-1.09.69,3.05,3.05,0,0,0-.72,1,3.22,3.22,0,0,0-.26,1.28,3.17,3.17,0,0,0,.26,1.27,3.05,3.05,0,0,0,.72,1,3.32,3.32,0,0,0,1.09.69,3.83,3.83,0,0,0,1.37.24,4,4,0,0,0,1.2-.18,3,3,0,0,0,1-.49l.84,1.65a5.07,5.07,0,0,1-1.38.67A6,6,0,0,1,443.44,306.19Z"/><path d="M449.56,306v-8.18h-2.51V296.1h7v1.72H451.5V306Z"/><path d="M459.48,306.19a4.89,4.89,0,0,1-2-.39,5,5,0,0,1-1.59-1.11,5.18,5.18,0,0,1-1.07-1.63,5.32,5.32,0,0,1,0-4,5.23,5.23,0,0,1,1.07-1.64,5,5,0,0,1,1.59-1.1,4.93,4.93,0,0,1,3.89,0,5,5,0,0,1,1.59,1.1,5.21,5.21,0,0,1,1.46,3.64,5.13,5.13,0,0,1-.39,2,5.14,5.14,0,0,1-2.66,2.74A4.84,4.84,0,0,1,459.48,306.19Zm0-1.87a2.77,2.77,0,0,0,1.16-.24,2.69,2.69,0,0,0,.92-.68,3.2,3.2,0,0,0,.61-1,4,4,0,0,0,.21-1.31,3.87,3.87,0,0,0-.21-1.31,3.25,3.25,0,0,0-.61-1,2.69,2.69,0,0,0-.92-.68,2.77,2.77,0,0,0-1.16-.24,2.71,2.71,0,0,0-2.08.92,3.05,3.05,0,0,0-.6,1,3.87,3.87,0,0,0-.21,1.31,4,4,0,0,0,.21,1.31,3,3,0,0,0,.6,1,2.71,2.71,0,0,0,2.08.92Z"/><path d="M466.44,306v-9.9h3.37a4,4,0,0,1,1.76.36,2.63,2.63,0,0,1,1.16,1,3,3,0,0,1,.41,1.61,3.25,3.25,0,0,1-.26,1.35,2.77,2.77,0,0,1-.76,1,3.27,3.27,0,0,1-1.19.61l3.24,3.95H471.7l-2.85-3.73h-.46V306Zm1.95-5.35h.82a2.6,2.6,0,0,0,1-.18,1.31,1.31,0,0,0,.64-.51,1.45,1.45,0,0,0,.23-.81,1.33,1.33,0,0,0-.5-1.11,2.2,2.2,0,0,0-1.4-.39h-.82Z"/><path d="M478.08,306.19a5,5,0,0,1-2.32-.54,5.68,5.68,0,0,1-.79-.47c-.22-.17-.39-.31-.52-.43l1-1.61.47.39a5.13,5.13,0,0,0,.62.41,3.52,3.52,0,0,0,.74.32,2.65,2.65,0,0,0,.85.13,1.88,1.88,0,0,0,.74-.13,1.25,1.25,0,0,0,.51-.39,1.13,1.13,0,0,0,.18-.65,1.17,1.17,0,0,0-.15-.61,1.55,1.55,0,0,0-.44-.45,5,5,0,0,0-.71-.39l-1-.43a6.93,6.93,0,0,1-.76-.41,3.39,3.39,0,0,1-.64-.54,2.29,2.29,0,0,1-.45-.69,2.21,2.21,0,0,1-.17-.87,2.73,2.73,0,0,1,.23-1.09,2.84,2.84,0,0,1,.65-.93,3.19,3.19,0,0,1,1-.65,3.38,3.38,0,0,1,1.3-.24,4.32,4.32,0,0,1,1.08.14,6,6,0,0,1,1,.38,4.25,4.25,0,0,1,.8.51l-.81,1.53a3.06,3.06,0,0,0-.59-.4,3.33,3.33,0,0,0-.7-.29,2.65,2.65,0,0,0-.74-.11,1.61,1.61,0,0,0-.73.15,1.17,1.17,0,0,0-.45.4,1,1,0,0,0-.16.56.83.83,0,0,0,.1.43,1,1,0,0,0,.3.3,2.79,2.79,0,0,0,.46.25l.6.25c.46.19.88.39,1.26.58a4.58,4.58,0,0,1,1,.64,2.35,2.35,0,0,1,.62.82,2.68,2.68,0,0,1,.21,1.11,2.86,2.86,0,0,1-.45,1.63,2.83,2.83,0,0,1-1.27,1A4.6,4.6,0,0,1,478.08,306.19Z"/><path d="M350.65,516l1-9.9h2.07l2.36,6.19,2.36-6.19h2.07l1,9.9h-1.94l-.61-6.41-2.27,6.16h-1.19l-2.26-6.16-.61,6.41Z"/><path d="M362.47,516l4-9.9h1.81l4,9.9h-2.09l-.84-2.26h-3.89l-.84,2.26Zm3.6-4h2.57l-1.29-3.32Z"/><path d="M373.7,516v-9.9h1.94V516Z"/><path d="M378.35,516v-9.9h1.94l4.27,6.66V506.1h1.94V516h-1.94l-4.27-6.66V516Z"/><path d="M396.9,516.19a5.69,5.69,0,0,1-2.11-.39,5.55,5.55,0,0,1-1.73-1.1,5.24,5.24,0,0,1-1.17-1.64,4.81,4.81,0,0,1-.42-2,4.89,4.89,0,0,1,.42-2,5.09,5.09,0,0,1,1.17-1.63,5.57,5.57,0,0,1,3.82-1.5,5.86,5.86,0,0,1,1.74.26,4.87,4.87,0,0,1,1.41.68l-.84,1.65a2.78,2.78,0,0,0-1-.5,4.07,4.07,0,0,0-1.21-.18,3.83,3.83,0,0,0-1.37.24,3.61,3.61,0,0,0-1.09.69,3.05,3.05,0,0,0-.72,1,3.22,3.22,0,0,0-.26,1.28,3.17,3.17,0,0,0,.26,1.27,3.05,3.05,0,0,0,.72,1,3.43,3.43,0,0,0,1.09.69,3.83,3.83,0,0,0,1.37.24,4.07,4.07,0,0,0,1.21-.18,3,3,0,0,0,1-.49l.84,1.65a4.93,4.93,0,0,1-1.38.67A5.88,5.88,0,0,1,396.9,516.19Z"/><path d="M405.89,516.19a4.84,4.84,0,0,1-1.94-.39,4.92,4.92,0,0,1-1.59-1.1,5.34,5.34,0,0,1-1.08-5.65,5.15,5.15,0,0,1,1.08-1.63,4.77,4.77,0,0,1,1.59-1.1,4.9,4.9,0,0,1,3.88,0,4.77,4.77,0,0,1,1.59,1.1,5,5,0,0,1,1.07,1.63,5.35,5.35,0,0,1,0,4,5.11,5.11,0,0,1-1.07,1.64,4.92,4.92,0,0,1-1.59,1.1A4.84,4.84,0,0,1,405.89,516.19Zm0-1.87a2.71,2.71,0,0,0,2.09-.92,3.1,3.1,0,0,0,.6-1,3.71,3.71,0,0,0,.22-1.31,3.64,3.64,0,0,0-.22-1.31,3.05,3.05,0,0,0-.6-1,2.71,2.71,0,0,0-2.09-.92,2.75,2.75,0,0,0-1.15.24,2.69,2.69,0,0,0-.92.68,3.25,3.25,0,0,0-.61,1,3.87,3.87,0,0,0-.21,1.31,4,4,0,0,0,.21,1.31,3.31,3.31,0,0,0,.61,1,2.69,2.69,0,0,0,.92.68A2.75,2.75,0,0,0,405.88,514.32Z"/><path d="M412.86,516v-9.9h1.94l4.27,6.66V506.1H421V516h-1.94l-4.27-6.66V516Z"/><path d="M424.53,516v-8.18H422V506.1h7v1.72h-2.52V516Z"/><path d="M430.56,516v-9.9h3.37a4,4,0,0,1,1.76.36,2.75,2.75,0,0,1,1.16,1,3.08,3.08,0,0,1,.41,1.61,3.18,3.18,0,0,1-.27,1.34,2.6,2.6,0,0,1-.75,1,3.4,3.4,0,0,1-1.2.61l3.24,4h-2.46L433,512.27h-.46V516Zm1.94-5.35h.83a2.59,2.59,0,0,0,1-.18A1.33,1.33,0,0,0,435,510a1.42,1.42,0,0,0,.22-.81,1.33,1.33,0,0,0-.49-1.11,2.22,2.22,0,0,0-1.4-.39h-.83Z"/><path d="M438.37,516l4-9.9h1.81l4,9.9H446l-.84-2.26h-3.89l-.84,2.26Zm3.6-4h2.57l-1.29-3.32Z"/><path d="M454.06,516.19a5.69,5.69,0,0,1-2.11-.39,5.55,5.55,0,0,1-1.73-1.1,5.24,5.24,0,0,1-1.17-1.64,4.81,4.81,0,0,1-.42-2,4.89,4.89,0,0,1,.42-2,5.09,5.09,0,0,1,1.17-1.63,5.57,5.57,0,0,1,3.82-1.5,5.86,5.86,0,0,1,1.74.26,4.87,4.87,0,0,1,1.41.68l-.84,1.65a2.78,2.78,0,0,0-1-.5,4.07,4.07,0,0,0-1.21-.18,3.74,3.74,0,0,0-1.36.24,3.54,3.54,0,0,0-1.1.69,3.05,3.05,0,0,0-.72,1,3.22,3.22,0,0,0-.26,1.28,3.17,3.17,0,0,0,.26,1.27,3.05,3.05,0,0,0,.72,1,3.36,3.36,0,0,0,1.1.69,3.74,3.74,0,0,0,1.36.24,4.07,4.07,0,0,0,1.21-.18,3,3,0,0,0,1-.49l.84,1.65a4.93,4.93,0,0,1-1.38.67A5.88,5.88,0,0,1,454.06,516.19Z"/><path d="M460.17,516v-8.18h-2.51V506.1h7v1.72h-2.51V516Z"/><path d="M470.09,516.19a4.84,4.84,0,0,1-1.94-.39,4.92,4.92,0,0,1-1.59-1.1,5.34,5.34,0,0,1-1.08-5.65,5.15,5.15,0,0,1,1.08-1.63,4.77,4.77,0,0,1,1.59-1.1,4.9,4.9,0,0,1,3.88,0,4.77,4.77,0,0,1,1.59,1.1,5,5,0,0,1,1.07,1.63,5.35,5.35,0,0,1,0,4,5.11,5.11,0,0,1-1.07,1.64,4.92,4.92,0,0,1-1.59,1.1A4.84,4.84,0,0,1,470.09,516.19Zm0-1.87a2.71,2.71,0,0,0,2.09-.92,3.1,3.1,0,0,0,.6-1,3.71,3.71,0,0,0,.22-1.31,3.64,3.64,0,0,0-.22-1.31,3.05,3.05,0,0,0-.6-1,2.71,2.71,0,0,0-2.09-.92,2.75,2.75,0,0,0-1.15.24,2.69,2.69,0,0,0-.92.68,3.25,3.25,0,0,0-.61,1,3.87,3.87,0,0,0-.21,1.31,4,4,0,0,0,.21,1.31,3.31,3.31,0,0,0,.61,1,2.69,2.69,0,0,0,.92.68A2.75,2.75,0,0,0,470.08,514.32Z"/><path d="M477.06,516v-9.9h3.37a4,4,0,0,1,1.76.36,2.75,2.75,0,0,1,1.16,1,3.08,3.08,0,0,1,.41,1.61,3.18,3.18,0,0,1-.27,1.34,2.7,2.7,0,0,1-.75,1,3.4,3.4,0,0,1-1.2.61l3.24,4h-2.46l-2.86-3.73H479V516Zm1.94-5.35h.83a2.59,2.59,0,0,0,1-.18,1.33,1.33,0,0,0,.65-.51,1.42,1.42,0,0,0,.22-.81,1.33,1.33,0,0,0-.49-1.11,2.22,2.22,0,0,0-1.4-.39H479Z"/><path d="M384.18,755.85V746h2.72a5.07,5.07,0,0,1,2,.37,5.21,5.21,0,0,1,1.59,1.06,4.88,4.88,0,0,1,1.06,1.58,5,5,0,0,1,.38,1.94,4.85,4.85,0,0,1-.38,2,4.69,4.69,0,0,1-1.06,1.57,4.79,4.79,0,0,1-1.59,1.05,5.07,5.07,0,0,1-2,.38Zm1.94-1.74h.56a3.24,3.24,0,0,0,1.25-.24,3,3,0,0,0,1-.68,3.19,3.19,0,0,0,.65-1,3.39,3.39,0,0,0-.65-3.58,2.94,2.94,0,0,0-1-.67,3.24,3.24,0,0,0-1.25-.24h-.56Z"/><path d="M393.85,755.85V746h5.51v1.7H395.8V750h3.42v1.71H395.8v2.4h3.56v1.71Z"/><path d="M404.32,756a4.6,4.6,0,0,1-1.27-.16,5.6,5.6,0,0,1-1.05-.38,4.74,4.74,0,0,1-.78-.48,4.61,4.61,0,0,1-.53-.43l1-1.61c.13.12.29.25.47.39a6.09,6.09,0,0,0,.62.42,4.46,4.46,0,0,0,.74.32,3,3,0,0,0,.85.13,2.08,2.08,0,0,0,.74-.13,1.08,1.08,0,0,0,.51-.4,1.11,1.11,0,0,0,.19-.65,1.14,1.14,0,0,0-.15-.6,1.38,1.38,0,0,0-.45-.45,5,5,0,0,0-.71-.4l-1-.43a5.14,5.14,0,0,1-.77-.41,3,3,0,0,1-.64-.53,2.46,2.46,0,0,1-.45-.7,2.13,2.13,0,0,1-.16-.86,2.77,2.77,0,0,1,.22-1.1A3,3,0,0,1,403.4,746a3.43,3.43,0,0,1,1.31-.24,4,4,0,0,1,1.08.14,5.54,5.54,0,0,1,1,.38,3.58,3.58,0,0,1,.79.51l-.81,1.52a3.59,3.59,0,0,0-.59-.4,3.44,3.44,0,0,0-.69-.28,2.78,2.78,0,0,0-.75-.11,1.57,1.57,0,0,0-.72.15,1.13,1.13,0,0,0-.46.4,1,1,0,0,0-.16.55.83.83,0,0,0,.11.43,1.06,1.06,0,0,0,.29.31,2.29,2.29,0,0,0,.47.24c.18.08.37.17.59.25.46.2.88.39,1.26.59a4.78,4.78,0,0,1,1,.63,2.55,2.55,0,0,1,.61.82,2.76,2.76,0,0,1,.21,1.12,2.91,2.91,0,0,1-.45,1.63,2.86,2.86,0,0,1-1.26,1A4.62,4.62,0,0,1,404.32,756Z"/><path d="M409.92,755.85V746h1.94v9.9Z"/><path d="M418.71,756a4.66,4.66,0,0,1-1.91-.39,4.79,4.79,0,0,1-1.54-1.09,5.13,5.13,0,0,1-1-1.64,5.37,5.37,0,0,1-.37-2,5.43,5.43,0,0,1,.35-2,4.88,4.88,0,0,1,1-1.63,4.55,4.55,0,0,1,1.57-1.12,5.13,5.13,0,0,1,2.07-.4,5.84,5.84,0,0,1,1.31.14,6.66,6.66,0,0,1,1.26.42,5.16,5.16,0,0,1,1.09.68l-.91,1.51a3.61,3.61,0,0,0-1.26-.75,4.23,4.23,0,0,0-1.46-.27,2.91,2.91,0,0,0-1.25.25,2.65,2.65,0,0,0-.92.7,3.11,3.11,0,0,0-.56,1,4.23,4.23,0,0,0-.19,1.31,4.44,4.44,0,0,0,.21,1.41,3.34,3.34,0,0,0,.61,1.08,2.61,2.61,0,0,0,2,1,2.68,2.68,0,0,0,.93-.16,2.46,2.46,0,0,0,.79-.45,2.08,2.08,0,0,0,.55-.67,1.79,1.79,0,0,0,.21-.86V752h-2.6v-1.5h4.58V752a3.64,3.64,0,0,1-.38,1.65,4,4,0,0,1-1,1.29,4.93,4.93,0,0,1-3.15,1.14Z"/><path d="M425.22,755.85V746h1.94l4.27,6.66V746h1.94v9.9h-1.94l-4.27-6.66v6.66Z"/><path d="M436.07,755.85V746h5.51v1.7H438V750h3.42v1.71H438v2.4h3.56v1.71Z"/><path d="M444,755.85V746h3.37a4,4,0,0,1,1.76.35,2.65,2.65,0,0,1,1.16,1,3,3,0,0,1,.41,1.61,3.37,3.37,0,0,1-.26,1.34,2.81,2.81,0,0,1-.76,1,3.26,3.26,0,0,1-1.19.6l3.24,4h-2.47l-2.86-3.74h-.46v3.74Zm1.94-5.36h.83a2.65,2.65,0,0,0,1-.17,1.43,1.43,0,0,0,.64-.51,1.46,1.46,0,0,0,.23-.82,1.3,1.3,0,0,0-.5-1.1,2.22,2.22,0,0,0-1.4-.39h-.83Z"/><path d="M843.33,411v-9.9h5.51v1.7h-3.56v2.39h3.42v1.7h-3.42v2.41h3.56V411Z"/><path d="M851.22,411v-9.9h2.72a5.11,5.11,0,0,1,2,.38,5,5,0,0,1,1.59,1,5.16,5.16,0,0,1,1.06,1.58,5,5,0,0,1,.38,1.95,4.94,4.94,0,0,1-.38,1.94,4.83,4.83,0,0,1-1.06,1.58,4.77,4.77,0,0,1-1.59,1,4.89,4.89,0,0,1-2,.38Zm1.94-1.74h.56A3.15,3.15,0,0,0,855,409a2.94,2.94,0,0,0,1-.67,3.2,3.2,0,0,0,.66-1,3.55,3.55,0,0,0,.23-1.28,3.59,3.59,0,0,0-.23-1.28,3.2,3.2,0,0,0-.66-1,2.94,2.94,0,0,0-1-.67,3.15,3.15,0,0,0-1.24-.24h-.56Z"/><path d="M860.44,411l1-9.9h2.06l2.37,6.19,2.36-6.19h2.06l1,9.9h-2l-.61-6.41-2.26,6.16h-1.19L863,404.59l-.62,6.41Z"/><path d="M875.84,411.19a5.17,5.17,0,0,1-1.28-.15,5.1,5.1,0,0,1-1-.39,5.68,5.68,0,0,1-.79-.47c-.22-.17-.39-.31-.52-.43l1-1.61.47.39a6.06,6.06,0,0,0,.62.41,3.76,3.76,0,0,0,.74.32,2.65,2.65,0,0,0,.85.13,1.88,1.88,0,0,0,.74-.13,1.18,1.18,0,0,0,.51-.39,1.13,1.13,0,0,0,.18-.65,1.17,1.17,0,0,0-.15-.61,1.55,1.55,0,0,0-.44-.45,5,5,0,0,0-.71-.39c-.28-.13-.6-.28-1-.43a6.26,6.26,0,0,1-.77-.41,3.39,3.39,0,0,1-.64-.54,2.29,2.29,0,0,1-.45-.69,2.21,2.21,0,0,1-.17-.87,2.73,2.73,0,0,1,.23-1.09,2.84,2.84,0,0,1,.65-.93,3.31,3.31,0,0,1,1-.65,3.43,3.43,0,0,1,1.31-.24,4.45,4.45,0,0,1,1.08.14,5.92,5.92,0,0,1,1,.38,4.25,4.25,0,0,1,.8.51l-.81,1.53a3.06,3.06,0,0,0-.59-.4,3.48,3.48,0,0,0-.69-.29,2.78,2.78,0,0,0-.75-.11,1.54,1.54,0,0,0-.72.15,1.21,1.21,0,0,0-.46.4,1,1,0,0,0-.16.56.83.83,0,0,0,.11.43.92.92,0,0,0,.29.3,2.79,2.79,0,0,0,.46.25l.6.25c.46.19.88.39,1.26.58a4.34,4.34,0,0,1,1,.64,2.35,2.35,0,0,1,.62.82,2.68,2.68,0,0,1,.21,1.11,2.86,2.86,0,0,1-.45,1.63,2.8,2.8,0,0,1-1.26,1A4.62,4.62,0,0,1,875.84,411.19Z"/><path d="M1492.34,412l1-9.9h2.07l2.36,6.19,2.37-6.19h2.06l1,9.9h-1.94l-.61-6.41-2.26,6.16h-1.2l-2.25-6.16-.62,6.41Z"/><path d="M1504.17,412l4-9.9H1510l4,9.9h-2.09l-.84-2.26h-3.89l-.84,2.26Zm3.6-4h2.56l-1.29-3.32Z"/><path d="M1515.39,412v-9.9h1.95l4.26,6.66V402.1h2V412h-2l-4.26-6.66V412Z"/><path d="M1529.85,412.19a3.88,3.88,0,0,1-2.82-.93,3.74,3.74,0,0,1-1-2.77V402.1H1528v5.83a2.9,2.9,0,0,0,.43,1.8,2,2,0,0,0,2.79,0,2.9,2.9,0,0,0,.43-1.8V402.1h1.94v6.39a3.7,3.7,0,0,1-.95,2.77A3.86,3.86,0,0,1,1529.85,412.19Z"/><path d="M1534.92,412l4-9.9h1.81l4,9.9h-2.09l-.84-2.26h-3.89L1537,412Zm3.6-4h2.56l-1.29-3.32Z"/><path d="M1546.14,412v-9.9h1.95v8.2h3.57V412Z"/><path d="M1555.82,412.19a5.08,5.08,0,0,1-1.27-.15,4.89,4.89,0,0,1-1-.39,5.68,5.68,0,0,1-.79-.47c-.22-.17-.39-.31-.52-.43l1-1.61.47.39a5.13,5.13,0,0,0,.62.41,3.52,3.52,0,0,0,.74.32,2.65,2.65,0,0,0,.85.13,1.88,1.88,0,0,0,.74-.13,1.25,1.25,0,0,0,.51-.39,1.13,1.13,0,0,0,.18-.65,1.17,1.17,0,0,0-.15-.61,1.55,1.55,0,0,0-.44-.45,5,5,0,0,0-.71-.39l-1-.43a6.26,6.26,0,0,1-.77-.41,3.39,3.39,0,0,1-.64-.54,2.29,2.29,0,0,1-.45-.69,2.21,2.21,0,0,1-.17-.87,2.73,2.73,0,0,1,.23-1.09,2.84,2.84,0,0,1,.65-.93,3.19,3.19,0,0,1,1-.65,3.4,3.4,0,0,1,1.31-.24,4.51,4.51,0,0,1,1.08.14,6.27,6.27,0,0,1,1,.38,4.6,4.6,0,0,1,.8.51l-.82,1.53a2.71,2.71,0,0,0-.58-.4,3.33,3.33,0,0,0-.7-.29,2.65,2.65,0,0,0-.74-.11,1.61,1.61,0,0,0-.73.15,1.17,1.17,0,0,0-.45.4,1,1,0,0,0-.16.56.83.83,0,0,0,.1.43,1,1,0,0,0,.3.3,2.79,2.79,0,0,0,.46.25l.6.25c.46.19.88.39,1.26.58a4.34,4.34,0,0,1,1,.64,2.35,2.35,0,0,1,.62.82,2.68,2.68,0,0,1,.21,1.11,2.86,2.86,0,0,1-.45,1.63,2.8,2.8,0,0,1-1.26,1A4.63,4.63,0,0,1,1555.82,412.19Z"/><line class="cls-8" x1="990.1" y1="473.5" x2="1061.57" y2="473.5"/><polygon class="cls-9" points="1060.03 478.74 1069.1 473.5 1060.03 468.26 1060.03 478.74"/><line class="cls-8" x1="1320.1" y1="473.5" x2="1391.07" y2="473.5"/><polygon class="cls-9" points="1389.53 478.74 1398.6 473.5 1389.53 468.26 1389.53 478.74"/></g></g></svg>