<svg xmlns="http://www.w3.org/2000/svg" viewBox="0 0 903.33 610.16"><defs><style>.cls-1{fill:#f5f7f5;}.cls-2{fill:#f4ce43;}.cls-3{fill:#393637;}</style></defs><g id="Layer_2" data-name="Layer 2"><g id="Layer_1-2" data-name="Layer 1"><path class="cls-1" d="M417.44,397.56V353h8.94l24.46,31.44V353h8.93v44.6h-8.93l-24.46-31.44v31.44Z"/><path class="cls-1" d="M519.7,397.56V353h14.21l2.22,0c1.1,0,2.17.1,3.2.22a17,17,0,0,1,9,3.76,19.45,19.45,0,0,1,5.56,7.85,29.78,29.78,0,0,1,0,20.88,19.45,19.45,0,0,1-5.56,7.85,17,17,0,0,1-9,3.76,31.76,31.76,0,0,1-3.19.22l-2.23,0Zm7.59-7h6.62q.93,0,2.37-.06a19.64,19.64,0,0,0,2.56-.28,8.8,8.8,0,0,0,5.14-2.82A14,14,0,0,0,546.9,382a24.33,24.33,0,0,0,0-13.5,13.49,13.49,0,0,0-3-5.36,9,9,0,0,0-5.09-2.76,14.46,14.46,0,0,0-2.56-.29c-1,0-1.75-.05-2.37-.05h-6.62Z"/><path class="cls-1" d="M563.08,397.56V353h28.81v7H570.55v11h17.62v7H570.55v12.61h21.34v7Z"/><path class="cls-1" d="M599.32,397.56V353h2.6v21h27V353h2.61v44.6h-2.61v-21h-27v21Z"/><path class="cls-1" d="M638.93,397.56V353h27.25v2.6H641.53V374h20.93v2.6H641.53V395h24.65v2.6Z"/><path class="cls-1" d="M672.18,397.56,687.85,375l-15.3-22h3.1l13.63,19.88L703,353h3.1l-15.3,22,15.67,22.61h-3.09l-14.06-20.44-14,20.44Z"/><path class="cls-2" d="M498.63,360.07l8.85,15.33-8.85,15.33h-17.7l-8.86-15.33,8.86-15.33h17.7m4.1-7.11H476.82L463.87,375.4l12.95,22.44h25.91l13-22.44-13-22.44Z"/><path class="cls-1" d="M424.3,437.24a11.31,11.31,0,0,1-4.3-.81,10.7,10.7,0,0,1-3.47-2.27,10.48,10.48,0,0,1-2.3-3.4,11.12,11.12,0,0,1,0-8.43,10.52,10.52,0,0,1,2.3-3.41,10.68,10.68,0,0,1,3.47-2.26,11.05,11.05,0,0,1,4.3-.82,11.38,11.38,0,0,1,3.64.57,10.41,10.41,0,0,1,3,1.56l-.9,1.59a7.82,7.82,0,0,0-2.55-1.37,10,10,0,0,0-3.08-.47,9.33,9.33,0,0,0-3.59.67,8.6,8.6,0,0,0-2.83,1.88,8.51,8.51,0,0,0-1.86,2.81,9.56,9.56,0,0,0,0,6.93,8.46,8.46,0,0,0,4.69,4.68,9.33,9.33,0,0,0,3.59.68,9.74,9.74,0,0,0,3.08-.48,7.8,7.8,0,0,0,2.55-1.36l.9,1.59a10.65,10.65,0,0,1-3,1.55A11.41,11.41,0,0,1,424.3,437.24Z"/><path class="cls-1" d="M444.54,437.24a10,10,0,0,1-4.05-.82,10.32,10.32,0,0,1-3.31-2.3A11,11,0,0,1,435,422.37a10.72,10.72,0,0,1,2.23-3.41,10.29,10.29,0,0,1,3.31-2.29,10.3,10.3,0,0,1,8.1,0A10.29,10.29,0,0,1,451.9,419a11,11,0,0,1,2.23,11.75,10.61,10.61,0,0,1-2.23,3.41,10.32,10.32,0,0,1-3.31,2.3A10,10,0,0,1,444.54,437.24Zm0-1.83a8,8,0,0,0,3.28-.68,8.25,8.25,0,0,0,2.65-1.89,8.78,8.78,0,0,0,1.78-2.82,9.75,9.75,0,0,0,0-6.95,8.71,8.71,0,0,0-1.78-2.83,8.22,8.22,0,0,0-2.65-1.88,8.25,8.25,0,0,0-6.56,0,8.15,8.15,0,0,0-2.66,1.88,8.88,8.88,0,0,0-1.78,2.83,9.75,9.75,0,0,0,0,6.95,9,9,0,0,0,1.78,2.82,8.18,8.18,0,0,0,2.66,1.89A8,8,0,0,0,444.54,435.41Z"/><path class="cls-1" d="M460.4,436.84V416.22h1.9l11.08,17.39V416.22h1.9v20.62h-1.9L462.3,419.48v17.36Z"/><path class="cls-1" d="M486.65,437.24a7.59,7.59,0,0,1-2.81-.48,8.09,8.09,0,0,1-2.06-1.16,9,9,0,0,1-1.35-1.33,11.51,11.51,0,0,1-.7-1l1.08-1.4c.15.24.38.55.69.95a8.56,8.56,0,0,0,1.16,1.2,6.69,6.69,0,0,0,1.72,1,5.88,5.88,0,0,0,2.31.42A5.66,5.66,0,0,0,489,435a3.91,3.91,0,0,0,1.66-1.34,4.24,4.24,0,0,0,.19-4.07,4,4,0,0,0-1.19-1.3,9.35,9.35,0,0,0-1.75-1c-.65-.28-1.34-.55-2.05-.82-.5-.19-1-.42-1.57-.68a6.91,6.91,0,0,1-1.53-1,4.55,4.55,0,0,1-1.16-1.44,4.46,4.46,0,0,1-.44-2.05,5.38,5.38,0,0,1,.42-2.12,5.54,5.54,0,0,1,3-3,6.52,6.52,0,0,1,4.63,0,7.1,7.1,0,0,1,1.82,1,5.29,5.29,0,0,1,1.2,1.29l-1,1.31a4.32,4.32,0,0,0-1-1.1,5.05,5.05,0,0,0-3.33-1.19,4,4,0,0,0-2.17.55,3.7,3.7,0,0,0-1.36,1.42,3.82,3.82,0,0,0-.46,1.83,2.91,2.91,0,0,0,.36,1.49,3.25,3.25,0,0,0,1,1,7,7,0,0,0,1.32.72c.48.2,1,.39,1.45.56.8.3,1.58.62,2.33,1a8.92,8.92,0,0,1,2,1.2,5,5,0,0,1,1.39,1.68,5.26,5.26,0,0,1,.51,2.41,5.33,5.33,0,0,1-3.24,5.13A7.88,7.88,0,0,1,486.65,437.24Z"/><path class="cls-1" d="M501.71,436.84v-18.9h-6.28v-1.72h14.5v1.72h-6.32v18.9Z"/><path class="cls-1" d="M514.66,436.84V416.22H520a8,8,0,0,1,3.5.7,5.21,5.21,0,0,1,2.29,2,5.93,5.93,0,0,1,.8,3.12,6.12,6.12,0,0,1-.68,2.93,5.35,5.35,0,0,1-1.93,2,6.64,6.64,0,0,1-3,1l6.86,8.86h-2.41l-6.58-8.68h-2.35v8.68Zm1.9-10.33h3a6.31,6.31,0,0,0,2.72-.54,4.09,4.09,0,0,0,1.75-1.53,4.41,4.41,0,0,0,.62-2.35,3.93,3.93,0,0,0-1.35-3.17,5.56,5.56,0,0,0-3.74-1.15h-3Z"/><path class="cls-1" d="M539,437.24a6.93,6.93,0,0,1-5.36-1.95q-1.78-1.95-1.79-5.83V416.22h1.9V429a7.33,7.33,0,0,0,1.3,4.76,5.73,5.73,0,0,0,7.88,0,7.33,7.33,0,0,0,1.31-4.76V416.22h1.91v13.24q0,3.89-1.8,5.83A6.91,6.91,0,0,1,539,437.24Z"/><path class="cls-1" d="M561.55,437.24a11.31,11.31,0,0,1-4.3-.81,10.7,10.7,0,0,1-3.47-2.27,10.33,10.33,0,0,1-2.3-3.4,11.12,11.12,0,0,1,0-8.43,10.37,10.37,0,0,1,2.3-3.41,10.63,10.63,0,0,1,3.46-2.26,11.14,11.14,0,0,1,4.31-.82,11.42,11.42,0,0,1,3.64.57,10.41,10.41,0,0,1,3,1.56l-.9,1.59a8,8,0,0,0-2.55-1.37,10,10,0,0,0-3.08-.47,9.33,9.33,0,0,0-3.59.67,8.6,8.6,0,0,0-2.83,1.88,8.51,8.51,0,0,0-1.86,2.81,9.56,9.56,0,0,0,0,6.93,8.46,8.46,0,0,0,4.69,4.68,9.33,9.33,0,0,0,3.59.68,9.74,9.74,0,0,0,3.08-.48,8,8,0,0,0,2.55-1.36l.9,1.59a10.65,10.65,0,0,1-3,1.55A11.41,11.41,0,0,1,561.55,437.24Z"/><path class="cls-1" d="M577,436.84v-18.9h-6.29v-1.72h14.5v1.72h-6.31v18.9Z"/><path class="cls-1" d="M589.92,436.84V416.22h1.9v20.62Z"/><path class="cls-1" d="M607.69,437.24a10,10,0,0,1-4.05-.82,10.47,10.47,0,0,1-3.32-2.3,11.08,11.08,0,0,1-2.23-11.75,10.89,10.89,0,0,1,2.23-3.41,10.44,10.44,0,0,1,3.32-2.29,10.3,10.3,0,0,1,8.1,0,10.29,10.29,0,0,1,3.31,2.29,10.89,10.89,0,0,1,2.23,3.41,10.93,10.93,0,0,1-2.23,11.75,10.32,10.32,0,0,1-3.31,2.3A10,10,0,0,1,607.69,437.24Zm0-1.83a8,8,0,0,0,3.27-.68,8.18,8.18,0,0,0,2.66-1.89A9,9,0,0,0,615.4,430a9.75,9.75,0,0,0,0-6.95,8.88,8.88,0,0,0-1.78-2.83,8.15,8.15,0,0,0-2.66-1.88,8.23,8.23,0,0,0-6.55,0,8,8,0,0,0-2.66,1.88,8.88,8.88,0,0,0-1.78,2.83,9.61,9.61,0,0,0,0,6.95,9,9,0,0,0,1.78,2.82,8.08,8.08,0,0,0,2.66,1.89A8,8,0,0,0,607.69,435.41Z"/><path class="cls-1" d="M623.55,436.84V416.22h1.9l11.08,17.39V416.22h1.89v20.62h-1.89l-11.08-17.36v17.36Z"/><path class="cls-1" d="M651.57,436.84V416.22h4.65a10.5,10.5,0,0,1,4.09.79,10,10,0,0,1,3.3,2.19,10.26,10.26,0,0,1,2.21,3.28,10.14,10.14,0,0,1,.8,4.06,10.44,10.44,0,0,1-.78,4,10,10,0,0,1-2.21,3.28,10.17,10.17,0,0,1-3.31,2.19,10.65,10.65,0,0,1-4.1.78Zm1.9-1.7h2.58a8.74,8.74,0,0,0,3.38-.65,8.36,8.36,0,0,0,2.72-1.83,8.26,8.26,0,0,0,1.82-2.74,9.17,9.17,0,0,0,0-6.78,8.32,8.32,0,0,0-1.82-2.73,8.17,8.17,0,0,0-2.73-1.84,8.72,8.72,0,0,0-3.37-.65h-2.58Z"/><path class="cls-1" d="M670,436.84l8.12-20.62h1.76L688,436.84h-2l-2.52-6.57h-8.86l-2.54,6.57Zm5.21-8.25h7.57L679,418.72Z"/><path class="cls-1" d="M695.89,436.84v-18.9H689.6v-1.72h14.5v1.72h-6.31v18.9Z"/><path class="cls-1" d="M705.62,436.84l8.13-20.62h1.76l8.11,20.62h-2l-2.51-6.57H710.2l-2.54,6.57Zm5.22-8.25h7.57l-3.79-9.87Z"/><path class="cls-1" d="M734.22,436.84V416.22h5.66A10.43,10.43,0,0,1,744,417a10,10,0,0,1,3.31,2.2,10.16,10.16,0,0,1,3,7.33,10.45,10.45,0,0,1-.78,4.06,10.16,10.16,0,0,1-5.52,5.46,10.65,10.65,0,0,1-4.1.78Zm4-3.62h1.17a6.63,6.63,0,0,0,2.58-.5,6.27,6.27,0,0,0,2.06-1.4,6.45,6.45,0,0,0,1.37-2.12,7.49,7.49,0,0,0,0-5.33,6.45,6.45,0,0,0-1.37-2.12,6.15,6.15,0,0,0-2.06-1.41,6.63,6.63,0,0,0-2.58-.5h-1.17Z"/><path class="cls-1" d="M754.37,436.84V416.22h4v20.62Z"/><path class="cls-1" d="M772.69,437.24a9.75,9.75,0,0,1-4-.81,9.93,9.93,0,0,1-3.21-2.27,10.58,10.58,0,0,1-2.15-3.4,11.28,11.28,0,0,1-.77-4.23,11.69,11.69,0,0,1,.72-4.11A10.39,10.39,0,0,1,765.4,419a9.58,9.58,0,0,1,3.29-2.32,10.49,10.49,0,0,1,4.31-.85,12.73,12.73,0,0,1,2.72.3,13.33,13.33,0,0,1,2.63.88,10.24,10.24,0,0,1,2.27,1.42l-1.9,3.14a7.58,7.58,0,0,0-2.63-1.57,8.93,8.93,0,0,0-3-.55,6.3,6.3,0,0,0-2.61.51,5.51,5.51,0,0,0-1.91,1.46,6.77,6.77,0,0,0-1.17,2.19,9.64,9.64,0,0,0,0,5.66,6.79,6.79,0,0,0,1.26,2.26,5.56,5.56,0,0,0,1.88,1.47,5.44,5.44,0,0,0,2.34.51,5.76,5.76,0,0,0,1.93-.33,5.34,5.34,0,0,0,1.65-.93,4.48,4.48,0,0,0,1.15-1.42,3.68,3.68,0,0,0,.43-1.77v-.31h-5.41v-3.14h9.53v3.12a7.61,7.61,0,0,1-.78,3.45,8.37,8.37,0,0,1-2.13,2.68,9.94,9.94,0,0,1-3,1.75A10,10,0,0,1,772.69,437.24Z"/><path class="cls-1" d="M786.26,436.84V416.22h4v20.62Z"/><path class="cls-1" d="M797.65,436.84v-17h-5.23v-3.57h14.5v3.57h-5.24v17Z"/><path class="cls-1" d="M806.44,436.84l8.28-20.62h3.77l8.27,20.62H822.4l-1.75-4.7h-8.1l-1.75,4.7Zm7.5-8.25h5.33l-2.67-6.91Z"/><path class="cls-1" d="M829.82,436.84V416.22h4v17.07h7.45v3.55Z"/><path class="cls-1" d="M844.62,436.84V416.22h4v20.62Z"/><path class="cls-1" d="M859.19,437.24a10.16,10.16,0,0,1-2.66-.32,10.32,10.32,0,0,1-2.16-.8,11.23,11.23,0,0,1-1.65-1,9.79,9.79,0,0,1-1.08-.9l2.07-3.35c.28.24.6.51,1,.81a10,10,0,0,0,1.29.86,7.39,7.39,0,0,0,1.54.67,5.66,5.66,0,0,0,1.77.27,4.07,4.07,0,0,0,1.54-.27,2.43,2.43,0,0,0,1.06-.82,2.25,2.25,0,0,0,.38-1.36,2.34,2.34,0,0,0-.31-1.25,3,3,0,0,0-.92-.94,10.86,10.86,0,0,0-1.48-.83l-2-.89a12.1,12.1,0,0,1-1.59-.86,6.66,6.66,0,0,1-1.35-1.11,5.13,5.13,0,0,1-.93-1.45,4.55,4.55,0,0,1-.34-1.8,5.74,5.74,0,0,1,.47-2.28,6.15,6.15,0,0,1,1.36-1.94,6.89,6.89,0,0,1,2.1-1.35,7.16,7.16,0,0,1,2.72-.5,8.7,8.7,0,0,1,2.25.3,11.4,11.4,0,0,1,2.1.79A8.54,8.54,0,0,1,866,418l-1.69,3.18a6.38,6.38,0,0,0-1.22-.83,7.14,7.14,0,0,0-1.45-.6,5.48,5.48,0,0,0-1.55-.22,3.28,3.28,0,0,0-1.51.31,2.42,2.42,0,0,0-1,.83,2.12,2.12,0,0,0-.33,1.16,1.66,1.66,0,0,0,.22.89,1.89,1.89,0,0,0,.62.64,5.32,5.32,0,0,0,1,.51l1.24.52c1,.41,1.84.81,2.62,1.21a10.31,10.31,0,0,1,2,1.33,4.93,4.93,0,0,1,1.28,1.71,5.53,5.53,0,0,1,.45,2.33,5.76,5.76,0,0,1-3.58,5.54A9.57,9.57,0,0,1,859.19,437.24Z"/><path class="cls-1" d="M870.85,436.84V416.22h11.47v3.55H874.9v5H882v3.55H874.9v5h7.42v3.55Z"/><path class="cls-1" d="M887.27,436.84V416.22h5.66A10.43,10.43,0,0,1,897,417a10,10,0,0,1,3.31,2.2,10.16,10.16,0,0,1,3,7.33,10.45,10.45,0,0,1-.78,4.06,10.16,10.16,0,0,1-5.52,5.46,10.65,10.65,0,0,1-4.1.78Zm4.05-3.62h1.17a6.63,6.63,0,0,0,2.58-.5,6.27,6.27,0,0,0,2.06-1.4,6.45,6.45,0,0,0,1.37-2.12,7.49,7.49,0,0,0,0-5.33,6.45,6.45,0,0,0-1.37-2.12,6.15,6.15,0,0,0-2.06-1.41,6.63,6.63,0,0,0-2.58-.5h-1.17Z"/><path class="cls-3" d="M369.63,116.12l38.29,66.3-38.29,66.31H293.09l-38.25-66.31,38.25-66.3h76.54m5.09-8.79H288L244.7,182.42,288,257.51h86.68l43.34-75.09Z"/><path class="cls-3" d="M332.9,256.09H288.57L266.4,217.7l22.17-38.39H332.9l22.16,38.39Zm-40.78-6.15h37.23L348,217.7l-18.62-32.25H292.12L273.5,217.7Z"/><path class="cls-3" d="M332.9,185.45H288.57L266.4,147.06l22.17-38.39H332.9l22.16,38.39Zm-40.78-6.14h37.23L348,147.06l-18.62-32.24H292.12L273.5,147.06Z"/><path class="cls-3" d="M394.33,220.81H350l-22.16-38.39L350,144h44.33l22.16,38.39Zm-40.79-6.14h37.24l18.62-32.25-18.62-32.24H353.54l-18.61,32.24Z"/><path class="cls-3" d="M247.21,45.47l38.29,66.3-38.29,66.31H170.67l-38.24-66.31,38.24-66.3h76.54m5.1-8.79H165.62l-43.34,75.09,43.34,75.09h86.69l43.34-75.09Z"/><path class="cls-3" d="M210.48,185.44H166.15L144,147.05l22.16-38.39h44.33l22.16,38.39Zm-40.78-6.15h37.23l18.62-32.24L206.93,114.8H169.7l-18.62,32.25Z"/><path class="cls-3" d="M210.48,114.8H166.15L144,76.41,166.15,38h44.33l22.16,38.39Zm-40.78-6.14h37.23l18.62-32.25L206.93,44.17H169.7L151.08,76.41Z"/><path class="cls-3" d="M271.91,150.16H227.58l-22.16-38.39,22.16-38.39h44.33l22.16,38.39ZM231.13,144h37.23L287,111.77,268.36,79.53H231.13l-18.62,32.24Z"/><path class="cls-3" d="M492.17,186.88l38.29,66.31L492.17,319.5H415.63l-38.24-66.31,38.24-66.31h76.54m5.09-8.78H410.58l-43.34,75.09,43.34,75.09h86.68l43.34-75.09Z"/><path class="cls-3" d="M455.44,326.85H411.11L389,288.47l22.16-38.39h44.33l22.16,38.39Zm-40.78-6.14h37.23l18.62-32.24-18.62-32.25H414.66L396,288.47Z"/><path class="cls-3" d="M455.44,256.22H411.11L389,217.83l22.16-38.39h44.33l22.16,38.39Zm-40.78-6.14h37.23l18.62-32.25-18.62-32.24H414.66L396,217.83Z"/><path class="cls-3" d="M516.87,291.58H472.54l-22.16-38.39,22.16-38.39h44.33L539,253.19Zm-40.78-6.14h37.23l18.62-32.25-18.62-32.25H476.09l-18.62,32.25Z"/><path class="cls-3" d="M511.58,8.78l38.29,66.31-38.29,66.3H435l-38.25-66.3L435,8.78h76.54M516.67,0H430L386.65,75.09,430,150.18h86.68L560,75.09Z"/><path class="cls-3" d="M474.85,148.75H430.52l-22.16-38.39L430.52,72h44.33L497,110.36Zm-40.79-6.14H471.3l18.62-32.25L471.3,78.12H434.06l-18.61,32.24Z"/><path class="cls-3" d="M474.85,78.12H430.52L408.36,39.73,430.52,1.34h44.33L497,39.73ZM434.06,72H471.3l18.62-32.25L471.3,7.48H434.06L415.45,39.73Z"/><path class="cls-3" d="M536.28,113.48H492L469.78,75.09,492,36.7h44.33l22.16,38.39Zm-40.79-6.15h37.24l18.62-32.24L532.73,42.84H495.49L476.88,75.09Z"/><path class="cls-3" d="M369.63,257.51l38.29,66.31-38.29,66.3H293.09l-38.25-66.3,38.25-66.31h76.54m5.09-8.78H288L244.7,323.82,288,398.9h86.68l43.34-75.08Z"/><path class="cls-3" d="M332.9,397.48H288.57l-22.16-38.39,22.16-38.39H332.9l22.16,38.39Zm-40.78-6.14h37.23L348,359.09l-18.62-32.24H292.12L273.5,359.09Z"/><path class="cls-3" d="M332.9,326.85H288.57l-22.16-38.39,22.16-38.39H332.9l22.16,38.39Zm-40.78-6.15h37.23L348,288.46l-18.62-32.25H292.12L273.5,288.46Z"/><path class="cls-3" d="M394.33,362.2H350l-22.16-38.39L350,285.43h44.33l22.16,38.38Zm-40.79-6.14h37.24l18.62-32.25-18.62-32.24H353.54l-18.61,32.24Z"/><path class="cls-3" d="M370.14,398.9l38.29,66.31-38.29,66.3H293.6l-38.25-66.3L293.6,398.9h76.54m5.09-8.78H288.55l-43.34,75.09,43.34,75.09h86.68l43.34-75.09Z"/><path class="cls-3" d="M333.41,538.87H289.08l-22.17-38.39,22.17-38.38h44.33l22.16,38.38Zm-40.79-6.14h37.24l18.62-32.25-18.62-32.24H292.62L274,500.48Z"/><path class="cls-3" d="M333.41,468.24H289.08l-22.17-38.39,22.17-38.39h44.33l22.16,38.39Zm-40.79-6.14h37.24l18.62-32.25-18.62-32.24H292.62L274,429.85Z"/><path class="cls-3" d="M394.84,503.6H350.51l-22.17-38.39,22.17-38.39h44.33L417,465.21Zm-40.79-6.15h37.24l18.62-32.24L391.29,433H354.05l-18.61,32.25Z"/><path class="cls-3" d="M491.92,468.76l38.29,66.31-38.29,66.31H415.39l-38.25-66.31,38.25-66.31h76.53M497,460H410.34L367,535.07l43.34,75.09H497l43.34-75.09Z"/><path class="cls-3" d="M455.19,608.73H410.86L388.7,570.35,410.86,532h44.33l22.16,38.39Zm-40.78-6.14h37.23l18.62-32.24L451.64,538.1H414.41l-18.62,32.25Z"/><path class="cls-3" d="M455.19,538.1H410.86L388.7,499.71l22.16-38.39h44.33l22.16,38.39ZM414.41,532h37.23l18.62-32.25-18.62-32.24H414.41l-18.62,32.24Z"/><path class="cls-3" d="M516.62,573.46H472.29l-22.16-38.39,22.16-38.39h44.33l22.16,38.39Zm-40.78-6.14h37.23l18.62-32.25-18.62-32.25H475.84l-18.62,32.25Z"/><path class="cls-3" d="M247.6,328.74l38.29,66.31-38.29,66.3H171.07l-38.25-66.3,38.25-66.31H247.6m5.1-8.78H166l-43.34,75.09L166,470.14H252.7L296,395.05Z"/><path class="cls-3" d="M210.87,468.71H166.54l-22.16-38.39,22.16-38.39h44.33L233,430.32Zm-40.78-6.14h37.23l18.62-32.25-18.62-32.24H170.09l-18.62,32.24Z"/><path class="cls-3" d="M210.87,398.08H166.54l-22.16-38.39,22.16-38.39h44.33L233,359.69Zm-40.78-6.15h37.23l18.62-32.24-18.62-32.25H170.09l-18.62,32.25Z"/><path class="cls-3" d="M272.3,433.44H228l-22.16-38.39L228,356.66H272.3l22.16,38.39Zm-40.78-6.15h37.23l18.62-32.24L268.75,362.8H231.52L212.9,395.05Z"/><path class="cls-3" d="M124.93,116.34l38.29,66.31L124.93,249H48.39l-38.25-66.3,38.25-66.31h76.54m5.09-8.78H43.34L0,182.65l43.34,75.08H130l43.34-75.08Z"/><path class="cls-3" d="M88.19,256.31H43.87L21.7,217.92l22.17-38.39H88.19l22.17,38.39Zm-40.78-6.14H84.65l18.61-32.25L84.65,185.68H47.41L28.8,217.92Z"/><path class="cls-3" d="M88.19,185.68H43.87L21.7,147.29,43.87,108.9H88.19l22.17,38.39Zm-40.78-6.15H84.65l18.61-32.24L84.65,115H47.41L28.8,147.29Z"/><path class="cls-3" d="M149.62,221H105.3L83.13,182.65l22.17-38.39h44.32l22.17,38.39Zm-40.78-6.14h37.24l18.61-32.24L146.08,150.4H108.84L90.23,182.65Z"/></g></g></svg>