<svg xmlns="http://www.w3.org/2000/svg" viewBox="0 0 217.64 55.07"><defs><style>.cls-1{fill:#f5f7f5;}</style></defs><g id="Layer_2" data-name="Layer 2"><g id="Layer_1-2" data-name="Layer 1"><path class="cls-1" d="M7.63,15a7.87,7.87,0,0,1-3-.57,7.42,7.42,0,0,1-2.43-1.59A7.21,7.21,0,0,1,.58,10.44,7.39,7.39,0,0,1,0,7.49,7.39,7.39,0,0,1,.58,4.54,7.21,7.21,0,0,1,2.19,2.16,7.42,7.42,0,0,1,4.62.57a7.8,7.8,0,0,1,3-.57,7.92,7.92,0,0,1,2.55.4,7.21,7.21,0,0,1,2.1,1.09L11.65,2.6a5.48,5.48,0,0,0-1.79-1,6.63,6.63,0,0,0-2.15-.34,6.47,6.47,0,0,0-2.52.48,6,6,0,0,0-2,1.31,5.88,5.88,0,0,0-1.3,2,6.6,6.6,0,0,0,0,4.84,5.88,5.88,0,0,0,1.3,2,6.13,6.13,0,0,0,2,1.32,6.65,6.65,0,0,0,2.52.47,6.63,6.63,0,0,0,2.15-.34,5.48,5.48,0,0,0,1.79-.95l.63,1.11a7.27,7.27,0,0,1-2.09,1.09A7.85,7.85,0,0,1,7.63,15Z"/><path class="cls-1" d="M21.8,15A6.94,6.94,0,0,1,19,14.4a7.3,7.3,0,0,1-2.32-1.6,7.72,7.72,0,0,1-1.56-2.39,7.48,7.48,0,0,1-.56-2.92,7.45,7.45,0,0,1,.56-2.92,7.72,7.72,0,0,1,1.56-2.39A7.3,7.3,0,0,1,19,.58a7.22,7.22,0,0,1,5.67,0A7.3,7.3,0,0,1,27,2.18a7.55,7.55,0,0,1,1.56,2.39,7.45,7.45,0,0,1,.57,2.92A7.61,7.61,0,0,1,27,12.8a7.3,7.3,0,0,1-2.32,1.6A6.92,6.92,0,0,1,21.8,15Zm0-1.29a5.49,5.49,0,0,0,2.29-.47A5.75,5.75,0,0,0,26,11.9a6.14,6.14,0,0,0,1.24-2,6.48,6.48,0,0,0,.45-2.43,6.48,6.48,0,0,0-.45-2.43,6.14,6.14,0,0,0-1.24-2,5.75,5.75,0,0,0-1.86-1.32,5.69,5.69,0,0,0-6.45,1.32,6.34,6.34,0,0,0-1.25,2,6.48,6.48,0,0,0-.45,2.43,6.48,6.48,0,0,0,.45,2.43,6.34,6.34,0,0,0,1.25,2,5.61,5.61,0,0,0,4.16,1.79Z"/><path class="cls-1" d="M32.9,14.7V.26h1.33L42,12.43V.26h1.33V14.7H42L34.23,2.55V14.7Z"/><path class="cls-1" d="M51.28,15a5.37,5.37,0,0,1-3.41-1.15,6,6,0,0,1-.95-.93c-.23-.31-.4-.53-.49-.69l.76-1q.15.24.48.66a6.25,6.25,0,0,0,.81.84,4.7,4.7,0,0,0,1.2.71,4.11,4.11,0,0,0,1.62.3,4,4,0,0,0,1.6-.32,2.73,2.73,0,0,0,1.16-.93A2.64,2.64,0,0,0,54.5,11a2.64,2.64,0,0,0-.31-1.31,2.8,2.8,0,0,0-.83-.92,7.42,7.42,0,0,0-1.22-.67L50.7,7.49A11.16,11.16,0,0,1,49.6,7a4.88,4.88,0,0,1-1.07-.69,3.2,3.2,0,0,1-.81-1,3,3,0,0,1-.31-1.43,3.74,3.74,0,0,1,.3-1.49A3.83,3.83,0,0,1,49.81.31,4.22,4.22,0,0,1,51.46,0a4.28,4.28,0,0,1,1.59.28A4.72,4.72,0,0,1,54.32,1a3.73,3.73,0,0,1,.85.9l-.68.92a3.07,3.07,0,0,0-.69-.77,3.43,3.43,0,0,0-1-.6,3.47,3.47,0,0,0-1.31-.23A2.81,2.81,0,0,0,50,1.6a2.65,2.65,0,0,0-1,1,2.68,2.68,0,0,0-.32,1.29,2,2,0,0,0,.25,1,2.41,2.41,0,0,0,.67.72,5.14,5.14,0,0,0,.93.5l1,.4c.56.21,1.11.43,1.63.67a6.27,6.27,0,0,1,1.4.84,3.44,3.44,0,0,1,1.33,2.86,3.76,3.76,0,0,1-2.27,3.59A5.58,5.58,0,0,1,51.28,15Z"/><path class="cls-1" d="M61.82,14.7V1.47h-4.4V.26H67.57V1.47H63.15V14.7Z"/><path class="cls-1" d="M70.88,14.7V.26h3.75a5.79,5.79,0,0,1,2.45.49,3.73,3.73,0,0,1,1.6,1.41,4.11,4.11,0,0,1,.56,2.18,4.22,4.22,0,0,1-.48,2.05,3.78,3.78,0,0,1-1.34,1.44,4.82,4.82,0,0,1-2.07.67l4.8,6.2H78.46l-4.6-6.08H72.21V14.7Zm1.33-7.24h2.1a4.41,4.41,0,0,0,1.9-.37A2.86,2.86,0,0,0,77.44,6a3.07,3.07,0,0,0,.44-1.64,2.78,2.78,0,0,0-.95-2.23,3.94,3.94,0,0,0-2.62-.8h-2.1Z"/><path class="cls-1" d="M87.91,15a4.85,4.85,0,0,1-3.75-1.36,5.9,5.9,0,0,1-1.25-4.09V.26h1.33v9a5.11,5.11,0,0,0,.91,3.33,4,4,0,0,0,5.51,0,5.11,5.11,0,0,0,.92-3.33v-9h1.34V9.53a5.86,5.86,0,0,1-1.26,4.09A4.85,4.85,0,0,1,87.91,15Z"/><path class="cls-1" d="M103.71,15a7.83,7.83,0,0,1-3-.57,7.39,7.39,0,0,1-4-4,7.57,7.57,0,0,1-.57-2.95,7.57,7.57,0,0,1,.57-2.95,7.39,7.39,0,0,1,1.62-2.38A7.48,7.48,0,0,1,100.69.57,8.28,8.28,0,0,1,106.25.4a7.09,7.09,0,0,1,2.1,1.09l-.63,1.11a5.44,5.44,0,0,0-1.78-1,6.69,6.69,0,0,0-2.16-.34,6.42,6.42,0,0,0-2.51.48,6,6,0,0,0-2,1.31,5.74,5.74,0,0,0-1.3,2,6.28,6.28,0,0,0-.46,2.42A6.28,6.28,0,0,0,98,9.91a5.74,5.74,0,0,0,1.3,2,6.13,6.13,0,0,0,2,1.32,6.6,6.6,0,0,0,2.51.47,6.69,6.69,0,0,0,2.16-.34,5.44,5.44,0,0,0,1.78-.95l.63,1.11a7.14,7.14,0,0,1-2.09,1.09A7.83,7.83,0,0,1,103.71,15Z"/><path class="cls-1" d="M114.5,14.7V1.47h-4.4V.26h10.15V1.47h-4.42V14.7Z"/><path class="cls-1" d="M123.57,14.7V.26h1.33V14.7Z"/><path class="cls-1" d="M136,15a6.89,6.89,0,0,1-2.83-.58,7.19,7.19,0,0,1-2.32-1.6,7.38,7.38,0,0,1-1.56-2.39,7.49,7.49,0,0,1-.57-2.92,7.45,7.45,0,0,1,.57-2.92,7.38,7.38,0,0,1,1.56-2.39,7.19,7.19,0,0,1,2.32-1.6,7.22,7.22,0,0,1,5.67,0,7.15,7.15,0,0,1,2.31,1.6,7.49,7.49,0,0,1,2.13,5.31,7.67,7.67,0,0,1-.56,2.92,7.57,7.57,0,0,1-1.57,2.39,7.15,7.15,0,0,1-2.31,1.6A6.94,6.94,0,0,1,136,15Zm0-1.29a5.46,5.46,0,0,0,2.29-.47,5.54,5.54,0,0,0,1.86-1.32,6.17,6.17,0,0,0,1.25-2,6.48,6.48,0,0,0,.45-2.43,6.48,6.48,0,0,0-.45-2.43,6.17,6.17,0,0,0-1.25-2,5.54,5.54,0,0,0-1.86-1.32A5.46,5.46,0,0,0,136,1.29a5.54,5.54,0,0,0-2.3.47,5.75,5.75,0,0,0-1.86,1.32,6.32,6.32,0,0,0-1.24,2,6.48,6.48,0,0,0-.45,2.43,6.48,6.48,0,0,0,.45,2.43,6.32,6.32,0,0,0,1.24,2,5.75,5.75,0,0,0,1.86,1.32A5.54,5.54,0,0,0,136,13.69Z"/><path class="cls-1" d="M147.1,14.7V.26h1.33l7.76,12.17V.26h1.33V14.7h-1.33L148.43,2.55V14.7Z"/><path class="cls-1" d="M166.72,14.7V.26H170a7.46,7.46,0,0,1,2.85.55,7.08,7.08,0,0,1,2.32,1.54,7.29,7.29,0,0,1,1.55,2.3,7.2,7.2,0,0,1,.56,2.84,7.45,7.45,0,0,1-.55,2.84,7.08,7.08,0,0,1-1.55,2.29,6.9,6.9,0,0,1-2.32,1.53,7.32,7.32,0,0,1-2.86.55Zm1.33-1.19h1.8a6,6,0,0,0,4.28-1.74,5.81,5.81,0,0,0,1.27-1.91,6.08,6.08,0,0,0,.46-2.38,6,6,0,0,0-1.73-4.29,6.1,6.1,0,0,0-1.91-1.28,6.18,6.18,0,0,0-2.37-.46h-1.8Z"/><path class="cls-1" d="M179.65,14.7,185.33.26h1.24l5.68,14.44h-1.44l-1.76-4.6h-6.2l-1.78,4.6Zm3.64-5.78h5.31L186,2Z"/><path class="cls-1" d="M197.74,14.7V1.47h-4.4V.26h10.15V1.47h-4.42V14.7Z"/><path class="cls-1" d="M204.56,14.7,210.25.26h1.23l5.68,14.44h-1.44L214,10.1h-6.2L206,14.7Zm3.65-5.78h5.3L210.86,2Z"/><path class="cls-1" d="M1.56,54.7v-19H6.77a9.69,9.69,0,0,1,3.76.72,9.44,9.44,0,0,1,3.05,2,9.49,9.49,0,0,1,2,3,9.39,9.39,0,0,1,.73,3.72A9.59,9.59,0,0,1,15.62,49a9.29,9.29,0,0,1-5.08,5,9.77,9.77,0,0,1-3.77.72Zm3.73-3.33H6.36a6.19,6.19,0,0,0,2.38-.46,5.82,5.82,0,0,0,1.9-1.29,6,6,0,0,0,1.25-1.95,6.56,6.56,0,0,0,.45-2.46,6.5,6.5,0,0,0-.45-2.44,6.14,6.14,0,0,0-1.25-2,5.82,5.82,0,0,0-1.9-1.29,6,6,0,0,0-2.38-.46H5.29Z"/><path class="cls-1" d="M26.15,54.7v-19h3.73v19Z"/><path class="cls-1" d="M49.05,55.07a8.94,8.94,0,0,1-6.6-2.84,9.48,9.48,0,0,1-2-3.13,10.35,10.35,0,0,1-.72-3.89,10.82,10.82,0,0,1,.67-3.78,9.64,9.64,0,0,1,1.92-3.13,8.87,8.87,0,0,1,3-2.14,9.72,9.72,0,0,1,4-.78,11.36,11.36,0,0,1,2.51.28,11.67,11.67,0,0,1,2.42.81,9.43,9.43,0,0,1,2.09,1.3L54.6,40.66a7,7,0,0,0-2.42-1.44,8,8,0,0,0-2.8-.52,5.71,5.71,0,0,0-2.4.48,4.94,4.94,0,0,0-1.75,1.34,5.86,5.86,0,0,0-1.08,2,8.1,8.1,0,0,0-.37,2.51,8.39,8.39,0,0,0,.41,2.69,6.45,6.45,0,0,0,1.16,2.08,5,5,0,0,0,3.88,1.82,5.37,5.37,0,0,0,1.78-.3,5,5,0,0,0,1.52-.86,4.13,4.13,0,0,0,1.06-1.3A3.47,3.47,0,0,0,54,47.55v-.29H49V44.37h8.78v2.88a7,7,0,0,1-.72,3.17,7.82,7.82,0,0,1-2,2.47,9.48,9.48,0,0,1-6.05,2.18Z"/><path class="cls-1" d="M67.59,54.7v-19h3.72v19Z"/><path class="cls-1" d="M84.11,54.7V39H79.3V35.73H92.64V39H87.83V54.7Z"/><path class="cls-1" d="M98.25,54.7l7.62-19h3.46l7.61,19h-4l-1.61-4.32h-7.45l-1.61,4.32Zm6.89-7.59h4.92l-2.47-6.36Z"/><path class="cls-1" d="M125.81,54.7v-19h3.73v15.7h6.85V54.7Z"/><path class="cls-1" d="M145.48,54.7v-19h3.72v19Z"/><path class="cls-1" d="M164.92,55.07a9.89,9.89,0,0,1-2.44-.29,10.73,10.73,0,0,1-2-.74,9.86,9.86,0,0,1-1.51-.92,9.4,9.4,0,0,1-1-.82l1.9-3.09c.26.23.56.48.91.75a9.83,9.83,0,0,0,1.19.79,7,7,0,0,0,1.42.62,5.09,5.09,0,0,0,1.62.25,3.93,3.93,0,0,0,1.43-.25,2.22,2.22,0,0,0,1-.76,2.14,2.14,0,0,0,.35-1.25,2.2,2.2,0,0,0-.28-1.15,2.89,2.89,0,0,0-.85-.86,8.94,8.94,0,0,0-1.37-.76c-.54-.25-1.15-.53-1.84-.83A10.28,10.28,0,0,1,162,45a6.53,6.53,0,0,1-1.24-1,4.64,4.64,0,0,1-.85-1.33,4.24,4.24,0,0,1-.32-1.66,5.24,5.24,0,0,1,.44-2.1,5.59,5.59,0,0,1,1.25-1.78,6.1,6.1,0,0,1,1.93-1.24,6.47,6.47,0,0,1,2.5-.46,7.76,7.76,0,0,1,2.07.28,9.85,9.85,0,0,1,1.93.72,7.82,7.82,0,0,1,1.52,1l-1.55,2.92a6.79,6.79,0,0,0-1.13-.77,7.12,7.12,0,0,0-1.33-.54,5,5,0,0,0-1.43-.21,3.1,3.1,0,0,0-1.39.29,2.17,2.17,0,0,0-.87.76,2,2,0,0,0-.31,1.07,1.54,1.54,0,0,0,.21.82,1.77,1.77,0,0,0,.57.59,5.92,5.92,0,0,0,.88.47l1.14.47c.89.38,1.69.75,2.41,1.12a9.38,9.38,0,0,1,1.86,1.23,4.55,4.55,0,0,1,1.17,1.56,5,5,0,0,1,.41,2.14A5.47,5.47,0,0,1,171,52.4a5.35,5.35,0,0,1-2.42,2A8.82,8.82,0,0,1,164.92,55.07Z"/><path class="cls-1" d="M181.7,54.7v-19h10.56V39h-6.83v4.57H192v3.26h-6.55v4.61h6.83V54.7Z"/><path class="cls-1" d="M202.86,54.7v-19h5.21a9.72,9.72,0,0,1,3.76.72,9.4,9.4,0,0,1,3,2,9.4,9.4,0,0,1,2.77,6.75,9.42,9.42,0,0,1-.73,3.74,9.25,9.25,0,0,1-2,3,9.37,9.37,0,0,1-3,2,9.81,9.81,0,0,1-3.77.72Zm3.73-3.33h1.07a6.23,6.23,0,0,0,2.38-.46,5.77,5.77,0,0,0,1.89-1.29,5.85,5.85,0,0,0,1.26-1.95,6.56,6.56,0,0,0,.45-2.46,6.5,6.5,0,0,0-.45-2.44,6,6,0,0,0-1.26-2A5.77,5.77,0,0,0,210,39.52a6,6,0,0,0-2.38-.46h-1.07Z"/></g></g></svg>