<svg xmlns="http://www.w3.org/2000/svg" viewBox="0 0 1138.45 176.8"><defs><style>.cls-1{fill:#f5f7f5;}.cls-2{fill:#f4ce45;}</style></defs><g id="Layer_2" data-name="Layer 2"><g id="Layer_2-2" data-name="Layer 2"><path class="cls-1" d="M0,175.68V0H35.2l96.35,123.83V0h35.2V175.68h-35.2L35.2,51.85V175.68Z"/><path class="cls-1" d="M402.83,175.68V0h56q2.19,0,8.72.12A124.84,124.84,0,0,1,480.18,1Q501,3.67,515.5,15.8a76.34,76.34,0,0,1,21.9,30.93,110.67,110.67,0,0,1,7.44,41.11A110.67,110.67,0,0,1,537.4,129a76.34,76.34,0,0,1-21.9,30.93Q501,172,480.18,174.7a121.29,121.29,0,0,1-12.57.86q-6.58.12-8.78.12ZM432.72,148h26.11q3.66,0,9.33-.25a68,68,0,0,0,10.06-1.1,34.71,34.71,0,0,0,20.26-11.1A55.34,55.34,0,0,0,510,114.19a92.31,92.31,0,0,0,3.72-26.35A93.06,93.06,0,0,0,510,61a53.36,53.36,0,0,0-11.66-21.11A35.43,35.43,0,0,0,478.22,29a54.62,54.62,0,0,0-10.06-1.16c-3.78-.12-6.89-.19-9.33-.19H432.72Z"/><path class="cls-1" d="M573.75,175.68V0H687.21V27.57H603.15V70.88h69.42V98.45H603.15v49.66h84.06v27.57Z"/><path class="cls-1" d="M716.49,175.68V0h10.24V82.72H833.12V0h10.25V175.68H833.12V93H726.73v82.72Z"/><path class="cls-1" d="M872.52,175.68V0H979.88V10.25H882.77V82.72h82.47V93H882.77v72.47h97.11v10.25Z"/><path class="cls-1" d="M1003.52,175.68l61.73-89.06L1005,0h12.2l53.68,78.32L1124.79,0H1137l-60.27,86.62,61.73,89.06h-12.2l-55.38-80.52-55.15,80.52Z"/><path class="cls-2" d="M319.83,28,354.7,88.4l-34.87,60.4H250.09L215.22,88.4,250.09,28h69.74M336,0H233.92l-51,88.4,51,88.4H336l51-88.4L336,0Z"/></g></g></svg>