<svg xmlns="http://www.w3.org/2000/svg" viewBox="0 0 515.4 331.09"><defs><style>.cls-1{fill:#f5f7f5;}.cls-2{fill:#f4ce43;}.cls-3{fill:#393637;}</style></defs><g id="Layer_2" data-name="Layer 2"><g id="Layer_1-2" data-name="Layer 1"><path class="cls-1" d="M226.41,236V191.37h8.94l24.46,31.43V191.37h8.93V236h-8.93l-24.46-31.43V236Z"/><path class="cls-1" d="M328.67,236V191.37h14.21l2.22,0a30,30,0,0,1,3.2.22,16.92,16.92,0,0,1,9,3.76,19.38,19.38,0,0,1,5.56,7.85,29.75,29.75,0,0,1,0,20.87,19.38,19.38,0,0,1-5.56,7.85,17,17,0,0,1-9,3.77,31.84,31.84,0,0,1-3.19.21l-2.23,0Zm7.59-7h6.62q.93,0,2.37-.06a16.69,16.69,0,0,0,2.56-.28,8.8,8.8,0,0,0,5.14-2.82,14,14,0,0,0,2.92-5.41,24.37,24.37,0,0,0,0-13.51,13.63,13.63,0,0,0-3-5.36,9,9,0,0,0-5.09-2.75,14.4,14.4,0,0,0-2.56-.3c-1,0-1.75,0-2.37,0h-6.62Z"/><path class="cls-1" d="M372.05,236V191.37h28.81v7H379.52v11h17.62v7H379.52V229h21.34v7Z"/><path class="cls-1" d="M408.29,236V191.37h2.6v21h27v-21h2.61V236h-2.61V215h-27v21Z"/><path class="cls-1" d="M447.9,236V191.37h27.25V194H450.5v18.4h20.93V215H450.5v18.39h24.65V236Z"/><path class="cls-1" d="M481.15,236l15.67-22.6-15.3-22h3.1l13.63,19.88,13.68-19.88H515l-15.3,22L515.4,236h-3.09l-14.06-20.44-14,20.44Z"/><path class="cls-2" d="M307.6,198.48l8.85,15.33-8.85,15.33H289.9L281,213.81l8.86-15.33h17.7m4.1-7.11H285.79l-13,22.44,13,22.44H311.7l13-22.44-13-22.44Z"/><path class="cls-1" d="M305,275.61a8.06,8.06,0,0,1-3-.56,7.42,7.42,0,0,1-2.43-1.59,7.25,7.25,0,0,1-1.61-2.39,7.79,7.79,0,0,1,0-5.9,7.31,7.31,0,0,1,1.61-2.38A7.42,7.42,0,0,1,302,261.2a7.83,7.83,0,0,1,3-.57,8.16,8.16,0,0,1,2.55.4,7.46,7.46,0,0,1,2.1,1.09l-.63,1.11a5.68,5.68,0,0,0-1.79-1,6.87,6.87,0,0,0-2.15-.33,6.46,6.46,0,0,0-2.52.47,5.91,5.91,0,0,0-3.28,3.28,6.62,6.62,0,0,0,0,4.85,6,6,0,0,0,1.3,2,6.11,6.11,0,0,0,2,1.31,6.65,6.65,0,0,0,2.52.47,6.87,6.87,0,0,0,2.15-.33,5.68,5.68,0,0,0,1.79-1l.63,1.11a7.51,7.51,0,0,1-2.09,1.08A7.85,7.85,0,0,1,305,275.61Z"/><path class="cls-1" d="M319.19,275.61a7.1,7.1,0,0,1-2.84-.57,7.33,7.33,0,0,1-2.32-1.61,7.64,7.64,0,0,1,0-10.61,7.33,7.33,0,0,1,2.32-1.61,7.22,7.22,0,0,1,5.67,0,7.22,7.22,0,0,1,2.32,1.61,7.34,7.34,0,0,1,1.56,2.38,7.76,7.76,0,0,1,0,5.84,7.4,7.4,0,0,1-3.88,4A7,7,0,0,1,319.19,275.61Zm0-1.28a5.65,5.65,0,0,0,2.29-.47,5.72,5.72,0,0,0,1.86-1.33,6.18,6.18,0,0,0,1.25-2,7,7,0,0,0,0-4.87,6.34,6.34,0,0,0-1.25-2,5.84,5.84,0,0,0-1.86-1.32,5.84,5.84,0,0,0-4.59,0,5.84,5.84,0,0,0-1.86,1.32,6.34,6.34,0,0,0-1.25,2,6.81,6.81,0,0,0,0,4.87,6.18,6.18,0,0,0,1.25,2,5.57,5.57,0,0,0,4.16,1.8Z"/><path class="cls-1" d="M330.29,275.33V260.9h1.33l7.75,12.17V260.9h1.33v14.43h-1.33l-7.75-12.15v12.15Z"/><path class="cls-1" d="M348.67,275.61a5.38,5.38,0,0,1-2-.33,5.49,5.49,0,0,1-1.44-.82,5.26,5.26,0,0,1-.95-.93c-.23-.3-.4-.53-.49-.68l.76-1c.11.16.26.38.48.66a4.94,4.94,0,0,0,.82.84,4.77,4.77,0,0,0,1.19.72,4.29,4.29,0,0,0,1.62.29,3.94,3.94,0,0,0,1.6-.31,2.75,2.75,0,0,0,1.16-.94,2.62,2.62,0,0,0,.44-1.54,2.57,2.57,0,0,0-.31-1.31,2.66,2.66,0,0,0-.83-.91,6.42,6.42,0,0,0-1.22-.67c-.46-.2-.94-.39-1.44-.58-.35-.13-.72-.29-1.1-.47a5.75,5.75,0,0,1-1.07-.69,3.47,3.47,0,0,1-.81-1,3.06,3.06,0,0,1-.31-1.44,3.87,3.87,0,0,1,1.13-2.73,3.86,3.86,0,0,1,1.27-.84,4.41,4.41,0,0,1,1.65-.31,4.29,4.29,0,0,1,1.59.29,5,5,0,0,1,1.28.72,3.66,3.66,0,0,1,.84.89l-.68.92a3.25,3.25,0,0,0-.69-.77,3.92,3.92,0,0,0-1-.6,3.68,3.68,0,0,0-1.31-.23,2.82,2.82,0,0,0-1.52.39,2.51,2.51,0,0,0-.95,1,2.73,2.73,0,0,0-.32,1.28,2,2,0,0,0,.25,1,2.31,2.31,0,0,0,.67.72,4.62,4.62,0,0,0,.93.51c.33.14.67.27,1,.39.56.21,1.11.43,1.63.67a7.12,7.12,0,0,1,1.4.84,3.7,3.7,0,0,1,1,1.18,3.64,3.64,0,0,1,.36,1.69,3.78,3.78,0,0,1-2.27,3.59A5.54,5.54,0,0,1,348.67,275.61Z"/><path class="cls-1" d="M359.21,275.33V262.1h-4.4v-1.2H365v1.2h-4.42v13.23Z"/><path class="cls-1" d="M368.27,275.33V260.9H372a5.61,5.61,0,0,1,2.45.49,3.65,3.65,0,0,1,1.6,1.4,4.13,4.13,0,0,1,.56,2.18,4.29,4.29,0,0,1-.48,2.06,3.68,3.68,0,0,1-1.34,1.43,4.65,4.65,0,0,1-2.07.67l4.8,6.2h-1.69l-4.6-6.08h-1.64v6.08Zm1.34-7.23h2.1a4.39,4.39,0,0,0,1.89-.38,2.86,2.86,0,0,0,1.23-1.07,3,3,0,0,0,.44-1.64,2.75,2.75,0,0,0-.95-2.22,3.88,3.88,0,0,0-2.61-.81h-2.1Z"/><path class="cls-1" d="M385.3,275.61a4.85,4.85,0,0,1-3.75-1.36,5.89,5.89,0,0,1-1.25-4.09V260.9h1.33v9a5.11,5.11,0,0,0,.91,3.33,4,4,0,0,0,5.51,0,5.11,5.11,0,0,0,.92-3.33v-9h1.34v9.26a5.84,5.84,0,0,1-1.26,4.09A4.84,4.84,0,0,1,385.3,275.61Z"/><path class="cls-1" d="M401.1,275.61a8,8,0,0,1-3-.56,7.37,7.37,0,0,1-4-4,7.5,7.5,0,0,1,1.62-8.28,7.48,7.48,0,0,1,2.42-1.59,7.88,7.88,0,0,1,3-.57,8.09,8.09,0,0,1,2.54.4,7.2,7.2,0,0,1,2.1,1.09l-.63,1.11a5.63,5.63,0,0,0-1.78-1,7,7,0,0,0-2.15-.33,6.43,6.43,0,0,0-2.52.47,5.91,5.91,0,0,0-3.28,3.28,6.62,6.62,0,0,0,0,4.85,6,6,0,0,0,1.3,2,6.11,6.11,0,0,0,2,1.31,6.61,6.61,0,0,0,2.52.47,7,7,0,0,0,2.15-.33,5.63,5.63,0,0,0,1.78-1l.63,1.11a7.44,7.44,0,0,1-2.08,1.08A7.89,7.89,0,0,1,401.1,275.61Z"/><path class="cls-1" d="M411.89,275.33V262.1h-4.4v-1.2h10.15v1.2h-4.42v13.23Z"/><path class="cls-1" d="M421,275.33V260.9h1.33v14.43Z"/><path class="cls-1" d="M433.39,275.61a7,7,0,0,1-2.83-.57,7.4,7.4,0,0,1-3.88-4,7.76,7.76,0,0,1,0-5.84,7.34,7.34,0,0,1,1.56-2.38,7.22,7.22,0,0,1,2.32-1.61,7.22,7.22,0,0,1,5.67,0,7.33,7.33,0,0,1,2.32,1.61,7.65,7.65,0,0,1,0,10.61,7.33,7.33,0,0,1-2.32,1.61A7.1,7.1,0,0,1,433.39,275.61Zm0-1.28a5.7,5.7,0,0,0,2.3-.47,5.78,5.78,0,0,0,1.85-1.33,6,6,0,0,0,1.25-2,6.81,6.81,0,0,0,0-4.87,6.17,6.17,0,0,0-1.25-2,5.91,5.91,0,0,0-1.85-1.32,5.7,5.7,0,0,0-2.3-.47,5.62,5.62,0,0,0-2.29.47,5.84,5.84,0,0,0-1.86,1.32,6.17,6.17,0,0,0-1.25,2,6.81,6.81,0,0,0,0,4.87,6,6,0,0,0,1.25,2,5.72,5.72,0,0,0,1.86,1.33A5.62,5.62,0,0,0,433.39,274.33Z"/><path class="cls-1" d="M444.5,275.33V260.9h1.33l7.75,12.17V260.9h1.33v14.43h-1.33l-7.75-12.15v12.15Z"/><path class="cls-1" d="M464.11,275.33V260.9h3.26a7.36,7.36,0,0,1,2.86.55,7.28,7.28,0,0,1,2.31,1.53,7.4,7.4,0,0,1,1.55,2.3,7.23,7.23,0,0,1,.56,2.84,7.41,7.41,0,0,1-.55,2.84,7.08,7.08,0,0,1-3.87,3.83,7.47,7.47,0,0,1-2.86.54Zm1.33-1.19h1.81a5.86,5.86,0,0,0,5.54-3.65,6.36,6.36,0,0,0,0-4.75,5.91,5.91,0,0,0-1.27-1.91,5.78,5.78,0,0,0-1.91-1.28,6,6,0,0,0-2.36-.46h-1.81Z"/><path class="cls-1" d="M477,275.33l5.68-14.43H484l5.68,14.43H488.2l-1.76-4.6h-6.2l-1.78,4.6Zm3.65-5.77H486l-2.65-6.91Z"/><path class="cls-1" d="M495.13,275.33V262.1h-4.4v-1.2h10.15v1.2h-4.42v13.23Z"/><path class="cls-1" d="M502,275.33l5.69-14.43h1.23l5.68,14.43h-1.44l-1.75-4.6h-6.21l-1.78,4.6Zm3.65-5.77h5.3l-2.65-6.91Z"/><path class="cls-1" d="M299,315.33v-19h5.2a9.77,9.77,0,0,1,3.77.72,9.53,9.53,0,0,1,3,2,9.18,9.18,0,0,1,2,3,9.4,9.4,0,0,1,.73,3.73,9.57,9.57,0,0,1-.72,3.73,9.35,9.35,0,0,1-5.08,5,10,10,0,0,1-3.77.71Zm3.72-3.33h1.07a6,6,0,0,0,2.38-.46,5.82,5.82,0,0,0,1.9-1.29,6,6,0,0,0,1.25-1.95,6.89,6.89,0,0,0,0-4.9,6.09,6.09,0,0,0-1.25-1.95,5.69,5.69,0,0,0-1.9-1.3,6.19,6.19,0,0,0-2.38-.46h-1.07Z"/><path class="cls-1" d="M323.54,315.33v-19h3.73v19Z"/><path class="cls-1" d="M346.44,315.7a8.9,8.9,0,0,1-3.65-.75,9,9,0,0,1-3-2.08,9.63,9.63,0,0,1-2-3.14,10.3,10.3,0,0,1-.71-3.88,10.73,10.73,0,0,1,.66-3.78,9.69,9.69,0,0,1,1.92-3.14,9,9,0,0,1,3-2.14,9.73,9.73,0,0,1,4-.78,12,12,0,0,1,2.5.28,11.48,11.48,0,0,1,2.42.81,9.46,9.46,0,0,1,2.09,1.31L352,301.29a6.86,6.86,0,0,0-2.42-1.44,8.26,8.26,0,0,0-2.8-.51,5.87,5.87,0,0,0-2.4.47,5,5,0,0,0-1.75,1.34,6,6,0,0,0-1.08,2,8.12,8.12,0,0,0-.37,2.52,8.21,8.21,0,0,0,.42,2.69,6.35,6.35,0,0,0,1.15,2.08,5,5,0,0,0,1.74,1.34,4.86,4.86,0,0,0,2.14.48,5.38,5.38,0,0,0,1.78-.31,4.84,4.84,0,0,0,1.52-.86,4,4,0,0,0,1.06-1.3,3.44,3.44,0,0,0,.39-1.63v-.29h-5V305h8.78v2.87a6.94,6.94,0,0,1-.72,3.17,7.71,7.71,0,0,1-2,2.47,9.22,9.22,0,0,1-2.81,1.61A9.37,9.37,0,0,1,346.44,315.7Z"/><path class="cls-1" d="M365,315.33v-19h3.72v19Z"/><path class="cls-1" d="M381.5,315.33V299.65h-4.81v-3.29H390v3.29h-4.81v15.68Z"/><path class="cls-1" d="M395.64,315.33l7.62-19h3.46l7.62,19h-4L408.71,311h-7.45l-1.61,4.32Zm6.9-7.59h4.91L405,301.38Z"/><path class="cls-1" d="M423.2,315.33v-19h3.73v15.71h6.85v3.26Z"/><path class="cls-1" d="M442.87,315.33v-19h3.72v19Z"/><path class="cls-1" d="M462.31,315.7a9.89,9.89,0,0,1-2.44-.29,10.3,10.3,0,0,1-2-.74,9.87,9.87,0,0,1-1.51-.91,9.31,9.31,0,0,1-1-.83l1.9-3.08.91.75a11.14,11.14,0,0,0,1.19.78,7.94,7.94,0,0,0,1.42.63,5.4,5.4,0,0,0,1.63.24,3.71,3.71,0,0,0,1.42-.25,2.22,2.22,0,0,0,1-.75,2.09,2.09,0,0,0,.35-1.25,2.24,2.24,0,0,0-.28-1.16A2.89,2.89,0,0,0,464,308a8.94,8.94,0,0,0-1.37-.76l-1.84-.82a10.32,10.32,0,0,1-1.47-.79,6.47,6.47,0,0,1-1.24-1,4.51,4.51,0,0,1-.85-1.33,4.16,4.16,0,0,1-.32-1.66,5.19,5.19,0,0,1,.44-2.09,5.48,5.48,0,0,1,1.25-1.78,6,6,0,0,1,1.93-1.25,6.66,6.66,0,0,1,2.5-.46,8.19,8.19,0,0,1,2.07.28,10.54,10.54,0,0,1,1.93.72,7.52,7.52,0,0,1,1.52,1L467,300.91a6.47,6.47,0,0,0-1.12-.76,6.86,6.86,0,0,0-1.34-.55,5,5,0,0,0-1.43-.21,3.1,3.1,0,0,0-1.39.29,2.18,2.18,0,0,0-.87.77,2,2,0,0,0-.3,1.06,1.51,1.51,0,0,0,.2.82,1.69,1.69,0,0,0,.57.59,5.12,5.12,0,0,0,.88.47l1.14.48c.89.37,1.69.75,2.42,1.11a9.29,9.29,0,0,1,1.85,1.23,4.74,4.74,0,0,1,1.18,1.57,5.17,5.17,0,0,1,.4,2.14,5.27,5.27,0,0,1-3.28,5.1A9.08,9.08,0,0,1,462.31,315.7Z"/><path class="cls-1" d="M479.09,315.33v-19h10.56v3.27h-6.83v4.56h6.55v3.27h-6.55v4.61h6.83v3.26Z"/><path class="cls-1" d="M500.25,315.33v-19h5.21a9.72,9.72,0,0,1,3.76.72,9.47,9.47,0,0,1,5.08,5.05,9.58,9.58,0,0,1,.73,3.73,9.4,9.4,0,0,1-.73,3.73,9.14,9.14,0,0,1-2,3,9.24,9.24,0,0,1-3,2,10,10,0,0,1-3.77.71ZM504,312h1.07a6,6,0,0,0,2.38-.46,5.67,5.67,0,0,0,1.89-1.29,5.85,5.85,0,0,0,1.26-1.95,6.89,6.89,0,0,0,0-4.9,6,6,0,0,0-1.26-1.95,5.55,5.55,0,0,0-1.89-1.3,6.23,6.23,0,0,0-2.38-.46H504Z"/><path class="cls-3" d="M200.57,63l20.78,36-20.78,36H159L138.29,99,159,63h41.53m2.77-4.77h-47L132.78,99l23.52,40.74h47L226.86,99Z"/><path class="cls-3" d="M180.64,139h-24l-12-20.83,12-20.83h24l12,20.83Zm-22.13-3.33h20.21l10.1-17.5-10.1-17.5H158.51l-10.1,17.5Z"/><path class="cls-3" d="M180.64,100.63h-24l-12-20.83,12-20.83h24l12,20.83ZM158.51,97.3h20.21l10.1-17.5-10.1-17.5H158.51l-10.1,17.5Z"/><path class="cls-3" d="M214,119.82H189.92L177.9,99l12-20.83H214L226,99Zm-22.13-3.33h20.2L222.15,99l-10.1-17.5h-20.2L181.74,99Z"/><path class="cls-3" d="M134.15,24.67l20.77,36-20.77,36H92.61l-20.75-36,20.75-36h41.54m2.76-4.76h-47L66.36,60.65,89.87,101.4h47l23.52-40.75Z"/><path class="cls-3" d="M114.21,100.62h-24l-12-20.83L90.16,59h24l12,20.83ZM92.08,97.29h20.21l10.1-17.5L112.29,62.3H92.08L82,79.79Z"/><path class="cls-3" d="M114.21,62.3h-24l-12-20.84,12-20.83h24l12,20.83ZM92.08,59h20.21l10.1-17.5L112.29,24H92.08L82,41.46Z"/><path class="cls-3" d="M147.55,81.48H123.49l-12-20.83,12-20.83h24.06l12,20.83Zm-22.13-3.33h20.2l10.11-17.5-10.11-17.5h-20.2l-10.1,17.5Z"/><path class="cls-3" d="M267.07,101.41l20.78,36-20.78,36H225.54l-20.76-36,20.76-36h41.53m2.76-4.77h-47l-23.52,40.75,23.52,40.75h47l23.52-40.75Z"/><path class="cls-3" d="M247.14,177.36H223.08l-12-20.83,12-20.83h24.06l12,20.83ZM225,174h20.2l10.11-17.5L245.21,139H225l-10.1,17.49Z"/><path class="cls-3" d="M247.14,139H223.08l-12-20.84,12-20.83h24.06l12,20.83ZM225,135.7h20.2l10.11-17.5-10.11-17.49H225l-10.1,17.49Z"/><path class="cls-3" d="M280.47,158.22H256.42l-12-20.83,12-20.83h24.05l12,20.83Zm-22.13-3.33h20.21l10.1-17.5-10.1-17.5H258.34l-10.1,17.5Z"/><path class="cls-3" d="M277.6,4.77l20.78,36-20.78,36H236.07l-20.75-36,20.75-36H277.6M280.37,0h-47L209.81,40.75l23.52,40.74h47l23.51-40.74Z"/><path class="cls-3" d="M257.67,80.72H233.62l-12-20.83,12-20.83h24.05l12,20.83Zm-22.13-3.33h20.2l10.11-17.5-10.11-17.5h-20.2l-10.1,17.5Z"/><path class="cls-3" d="M257.67,42.39H233.62l-12-20.83,12-20.83h24.05l12,20.83Zm-22.13-3.33h20.2l10.11-17.5L255.74,4.06h-20.2l-10.1,17.5Z"/><path class="cls-3" d="M291,61.58H267l-12-20.83,12-20.84H291l12,20.84Zm-22.13-3.34h20.21l10.1-17.49-10.1-17.5H268.87l-10.1,17.5Z"/><path class="cls-3" d="M200.57,139.73l20.78,36-20.78,36H159l-20.75-36,20.75-36h41.53m2.77-4.76h-47l-23.52,40.74,23.52,40.75h47l23.52-40.75Z"/><path class="cls-3" d="M180.64,215.69h-24l-12-20.83,12-20.83h24l12,20.83Zm-22.13-3.34h20.21l10.1-17.49-10.1-17.5H158.51l-10.1,17.5Z"/><path class="cls-3" d="M180.64,177.36h-24l-12-20.83,12-20.83h24l12,20.83ZM158.51,174h20.21l10.1-17.5L178.72,139H158.51l-10.1,17.5Z"/><path class="cls-3" d="M214,196.55H189.92l-12-20.84,12-20.83H214l12,20.83Zm-22.13-3.34h20.2l10.1-17.5-10.1-17.49h-20.2l-10.11,17.49Z"/><path class="cls-3" d="M200.85,216.46l20.78,36-20.78,36H159.32l-20.76-36,20.76-36h41.53m2.76-4.77h-47l-23.52,40.75,23.52,40.75h47l23.52-40.75Z"/><path class="cls-3" d="M180.92,292.41H156.86l-12-20.83,12-20.83h24.06l12,20.83Zm-22.13-3.33H179l10.11-17.5L179,254.08h-20.2l-10.1,17.5Z"/><path class="cls-3" d="M180.92,254.08H156.86l-12-20.83,12-20.83h24.06l12,20.83Zm-22.13-3.33H179l10.11-17.5L179,215.76h-20.2l-10.1,17.49Z"/><path class="cls-3" d="M214.25,273.27H190.2l-12-20.83,12-20.83h24.05l12,20.83Zm-22.13-3.33h20.21l10.1-17.5-10.1-17.5H192.12L182,252.44Z"/><path class="cls-3" d="M266.94,254.37l20.77,36-20.77,36H225.4l-20.75-36,20.75-36h41.54m2.76-4.77h-47l-23.51,40.75,23.51,40.74h47l23.52-40.74Z"/><path class="cls-3" d="M247,330.32H223l-12-20.83,12-20.83H247l12,20.83ZM224.87,327h20.21l10.1-17.5L245.08,292H224.87l-10.1,17.5Z"/><path class="cls-3" d="M247,292H223l-12-20.83,12-20.83H247l12,20.83Zm-22.13-3.33h20.21l10.1-17.5-10.1-17.5H224.87l-10.1,17.5Z"/><path class="cls-3" d="M280.34,311.18H256.28l-12-20.83,12-20.83h24.06l12,20.83Zm-22.13-3.33h20.2l10.1-17.5-10.1-17.5h-20.2l-10.1,17.5Z"/><path class="cls-3" d="M134.36,178.39l20.78,36-20.78,36H92.83l-20.76-36,20.76-36h41.53m2.76-4.77h-47L66.57,214.37l23.52,40.74h47l23.52-40.74Z"/><path class="cls-3" d="M114.43,254.34H90.37l-12-20.83,12-20.83h24.06l12,20.83ZM92.3,251h20.2l10.1-17.5L112.5,216H92.3l-10.1,17.5Z"/><path class="cls-3" d="M114.43,216H90.37l-12-20.83,12-20.83h24.06l12,20.83ZM92.3,212.68h20.2l10.1-17.5-10.1-17.5H92.3l-10.1,17.5Z"/><path class="cls-3" d="M147.76,235.2h-24l-12-20.83,12-20.83h24l12,20.83Zm-22.13-3.34h20.21l10.1-17.49-10.1-17.5H125.63l-10.1,17.5Z"/><path class="cls-3" d="M67.79,63.13l20.78,36-20.78,36H26.26L5.5,99.11l20.76-36H67.79m2.76-4.77h-47L0,99.11l23.52,40.75h47L94.07,99.11Z"/><path class="cls-3" d="M47.86,139.08H23.8l-12-20.83,12-20.83H47.86l12,20.83Zm-22.13-3.33h20.2L56,118.25l-10.11-17.5H25.73l-10.1,17.5Z"/><path class="cls-3" d="M47.86,100.75H23.8l-12-20.83,12-20.83H47.86l12,20.83ZM25.73,97.42h20.2L56,79.92,45.93,62.43H25.73L15.63,79.92Z"/><path class="cls-3" d="M81.19,119.94h-24l-12-20.83,12-20.83h24l12,20.83Zm-22.13-3.33H79.27l10.1-17.5-10.1-17.5H59.06L49,99.11Z"/></g></g></svg>