<svg xmlns="http://www.w3.org/2000/svg" viewBox="0 0 1112.61 168.3"><defs><style>.cls-1{fill:#f5f7f5;}.cls-2{fill:#f4ce45;}</style></defs><g id="Layer_2" data-name="Layer 2"><g id="Layer_2-2" data-name="Layer 2"><path class="cls-1" d="M0,168.3V0H11.12L106,149V0H117.1V168.3H106L11.12,19.48V168.3Z"/><path class="cls-1" d="M381.27,168.3V0h35.8a86,86,0,0,1,33.41,6.43,82.75,82.75,0,0,1,45,44.67,83.88,83.88,0,0,1,6.48,33.05,84.81,84.81,0,0,1-6.43,33.15,82.33,82.33,0,0,1-45,44.62,86.56,86.56,0,0,1-33.41,6.38Zm11.12-10h24a74.15,74.15,0,0,0,29.07-5.66,72.84,72.84,0,0,0,39.32-39.32,74.54,74.54,0,0,0,5.66-29.17A75.06,75.06,0,0,0,484.8,55,71.75,71.75,0,0,0,469,31.42a73.34,73.34,0,0,0-23.61-15.76A74.15,74.15,0,0,0,416.36,10h-24Z"/><path class="cls-1" d="M549.06,168.3V0h82.62V9.89h-71.5V79.05h69.05v9.79H560.18v69.57h71.5v9.89Z"/><path class="cls-1" d="M678.19,168.3V0h11.12V79.05h99V0h11.22V168.3H788.35V88.84h-99V168.3Z"/><path class="cls-1" d="M856.59,168.3V0h82.62V9.89h-71.5V79.05h69v9.79h-69v69.57h71.5v9.89Z"/><path class="cls-1" d="M969.71,168.3l64.46-90.88L979.6,0h13.57l48,67.83L1089.15,0h13.56l-54.57,77.42,64.47,90.88h-14l-57.42-81.09L983.68,168.3Z"/><path class="cls-2" d="M289.82,13.77l40.63,70.38-40.63,70.38H208.55L167.92,84.15l40.63-70.38h81.27m6.92-12H201.62L154.06,84.15l47.56,82.38h95.12l47.57-82.38L296.74,1.77Z"/></g></g></svg>