<svg xmlns="http://www.w3.org/2000/svg" viewBox="0 0 1133.45 176.8"><defs><style>.cls-1{fill:#f5f7f5;}.cls-2{fill:#f4ce45;}</style></defs><g id="Layer_2" data-name="Layer 2"><g id="Layer_2-2" data-name="Layer 2"><path class="cls-1" d="M0,175.68V0H35.2l96.35,123.83V0h35.2V175.68h-35.2L35.2,51.85V175.68Z"/><path class="cls-1" d="M401.83,175.68V0h56q2.19,0,8.72.12A124.84,124.84,0,0,1,479.18,1Q500,3.67,514.5,15.8a76.34,76.34,0,0,1,21.9,30.93,110.67,110.67,0,0,1,7.44,41.11A110.67,110.67,0,0,1,536.4,129a76.34,76.34,0,0,1-21.9,30.93Q500,172,479.18,174.7a121.29,121.29,0,0,1-12.57.86q-6.58.12-8.78.12ZM431.72,148h26.11q3.66,0,9.33-.25a68,68,0,0,0,10.06-1.1,34.71,34.71,0,0,0,20.26-11.1A55.34,55.34,0,0,0,509,114.19a92.31,92.31,0,0,0,3.72-26.35A93.06,93.06,0,0,0,509,61a53.36,53.36,0,0,0-11.66-21.11A35.43,35.43,0,0,0,477.22,29a54.62,54.62,0,0,0-10.06-1.16c-3.78-.12-6.89-.19-9.33-.19H431.72Z"/><path class="cls-1" d="M572.75,175.68V0H686.21V27.57H602.15V70.88h69.42V98.45H602.15v49.66h84.06v27.57Z"/><path class="cls-1" d="M715.49,175.68V0h10.24V82.72H832.12V0h10.25V175.68H832.12V93H725.73v82.72Z"/><path class="cls-1" d="M876.52,175.68V0H983.88V10.25H886.77V82.72h82.47V93H886.77v72.47h97.11v10.25Z"/><path class="cls-1" d="M998.52,175.68l61.73-89.06L1000,0h12.2l53.68,78.32L1119.79,0H1132l-60.27,86.62,61.73,89.06h-12.2l-55.38-80.52-55.15,80.52Z"/><path class="cls-2" d="M320,26l36,62.4-36,62.4H247.93l-36-62.4,36-62.4H320M335,0H232.92l-51,88.4,51,88.4H335l51-88.4L335,0Z"/></g></g></svg>