<svg xmlns="http://www.w3.org/2000/svg" viewBox="0 0 1172.77 177.76"><defs><style>.cls-1{fill:#f5f7f5;}.cls-2{fill:#f4ce45;}</style></defs><g id="Layer_2" data-name="Layer 2"><g id="Layer_2-2" data-name="Layer 2"><path class="cls-1" d="M0,177.76V0H34.9l76.6,119.58V0h34.91V177.76H111.5L34.9,58.18V177.76Z"/><path class="cls-1" d="M396.67,177.76V0h48.8A90.5,90.5,0,0,1,480.7,6.79,88,88,0,0,1,535.1,89a89.19,89.19,0,0,1-6.78,35A87.12,87.12,0,0,1,480.75,171a91.57,91.57,0,0,1-35.28,6.74Zm34.9-31.24h10a56.94,56.94,0,0,0,22.3-4.31,53.62,53.62,0,0,0,17.78-12.07,55.35,55.35,0,0,0,11.74-18.26,61.39,61.39,0,0,0,4.2-23A61.08,61.08,0,0,0,493.41,66a55.93,55.93,0,0,0-11.74-18.32,53,53,0,0,0-17.78-12.12,56.94,56.94,0,0,0-22.3-4.31h-10Z"/><path class="cls-1" d="M570.33,177.76V0h98.9V30.6h-64V73.37h61.4V104h-61.4v43.2h64v30.6Z"/><path class="cls-1" d="M719.22,177.76V0h6V86h114.2V0h6V177.76h-6V91.36H725.25v86.4Z"/><path class="cls-1" d="M908.61,177.76V0h84.46V5.39H914.64V86h75.85v5.39H914.64v81h78.43v5.39Z"/><path class="cls-1" d="M1028.41,177.76l68.3-96.1L1038.75,0h7.54l54.3,76.27L1154.89,0h7.54l-58,81.66,68.3,96.1H1165l-64.42-90.71-64.42,90.71Z"/><path class="cls-2" d="M301.93,30.59l33.83,58.58-33.83,58.59H234.29L200.46,89.17l33.83-58.58h67.64m17.33-30H217L165.82,89.17,217,177.76H319.26L370.4,89.17,319.26.59Z"/></g></g></svg>