<svg xmlns="http://www.w3.org/2000/svg" viewBox="0 0 1260.98 167.25"><defs><style>.cls-1{fill:#f5f7f5;}.cls-2{fill:#f4ce45;}</style></defs><g id="Layer_2" data-name="Layer 2"><g id="Layer_2-2" data-name="Layer 2"><path class="cls-1" d="M168.35.43V166.86h-35L41.46,60.23V166.86H0V.43H38l88.86,101.74V.43Z"/><path class="cls-1" d="M402.44,0h73.4q42.53,0,67.25,23.29t24.72,60.23q0,38.72-25.08,60.82t-71.54,22.1H402.44Zm41.47,30.5V135.94h27q26.32,0,40.27-14.48t13.94-38.18q0-24.54-14.12-38.66T470.47,30.5Z"/><path class="cls-1" d="M713.1,136.15v30.5H590.38V.21h121v30.5H631.85v37h75.89v30.5H631.85v37.92Z"/><path class="cls-1" d="M1044.58,136.15v30.5H921.86V.21h121.05v30.5H963.32v37h75.9v30.5h-75.9v37.92Z"/><path class="cls-1" d="M899.21.21V166.65H857.75V99.34H774.82v67.31H733.36V.21h41.46V67.05h82.93V.21Z"/><path class="cls-1" d="M1253.84.21l-65.1,80.18L1261,166.65h-53.79l-45.12-55-44.32,55h-53l70.67-86.23L1068.69.21h53.79l39.65,49.14,39-49.14Z"/><rect class="cls-1" x="796.01" y="37.07" width="41.46" height="92.72" transform="translate(900.17 -733.31) rotate(90)"/><rect class="cls-1" x="61.25" y="-9.54" width="41.46" height="186.33" transform="translate(-34.81 75.03) rotate(-41.36)"/><path class="cls-2" d="M315.54,31.43l30.15,52.22-30.15,52.21H255.25L225.1,83.65l30.15-52.22h60.29m17.9-31H237.35l-48,83.22,48,83.21h96.09l48.05-83.21L333.44.43Z"/></g></g></svg>