<svg xmlns="http://www.w3.org/2000/svg" viewBox="0 0 141.11 122.24"><defs><style>.cls-1{fill:#f5f7f5;}</style></defs><g id="Layer_2" data-name="Layer 2"><g id="Layer_3" data-name="Layer 3"><path class="cls-1" d="M105.83,0H35.28l-.63,1.1-2.89,5-28,48.52-2.89,5L0,61.12l35.28,61.12h70.55l.65-1.13,2.89-5,28.39-49.19h0l2.89-5,.46-.79ZM99.2,7.15,86.1,29.84H55.8L42.69,7.15Zm2,54v0L86.1,87.37H55.8L40.65,61.13h0L55.8,34.87H86.1ZM38.16,9.29v0L51.49,32.33h0v0L36.34,58.59H9.72ZM9.68,63.59H36.3L51.47,89.87,38.15,112.93Zm33,51.5L55.8,92.37H86.1l13.12,22.72Zm60.67-2.87v0L90.42,89.9l0,0,0,0,15.14-26.22h25.85Zm2.25-53.6L90.42,32.36,103.33,10l28.08,48.61Z"/></g></g></svg>