<svg xmlns="http://www.w3.org/2000/svg" viewBox="0 0 952.07 217"><defs><style>.cls-1{fill:none;stroke:#f4ce45;stroke-width:7px;}.cls-1,.cls-3{stroke-miterlimit:10;}.cls-2{fill:#f4ce45;}.cls-3{fill:#f5f7f5;stroke:#f5f7f5;stroke-width:6px;}</style></defs><g id="Layer_2" data-name="Layer 2"><g id="Layer_2-2" data-name="Layer 2"><polyline class="cls-1" points="284.61 81.92 309.57 108.64 284.61 135.07"/><polyline class="cls-1" points="635.5 81.92 660.18 108.64 635.5 135.07"/><polygon class="cls-2" points="413.25 217 350.61 108.5 413.25 0 538.54 0 601.18 108.5 538.54 217 413.25 217"/><polygon class="cls-3" points="532.77 10 419.02 10 362.16 108.5 419.02 207 532.77 207 589.63 108.5 532.77 10"/><path d="M449.7,38.49v-9.9h2.81a3.92,3.92,0,0,1,1.71.34,2.53,2.53,0,0,1,1.11,1,2.9,2.9,0,0,1,.39,1.53,3.12,3.12,0,0,1-.3,1.39,2.7,2.7,0,0,1-.88,1,3.3,3.3,0,0,1-1.35.5l3.28,4.17h-1.55l-3.07-4h-.93v4Zm1.22-5.08h1.26a3,3,0,0,0,1.22-.23,1.86,1.86,0,0,0,.79-.67,1.94,1.94,0,0,0,.27-1,1.74,1.74,0,0,0-.6-1.4,2.57,2.57,0,0,0-1.68-.5h-1.26Z"/><path d="M458.29,38.49v-9.9h5.14v1.07h-3.92V33h3.78v1.07h-3.78v3.35h3.92v1.08Z"/><path d="M469.11,38.49,465,28.59h1.38l3.25,8.06,3.25-8.06h1.37l-4.15,9.9Z"/><path d="M476.24,38.49v-9.9h1.21v9.9Z"/><path d="M480.53,38.49v-9.9h5.14v1.07h-3.93V33h3.78v1.07h-3.78v3.35h3.93v1.08Z"/><path d="M490.21,38.49l-2.92-9.9h1.36l2.3,8.27,2.66-8.27h.93l2.67,8.27,2.29-8.27h1.36l-2.92,9.9h-1.36L494.08,31l-2.5,7.53Z"/><polyline class="cls-2" points="701.5 108.5 764.14 0 889.43 0 952.07 108.5 889.43 217 764.14 217"/><polygon class="cls-3" points="883.66 10 769.92 10 713.05 108.5 769.92 207 883.66 207 940.53 108.5 883.66 10"/><path d="M799.16,37.49l3.92-9.9h1.13l3.92,9.9h-1.31l-1.1-2.89h-4.15l-1.1,2.89Zm2.83-4h3.32l-1.67-4.32Z"/><path d="M810.16,37.49v-9.9H813a4,4,0,0,1,1.69.33,2.66,2.66,0,0,1,1.12,1,2.93,2.93,0,0,1,.4,1.55,3.08,3.08,0,0,1-.4,1.57,2.74,2.74,0,0,1-1.12,1,3.73,3.73,0,0,1-1.69.36h-1.59v4.08Zm1.22-5.08h1.26a2.89,2.89,0,0,0,1.18-.23,1.76,1.76,0,0,0,1.1-1.71,1.82,1.82,0,0,0-.29-1,1.78,1.78,0,0,0-.81-.64,2.89,2.89,0,0,0-1.18-.22h-1.26Z"/><path d="M818.46,37.49v-9.9h2.81a4,4,0,0,1,1.69.33,2.66,2.66,0,0,1,1.12,1,2.93,2.93,0,0,1,.4,1.55,3.08,3.08,0,0,1-.4,1.57,2.74,2.74,0,0,1-1.12,1,3.76,3.76,0,0,1-1.69.36h-1.59v4.08Zm1.22-5.08h1.26a2.92,2.92,0,0,0,1.18-.23,1.79,1.79,0,0,0,1.1-1.71,1.75,1.75,0,0,0-.3-1,1.7,1.7,0,0,0-.8-.64,2.92,2.92,0,0,0-1.18-.22h-1.26Z"/><path d="M826.76,37.49v-9.9h2.8a3.92,3.92,0,0,1,1.71.34,2.53,2.53,0,0,1,1.11,1,2.9,2.9,0,0,1,.39,1.53,3.12,3.12,0,0,1-.3,1.39,2.7,2.7,0,0,1-.88,1,3.25,3.25,0,0,1-1.35.5l3.28,4.17H832l-3.07-4H828v4ZM828,32.41h1.26a3,3,0,0,0,1.22-.23,1.86,1.86,0,0,0,.79-.67,1.94,1.94,0,0,0,.27-1,1.74,1.74,0,0,0-.6-1.4,2.57,2.57,0,0,0-1.68-.5H828Z"/><path d="M839.69,37.68a4.68,4.68,0,0,1-1.94-.4,4.77,4.77,0,0,1-1.59-1.1,4.9,4.9,0,0,1-1.07-1.64,5.32,5.32,0,0,1,0-4,5,5,0,0,1,1.07-1.64,4.92,4.92,0,0,1,1.59-1.1,4.84,4.84,0,0,1,1.94-.39,4.92,4.92,0,0,1,1.95.39,5.15,5.15,0,0,1,1.59,1.1,5.35,5.35,0,0,1,1.07,5.64,5.23,5.23,0,0,1-1.07,1.64,5,5,0,0,1-1.59,1.1A4.76,4.76,0,0,1,839.69,37.68Zm0-1.18a3.51,3.51,0,0,0,2.62-1.14,3.83,3.83,0,0,0,.78-1.26,4.49,4.49,0,0,0,0-3.12,4.05,4.05,0,0,0-.78-1.26,3.6,3.6,0,0,0-4.07-.84,3.71,3.71,0,0,0-1.17.84,4.05,4.05,0,0,0-.78,1.26,4.49,4.49,0,0,0,0,3.12,3.83,3.83,0,0,0,.78,1.26,3.71,3.71,0,0,0,1.17.84A3.52,3.52,0,0,0,839.69,36.5Z"/><path d="M849.83,37.49l-4.16-9.9h1.38l3.26,8.06,3.25-8.06h1.37l-4.15,9.9Z"/><path d="M857,37.49v-9.9h5.15v1.07h-3.93V32H862v1.07h-3.78v3.35h3.93v1.08Z"/><polygon class="cls-2" points="62.64 217 0 108.5 62.64 0 187.93 0 250.57 108.5 187.93 217 62.64 217"/><polygon class="cls-3" points="182.16 10 68.41 10 11.55 108.5 68.41 207 182.16 207 239.02 108.5 182.16 10"/><path d="M102.37,37.49v-9.9h2.37a5.12,5.12,0,0,1,2,.37A5,5,0,0,1,108.29,29a4.63,4.63,0,0,1,1.06,1.58,4.83,4.83,0,0,1,.38,1.94,4.84,4.84,0,0,1-3,4.57,5.12,5.12,0,0,1-2,.38Zm1.21-1.1h1a3.76,3.76,0,0,0,1.51-.29,3.58,3.58,0,0,0,1.21-.81,3.66,3.66,0,0,0,.81-1.23,4.15,4.15,0,0,0,0-3.05,3.62,3.62,0,0,0-.81-1.22,3.75,3.75,0,0,0-1.21-.82,3.94,3.94,0,0,0-1.51-.29h-1Z"/><path d="M112.15,37.49v-9.9H115a3.91,3.91,0,0,1,1.7.34,2.53,2.53,0,0,1,1.11,1,2.9,2.9,0,0,1,.4,1.53,3.12,3.12,0,0,1-.31,1.39,2.76,2.76,0,0,1-.87,1,3.35,3.35,0,0,1-1.36.5l3.28,4.17h-1.55l-3.07-4h-.93v4Zm1.21-5.08h1.26a3,3,0,0,0,1.22-.23,1.86,1.86,0,0,0,.79-.67,1.94,1.94,0,0,0,.27-1,1.74,1.74,0,0,0-.6-1.4,2.57,2.57,0,0,0-1.68-.5h-1.26Z"/><path d="M119.69,37.49l3.92-9.9h1.13l3.92,9.9h-1.32l-1.09-2.89H122.1L121,37.49Zm2.82-4h3.32l-1.66-4.32Z"/><path d="M130.69,37.49v-9.9h5.17v1.07h-4.35l.39-.32v4.19l-.39-.54h4.08v1.07h-4.08l.39-.54v5Z"/><path d="M139.47,37.49V28.68H136.6V27.59h7v1.09h-2.88v8.81Z"/><path d="M114.55,88.79H101.64a4.46,4.46,0,0,1,0-8.92h12.91a4.46,4.46,0,0,1,0,8.92Zm21.52,17.83H101.64a4.46,4.46,0,0,1,0-8.91h34.43a4.46,4.46,0,0,1,0,8.91Zm0,17.84H101.64a4.46,4.46,0,0,1,0-8.92h34.43a4.46,4.46,0,0,1,0,8.92Z"/><path d="M163.2,62V97.62a4.31,4.31,0,1,1-8.61,0V64.18A2.17,2.17,0,0,0,152.44,62h-56a2.17,2.17,0,0,0-2.15,2.22v84.71a2.17,2.17,0,0,0,2.15,2.23h56a2.17,2.17,0,0,0,2.15-2.23v-2.23a4.31,4.31,0,1,1,8.61,0v4.46a8.79,8.79,0,0,1-8.61,8.92H94.33a8.8,8.8,0,0,1-8.61-8.92V62A8.8,8.8,0,0,1,94.33,53h60.26A8.79,8.79,0,0,1,163.2,62Z"/><path d="M182.17,101.35c1.89,2,1.6,5.4-.64,7.72l-33.72,35a5,5,0,0,1-1,.77l-10.25,5.88a3.23,3.23,0,0,1-4-.34,3.51,3.51,0,0,1-.3-4.11L138,135.64a3.65,3.65,0,0,1,.7-1,.12.12,0,0,1,0-.08l33.73-34.95C174.69,97.32,178,97,179.9,99l2.28,2.36Z"/><path d="M543.56,104a5.78,5.78,0,0,0-5.29-3.1h-7.51c-.77-12.25-6.62-23.69-16.65-32.42A60.49,60.49,0,0,0,474.23,54c-31.22,0-56.61,22.27-56.61,49.65,0,12.45,5.3,24.38,14.94,33.57a59.69,59.69,0,0,0,36.56,15.87l.65,0a7.8,7.8,0,0,0,4.88-1.66,6,6,0,0,0,2.36-4.69V131.19c0-3.14-2.67-5.84-6.22-6.28-12-1.48-21-10.61-21-21.22,0-11.83,11-21.44,24.45-21.44,12.33,0,22.66,8.16,24.24,18.65h-6.67a5.77,5.77,0,0,0-5.29,3.1,4.55,4.55,0,0,0,1.24,5.47L511,129.84a6.3,6.3,0,0,0,8.09,0l23.23-20.37A4.57,4.57,0,0,0,543.56,104Zm-5.18,2L515.15,126.4a.16.16,0,0,1-.11,0,.17.17,0,0,1-.12,0L491.69,106a.13.13,0,0,1,0-.16.18.18,0,0,1,.16-.1h9.65a3,3,0,0,0,2-.72,2.3,2.3,0,0,0,.8-1.75A24.75,24.75,0,0,0,495.3,85a32.13,32.13,0,0,0-21.07-7.59c-16.54,0-30,11.81-30,26.32A24.51,24.51,0,0,0,451.66,121,31.45,31.45,0,0,0,470,129.74a1.53,1.53,0,0,1,1.45,1.45v15.62a1.41,1.41,0,0,1-.55,1.09,1.82,1.82,0,0,1-1.29.38c-26-2.05-46.45-21.64-46.45-44.59,0-24.69,22.91-44.78,51.06-44.78,28,0,50.86,19.94,51.06,44.45a2.63,2.63,0,0,0,2.78,2.41h10.2a.18.18,0,0,1,.15.1A.13.13,0,0,1,538.38,106Z"/><path d="M866.32,53H796.47c-4,0-7.25,3-7.25,6.67V74.63c-13.25,3.49-23,14.74-23,28s9.73,24.54,23,28v25.68c0,3.68,3.25,6.67,7.25,6.67h57.08a2.68,2.68,0,0,0,1.81-.69l17.46-16.07a2.26,2.26,0,0,0,.75-1.66V59.71C873.57,56,870.32,53,866.32,53Zm-69.85,4.7h69.85a2.06,2.06,0,0,1,2.14,2V66.8H794.32V59.71A2.07,2.07,0,0,1,796.47,57.74Zm-25.12,44.92c0-13.48,11.92-24.45,26.57-24.45s26.58,11,26.58,24.45-11.92,24.45-26.58,24.45S771.35,116.14,771.35,102.66Zm23,53.71V131.62a35.86,35.86,0,0,0,3.6.19,32.83,32.83,0,0,0,23.88-10h15.65a2.36,2.36,0,1,0,0-4.7h-12a27.43,27.43,0,0,0,4-11.91h8a2.36,2.36,0,1,0,0-4.7h-7.93a27.29,27.29,0,0,0-3.86-11.91h11.79a2.36,2.36,0,1,0,0-4.7H822.13a32.81,32.81,0,0,0-24.21-10.37,35.86,35.86,0,0,0-3.6.19V71.5h74.14v70.77H858.25c-4,0-7.25,3-7.25,6.67v9.4H796.47A2.07,2.07,0,0,1,794.32,156.37ZM856.11,155v-6.08a2.06,2.06,0,0,1,2.14-2h6.6Z"/><path d="M847.48,88.58H856a2.36,2.36,0,1,0,0-4.7h-8.48a2.36,2.36,0,1,0,0,4.7Z"/><path d="M847.48,105.19H856a2.36,2.36,0,1,0,0-4.7h-8.48a2.36,2.36,0,1,0,0,4.7Z"/><path d="M847.48,121.8H856a2.36,2.36,0,1,0,0-4.7h-8.48a2.36,2.36,0,1,0,0,4.7Z"/><path d="M856,138.41a2.36,2.36,0,1,0,0-4.7H832.07a2.36,2.36,0,1,0,0,4.7Z"/><path d="M817.75,90.81,814.63,88a4.71,4.71,0,0,0-6.28,0L792,103l-4.51-4.16a4.75,4.75,0,0,0-6.29,0l-3.11,2.87a3.87,3.87,0,0,0,0,5.78l10.77,9.91a4.63,4.63,0,0,0,3.14,1.19h0a4.61,4.61,0,0,0,3.14-1.19l22.6-20.79A3.87,3.87,0,0,0,817.75,90.81ZM792,113.62l-9.83-9,2.17-2,5.86,5.38a2.71,2.71,0,0,0,3.61,0L811.49,91.7l2.18,2Z"/></g></g></svg>