<svg xmlns="http://www.w3.org/2000/svg" viewBox="0 0 952.07 217.88"><defs><style>.cls-1{fill:none;stroke:#f4ce45;stroke-width:7px;}.cls-1,.cls-3{stroke-miterlimit:10;}.cls-2{fill:#f4ce45;}.cls-3{fill:#f5f7f5;stroke:#f5f7f5;stroke-width:6px;}.cls-4{fill:#191919;}.cls-5{fill:#4c6ba7;}</style></defs><g id="Layer_2" data-name="Layer 2"><g id="Layer_1-2" data-name="Layer 1"><polyline class="cls-1" points="284.61 81.92 309.57 108.64 284.61 135.07"/><polyline class="cls-1" points="635.5 81.92 660.18 108.64 635.5 135.07"/><polygon class="cls-2" points="413.25 217 350.61 108.5 413.25 0 538.54 0 601.18 108.5 538.54 217 413.25 217"/><polygon class="cls-3" points="532.77 10 419.02 10 362.16 108.5 419.02 207 532.77 207 589.63 108.5 532.77 10"/><path d="M526.89,64.82H499.46l-12-10.24a3.14,3.14,0,0,0-3.95,0L470.67,65.52a2.15,2.15,0,0,0,0,3.37l12,10.24v8.54H461.74A2.61,2.61,0,0,0,459,90.05v4.76H447.78V90.05A2.61,2.61,0,0,0,445,87.67H428.23a2.61,2.61,0,0,0-2.79,2.38v14.28a2.61,2.61,0,0,0,2.79,2.38h5.4v20.8a2.61,2.61,0,0,0,2.79,2.38h24.83l-2.7,2.29a2.15,2.15,0,0,0,0,3.37,3.17,3.17,0,0,0,3.95,0l3.92-3.34a14.6,14.6,0,0,0,5,5.22,25,25,0,0,0,11.24,3.66v7.27H471.51a2.61,2.61,0,0,0-2.79,2.38V165a2.61,2.61,0,0,0,2.79,2.38h27.92a2.62,2.62,0,0,0,2.8-2.38V150.74a2.62,2.62,0,0,0-2.8-2.38H488.26v-7.27a25,25,0,0,0,11.24-3.66,14.5,14.5,0,0,0,5-5.23l3.92,3.35a3.17,3.17,0,0,0,3.95,0,2.15,2.15,0,0,0,0-3.37l-2.69-2.29h17.18a2.61,2.61,0,0,0,2.79-2.39V67.2A2.61,2.61,0,0,0,526.89,64.82Zm-50.3,2.38,8.88-7.57,8.89,7.57-8.89,7.58ZM464.53,92.43h41.88V102H464.53ZM431,102V92.43h11.16V102Zm35.41,20.87-3.94-3.36a3.16,3.16,0,0,0-3.94,0,2.15,2.15,0,0,0,0,3.37l2.69,2.3h-22V106.71H445a2.61,2.61,0,0,0,2.79-2.38V99.57H459v4.76a2.61,2.61,0,0,0,2.79,2.38h20.94V114a25.05,25.05,0,0,0-11.24,3.67A14.43,14.43,0,0,0,466.44,122.82Zm30.2,30.3v9.53H474.3v-9.53Zm-11.17-16.66c-8.08,0-14.66-4-14.66-8.92s6.58-8.93,14.66-8.93,14.66,4,14.66,8.93S493.56,136.46,485.47,136.46Zm24.24-11.33,2.69-2.3a2.15,2.15,0,0,0,0-3.37,3.17,3.17,0,0,0-3.95,0l-3.94,3.37a14.48,14.48,0,0,0-5-5.18A25,25,0,0,0,488.27,114v-7.27h20.94a2.61,2.61,0,0,0,2.79-2.38V90.05a2.61,2.61,0,0,0-2.79-2.38H488.27V79.13l11.19-9.55H524.1v55.55Z"/><path d="M449.71,37.33v-9.9h2.37a5,5,0,0,1,2,.38,4.79,4.79,0,0,1,1.59,1.05,4.91,4.91,0,0,1,1.44,3.53,4.84,4.84,0,0,1-3,4.57,5.12,5.12,0,0,1-2,.37Zm1.21-1.09h1a4,4,0,0,0,1.51-.29,3.75,3.75,0,0,0,1.21-.82,3.66,3.66,0,0,0,.81-1.23,4.13,4.13,0,0,0,0-3,3.66,3.66,0,0,0-.81-1.23,3.58,3.58,0,0,0-1.21-.81,3.8,3.8,0,0,0-1.51-.3h-1Z"/><path d="M459.49,37.33v-9.9h5.14V28.5H460.7v3.33h3.78V32.9H460.7v3.36h3.93v1.07Z"/><path d="M470.3,37.33l-4.15-9.9h1.38l3.25,8.06L474,27.43h1.37l-4.15,9.9Z"/><path d="M477.43,37.33v-9.9h5.14V28.5h-3.92v3.33h3.78V32.9h-3.78v3.36h3.92v1.07Z"/><path d="M485.15,37.33v-9.9h1.22v8.83h4v1.07Z"/><path d="M496.77,37.52a4.92,4.92,0,0,1-1.95-.39,5.15,5.15,0,0,1-1.59-1.1,5.24,5.24,0,0,1,0-7.28,5,5,0,0,1,1.59-1.1,4.76,4.76,0,0,1,1.95-.4,4.68,4.68,0,0,1,1.94.4,4.77,4.77,0,0,1,1.59,1.1,5,5,0,0,1,1.07,1.63,5.35,5.35,0,0,1,0,4A5,5,0,0,1,500.3,36a4.92,4.92,0,0,1-1.59,1.1A4.84,4.84,0,0,1,496.77,37.52Zm0-1.17a3.52,3.52,0,0,0,1.45-.3,3.71,3.71,0,0,0,1.17-.84,4.05,4.05,0,0,0,.78-1.26,4.41,4.41,0,0,0,.28-1.56,4.51,4.51,0,0,0-.28-1.57,4.05,4.05,0,0,0-.78-1.26,3.84,3.84,0,0,0-1.17-.83,3.65,3.65,0,0,0-2.9,0,3.61,3.61,0,0,0-1.17.83,4.05,4.05,0,0,0-.78,1.26,4.29,4.29,0,0,0-.28,1.57,4.2,4.2,0,0,0,.28,1.56,4.05,4.05,0,0,0,.78,1.26,3.51,3.51,0,0,0,2.62,1.14Z"/><path d="M504.19,37.33v-9.9H507a3.86,3.86,0,0,1,1.69.34,2.53,2.53,0,0,1,1.12,1,2.82,2.82,0,0,1,.4,1.55,3,3,0,0,1-.4,1.57,2.72,2.72,0,0,1-1.12,1,3.73,3.73,0,0,1-1.69.37h-1.59v4.07Zm1.22-5.08h1.26a2.89,2.89,0,0,0,1.18-.22,2,2,0,0,0,.81-.66,1.88,1.88,0,0,0,.29-1.05,1.83,1.83,0,0,0-.29-1.05,1.79,1.79,0,0,0-.81-.64,3.07,3.07,0,0,0-1.18-.22h-1.26Z"/><polyline class="cls-2" points="701.5 108.5 764.14 0 889.43 0 952.07 108.5 889.43 217 764.14 217"/><polygon class="cls-3" points="883.66 10 769.92 10 713.05 108.5 769.92 207 883.66 207 940.53 108.5 883.66 10"/><path d="M867.5,85H866V78.33c0-6.22-3.31-11.11-7.53-11.11H835.89l-6.63-11.56a2.58,2.58,0,0,0-2.4-1.78H795.25c-4.22,0-7.53,4.89-7.53,11.11V85.21c-3.47,1-6,5.44-6,10.9v66.66c0,6.22,3.31,11.11,7.53,11.11h78.26c4.22,0,7.53-4.89,7.53-11.11V96.1C875,89.88,871.71,85,867.5,85ZM793.74,65c0-1.33.61-2.22,1.51-2.22h30.1L832,74.33a2.59,2.59,0,0,0,2.41,1.77h24.09c.9,0,1.5.89,1.5,2.23V85H793.74ZM869,162.77c0,1.33-.6,2.22-1.5,2.22H789.23c-.9,0-1.51-.89-1.51-2.22V96.1c0-1.33.61-2.22,1.51-2.22H867.5c.9,0,1.5.89,1.5,2.22v66.67Z"/><path d="M814.82,102.77H796.75c-1.8,0-3,1.78-3,4.45s1.21,4.44,3,4.44h18.07c1.8,0,3-1.78,3-4.44S816.62,102.77,814.82,102.77Z"/><path d="M814.82,120.55H796.75c-1.8,0-3,1.78-3,4.44s1.21,4.45,3,4.45h18.07c1.8,0,3-1.78,3-4.45S816.62,120.55,814.82,120.55Z"/><path d="M776.63,103.84l-11.53-17c-1.2-1.78-3-1.78-4.21,0a5.82,5.82,0,0,0,0,6.22l6.92,10.23H734.89c-1.8,0-1.87,1.77-1.87,4.44s.07,4.44,1.87,4.44h32.92l-6.92,10.23a5.82,5.82,0,0,0,0,6.22,2.33,2.33,0,0,0,4.21,0l11.53-17a6,6,0,0,0,0-7.74Z"/><path d="M800.27,37.33v-9.9h2.38a5.07,5.07,0,0,1,2,.38,5,5,0,0,1,2.65,6.52,4.73,4.73,0,0,1-1.06,1.58A4.79,4.79,0,0,1,804.61,37a5.07,5.07,0,0,1-2,.37Zm1.22-1.09h1A3.89,3.89,0,0,0,804,36a3.8,3.8,0,0,0,1.22-.82,4,4,0,0,0,0-5.5,3.62,3.62,0,0,0-1.22-.81,3.72,3.72,0,0,0-1.5-.3h-1Z"/><path d="M810.05,37.33v-9.9h5.14V28.5h-3.92v3.33h3.78V32.9h-3.78v3.36h3.92v1.07Z"/><path d="M817.77,37.33v-9.9H819v8.83h4v1.07Z"/><path d="M825,37.33v-9.9h1.22v9.9Z"/><path d="M831.41,37.33l-4.16-9.9h1.38l3.26,8.06,3.25-8.06h1.37l-4.15,9.9Z"/><path d="M838.53,37.33v-9.9h5.15V28.5h-3.93v3.33h3.78V32.9h-3.78v3.36h3.93v1.07Z"/><path d="M846.26,37.33v-9.9h2.8a3.92,3.92,0,0,1,1.71.34,2.59,2.59,0,0,1,1.11,1,2.91,2.91,0,0,1,.39,1.54,3,3,0,0,1-.3,1.38,2.55,2.55,0,0,1-.88,1,3.12,3.12,0,0,1-1.35.51L853,37.33h-1.55l-3.07-4h-.93v4Zm1.21-5.08h1.26A2.83,2.83,0,0,0,850,32a1.86,1.86,0,0,0,.79-.67,1.91,1.91,0,0,0,.27-1,1.72,1.72,0,0,0-.6-1.4,2.52,2.52,0,0,0-1.68-.51h-1.26Z"/></g><g id="Layer_2-2" data-name="Layer 2"><polygon class="cls-2" points="62.64 217.88 0 109.38 62.64 0.88 187.93 0.88 250.57 109.38 187.93 217.88 62.64 217.88"/><polygon class="cls-3" points="182.16 10.88 68.41 10.88 11.55 109.38 68.41 207.88 182.16 207.88 239.02 109.38 182.16 10.88"/><g id="Layer_2-3" data-name="Layer 2"><g id="Layer_1-2-2" data-name="Layer 1-2"><path class="cls-4" d="M184.8,99.65v-.09l-.26-.51c-1.7-3.35-5.88-5.6-13.56-7.28a128.12,128.12,0,0,0-26-2.38H141.8c-2.52.06-4.22.13-5.65.22l-2.2.13c-1.73.11-3.43.26-5.1.44l-1,.12-1.53.19c-2.18.3-4,.6-5.7.91l-.36.07-.77.16-.59.13c-1.58.35-3,.72-4.29,1.12l-.91.29a24.36,24.36,0,0,0-4,1.72A10.09,10.09,0,0,0,105.36,99a7.52,7.52,0,0,0-.78,3.39v69l2.66,1.41c.45.26,11.74,6.51,36.66,6.51,23.59,0,36.94-5.67,38.4-6.32l3-1.35v-69.2A7.37,7.37,0,0,0,184.8,99.65Zm-49.6.61,1.31-.08c1.92-.12,3.74-.18,5.43-.2h3a121.08,121.08,0,0,1,23.35,2c.74.15,1.44.31,2.09.48-.66.15-1.35.31-2.09.46a117.44,117.44,0,0,1-23,2H141.9c-1.57,0-3.3-.08-5.41-.2-1.25-.07-2.49-.16-3.71-.26-1.93-.15-3.81-.35-5.59-.58l-1.6-.23-1-.16c-.7-.11-1.37-.23-2-.36l-.79-.16-2.18-.52c.51-.13,1-.25,1.61-.37l.41-.09.25-.06c.82-.16,1.68-.32,2.6-.47s1.74-.27,2.72-.41c2.42-.33,5.11-.58,8-.76Zm40.2,64.19c-5,1.62-15.78,4.36-31.52,4.36-15.43,0-25-2.61-29.4-4.19V154.18a108.34,108.34,0,0,0,30.93,4.37,111,111,0,0,0,30-4.07Zm0-21a99.06,99.06,0,0,1-30,4.52,96.22,96.22,0,0,1-30.93-4.89V133a108,108,0,0,0,30.93,4.38,110.19,110.19,0,0,0,30-4.08Zm0-21.22a99.06,99.06,0,0,1-30,4.52,100,100,0,0,1-23.87-2.83c-2.68-.65-4.89-1.33-6.57-1.9l-.49-.16V112c1.32.41,2.79.8,4.41,1.14l1,.23.67.13,1.28.23h0c1.32.23,2.77.45,4.41.67,2.68.37,5.54.64,8.54.83h0l1.28.08c1.83.1,3.64.17,5.7.2h3.1a126,126,0,0,0,26-2.4c1.64-.35,3.11-.73,4.43-1.14Z"/><path class="cls-4" d="M124.58,103.49c-.7-.11-1.37-.23-2-.36l-.79-.16-2.18-.52c.51-.13,1-.25,1.61-.37l-1.62-.2c-1.64-.21-3.2-.47-4.62-.74l-.79-.16-2.18-.53c.63-.15,1.3-.31,2-.46l.25-.06c1.57-.3,3.27-.59,5.32-.88,2.45-.32,5.14-.58,8-.76l2.4-4.17-2.18-3.77-.52-.89-1-1.67-3.11-5.39,6.21-3.59-5.47-9.49-6.11,3.59-6.7-11.62H97.57V53.88h-11v7.41H73.15L66.38,73,60,69.32l-5.48,9.49,6.39,3.68L54.18,94.12l6.71,11.61-6.37,3.68,5.48,9.5,6.38-3.69,6.78,11.72H86.62v7.52h11v-7.52H111.1l2.89-5c-2.94-.72-5.33-1.47-7.06-2.07V110c1.32.42,2.79.8,4.41,1.15l1,.22.67.13c1.66.32,3.52.61,5.72.91,2.68.36,5.54.63,8.54.83h0l2.19-3.81-6.2-3.58Zm-20,9.16-.88,1.52H80.5l-11.6-20L80.5,74h23.18l9,15.5,1.47,2.55.48.85.69,1.19Z"/></g></g><line class="cls-5" x1="564.81" y1="166.95" x2="564.81" y2="175.96"/><line class="cls-5" x1="564.81" y1="166.95" x2="564.81" y2="175.96"/><path d="M92.35,37.52a5.46,5.46,0,0,1-2.08-.39A5.23,5.23,0,0,1,88.58,36a4.89,4.89,0,0,1-1.12-1.64,5.09,5.09,0,0,1,1.12-5.66,5.32,5.32,0,0,1,1.68-1.1,5.74,5.74,0,0,1,3.82-.12,4.7,4.7,0,0,1,1.43.73l-.55,1a3.82,3.82,0,0,0-1.15-.61,4.54,4.54,0,0,0-1.39-.21,4.25,4.25,0,0,0-1.62.3,3.85,3.85,0,0,0-1.28.84,3.54,3.54,0,0,0-.84,1.25,4.13,4.13,0,0,0,0,3.09,3.57,3.57,0,0,0,.84,1.26A4,4,0,0,0,90.8,36a4.25,4.25,0,0,0,1.62.3,4.54,4.54,0,0,0,1.39-.21A3.61,3.61,0,0,0,95,35.5l.55,1a4.93,4.93,0,0,1-1.41.72A5.58,5.58,0,0,1,92.35,37.52Z"/><path d="M101.84,37.52a4.84,4.84,0,0,1-1.94-.39A5,5,0,0,1,98.31,36a5.24,5.24,0,0,1,0-7.28,4.88,4.88,0,0,1,1.59-1.1,4.93,4.93,0,0,1,3.89,0,5,5,0,0,1,1.59,1.1,5.3,5.3,0,0,1,1.07,1.63,5.48,5.48,0,0,1,0,4A5.35,5.35,0,0,1,105.38,36a5.15,5.15,0,0,1-1.59,1.1A4.89,4.89,0,0,1,101.84,37.52Zm0-1.17a3.51,3.51,0,0,0,2.62-1.14,3.71,3.71,0,0,0,.78-1.26,4.2,4.2,0,0,0,.28-1.56,4.29,4.29,0,0,0-.28-1.57,3.71,3.71,0,0,0-.78-1.26,3.61,3.61,0,0,0-1.17-.83,3.65,3.65,0,0,0-2.9,0,3.84,3.84,0,0,0-1.17.83,4.05,4.05,0,0,0-.78,1.26,4.5,4.5,0,0,0-.27,1.57A4.41,4.41,0,0,0,98.44,34a4.05,4.05,0,0,0,.78,1.26,3.71,3.71,0,0,0,1.17.84A3.52,3.52,0,0,0,101.84,36.35Z"/><path d="M109.27,37.33v-9.9h1.21l5,7.84V27.43h1.22v9.9h-1.22l-5-7.84v7.84Z"/><path d="M119.78,37.33v-9.9H125V28.5H120.6l.39-.31v4.18l-.39-.54h4.08V32.9H120.6l.39-.54v5Z"/><path d="M127.26,37.33v-9.9h1.22v9.9Z"/><path d="M135.78,37.52A4.62,4.62,0,0,1,132.33,36a4.94,4.94,0,0,1-1-1.63,5.32,5.32,0,0,1-.37-2,5.73,5.73,0,0,1,.33-1.94,5.15,5.15,0,0,1,1-1.64,4.64,4.64,0,0,1,1.57-1.14,4.92,4.92,0,0,1,2.08-.42,5.45,5.45,0,0,1,1.41.18,5.1,5.1,0,0,1,1.25.5,4.46,4.46,0,0,1,1,.77l-.61.93a4,4,0,0,0-1.37-.94,4.24,4.24,0,0,0-1.72-.35,3.64,3.64,0,0,0-1.55.31,3.42,3.42,0,0,0-1.14.88,3.73,3.73,0,0,0-.71,1.28,4.82,4.82,0,0,0,0,3.15,4,4,0,0,0,.76,1.29,3.41,3.41,0,0,0,1.15.85,3.17,3.17,0,0,0,1.41.31A3.51,3.51,0,0,0,137,36.2a3.36,3.36,0,0,0,1-.58,3.09,3.09,0,0,0,.74-.91,2.56,2.56,0,0,0,.27-1.18v-.29h-3.34v-1h4.59v1.07a3.92,3.92,0,0,1-.39,1.78,3.85,3.85,0,0,1-1.05,1.31,5.1,5.1,0,0,1-1.46.81A5.19,5.19,0,0,1,135.78,37.52Z"/><path d="M146.07,37.52a3.51,3.51,0,0,1-2.64-.93,3.94,3.94,0,0,1-.88-2.79V27.43h1.21v6.06a3.34,3.34,0,0,0,.57,2.14,2.55,2.55,0,0,0,3.49,0,3.34,3.34,0,0,0,.56-2.14V27.43h1.23V33.8a3.94,3.94,0,0,1-.89,2.79A3.49,3.49,0,0,1,146.07,37.52Z"/><path d="M152.52,37.33v-9.9h2.81a3.92,3.92,0,0,1,1.71.34,2.59,2.59,0,0,1,1.11,1,2.91,2.91,0,0,1,.39,1.54,3,3,0,0,1-.3,1.38,2.55,2.55,0,0,1-.88,1,3.17,3.17,0,0,1-1.35.51l3.28,4.16h-1.55l-3.07-4h-.93v4Zm1.22-5.08H155a2.86,2.86,0,0,0,1.22-.23,1.86,1.86,0,0,0,.79-.67,1.91,1.91,0,0,0,.27-1,1.72,1.72,0,0,0-.6-1.4,2.52,2.52,0,0,0-1.68-.51h-1.26Z"/><path d="M161.11,37.33v-9.9h5.14V28.5h-3.92v3.33h3.78V32.9h-3.78v3.36h3.92v1.07Z"/></g></g></svg>