<svg xmlns="http://www.w3.org/2000/svg" viewBox="0 0 946.01 217"><defs><style>.cls-1{fill:#f4ce45;}.cls-2{fill:#f5f7f5;stroke:#f5f7f5;stroke-width:6px;}.cls-2,.cls-3{stroke-miterlimit:10;}.cls-3{fill:none;stroke:#f4ce45;stroke-width:7px;}</style></defs><g id="Layer_2" data-name="Layer 2"><g id="Layer_2-2" data-name="Layer 2"><polygon class="cls-1" points="62.64 217 0 108.5 62.64 0 187.93 0 250.57 108.5 187.93 217 62.64 217"/><polygon class="cls-2" points="182.16 10 68.41 10 11.55 108.5 68.41 207 182.16 207 239.02 108.5 182.16 10"/><polyline class="cls-3" points="278.55 81.92 303.51 108.64 278.55 135.07"/><polyline class="cls-3" points="629.44 81.92 654.12 108.64 629.44 135.07"/><polygon class="cls-1" points="407.19 217 344.55 108.5 407.19 0 532.48 0 595.12 108.5 532.48 217 407.19 217"/><polygon class="cls-2" points="526.71 10 412.97 10 356.1 108.5 412.97 207 526.71 207 583.58 108.5 526.71 10"/><path d="M438,36.83v-9.9h2.81a3.89,3.89,0,0,1,1.69.34,2.53,2.53,0,0,1,1.12,1,2.9,2.9,0,0,1,.4,1.55,3,3,0,0,1-.4,1.56,2.68,2.68,0,0,1-1.12,1,3.76,3.76,0,0,1-1.69.36h-1.59v4.08Zm1.22-5.08h1.26a2.92,2.92,0,0,0,1.18-.22,1.94,1.94,0,0,0,.8-.66,1.8,1.8,0,0,0,.3-1.05,1.74,1.74,0,0,0-1.1-1.69,3.1,3.1,0,0,0-1.18-.22h-1.26Z"/><path d="M450.64,37a4.85,4.85,0,0,1-1.95-.39,5,5,0,0,1-1.59-1.11A5.3,5.3,0,0,1,446,33.89a5.35,5.35,0,0,1,0-4,5.3,5.3,0,0,1,1.07-1.63,5,5,0,0,1,1.59-1.1,4.93,4.93,0,0,1,3.89,0,5,5,0,0,1,1.59,1.1,5.3,5.3,0,0,1,1.07,1.63,5.35,5.35,0,0,1,0,4,5.3,5.3,0,0,1-1.07,1.63,5,5,0,0,1-1.59,1.11A4.84,4.84,0,0,1,450.64,37Zm0-1.17a3.51,3.51,0,0,0,2.61-1.14,3.71,3.71,0,0,0,.78-1.26,4.2,4.2,0,0,0,.28-1.56,4.25,4.25,0,0,0-.28-1.57,3.71,3.71,0,0,0-.78-1.26,3.58,3.58,0,0,0-5.23,0,3.71,3.71,0,0,0-.78,1.26,4.25,4.25,0,0,0-.28,1.57,4.2,4.2,0,0,0,.28,1.56,3.71,3.71,0,0,0,.78,1.26,3.51,3.51,0,0,0,2.62,1.14Z"/><path d="M458.06,36.83v-9.9h2.81a3.89,3.89,0,0,1,1.69.34,2.53,2.53,0,0,1,1.12,1,2.9,2.9,0,0,1,.4,1.55,3,3,0,0,1-.4,1.56,2.68,2.68,0,0,1-1.12,1,3.76,3.76,0,0,1-1.69.36h-1.6v4.08Zm1.21-5.08h1.27a2.92,2.92,0,0,0,1.18-.22,1.94,1.94,0,0,0,.8-.66,1.8,1.8,0,0,0,.29-1.05,1.71,1.71,0,0,0-1.09-1.69,3.1,3.1,0,0,0-1.18-.22h-1.27Z"/><path d="M469.73,37a3.48,3.48,0,0,1-2.64-.93,3.94,3.94,0,0,1-.88-2.79V26.93h1.21V33a3.34,3.34,0,0,0,.57,2.14,2.55,2.55,0,0,0,3.49,0A3.4,3.4,0,0,0,472,33V26.93h1.23V33.3a3.94,3.94,0,0,1-.89,2.79A3.5,3.5,0,0,1,469.73,37Z"/><path d="M476.18,36.83v-9.9h1.22v8.82h4v1.08Z"/><path d="M482.58,36.83l3.92-9.9h1.14l3.91,9.9h-1.31l-1.1-2.89H485l-1.11,2.89Zm2.83-4h3.32l-1.66-4.31Z"/><path d="M494.88,36.83V28H492V26.93h7V28H496.1v8.81Z"/><path d="M501,36.83v-9.9h5.14V28h-3.92v3.33H506V32.4h-3.78v3.35h3.92v1.08Z"/><polyline class="cls-1" points="695.44 108.5 758.08 0 883.37 0 946.01 108.5 883.37 217 758.08 217"/><polygon class="cls-2" points="877.6 10 763.86 10 706.99 108.5 763.86 207 877.6 207 934.47 108.5 877.6 10"/><path d="M792.68,36.83l1.19-9.9h1.3l2.75,7.28,2.74-7.28H802l1.19,9.9h-1.21l-1-7.67-2.66,7.17h-.81l-2.66-7.17-1,7.67Z"/><path d="M804.65,36.83l3.92-9.9h1.13l3.92,9.9H812.3l-1.09-2.89h-4.15L806,36.83Zm2.82-4h3.32l-1.66-4.31Z"/><path d="M815.65,36.83v-9.9h1.21v9.9Z"/><path d="M819.94,36.83v-9.9h1.21l5,7.84V26.93h1.22v9.9h-1.22l-5-7.84v7.84Z"/><path d="M831.75,36.83V28h-2.87V26.93h7V28H833v8.81Z"/><path d="M836.29,36.83l3.92-9.9h1.13l3.92,9.9h-1.32l-1.1-2.89H838.7l-1.11,2.89Zm2.82-4h3.32l-1.66-4.31Z"/><path d="M847.29,36.83v-9.9h1.21v9.9Z"/><path d="M851.58,36.83v-9.9h1.21l5,7.84V26.93H859v9.9H857.8l-5-7.84v7.84Z"/><path d="M97.06,36.54v-9.9h1.21v9.9Z"/><path d="M101.35,36.54v-9.9h1.21l5,7.84V26.64h1.22v9.9h-1.22l-5-7.84v7.84Z"/><path d="M111.86,36.54v-9.9h1.22v9.9Z"/><path d="M117.44,36.54V27.73h-2.86V26.64h7v1.09h-2.88v8.81Z"/><path d="M123.61,36.54v-9.9h1.21v9.9Z"/><path d="M126.85,36.54l3.92-9.9h1.13l3.92,9.9h-1.31l-1.1-2.89h-4.15l-1.1,2.89Zm2.83-4H133l-1.67-4.32Z"/><path d="M139.15,36.54V27.73h-2.87V26.64h7v1.09h-2.88v8.81Z"/><path d="M145.31,36.54v-9.9h5.14v1.07h-3.92V31h3.78v1.07h-3.78v3.35h3.92v1.08Z"/><path d="M103,102.71H99.36v7.13H103Zm43.12,7.13h3.59v-7.13h-3.59ZM103,127.71H99.36v3.56H103Zm43.12,0v3.56h3.59v-3.56ZM103,81.32H99.36v7.14H103Zm43.12,7.14h3.59V81.32h-3.59Zm21.56-10.69h3.59V76.3l-1.05-1Zm-21.56-21.4,2.54-2.52-1.05-1h-1.49ZM103,109.84h43.12v-7.13H103Zm0,21.43h43.12v-7.13H103Zm0-42.81h43.12V81.32H103Zm57.49,64.21H88.58v7.14h71.86ZM85,149.11V63.51H77.8v85.6ZM164,77.77v71.34h7.19V77.77ZM88.58,59.94h57.49V52.81H88.58Zm55-1,21.55,21.4,5.09-5-21.56-21.4ZM88.58,152.67a3.58,3.58,0,0,1-3.6-3.56H77.8a10.74,10.74,0,0,0,10.78,10.7Zm71.86,7.14a10.74,10.74,0,0,0,10.78-10.7H164a3.57,3.57,0,0,1-3.59,3.56ZM85,63.51a3.59,3.59,0,0,1,3.6-3.57V52.81A10.74,10.74,0,0,0,77.8,63.51Zm14.38,21.4v42.8h7.18V84.91Zm21.55,0v42.8h7.19V84.91Zm21.56,0v42.8h7.19V84.91Z"/><path d="M532.49,53.81H409.19c-2.75,0-5,1.81-5,4v88.54a3.88,3.88,0,0,0,2.14,3.31v.64h1.78a6.15,6.15,0,0,0,1.06.09h123.3a6.23,6.23,0,0,0,1.06-.09h.24v-.06a11.58,11.58,0,0,0,3.68-1.89V59.85C537.47,55.62,535.23,53.81,532.49,53.81Zm-108.6,93.06H408.82a.55.55,0,0,1-.34-.48V135.9h15.41Zm0-14.43H408.48V121.06h15.41Zm0-14.84H408.48v-12h15.41Zm0-15.48H408.48v-13h15.41Zm0-16.46H408.48V73h15.41Zm35.92,61.21H428.16v-11h31.65v11Zm0-14.43H428.16V121.06h31.65v11.38Zm0-14.84H428.16v-12h31.65v12Zm0-15.48H428.16v-13h31.65v13Zm0-16.46H428.16V73h31.65v12.7Zm0-16.16H428.16V57.27h31.65V69.5Zm36.28,77.37h-32v-11h32Zm0-14.43h-32V121.06h32Zm0-14.84h-32v-12h32Zm0-15.48h-32v-13h32Zm0-16.46h-32V73h32Zm0-16.16h-32V57.27h32Zm37.11,76.89a.55.55,0,0,1-.34.48h-32.5v-11H533.2Zm0-13.95H500.36V121.06H533.2Zm0-14.84H500.36v-12H533.2Zm0-15.48H500.36v-13H533.2Zm0-16.46H500.36V73H533.2Zm0-16.16H500.36V57.27h32.13a.66.66,0,0,1,.71.58V69.5Zm-40.37,13H467.22V75.23h25.61v7.23Zm0,16.34H467.22V91.57h25.61V98.8Zm0,15.82H467.22v-7.23h25.61v7.23Zm0,15.66H467.22v-7.23h25.61v7.23Zm0,15.47-25.61-1v-7.23h25.61v8.23Z"/><path d="M881.09,149.16V92.21H845.66l8.78-10.91h-12.6V52.81H810.39V81.3h-12.6l8.78,10.91H771.14v57H759.38v24.49H892.84V149.16ZM818.56,88.7h0V60.21h15.11V88.7h4.7l-12.26,15.23L813.85,88.7ZM779.31,99.61h33.21l13.59,16.88L839.7,99.61h33.22v49.5H779.31Zm105.36,66.65H767.55v-9.7H884.67Z"/><rect x="821.26" y="145.85" width="5.65" height="5.12"/></g></g></svg>