<svg xmlns="http://www.w3.org/2000/svg" viewBox="0 0 1476.7 701.91"><defs><style>.cls-1{fill:#1c1a17;}.cls-2,.cls-4,.cls-6,.cls-7{fill:none;stroke-miterlimit:10;}.cls-2{stroke:#4c6ba7;stroke-width:5px;}.cls-3{fill:#4c6ba7;}.cls-4{stroke:#191919;}.cls-4,.cls-6{stroke-width:4px;}.cls-5{fill:#191919;}.cls-6{stroke:#1c1a17;stroke-linecap:round;}.cls-7{stroke:#f4ce45;stroke-width:7px;}</style></defs><g id="Layer_2" data-name="Layer 2"><g id="Layer_2-2" data-name="Layer 2"><path class="cls-1" d="M265.81,166.66H163.4l.06-53.11H265.81Zm-95.24-7.16h88.08V121H170.58Z"/><path class="cls-1" d="M265.81,166.66H163.4V98.79l43.06-.27,3.87-10.4H255l3.45,10.28,7.34.07Zm-95.24-7.16h88.08V105.56l-5.34,0-3.44-10.23H215.3l-3.85,10.37-40.88.26Z"/><polygon class="cls-1" points="204.39 95.28 163.46 95.28 163.46 88.12 206.83 88.12 204.39 95.28"/><polygon class="cls-2" points="611.62 239.55 481.59 239.55 416.58 352.15 481.59 464.76 611.62 464.76 676.63 352.15 611.62 239.55"/><polygon class="cls-3" points="550.46 235.05 558.26 239.55 550.46 244.06 542.65 248.56 542.65 239.55 542.65 230.54 550.46 235.05"/><polygon class="cls-3" points="649.56 296.36 649.56 305.37 641.76 300.87 633.95 296.36 641.76 291.85 649.56 287.35 649.56 296.36"/><polygon class="cls-3" points="550.95 465.32 550.95 474.33 543.14 469.83 535.34 465.32 543.14 460.81 550.95 456.31 550.95 465.32"/><polygon class="cls-3" points="452.35 414.57 444.55 419.08 444.55 410.07 444.55 401.06 452.35 405.56 460.16 410.07 452.35 414.57"/><polygon class="cls-3" points="448.78 296.56 440.97 292.06 448.78 287.55 456.58 283.05 456.58 292.06 456.58 301.07 448.78 296.56"/><polygon class="cls-4" points="910.74 253.51 796.84 253.51 739.88 352.15 796.84 450.8 910.74 450.8 967.7 352.15 910.74 253.51"/><path class="cls-1" d="M899.91,333.06V333l-.3-.58c-2-3.83-6.73-6.41-15.52-8.33a146.35,146.35,0,0,0-29.79-2.72l-3.31,0h-.29c-2.88.07-4.82.15-6.46.25l-2.52.15q-3,.19-5.83.5l-1.17.14-1.75.22c-2.5.34-4.63.68-6.52,1l-.42.08-.88.18-.67.15q-2.72.6-4.91,1.28l-1,.33a26.94,26.94,0,0,0-4.57,2,11.42,11.42,0,0,0-5,4.74,8.36,8.36,0,0,0-.9,3.88v78.94l3,1.62c.51.29,13.43,7.45,42,7.45,27,0,42.26-6.49,43.94-7.24l3.46-1.54V336.25A8.56,8.56,0,0,0,899.91,333.06Zm-56.76.69,1.5-.09c2.2-.13,4.28-.2,6.21-.23,1.14,0,2.3,0,3.44,0A138.35,138.35,0,0,1,881,335.7c.84.17,1.64.35,2.39.55l-2.39.53a135.92,135.92,0,0,1-26.32,2.32c-1.28,0-2.57,0-3.88-.05-1.8,0-3.78-.09-6.19-.23-1.43-.08-2.85-.18-4.25-.29-2.21-.18-4.36-.4-6.39-.67l-1.83-.26-1.15-.18q-1.2-.19-2.31-.42l-.9-.18-2.5-.59c.58-.15,1.19-.29,1.84-.43l.47-.1.29-.07c.94-.18,1.92-.36,3-.54s2-.31,3.12-.47C836.79,334.25,839.87,334,843.15,333.75Zm46,73.42c-5.74,1.85-18,5-36.06,5-17.66,0-28.62-3-33.65-4.79V395.42a124.31,124.31,0,0,0,35.4,5,126.91,126.91,0,0,0,34.31-4.66Zm0-24a113.51,113.51,0,0,1-34.31,5.17,110.48,110.48,0,0,1-35.4-5.59v-11.6a123.82,123.82,0,0,0,35.4,5,126.39,126.39,0,0,0,34.31-4.67Zm0-24.28A113.84,113.84,0,0,1,854.85,364a115.39,115.39,0,0,1-27.32-3.23c-3.06-.75-5.59-1.53-7.52-2.18l-.56-.18V347.13c1.51.47,3.2.92,5,1.31l1.17.26.76.15,1.47.26h0c1.51.26,3.17.52,5.05.77,3.07.42,6.34.73,9.77.95h0l1.47.09c2.09.11,4.16.19,6.52.23H851l3.32,0a144.89,144.89,0,0,0,29.79-2.74c1.88-.4,3.56-.84,5.07-1.31Z"/><polygon class="cls-4" points="1417.29 372.23 1303.38 372.23 1246.43 470.88 1303.38 569.52 1417.29 569.52 1474.24 470.88 1417.29 372.23"/><polygon class="cls-4" points="1417.43 132.39 1303.53 132.39 1246.58 231.03 1303.53 329.68 1417.43 329.68 1474.39 231.03 1417.43 132.39"/><polygon class="cls-4" points="1210.84 252.32 1096.93 252.32 1039.98 350.96 1096.93 449.61 1210.84 449.61 1267.79 350.96 1210.84 252.32"/><polygon class="cls-4" points="603.83 253.51 489.92 253.51 432.97 352.15 489.92 450.8 603.83 450.8 660.78 352.15 603.83 253.51"/><polygon class="cls-4" points="271.56 2 157.66 2 100.7 100.65 157.66 199.29 271.56 199.29 328.51 100.65 271.56 2"/><polygon class="cls-4" points="271.01 252.31 157.11 252.31 100.16 350.95 157.11 449.6 271.01 449.6 327.97 350.95 271.01 252.31"/><polygon class="cls-4" points="271.01 502.62 157.11 502.62 100.16 601.26 157.11 699.91 271.01 699.91 327.97 601.26 271.01 502.62"/><path class="cls-1" d="M263.11,309.28v-.11l-.32-.63c-2.09-4.13-7.23-6.89-16.69-9-8.62-1.88-20-2.93-32-2.93l-3.56,0h-.31c-3.1.08-5.19.16-6.95.27l-2.71.16q-3.19.21-6.28.55l-1.25.14c-.64.08-1.26.15-1.88.24-2.69.37-5,.74-7,1.12l-.44.08-.95.2-.73.16q-2.91.65-5.28,1.38c-.38.11-.76.23-1.12.36a29.12,29.12,0,0,0-4.91,2.11,12.36,12.36,0,0,0-5.34,5.1,9.07,9.07,0,0,0-1,4.17v84.91l3.28,1.73c.55.32,14.44,8,45.11,8,29,0,45.47-7,47.26-7.77l3.73-1.67V312.71A9.17,9.17,0,0,0,263.11,309.28Zm-61,.75c.53,0,1.07-.08,1.61-.1,2.36-.15,4.6-.22,6.68-.25,1.22,0,2.48,0,3.7,0a148.89,148.89,0,0,1,28.73,2.47c.91.18,1.78.38,2.58.59-.82.18-1.67.38-2.58.57a145.57,145.57,0,0,1-28.3,2.49c-1.38,0-2.76,0-4.18,0-1.93,0-4.06-.1-6.65-.25-1.54-.09-3.07-.2-4.57-.32-2.37-.19-4.69-.43-6.88-.71l-2-.29L189,314c-.86-.14-1.68-.29-2.48-.45l-1-.19-2.68-.64c.63-.16,1.28-.31,2-.46l.51-.11.3-.07c1-.2,2.07-.4,3.2-.58s2.14-.34,3.35-.51C195.23,310.56,198.54,310.25,202.07,310Zm49.49,79c-6.18,2-19.42,5.37-38.8,5.37-19,0-30.78-3.22-36.18-5.16V376.35a133.59,133.59,0,0,0,38.07,5.38,136.9,136.9,0,0,0,36.91-5Zm0-25.83a122.66,122.66,0,0,1-36.91,5.56,118.59,118.59,0,0,1-38.07-6V350.22a133,133,0,0,0,38.07,5.39,136,136,0,0,0,36.91-5Zm0-26.12a125.5,125.5,0,0,1-66.29,2.08c-3.3-.8-6-1.64-8.09-2.34l-.6-.19V324.41c1.63.51,3.43,1,5.43,1.41l1.25.28.83.16,1.57.28s0,0,0,0c1.63.29,3.41.56,5.43.83,3.3.45,6.82.79,10.51,1h0l1.58.1c2.25.12,4.48.21,7,.24h.25c1.18,0,2.38,0,3.57,0,12,0,23.42-1,32-2.95,2-.43,3.83-.9,5.46-1.41Z"/><path class="cls-5" d="M506.34,326.05V284.8h24.4v9.64h-13.4v6.11h12.8v9.64h-12.8v6.21h13.4v9.65Z"/><path class="cls-5" d="M543.66,326.05V294.44h-9V284.8h29v9.64h-9v31.61Z"/><path class="cls-5" d="M568.29,326.05V284.8h11v31.6h13.29v9.65Z"/><path class="cls-5" d="M803.56,298.67V283.82h3.35a7.55,7.55,0,0,1,2.94.57,7.44,7.44,0,0,1,2.38,1.58,7.59,7.59,0,0,1,1.6,8.2,7.19,7.19,0,0,1-1.58,2.37,7.41,7.41,0,0,1-2.39,1.57,7.56,7.56,0,0,1-3,.56Zm1.37-1.22h1.86a6.3,6.3,0,0,0,2.43-.47,6,6,0,0,0,2-1.32,5.91,5.91,0,0,0,1.31-2,6.57,6.57,0,0,0,0-4.88,6.08,6.08,0,0,0-3.27-3.29,6.3,6.3,0,0,0-2.43-.47h-1.86Z"/><path class="cls-5" d="M816.86,298.67l5.85-14.85H824l5.84,14.85h-1.48l-1.81-4.73h-6.38l-1.83,4.73Zm3.75-5.94h5.45l-2.72-7.11Z"/><path class="cls-5" d="M835.47,298.67v-13.6h-4.53v-1.25h10.44v1.25h-4.54v13.6Z"/><path class="cls-5" d="M842.48,298.67l5.85-14.85h1.27l5.84,14.85H854l-1.8-4.73h-6.39L844,298.67Zm3.75-5.94h5.46L849,285.62Z"/><path class="cls-5" d="M858.21,298.67V283.82h3.14a5.26,5.26,0,0,1,3.37,1,3.38,3.38,0,0,1,1.21,2.79,3.34,3.34,0,0,1-2.15,3.35,4,4,0,0,1,2.56,1.21,3.62,3.62,0,0,1,.9,2.56,4,4,0,0,1-.56,2.14,3.52,3.52,0,0,1-1.6,1.36,6,6,0,0,1-2.49.47Zm1.37-8.17h1.53a4.09,4.09,0,0,0,2.6-.72,2.82,2.82,0,0,0,0-4.15,4.09,4.09,0,0,0-2.6-.72h-1.53Zm0,7.06h2.65a4.18,4.18,0,0,0,2.67-.75,2.58,2.58,0,0,0,.94-2.15,2.65,2.65,0,0,0-.94-2.17,4.12,4.12,0,0,0-2.67-.78h-2.65Z"/><path class="cls-5" d="M869.07,298.67l5.85-14.85h1.27L882,298.67h-1.48l-1.81-4.73h-6.38l-1.83,4.73Zm3.75-5.94h5.45l-2.72-7.11Z"/><path class="cls-5" d="M888.78,299a5.5,5.5,0,0,1-2-.34,6,6,0,0,1-1.48-.84,6.3,6.3,0,0,1-1-1c-.24-.31-.41-.55-.51-.7l.78-1c.11.17.27.39.49.68a5.7,5.7,0,0,0,.85.86,4.62,4.62,0,0,0,1.23.74,4.28,4.28,0,0,0,1.66.3,4,4,0,0,0,1.65-.32,2.89,2.89,0,0,0,1.19-1,2.71,2.71,0,0,0,.45-1.59,2.76,2.76,0,0,0-.31-1.34,2.86,2.86,0,0,0-.86-.94,6.85,6.85,0,0,0-1.26-.69c-.47-.2-1-.4-1.48-.59-.36-.14-.73-.3-1.13-.49a5.58,5.58,0,0,1-1.1-.71,3.38,3.38,0,0,1-.83-1,3.08,3.08,0,0,1-.32-1.48,3.94,3.94,0,0,1,.3-1.53,4.08,4.08,0,0,1,.86-1.27,4,4,0,0,1,1.31-.87,4.44,4.44,0,0,1,1.7-.32,4.3,4.3,0,0,1,1.63.3,5,5,0,0,1,1.31.73,3.74,3.74,0,0,1,.87.93l-.7.94a3.37,3.37,0,0,0-.7-.79,3.79,3.79,0,0,0-1.06-.62,3.61,3.61,0,0,0-1.35-.23,3,3,0,0,0-1.56.39,2.76,2.76,0,0,0-1.31,2.34,2.09,2.09,0,0,0,.26,1.07,2.35,2.35,0,0,0,.7.74,4.35,4.35,0,0,0,1,.52c.34.15.69.28,1,.41q.87.32,1.68.69a7,7,0,0,1,1.43.86,3.77,3.77,0,0,1,1,1.21,3.85,3.85,0,0,1,.37,1.74,3.84,3.84,0,0,1-2.33,3.69A5.72,5.72,0,0,1,888.78,299Z"/><path class="cls-5" d="M897.37,298.67V283.82h7.48V285h-6.11v5.6h5.89v1.2h-5.89v5.64h6.11v1.2Z"/><path class="cls-5" d="M157.47,51.86a6.45,6.45,0,0,1-2.59-.53,6.62,6.62,0,0,1-2.12-1.47A6.84,6.84,0,0,1,150.82,45a6.84,6.84,0,0,1,1.94-4.85,6.62,6.62,0,0,1,2.12-1.47,6.45,6.45,0,0,1,2.59-.53,6.38,6.38,0,0,1,2.59.53,6.55,6.55,0,0,1,2.13,1.47,6.85,6.85,0,0,1,1.42,2.18,6.73,6.73,0,0,1,.52,2.67,6.8,6.8,0,0,1-.52,2.67,7,7,0,0,1-1.42,2.18,6.55,6.55,0,0,1-2.13,1.47A6.38,6.38,0,0,1,157.47,51.86Zm0-1.18a5.06,5.06,0,0,0,2.1-.43,5.34,5.34,0,0,0,1.7-1.21,5.56,5.56,0,0,0,1.14-1.81,6.24,6.24,0,0,0,0-4.45,5.52,5.52,0,0,0-1.14-1.8,5.34,5.34,0,0,0-1.7-1.21,5.34,5.34,0,0,0-4.2,0,5.34,5.34,0,0,0-1.7,1.21,5.87,5.87,0,0,0-1.14,1.8,6.24,6.24,0,0,0,0,4.45A5.92,5.92,0,0,0,153.67,49a5.34,5.34,0,0,0,1.7,1.21A5.09,5.09,0,0,0,157.47,50.68Z"/><path class="cls-5" d="M167.62,51.6V38.4h3.43a5.18,5.18,0,0,1,2.24.45,3.32,3.32,0,0,1,1.46,1.28,3.74,3.74,0,0,1,.52,2,4,4,0,0,1-.52,2,3.43,3.43,0,0,1-1.46,1.36,4.78,4.78,0,0,1-2.24.49h-2.21V51.6ZM168.84,45h1.92a4,4,0,0,0,1.73-.34,2.7,2.7,0,0,0,1.13-1,2.8,2.8,0,0,0,.4-1.5,2.75,2.75,0,0,0-.4-1.5,2.55,2.55,0,0,0-1.13-.94,4.2,4.2,0,0,0-1.73-.33h-1.92Z"/><path class="cls-5" d="M178.58,51.6V38.4h6.65v1.07h-5.44v5H185v1.07h-5.24v5h5.44V51.6Z"/><path class="cls-5" d="M188.79,51.6V38.4h3.42a5.18,5.18,0,0,1,2.24.45,3.38,3.38,0,0,1,1.46,1.28,3.79,3.79,0,0,1,.52,2A3.88,3.88,0,0,1,196,44a3.46,3.46,0,0,1-1.23,1.32,4.44,4.44,0,0,1-1.89.61l4.39,5.67h-1.55L191.51,46H190V51.6ZM190,45h1.92a4.06,4.06,0,0,0,1.74-.34,2.62,2.62,0,0,0,1.12-1,2.71,2.71,0,0,0,.4-1.5,2.52,2.52,0,0,0-.87-2,3.56,3.56,0,0,0-2.39-.74H190Z"/><path class="cls-5" d="M198.68,51.6l5.2-13.2H205l5.19,13.2h-1.31l-1.61-4.21h-5.67L200,51.6ZM202,46.32h4.84L204.44,40Z"/><path class="cls-5" d="M215.23,51.6V39.5h-4V38.4h9.28v1.1h-4V51.6Z"/><path class="cls-5" d="M223.51,51.6V38.4h1.22V51.6Z"/><path class="cls-5" d="M234.88,51.86a6.42,6.42,0,0,1-2.59-.53,6.51,6.51,0,0,1-2.12-1.47,6.82,6.82,0,0,1-1.43-2.18,7,7,0,0,1-.52-2.67,6.91,6.91,0,0,1,.52-2.67,6.71,6.71,0,0,1,1.43-2.18,6.51,6.51,0,0,1,2.12-1.47,6.59,6.59,0,0,1,5.18,0,6.51,6.51,0,0,1,2.12,1.47A6.71,6.71,0,0,1,241,42.34a6.91,6.91,0,0,1,.52,2.67,7,7,0,0,1-.52,2.67,6.82,6.82,0,0,1-1.43,2.18,6.51,6.51,0,0,1-2.12,1.47A6.42,6.42,0,0,1,234.88,51.86Zm0-1.18a5.09,5.09,0,0,0,2.1-.43,5.34,5.34,0,0,0,1.7-1.21,5.92,5.92,0,0,0,1.14-1.81,6.39,6.39,0,0,0,0-4.45,5.87,5.87,0,0,0-1.14-1.8,5.34,5.34,0,0,0-1.7-1.21,5.34,5.34,0,0,0-4.2,0,5.23,5.23,0,0,0-1.7,1.21,5.69,5.69,0,0,0-1.14,1.8,6.24,6.24,0,0,0,0,4.45A5.73,5.73,0,0,0,231.08,49a5.23,5.23,0,0,0,1.7,1.21A5.09,5.09,0,0,0,234.88,50.68Z"/><path class="cls-5" d="M245,51.6V38.4h1.22l7.09,11.13V38.4h1.21V51.6h-1.21l-7.09-11.11V51.6Z"/><path class="cls-5" d="M257.57,51.6l5.2-13.2h1.13l5.19,13.2h-1.31l-1.61-4.21H260.5l-1.63,4.21Zm3.33-5.28h4.85L263.33,40Z"/><path class="cls-5" d="M272.11,51.6V38.4h1.22V50.53h5.53V51.6Z"/><path class="cls-5" d="M180.47,71.06A4.86,4.86,0,0,1,177.35,70a5.43,5.43,0,0,1-.87-.85c-.21-.27-.36-.48-.45-.62l.7-.9c.1.15.24.35.44.61a4.76,4.76,0,0,0,.74.76,4.23,4.23,0,0,0,1.1.66,3.79,3.79,0,0,0,1.48.27,3.66,3.66,0,0,0,1.46-.29,2.49,2.49,0,0,0,1.06-.86,2.32,2.32,0,0,0,.4-1.4,2.37,2.37,0,0,0-.28-1.2,2.53,2.53,0,0,0-.76-.84,6.94,6.94,0,0,0-1.12-.61c-.42-.18-.85-.35-1.31-.52s-.66-.27-1-.44a5.1,5.1,0,0,1-1-.63,3,3,0,0,1-.74-.92,2.83,2.83,0,0,1-.28-1.32,3.47,3.47,0,0,1,.27-1.36,3.75,3.75,0,0,1,.76-1.13,3.61,3.61,0,0,1,1.17-.77,3.82,3.82,0,0,1,1.5-.28,4,4,0,0,1,1.46.26,4.23,4.23,0,0,1,1.16.66,3.09,3.09,0,0,1,.77.82l-.62.84a3.1,3.1,0,0,0-.62-.71,3.75,3.75,0,0,0-.94-.55,3.29,3.29,0,0,0-1.2-.21,2.66,2.66,0,0,0-1.39.35,2.34,2.34,0,0,0-.86.91,2.43,2.43,0,0,0-.3,1.17,1.89,1.89,0,0,0,.23,1,2.16,2.16,0,0,0,.62.66,4.79,4.79,0,0,0,.84.46l.93.36c.51.19,1,.39,1.49.61a5.73,5.73,0,0,1,1.27.77,3.11,3.11,0,0,1,.89,1.08,3.28,3.28,0,0,1,.33,1.54,3.44,3.44,0,0,1-2.07,3.28A5.13,5.13,0,0,1,180.47,71.06Z"/><path class="cls-5" d="M189.82,70.8V65.08l-4.53-7.48h1.46l3.68,6.18,3.68-6.18h1.47L191,65.08V70.8Z"/><path class="cls-5" d="M201,71.06A4.8,4.8,0,0,1,197.92,70a5.43,5.43,0,0,1-.87-.85c-.21-.27-.36-.48-.45-.62l.7-.9c.09.15.24.35.43.61a5.34,5.34,0,0,0,.75.76,4.07,4.07,0,0,0,1.1.66,3.76,3.76,0,0,0,1.48.27,3.66,3.66,0,0,0,1.46-.29,2.49,2.49,0,0,0,1.06-.86,2.39,2.39,0,0,0,.4-1.4,2.47,2.47,0,0,0-.28-1.2,2.53,2.53,0,0,0-.76-.84,6.94,6.94,0,0,0-1.12-.61c-.42-.18-.86-.35-1.32-.52s-.65-.27-1-.44a4.81,4.81,0,0,1-1-.63,3,3,0,0,1-.74-.92,2.83,2.83,0,0,1-.28-1.32,3.47,3.47,0,0,1,.27-1.36,3.57,3.57,0,0,1,.76-1.13,3.41,3.41,0,0,1,1.17-.77,3.82,3.82,0,0,1,1.5-.28,4.07,4.07,0,0,1,1.46.26,4.23,4.23,0,0,1,1.16.66,3.26,3.26,0,0,1,.77.82l-.62.84a2.93,2.93,0,0,0-.63-.71,3.58,3.58,0,0,0-.94-.55,3.23,3.23,0,0,0-1.19-.21,2.63,2.63,0,0,0-1.39.35,2.44,2.44,0,0,0-.87.91,2.42,2.42,0,0,0-.29,1.17,1.8,1.8,0,0,0,.23,1,2.13,2.13,0,0,0,.61.66,5.29,5.29,0,0,0,.85.46l.92.36c.52.19,1,.39,1.49.61a5.58,5.58,0,0,1,1.28.77,3.23,3.23,0,0,1,.89,1.08,3.28,3.28,0,0,1,.33,1.54,3.52,3.52,0,0,1-.56,2,3.57,3.57,0,0,1-1.52,1.27A5.1,5.1,0,0,1,201,71.06Z"/><path class="cls-5" d="M210.67,70.8V58.7h-4V57.6h9.28v1.1h-4V70.8Z"/><path class="cls-5" d="M219,70.8V57.6h6.65v1.07h-5.43v5h5.24v1.07h-5.24v5h5.43V70.8Z"/><path class="cls-5" d="M228.42,70.8l1.71-13.2h1.29l3.88,10.33,3.88-10.33h1.29l1.71,13.2H241L239.5,59.86,235.74,70h-.88L231.1,59.86,229.63,70.8Z"/><path class="cls-5" d="M248.71,71.06A4.8,4.8,0,0,1,245.6,70a5.43,5.43,0,0,1-.87-.85c-.21-.27-.36-.48-.45-.62l.7-.9c.09.15.24.35.43.61a5.34,5.34,0,0,0,.75.76,4.07,4.07,0,0,0,1.1.66,3.76,3.76,0,0,0,1.48.27,3.66,3.66,0,0,0,1.46-.29,2.49,2.49,0,0,0,1.06-.86,2.39,2.39,0,0,0,.4-1.4,2.47,2.47,0,0,0-.28-1.2,2.53,2.53,0,0,0-.76-.84,6.94,6.94,0,0,0-1.12-.61c-.42-.18-.86-.35-1.32-.52s-.65-.27-1-.44a4.81,4.81,0,0,1-1-.63,3,3,0,0,1-.74-.92,2.83,2.83,0,0,1-.28-1.32,3.47,3.47,0,0,1,.27-1.36,3.57,3.57,0,0,1,.76-1.13,3.41,3.41,0,0,1,1.17-.77,3.82,3.82,0,0,1,1.5-.28,4.07,4.07,0,0,1,1.46.26,4.23,4.23,0,0,1,1.16.66,3.26,3.26,0,0,1,.77.82l-.62.84a2.93,2.93,0,0,0-.63-.71,3.58,3.58,0,0,0-.94-.55,3.23,3.23,0,0,0-1.19-.21,2.63,2.63,0,0,0-1.39.35,2.44,2.44,0,0,0-.87.91,2.42,2.42,0,0,0-.29,1.17,1.8,1.8,0,0,0,.23,1,2.13,2.13,0,0,0,.61.66A5.29,5.29,0,0,0,248,63l.92.36c.52.19,1,.39,1.49.61a5.58,5.58,0,0,1,1.28.77,3.23,3.23,0,0,1,.89,1.08,3.28,3.28,0,0,1,.33,1.54,3.52,3.52,0,0,1-.56,2,3.57,3.57,0,0,1-1.52,1.27A5.1,5.1,0,0,1,248.71,71.06Z"/><path class="cls-5" d="M180.31,547.46a5,5,0,0,1-1.8-.31,5.28,5.28,0,0,1-1.31-.74,5.46,5.46,0,0,1-.87-.86c-.21-.27-.36-.48-.45-.62l.7-.9c.09.15.24.35.43.61a6,6,0,0,0,.75.77,4.5,4.5,0,0,0,1.1.65,3.79,3.79,0,0,0,1.48.27,3.66,3.66,0,0,0,1.46-.29,2.54,2.54,0,0,0,1.06-.85,2.7,2.7,0,0,0,.12-2.61,2.5,2.5,0,0,0-.76-.83,6.27,6.27,0,0,0-1.12-.62c-.42-.17-.85-.35-1.31-.52s-.66-.27-1-.44a4.3,4.3,0,0,1-1-.63,3,3,0,0,1-.74-.92,2.81,2.81,0,0,1-.28-1.31,3.44,3.44,0,0,1,.27-1.36,3.67,3.67,0,0,1,.76-1.14A3.78,3.78,0,0,1,179,534a3.82,3.82,0,0,1,1.5-.28,4,4,0,0,1,1.46.26,4.23,4.23,0,0,1,1.16.66,3.25,3.25,0,0,1,.77.82l-.62.84a3.1,3.1,0,0,0-.62-.71,3.45,3.45,0,0,0-.94-.54,3.09,3.09,0,0,0-1.2-.22,2.57,2.57,0,0,0-1.39.36,2.35,2.35,0,0,0-.87.9,2.57,2.57,0,0,0-.29,1.18,1.88,1.88,0,0,0,.23,1,2.16,2.16,0,0,0,.62.66,4.22,4.22,0,0,0,.84.46l.92.36c.52.19,1,.39,1.5.61a5.73,5.73,0,0,1,1.27.77,3.11,3.11,0,0,1,.89,1.08,3.31,3.31,0,0,1,.33,1.54,3.44,3.44,0,0,1-2.07,3.28A5.18,5.18,0,0,1,180.31,547.46Z"/><path class="cls-5" d="M188,547.2V534h6.65v1.07h-5.43v5h5.24v1.07h-5.24v5h5.43v1.07Z"/><path class="cls-5" d="M198.16,547.2V534h3.43a5.18,5.18,0,0,1,2.24.45,3.44,3.44,0,0,1,1.46,1.28,3.79,3.79,0,0,1,.51,2,4,4,0,0,1-.43,1.88,3.46,3.46,0,0,1-1.24,1.31,4.31,4.31,0,0,1-1.89.61l4.39,5.67h-1.54l-4.21-5.56h-1.5v5.56Zm1.22-6.61h1.92a4,4,0,0,0,1.73-.35,2.58,2.58,0,0,0,1.13-1,2.79,2.79,0,0,0,.39-1.5,2.51,2.51,0,0,0-.86-2,3.58,3.58,0,0,0-2.39-.74h-1.92Z"/><path class="cls-5" d="M213.59,547.2,208.05,534h1.38l4.64,11.37L218.7,534h1.37l-5.53,13.2Z"/><path class="cls-5" d="M223.08,547.2V534h6.65v1.07H224.3v5h5.24v1.07H224.3v5h5.43v1.07Z"/><path class="cls-5" d="M233.29,547.2V534h3.42a5.14,5.14,0,0,1,2.24.45,3.38,3.38,0,0,1,1.46,1.28,3.7,3.7,0,0,1,.52,2,4,4,0,0,1-.44,1.88,3.51,3.51,0,0,1-1.23,1.31,4.31,4.31,0,0,1-1.89.61l4.39,5.67h-1.54L236,541.64h-1.5v5.56Zm1.22-6.61h1.92a4,4,0,0,0,1.73-.35,2.58,2.58,0,0,0,1.13-1,2.79,2.79,0,0,0,.39-1.5,2.54,2.54,0,0,0-.86-2,3.6,3.6,0,0,0-2.39-.74h-1.92Z"/><path class="cls-5" d="M247.77,547.46a5,5,0,0,1-1.8-.31,5.17,5.17,0,0,1-1.32-.74,5.36,5.36,0,0,1-.86-.86,5.12,5.12,0,0,1-.45-.62l.69-.9c.1.15.24.35.44.61a4.87,4.87,0,0,0,.75.77,4.43,4.43,0,0,0,1.09.65,3.79,3.79,0,0,0,1.48.27,3.62,3.62,0,0,0,1.46-.29,2.48,2.48,0,0,0,1.06-.85,2.37,2.37,0,0,0,.4-1.41,2.47,2.47,0,0,0-.27-1.2,2.54,2.54,0,0,0-.77-.83,5.84,5.84,0,0,0-1.11-.62c-.42-.17-.86-.35-1.32-.52s-.65-.27-1-.44a4.09,4.09,0,0,1-1-.63,2.89,2.89,0,0,1-.74-.92,2.81,2.81,0,0,1-.29-1.31,3.28,3.28,0,0,1,.28-1.36,3.5,3.5,0,0,1,.76-1.14,3.62,3.62,0,0,1,1.16-.77,3.9,3.9,0,0,1,1.51-.28,4,4,0,0,1,1.45.26,4.29,4.29,0,0,1,1.17.66,3.44,3.44,0,0,1,.77.82l-.62.84a2.93,2.93,0,0,0-.63-.71,3.45,3.45,0,0,0-.94-.54,3.07,3.07,0,0,0-1.19-.22,2.54,2.54,0,0,0-1.39.36,2.35,2.35,0,0,0-.87.9,2.46,2.46,0,0,0-.3,1.18,1.79,1.79,0,0,0,.24,1,2.13,2.13,0,0,0,.61.66,4.61,4.61,0,0,0,.85.46c.3.13.61.25.92.36.52.19,1,.39,1.49.61a5.8,5.8,0,0,1,1.28.77,3.23,3.23,0,0,1,.89,1.08,3.88,3.88,0,0,1-.24,3.55,3.48,3.48,0,0,1-1.51,1.27A5.1,5.1,0,0,1,247.77,547.46Z"/><path class="cls-5" d="M29.29,263.48V248.63h7.48v1.21H30.65v5.6h5.9v1.2h-5.9v5.63h6.12v1.21Z"/><path class="cls-5" d="M40.77,263.48V248.63h3.35a7.55,7.55,0,0,1,2.94.57,7.32,7.32,0,0,1,4,3.94A7.7,7.7,0,0,1,51,259a7.32,7.32,0,0,1-4,3.94,7.78,7.78,0,0,1-3,.56Zm1.37-1.22H44a6.14,6.14,0,0,0,2.44-.48,6.07,6.07,0,0,0,2-1.31,6,6,0,0,0,1.31-2,6.57,6.57,0,0,0,0-4.88,6,6,0,0,0-1.31-2,5.89,5.89,0,0,0-2-1.32,6.13,6.13,0,0,0-2.43-.48H42.14Z"/><path class="cls-5" d="M54.67,263.48l1.92-14.85H58l4.37,11.62,4.37-11.62h1.45l1.93,14.85H68.79l-1.65-12.3L62.9,262.57h-1l-4.24-11.39L56,263.48Z"/><path class="cls-5" d="M77.5,263.77a5.53,5.53,0,0,1-2-.35,6,6,0,0,1-1.48-.83,6.3,6.3,0,0,1-1-1c-.24-.32-.41-.55-.51-.7l.79-1c.1.17.27.39.49.68a6.1,6.1,0,0,0,.84.86,4.62,4.62,0,0,0,1.23.74,4.33,4.33,0,0,0,1.67.3,4.17,4.17,0,0,0,1.64-.32,2.83,2.83,0,0,0,1.19-1,2.66,2.66,0,0,0,.45-1.58,2.7,2.7,0,0,0-.31-1.35,2.85,2.85,0,0,0-.86-.94,8.16,8.16,0,0,0-1.25-.69l-1.48-.59a10.74,10.74,0,0,1-1.13-.49,4.86,4.86,0,0,1-1.11-.71,3.26,3.26,0,0,1-.83-1,3.16,3.16,0,0,1-.32-1.47,3.77,3.77,0,0,1,.31-1.53A3.85,3.85,0,0,1,76,248.68a4.39,4.39,0,0,1,1.69-.32,4.59,4.59,0,0,1,1.64.29,5.37,5.37,0,0,1,1.31.74,4,4,0,0,1,.86.92l-.7.95a3.18,3.18,0,0,0-.7-.79,3.79,3.79,0,0,0-1.06-.62,3.59,3.59,0,0,0-1.34-.24,2.83,2.83,0,0,0-1.56.4,2.59,2.59,0,0,0-1,1,2.81,2.81,0,0,0-.33,1.32,2,2,0,0,0,.26,1.07,2.32,2.32,0,0,0,.69.74,4.81,4.81,0,0,0,1,.52c.34.14.69.28,1,.4q.87.33,1.68.69a7,7,0,0,1,1.43.87,3.55,3.55,0,0,1,1,1.21,3.71,3.71,0,0,1,.37,1.73,4,4,0,0,1-.63,2.27,4,4,0,0,1-1.7,1.43A5.69,5.69,0,0,1,77.5,263.77Z"/><path class="cls-5" d="M1131.47,293.39v-13.2h3a6.67,6.67,0,0,1,2.61.5,6.62,6.62,0,0,1,3.53,3.5,6.6,6.6,0,0,1,.51,2.61,6.75,6.75,0,0,1-.5,2.59,6.58,6.58,0,0,1-1.41,2.1,6.75,6.75,0,0,1-2.12,1.4,6.9,6.9,0,0,1-2.62.5Zm1.22-1.09h1.64a5.56,5.56,0,0,0,2.17-.42,5.44,5.44,0,0,0,1.74-1.17,5.38,5.38,0,0,0,1.17-1.75,5.95,5.95,0,0,0,0-4.34,5.38,5.38,0,0,0-1.17-1.75,5.57,5.57,0,0,0-1.75-1.18,5.47,5.47,0,0,0-2.16-.42h-1.64Z"/><path class="cls-5" d="M1143.29,293.39l5.2-13.2h1.12l5.19,13.2h-1.31l-1.61-4.21h-5.67l-1.62,4.21Zm3.33-5.28h4.85l-2.43-6.32Z"/><path class="cls-5" d="M1159.83,293.39v-12.1h-4v-1.1h9.27v1.1h-4v12.1Z"/><path class="cls-5" d="M1166.06,293.39l5.2-13.2h1.13l5.19,13.2h-1.31l-1.61-4.21H1169l-1.62,4.21Zm3.34-5.28h4.85l-2.43-6.32Z"/><path class="cls-5" d="M1091.15,312.59l-5.53-13.2H1087l4.64,11.36,4.64-11.36h1.37l-5.53,13.2Z"/><path class="cls-5" d="M1100.65,312.59v-13.2h1.22v13.2Z"/><path class="cls-5" d="M1109.15,312.84a4.71,4.71,0,0,1-1.8-.31,4.89,4.89,0,0,1-1.32-.74,5,5,0,0,1-.86-.85c-.22-.28-.37-.49-.46-.63l.7-.89c.1.15.24.35.44.6a4.79,4.79,0,0,0,.74.77,4.23,4.23,0,0,0,1.1.66,3.8,3.8,0,0,0,1.48.26,3.65,3.65,0,0,0,1.46-.28,2.56,2.56,0,0,0,1.06-.86,2.37,2.37,0,0,0,.4-1.41,2.3,2.3,0,0,0-.28-1.19,2.43,2.43,0,0,0-.76-.84,6.24,6.24,0,0,0-1.12-.61c-.42-.18-.85-.35-1.31-.53s-.66-.26-1-.43a5.1,5.1,0,0,1-1-.63,3.07,3.07,0,0,1-.74-.93,2.79,2.79,0,0,1-.28-1.31,3.47,3.47,0,0,1,.27-1.36,3.63,3.63,0,0,1,.76-1.13,3.45,3.45,0,0,1,1.17-.77,4.19,4.19,0,0,1,3,0,4.48,4.48,0,0,1,1.16.65,3.7,3.7,0,0,1,.78.82l-.63.84a3.06,3.06,0,0,0-.62-.7,3.23,3.23,0,0,0-.94-.55,3.29,3.29,0,0,0-1.2-.21,2.66,2.66,0,0,0-1.39.35,2.34,2.34,0,0,0-.86.91,2.43,2.43,0,0,0-.3,1.17,1.88,1.88,0,0,0,.23.95,2.16,2.16,0,0,0,.62.66,4.22,4.22,0,0,0,.84.46q.46.19.93.36c.51.19,1,.4,1.49.61a6.6,6.6,0,0,1,1.27.77,3.14,3.14,0,0,1,1.22,2.62,3.44,3.44,0,0,1-2.07,3.29A5.13,5.13,0,0,1,1109.15,312.84Z"/><path class="cls-5" d="M1121.17,312.84a4.41,4.41,0,0,1-3.43-1.25,5.35,5.35,0,0,1-1.15-3.73v-8.47h1.22v8.2a4.68,4.68,0,0,0,.84,3.05,3.66,3.66,0,0,0,5,0,4.68,4.68,0,0,0,.84-3.05v-8.2h1.23v8.47a5.35,5.35,0,0,1-1.15,3.73A4.41,4.41,0,0,1,1121.17,312.84Z"/><path class="cls-5" d="M1128.56,312.59l5.2-13.2h1.13l5.19,13.2h-1.31l-1.61-4.21h-5.67l-1.62,4.21Zm3.34-5.28h4.85l-2.43-6.32Z"/><path class="cls-5" d="M1143.1,312.59v-13.2h1.22v12.13h5.53v1.07Z"/><path class="cls-5" d="M1152.89,312.59v-13.2h1.21v13.2Z"/><path class="cls-5" d="M1161.38,312.84a4.78,4.78,0,0,1-1.8-.31,5,5,0,0,1-1.31-.74,5.43,5.43,0,0,1-.87-.85q-.32-.42-.45-.63l.7-.89c.09.15.24.35.43.6a5.38,5.38,0,0,0,.75.77,4.23,4.23,0,0,0,1.1.66,3.76,3.76,0,0,0,1.48.26,3.65,3.65,0,0,0,1.46-.28,2.56,2.56,0,0,0,1.06-.86,2.37,2.37,0,0,0,.4-1.41,2.3,2.3,0,0,0-.28-1.19,2.53,2.53,0,0,0-.76-.84,6.24,6.24,0,0,0-1.12-.61c-.42-.18-.86-.35-1.31-.53s-.66-.26-1-.43a5.1,5.1,0,0,1-1-.63,3.07,3.07,0,0,1-.74-.93,2.79,2.79,0,0,1-.28-1.31,3.49,3.49,0,0,1,1-2.49,3.36,3.36,0,0,1,1.17-.77,4.19,4.19,0,0,1,3,0,4.48,4.48,0,0,1,1.16.65,3.42,3.42,0,0,1,.77.82l-.62.84a3.06,3.06,0,0,0-.62-.7,3.23,3.23,0,0,0-.94-.55,3.29,3.29,0,0,0-1.2-.21,2.66,2.66,0,0,0-1.39.35,2.44,2.44,0,0,0-.87.91,2.53,2.53,0,0,0-.29,1.17,1.88,1.88,0,0,0,.23.95,2.05,2.05,0,0,0,.62.66,4.22,4.22,0,0,0,.84.46c.31.13.61.25.92.36.52.19,1,.4,1.5.61a6.6,6.6,0,0,1,1.27.77,3.14,3.14,0,0,1,1.22,2.62,3.58,3.58,0,0,1-.56,2,3.67,3.67,0,0,1-1.51,1.27A5.18,5.18,0,0,1,1161.38,312.84Z"/><path class="cls-5" d="M1167.74,312.59l5.2-13.2h1.12l5.2,13.2h-1.32l-1.6-4.21h-5.68l-1.62,4.21Zm3.33-5.28h4.85L1173.5,301Z"/><path class="cls-5" d="M1184.28,312.59v-12.1h-4v-1.1h9.28v1.1h-4v12.1Z"/><path class="cls-5" d="M1192.57,312.59v-13.2h1.21v13.2Z"/><path class="cls-5" d="M1203.93,312.84a6.29,6.29,0,0,1-2.59-.53,6.75,6.75,0,0,1-2.12-1.46,7.12,7.12,0,0,1-1.43-7.53,7.11,7.11,0,0,1,1.43-2.18,7,7,0,0,1,2.12-1.47,6.74,6.74,0,0,1,5.19,0,7,7,0,0,1,2.12,1.47,7.08,7.08,0,0,1,1.42,2.18,7.11,7.11,0,0,1,0,5.34,7,7,0,0,1-1.42,2.19,6.75,6.75,0,0,1-2.12,1.46A6.3,6.3,0,0,1,1203.93,312.84Zm0-1.17a5.06,5.06,0,0,0,2.1-.44,5.2,5.2,0,0,0,1.7-1.2,5.56,5.56,0,0,0,1.14-1.81,6.24,6.24,0,0,0,0-4.45,5.56,5.56,0,0,0-1.14-1.81,5.39,5.39,0,0,0-1.7-1.21,5.34,5.34,0,0,0-4.2,0,5.5,5.5,0,0,0-1.7,1.21,5.92,5.92,0,0,0-1.14,1.81,6.24,6.24,0,0,0,0,4.45,5.92,5.92,0,0,0,1.14,1.81,5.31,5.31,0,0,0,1.7,1.2A5.1,5.1,0,0,0,1203.93,311.67Z"/><path class="cls-5" d="M1214.09,312.59v-13.2h1.21l7.09,11.13V299.39h1.22v13.2h-1.22l-7.09-11.11v11.11Z"/><path class="cls-5" d="M1338.06,175.56v-13.2h3a6.67,6.67,0,0,1,2.61.5,6.45,6.45,0,0,1,3.53,3.5,6.42,6.42,0,0,1,.52,2.6,6.59,6.59,0,0,1-.51,2.6,6.27,6.27,0,0,1-1.41,2.1,6.53,6.53,0,0,1-2.12,1.4,6.87,6.87,0,0,1-2.62.5Zm1.22-1.09h1.65a5.47,5.47,0,0,0,2.16-.42,5.34,5.34,0,0,0,2.91-2.92,5.59,5.59,0,0,0,.42-2.17,5.52,5.52,0,0,0-.42-2.17,5.35,5.35,0,0,0-1.16-1.75,5.25,5.25,0,0,0-1.75-1.18,5.54,5.54,0,0,0-2.16-.42h-1.65Z"/><path class="cls-5" d="M1349.88,175.56l5.2-13.2h1.13l5.19,13.2h-1.31l-1.61-4.21h-5.67l-1.63,4.21Zm3.34-5.28h4.84l-2.42-6.32Z"/><path class="cls-5" d="M1366.42,175.56v-12.1h-4v-1.1h9.28v1.1h-4v12.1Z"/><path class="cls-5" d="M1372.66,175.56l5.2-13.2H1379l5.2,13.2h-1.32l-1.6-4.21h-5.68l-1.62,4.21Zm3.33-5.28h4.85l-2.42-6.32Z"/><path class="cls-5" d="M1310.8,194.76l5.2-13.2h1.13l5.19,13.2H1321l-1.61-4.21h-5.67l-1.62,4.21Zm3.34-5.28H1319l-2.43-6.33Z"/><path class="cls-5" d="M1325.34,194.76v-13.2h1.22l7.09,11.12V181.56h1.22v13.2h-1.22l-7.09-11.12v11.12Z"/><path class="cls-5" d="M1337.88,194.76l5.2-13.2h1.13l5.19,13.2h-1.31l-1.61-4.21h-5.67l-1.62,4.21Zm3.34-5.28h4.85l-2.43-6.33Z"/><path class="cls-5" d="M1352.42,194.76v-13.2h1.22v12.12h5.53v1.08Z"/><path class="cls-5" d="M1364.12,194.76V189l-4.54-7.48h1.47l3.68,6.18,3.68-6.18h1.47l-4.54,7.48v5.72Z"/><path class="cls-5" d="M1375.57,194.76v-12.1h-4v-1.1h9.29v1.1h-4v12.1Z"/><path class="cls-5" d="M1383.86,194.76v-13.2h1.21v13.2Z"/><path class="cls-5" d="M1395.14,195a7.18,7.18,0,0,1-2.76-.52,6.88,6.88,0,0,1-2.22-1.45,6.66,6.66,0,0,1-1.47-2.18,7.12,7.12,0,0,1,0-5.39,6.66,6.66,0,0,1,1.47-2.18,6.88,6.88,0,0,1,2.22-1.45,7.14,7.14,0,0,1,2.76-.53,7.32,7.32,0,0,1,2.32.37,6.25,6.25,0,0,1,1.92,1l-.57,1a5.1,5.1,0,0,0-1.63-.87,6.39,6.39,0,0,0-2-.3,5.89,5.89,0,0,0-2.3.43,5.35,5.35,0,0,0-1.81,1.2,5.24,5.24,0,0,0-1.19,1.8,6.05,6.05,0,0,0,0,4.43,5.24,5.24,0,0,0,1.19,1.8,5.51,5.51,0,0,0,1.81,1.2,5.89,5.89,0,0,0,2.3.43,6.39,6.39,0,0,0,2-.3,5.31,5.31,0,0,0,1.63-.87l.57,1a6.46,6.46,0,0,1-1.9,1A7.17,7.17,0,0,1,1395.14,195Z"/><path class="cls-5" d="M1405.54,195a4.71,4.71,0,0,1-1.8-.31,4.89,4.89,0,0,1-1.32-.74,5,5,0,0,1-.86-.85c-.22-.28-.37-.49-.46-.63l.7-.89c.1.15.24.35.44.6a4.87,4.87,0,0,0,.75.77,3.77,3.77,0,0,0,2.57.92,3.65,3.65,0,0,0,1.46-.28,2.56,2.56,0,0,0,1.06-.86,2.37,2.37,0,0,0,.4-1.41,2.41,2.41,0,0,0-.27-1.19,2.57,2.57,0,0,0-.77-.84,6.14,6.14,0,0,0-1.11-.61c-.42-.18-.86-.36-1.32-.53s-.66-.26-1-.43a5.43,5.43,0,0,1-1-.63,3,3,0,0,1-.73-.93,2.79,2.79,0,0,1-.29-1.31,3.47,3.47,0,0,1,.27-1.36,3.63,3.63,0,0,1,.76-1.13,3.45,3.45,0,0,1,1.17-.77,3.87,3.87,0,0,1,1.51-.29,4,4,0,0,1,1.45.26,5.08,5.08,0,0,1,1.17.66,3.64,3.64,0,0,1,.77.82l-.63.84a2.84,2.84,0,0,0-.62-.7,3.23,3.23,0,0,0-.94-.55,3.29,3.29,0,0,0-1.2-.21,2.62,2.62,0,0,0-1.38.35,2.23,2.23,0,0,0-.87.91,2.43,2.43,0,0,0-.3,1.17,1.88,1.88,0,0,0,.23.95,2.16,2.16,0,0,0,.62.66,4.52,4.52,0,0,0,.84.46l.93.36c.51.19,1,.4,1.49.61a6.31,6.31,0,0,1,1.27.77,3.14,3.14,0,0,1,1.22,2.62,3.41,3.41,0,0,1-2.07,3.28A5,5,0,0,1,1405.54,195Z"/><path class="cls-5" d="M1319.49,417.16V404h2.8a4.67,4.67,0,0,1,3,.86,3,3,0,0,1,1.07,2.48,3,3,0,0,1-1.9,3,3.69,3.69,0,0,1,2.27,1.08,3.25,3.25,0,0,1,.8,2.28,3.52,3.52,0,0,1-.5,1.9,3.14,3.14,0,0,1-1.42,1.21,5.36,5.36,0,0,1-2.22.42Zm1.22-7.26h1.36a3.63,3.63,0,0,0,2.31-.65,2.49,2.49,0,0,0,0-3.68,3.63,3.63,0,0,0-2.31-.64h-1.36Zm0,6.27h2.35a3.71,3.71,0,0,0,2.38-.67,2.29,2.29,0,0,0,.84-1.91,2.35,2.35,0,0,0-.85-1.93,3.64,3.64,0,0,0-2.37-.69h-2.35Z"/><path class="cls-5" d="M1334.81,417.42a4.45,4.45,0,0,1-3.43-1.25,5.38,5.38,0,0,1-1.14-3.74V404h1.21v8.21a4.65,4.65,0,0,0,.84,3,3.65,3.65,0,0,0,5,0,4.65,4.65,0,0,0,.84-3V404h1.22v8.47a5.33,5.33,0,0,1-1.15,3.74A4.44,4.44,0,0,1,1334.81,417.42Z"/><path class="cls-5" d="M1346.47,417.42a5,5,0,0,1-1.8-.31,5.17,5.17,0,0,1-1.32-.74,5.8,5.8,0,0,1-.86-.86,5.12,5.12,0,0,1-.45-.62l.69-.9c.1.15.24.35.44.61a4.87,4.87,0,0,0,.75.77,4.43,4.43,0,0,0,1.09.65,3.79,3.79,0,0,0,1.48.27A3.62,3.62,0,0,0,1348,416a2.48,2.48,0,0,0,1.06-.85,2.37,2.37,0,0,0,.4-1.41,2.47,2.47,0,0,0-.27-1.2,2.54,2.54,0,0,0-.77-.83,5.84,5.84,0,0,0-1.11-.62c-.42-.18-.86-.35-1.32-.52s-.65-.27-1-.44a4.42,4.42,0,0,1-1-.63,2.89,2.89,0,0,1-.74-.92,2.79,2.79,0,0,1-.29-1.31,3.28,3.28,0,0,1,.28-1.36,3.64,3.64,0,0,1,.75-1.14,3.78,3.78,0,0,1,1.17-.77,3.9,3.9,0,0,1,1.51-.28,4,4,0,0,1,1.45.26,4.29,4.29,0,0,1,1.17.66,3.26,3.26,0,0,1,.77.82l-.62.84a2.93,2.93,0,0,0-.63-.71,3.45,3.45,0,0,0-.94-.54,3.07,3.07,0,0,0-1.19-.22,2.54,2.54,0,0,0-1.39.36,2.35,2.35,0,0,0-.87.9,2.44,2.44,0,0,0-.3,1.18,1.79,1.79,0,0,0,.24,1,2.13,2.13,0,0,0,.61.66,4.61,4.61,0,0,0,.85.46c.3.13.61.25.92.36.52.19,1,.39,1.49.61a6.21,6.21,0,0,1,1.28.77,3.23,3.23,0,0,1,.89,1.08,3.88,3.88,0,0,1-.24,3.55,3.48,3.48,0,0,1-1.51,1.27A5.1,5.1,0,0,1,1346.47,417.42Z"/><path class="cls-5" d="M1354.11,417.16V404h1.22v13.2Z"/><path class="cls-5" d="M1359.63,417.16V404h1.21l7.09,11.13V404h1.22v13.2h-1.22l-7.09-11.11v11.11Z"/><path class="cls-5" d="M1373.45,417.16V404h6.65V405h-5.43v5h5.24v1.07h-5.24v5h5.43v1.07Z"/><path class="cls-5" d="M1387,417.42a4.91,4.91,0,0,1-1.8-.31,5.17,5.17,0,0,1-1.32-.74,5.35,5.35,0,0,1-.86-.86,5.12,5.12,0,0,1-.45-.62l.69-.9c.1.15.24.35.44.61a4.87,4.87,0,0,0,.75.77,4.25,4.25,0,0,0,1.09.65,3.79,3.79,0,0,0,1.48.27,3.66,3.66,0,0,0,1.46-.29,2.54,2.54,0,0,0,1.06-.85,2.7,2.7,0,0,0,.12-2.61,2.4,2.4,0,0,0-.76-.83,6.17,6.17,0,0,0-1.11-.62c-.42-.18-.86-.35-1.32-.52s-.66-.27-1-.44a4.6,4.6,0,0,1-1-.63,2.77,2.77,0,0,1-1-2.23,3.44,3.44,0,0,1,.27-1.36,3.67,3.67,0,0,1,.76-1.14,3.78,3.78,0,0,1,1.17-.77,3.85,3.85,0,0,1,1.5-.28,4,4,0,0,1,1.46.26,4.44,4.44,0,0,1,1.17.66,3.26,3.26,0,0,1,.77.82l-.63.84a2.87,2.87,0,0,0-.62-.71,3.45,3.45,0,0,0-.94-.54,3.09,3.09,0,0,0-1.2-.22,2.53,2.53,0,0,0-1.38.36,2.21,2.21,0,0,0-.87.9,2.44,2.44,0,0,0-.3,1.18,1.88,1.88,0,0,0,.23,1,2.16,2.16,0,0,0,.62.66,4.52,4.52,0,0,0,.84.46q.46.2.93.36c.51.19,1,.39,1.49.61a5.88,5.88,0,0,1,1.27.77,3.11,3.11,0,0,1,.89,1.08,3.31,3.31,0,0,1,.33,1.54,3.44,3.44,0,0,1-2.07,3.28A5.13,5.13,0,0,1,1387,417.42Z"/><path class="cls-5" d="M1397.57,417.42a5,5,0,0,1-1.8-.31,5.28,5.28,0,0,1-1.31-.74,5.91,5.91,0,0,1-.87-.86c-.21-.27-.36-.48-.45-.62l.7-.9c.09.15.24.35.43.61a6,6,0,0,0,.75.77,4.5,4.5,0,0,0,1.1.65,3.76,3.76,0,0,0,1.48.27,3.66,3.66,0,0,0,1.46-.29,2.54,2.54,0,0,0,1.06-.85,2.44,2.44,0,0,0,.4-1.41,2.47,2.47,0,0,0-.28-1.2,2.5,2.5,0,0,0-.76-.83,6.27,6.27,0,0,0-1.12-.62c-.42-.18-.86-.35-1.32-.52s-.65-.27-1-.44a4.67,4.67,0,0,1-1-.63,3,3,0,0,1-.74-.92,2.79,2.79,0,0,1-.28-1.31,3.44,3.44,0,0,1,.27-1.36,3.5,3.5,0,0,1,.76-1.14,3.56,3.56,0,0,1,1.17-.77,3.82,3.82,0,0,1,1.5-.28,4.07,4.07,0,0,1,1.46.26,4.23,4.23,0,0,1,1.16.66,3.26,3.26,0,0,1,.77.82l-.62.84a2.93,2.93,0,0,0-.63-.71,3.31,3.31,0,0,0-.94-.54,3,3,0,0,0-1.19-.22,2.57,2.57,0,0,0-1.39.36,2.35,2.35,0,0,0-.87.9,2.43,2.43,0,0,0-.29,1.18,1.78,1.78,0,0,0,.23,1,2.13,2.13,0,0,0,.61.66,4.61,4.61,0,0,0,.85.46c.31.13.61.25.92.36.52.19,1,.39,1.49.61a6,6,0,0,1,1.28.77,3.23,3.23,0,0,1,.89,1.08,3.31,3.31,0,0,1,.33,1.54,3.52,3.52,0,0,1-.56,2,3.57,3.57,0,0,1-1.52,1.27A5.1,5.1,0,0,1,1397.57,417.42Z"/><path class="cls-5" d="M1299.05,436.36v-13.2h1.21v13.2Z"/><path class="cls-5" d="M1304.57,436.36v-13.2h1.21l7.09,11.13V423.16h1.22v13.2h-1.22l-7.09-11.11v11.11Z"/><path class="cls-5" d="M1320.39,436.36V424.27h-4v-1.11h9.28v1.11h-4v12.09Z"/><path class="cls-5" d="M1328.68,436.36v-13.2h6.65v1.07h-5.44v5h5.24v1.07h-5.24v5h5.44v1.07Z"/><path class="cls-5" d="M1338.89,436.36v-13.2h1.21v12.13h5.53v1.07Z"/><path class="cls-5" d="M1348.67,436.36v-13.2h1.22v12.13h5.52v1.07Z"/><path class="cls-5" d="M1358.45,436.36v-13.2h1.22v13.2Z"/><path class="cls-5" d="M1369.68,436.62a6.24,6.24,0,0,1-2.56-.53,6.39,6.39,0,0,1-2.06-1.46,7,7,0,0,1-1.38-2.18,7.22,7.22,0,0,1-.5-2.68,7.6,7.6,0,0,1,.44-2.55,6.75,6.75,0,0,1,1.29-2.2,6.28,6.28,0,0,1,2.08-1.53,6.48,6.48,0,0,1,2.78-.57,7.16,7.16,0,0,1,1.94.26,7,7,0,0,1,1.68.71,5.84,5.84,0,0,1,1.33,1.07l-.63.93a5.52,5.52,0,0,0-1.89-1.37,5.75,5.75,0,0,0-2.44-.52,5.14,5.14,0,0,0-2.23.47,4.82,4.82,0,0,0-1.66,1.26,5.69,5.69,0,0,0-1,1.83,6.88,6.88,0,0,0,0,4.45,6,6,0,0,0,1.11,1.84,5.1,5.1,0,0,0,1.66,1.22,4.9,4.9,0,0,0,2,.44,5.28,5.28,0,0,0,1.75-.3,5,5,0,0,0,1.54-.86,4.26,4.26,0,0,0,1.08-1.34,3.73,3.73,0,0,0,.41-1.75v-.46h-4.87v-1h6.12V431a5.47,5.47,0,0,1-.53,2.46,5.18,5.18,0,0,1-1.41,1.76,6.57,6.57,0,0,1-2,1.05A6.8,6.8,0,0,1,1369.68,436.62Z"/><path class="cls-5" d="M1379.12,436.36v-13.2h6.65v1.07h-5.44v5h5.24v1.07h-5.24v5h5.44v1.07Z"/><path class="cls-5" d="M1389.33,436.36v-13.2h1.21l7.09,11.13V423.16h1.22v13.2h-1.22l-7.09-11.11v11.11Z"/><path class="cls-5" d="M1408.91,436.62a7.32,7.32,0,0,1-2.75-.52,6.72,6.72,0,0,1-3.7-3.63,7,7,0,0,1-.53-2.7,6.88,6.88,0,0,1,.53-2.7,6.68,6.68,0,0,1,1.48-2.18,6.89,6.89,0,0,1,2.21-1.45,7.56,7.56,0,0,1,5.09-.15,6.71,6.71,0,0,1,1.92,1l-.58,1a5,5,0,0,0-1.63-.87,6.39,6.39,0,0,0-4.27.12,5.43,5.43,0,0,0-3,3,5.85,5.85,0,0,0-.42,2.22,5.76,5.76,0,0,0,.42,2.21,5.53,5.53,0,0,0,1.19,1.81,5.43,5.43,0,0,0,1.81,1.19,5.93,5.93,0,0,0,2.3.44,6.07,6.07,0,0,0,2-.31,5,5,0,0,0,1.63-.87l.58,1a7,7,0,0,1-1.91,1A7.36,7.36,0,0,1,1408.91,436.62Z"/><path class="cls-5" d="M1416,436.36v-13.2h6.65v1.07h-5.43v5h5.24v1.07h-5.24v5h5.43v1.07Z"/><path class="cls-5" d="M0,357.74V342.89H3.85a5.78,5.78,0,0,1,2.52.51A3.66,3.66,0,0,1,8,344.84a4.14,4.14,0,0,1,.59,2.25A4.41,4.41,0,0,1,8,349.38a4,4,0,0,1-1.64,1.53,5.51,5.51,0,0,1-2.52.54H1.37v6.29Zm1.37-7.44H3.53a4.51,4.51,0,0,0,1.94-.39,2.91,2.91,0,0,0,1.27-1.1,3.11,3.11,0,0,0,.45-1.69,3.07,3.07,0,0,0-.45-1.69,2.83,2.83,0,0,0-1.27-1.06A4.83,4.83,0,0,0,3.53,344H1.37Z"/><path class="cls-5" d="M12.32,357.74V342.89h1.37v13.65h6.22v1.2Z"/><path class="cls-5" d="M22.48,357.74l1.93-14.85h1.45l4.36,11.62,4.38-11.62H36L38,357.74H36.6L35,345.44l-4.24,11.39h-1L25.5,345.44l-1.65,12.3Z"/><path class="cls-5" d="M34.84,457.16V442.31h3.85a5.93,5.93,0,0,1,2.52.5,3.79,3.79,0,0,1,1.64,1.44,4.19,4.19,0,0,1,.59,2.25,4.38,4.38,0,0,1-.59,2.29,3.86,3.86,0,0,1-1.64,1.53,5.38,5.38,0,0,1-2.52.55H36.21v6.29Zm1.37-7.44h2.16a4.51,4.51,0,0,0,1.94-.39,3,3,0,0,0,1.27-1.1,3.11,3.11,0,0,0,.45-1.69,3.07,3.07,0,0,0-.45-1.69,2.83,2.83,0,0,0-1.27-1.06,4.83,4.83,0,0,0-1.94-.36H36.21Z"/><path class="cls-5" d="M47.16,457.16V442.31h3.35a7.55,7.55,0,0,1,2.94.57,7.32,7.32,0,0,1,4,3.94,7.7,7.7,0,0,1,0,5.84,7.32,7.32,0,0,1-4,3.94,7.78,7.78,0,0,1-3,.56Zm1.37-1.22h1.85a6.14,6.14,0,0,0,2.44-.48,6.07,6.07,0,0,0,2-1.31,6,6,0,0,0,1.31-2,6.37,6.37,0,0,0,.47-2.45,6.3,6.3,0,0,0-.47-2.43,6.16,6.16,0,0,0-1.31-2,6,6,0,0,0-2-1.31,6.13,6.13,0,0,0-2.43-.48H48.53Z"/><path class="cls-5" d="M61.06,457.16,63,442.31h1.45l4.37,11.62,4.37-11.62h1.45l1.93,14.85H75.18l-1.65-12.3-4.24,11.39h-1l-4.24-11.39-1.65,12.3Z"/><path class="cls-5" d="M506.47,363.54v-19H517v3.26H510.2v4.57h6.55v3.26H510.2v4.62H517v3.26Z"/><path class="cls-5" d="M519.71,363.54l5-6.07-4.32-5.7h1.94l3.46,4.54,3.46-4.54h1.92l-4.3,5.7,5,6.07h-2l-4.06-5-4.07,5Z"/><path class="cls-5" d="M537.93,363.91a2.52,2.52,0,0,1-2-.89,3.85,3.85,0,0,1-.73-2.51V353H534v-1.26h1.2v-4.41h1.68v4.41h2.93V353h-2.93v7.38a2.53,2.53,0,0,0,.38,1.5,1.27,1.27,0,0,0,1.08.52,2,2,0,0,0,1.2-.38l.42,1.33a3.69,3.69,0,0,1-.92.39A4.23,4.23,0,0,1,537.93,363.91Z"/><path class="cls-5" d="M543.58,363.54V351.77h1.68v1.73a3.77,3.77,0,0,1,3.52-2.1,5.51,5.51,0,0,1,1.05.11,4.84,4.84,0,0,1,.93.3l-.69,1.42a3.06,3.06,0,0,0-.79-.27,4.32,4.32,0,0,0-.85-.09,3.12,3.12,0,0,0-1.54.41,3.71,3.71,0,0,0-1.18,1.08,2.46,2.46,0,0,0-.45,1.41v7.77Z"/><path class="cls-5" d="M558.69,363.91a5.6,5.6,0,0,1-3-.81,5.81,5.81,0,0,1-2.11-2.23,7.06,7.06,0,0,1,0-6.43,5.9,5.9,0,0,1,2.09-2.23,6,6,0,0,1,5.91-.06,4.94,4.94,0,0,1,2,2.07v-2.45h1.68v11.77h-1.68v-2.48a5.61,5.61,0,0,1-2,2.09A5.42,5.42,0,0,1,558.69,363.91Zm.41-1.46a4.4,4.4,0,0,0,2.34-.62,4.32,4.32,0,0,0,1.61-1.7,5.59,5.59,0,0,0,0-5,4.3,4.3,0,0,0-1.6-1.7,4.81,4.81,0,0,0-4.69,0,4.39,4.39,0,0,0-1.61,1.7,5.51,5.51,0,0,0,0,5,4.32,4.32,0,0,0,1.61,1.7A4.45,4.45,0,0,0,559.1,362.45Z"/><path class="cls-5" d="M575.66,363.91a6.59,6.59,0,0,1-2.48-.47,6.43,6.43,0,0,1-2-1.31,6.26,6.26,0,0,1,0-8.94,5.94,5.94,0,0,1,2-1.32,6.67,6.67,0,0,1,2.51-.47,7,7,0,0,1,2.21.34,5.68,5.68,0,0,1,1.81,1l-.69,1.12a5.4,5.4,0,0,0-5.68-.36,4.61,4.61,0,0,0-1.71,1.74,5,5,0,0,0-.61,2.45,4.85,4.85,0,0,0,.63,2.47,4.47,4.47,0,0,0,1.72,1.73,5,5,0,0,0,2.53.63,5.59,5.59,0,0,0,1.7-.25,4.54,4.54,0,0,0,1.41-.75l.7,1.13a6.11,6.11,0,0,1-1.81.95A6.92,6.92,0,0,1,575.66,363.91Z"/><path class="cls-5" d="M586.15,363.91a2.52,2.52,0,0,1-2-.89,3.85,3.85,0,0,1-.73-2.51V353h-1.2v-1.26h1.2v-4.41h1.68v4.41H588V353h-2.93v7.38a2.46,2.46,0,0,0,.38,1.5,1.27,1.27,0,0,0,1.08.52,2,2,0,0,0,1.19-.38l.43,1.33a3.69,3.69,0,0,1-.92.39A4.29,4.29,0,0,1,586.15,363.91Z"/><path class="cls-5" d="M489.6,391.14V375.46h-4.81v-3.29h13.34v3.29h-4.82v15.68Z"/><path class="cls-5" d="M501,391.14V379.37h1.68v1.73a4,4,0,0,1,1.46-1.57,4,4,0,0,1,2.06-.53,5.43,5.43,0,0,1,1.05.11,4.62,4.62,0,0,1,.93.3l-.69,1.42a2.94,2.94,0,0,0-.79-.27,4.3,4.3,0,0,0-.84-.09,3.15,3.15,0,0,0-1.55.41,3.57,3.57,0,0,0-1.17,1.08,2.4,2.4,0,0,0-.46,1.41v7.77Z"/><path class="cls-5" d="M516.15,391.51a5.6,5.6,0,0,1-3-.81,5.81,5.81,0,0,1-2.11-2.23,6.68,6.68,0,0,1-.77-3.23,6.61,6.61,0,0,1,.76-3.2,5.85,5.85,0,0,1,2.1-2.23,5.62,5.62,0,0,1,3-.81,5.7,5.7,0,0,1,2.9.75,4.86,4.86,0,0,1,2,2.06v-2.44h1.68v11.77H521v-2.48a5.68,5.68,0,0,1-2,2.09A5.42,5.42,0,0,1,516.15,391.51Zm.42-1.46a4.45,4.45,0,0,0,2.34-.62,4.37,4.37,0,0,0,1.6-1.7,5.14,5.14,0,0,0,.59-2.48,5.25,5.25,0,0,0-.58-2.48,4.39,4.39,0,0,0-1.61-1.7,4.81,4.81,0,0,0-4.69,0,4.39,4.39,0,0,0-1.61,1.7,5.51,5.51,0,0,0,0,5,4.32,4.32,0,0,0,1.61,1.7A4.46,4.46,0,0,0,516.57,390.05Z"/><path class="cls-5" d="M527.65,391.14V379.37h1.68V381a3.87,3.87,0,0,1,1.5-1.41,5,5,0,0,1,2.47-.57,4.76,4.76,0,0,1,2.36.56,3.7,3.7,0,0,1,1.51,1.64,5.73,5.73,0,0,1,.53,2.59v7.35H536v-7a4.07,4.07,0,0,0-.85-2.79,3,3,0,0,0-2.4-1,3.69,3.69,0,0,0-1.85.43,3,3,0,0,0-1.17,1.14,2.94,2.94,0,0,0-.42,1.53v7.67Z"/><path class="cls-5" d="M545.39,391.51a4.71,4.71,0,0,1-2.58-.71,4.8,4.8,0,0,1-1.74-2l.9-1a4.5,4.5,0,0,0,1.44,1.75,3.3,3.3,0,0,0,2,.63,2.92,2.92,0,0,0,1.33-.3,2.33,2.33,0,0,0,1.33-2.18,1.66,1.66,0,0,0-.34-1.11,2.72,2.72,0,0,0-1-.69c-.43-.2-1-.42-1.61-.66a13.74,13.74,0,0,1-1.45-.68,3.8,3.8,0,0,1-1.16-1,2.35,2.35,0,0,1-.45-1.48,2.81,2.81,0,0,1,.48-1.62,3.31,3.31,0,0,1,1.33-1.11,4.49,4.49,0,0,1,1.94-.41,4.06,4.06,0,0,1,1.85.43,5,5,0,0,1,1.56,1.2l-.77,1a3.17,3.17,0,0,0-2.63-1.39,2.38,2.38,0,0,0-1.57.5,1.67,1.67,0,0,0-.61,1.33,1.34,1.34,0,0,0,.38,1,3.07,3.07,0,0,0,1,.67c.41.19.85.37,1.33.55a15.76,15.76,0,0,1,1.8.79,3.26,3.26,0,0,1,1.19,1,2.82,2.82,0,0,1,.42,1.64,3.72,3.72,0,0,1-.55,2.05,3.62,3.62,0,0,1-1.54,1.32A5.17,5.17,0,0,1,545.39,391.51Z"/><path class="cls-5" d="M554,391.14V380.63h-1.18v-1.26H554v-4.22a6,6,0,0,1,.38-2.25,3,3,0,0,1,1.11-1.4,3.13,3.13,0,0,1,1.78-.48,4.33,4.33,0,0,1,1.22.17,3.12,3.12,0,0,1,1,.52l-.59,1.19a2.13,2.13,0,0,0-1.33-.41,1.65,1.65,0,0,0-1.06.32,1.87,1.87,0,0,0-.62.9,4.39,4.39,0,0,0-.2,1.39v4.27h3v1.26h-3v10.51Z"/><path class="cls-5" d="M567.67,391.51a6.93,6.93,0,0,1-3.32-.79,6.2,6.2,0,0,1,0-10.93,7.37,7.37,0,0,1,6.64,0,6,6,0,0,1,2.34,2.2,6.61,6.61,0,0,1,0,6.52,6,6,0,0,1-2.34,2.21A6.9,6.9,0,0,1,567.67,391.51Zm0-1.49a5,5,0,0,0,2.46-.61,4.45,4.45,0,0,0,1.7-1.69,5.14,5.14,0,0,0,0-4.93,4.45,4.45,0,0,0-1.7-1.69,5.27,5.27,0,0,0-4.92,0,4.45,4.45,0,0,0-1.7,1.69,4.86,4.86,0,0,0-.62,2.46,5,5,0,0,0,.62,2.47,4.45,4.45,0,0,0,1.7,1.69A5,5,0,0,0,567.67,390Z"/><path class="cls-5" d="M578.19,391.14V379.37h1.68v1.73a4,4,0,0,1,1.46-1.57,4,4,0,0,1,2.06-.53,5.35,5.35,0,0,1,1.05.11,4.62,4.62,0,0,1,.93.3l-.69,1.42a2.94,2.94,0,0,0-.79-.27,4.14,4.14,0,0,0-.84-.09,3.09,3.09,0,0,0-1.54.41,3.51,3.51,0,0,0-1.18,1.08,2.4,2.4,0,0,0-.46,1.41v7.77Z"/><path class="cls-5" d="M588.46,391.14V379.37h1.68V381a4.55,4.55,0,0,1,3.87-2,4.74,4.74,0,0,1,2.52.66,3.54,3.54,0,0,1,1.49,1.82,5.42,5.42,0,0,1,1.73-1.8,4.46,4.46,0,0,1,2.5-.68,4.73,4.73,0,0,1,2.23.51A3.74,3.74,0,0,1,606,381a4.84,4.84,0,0,1,.56,2.4v7.74H604.9v-7.27a3.7,3.7,0,0,0-.84-2.55,2.85,2.85,0,0,0-2.24-.94,3.62,3.62,0,0,0-1.75.42,3.49,3.49,0,0,0-1.24,1.1,2.41,2.41,0,0,0-.46,1.39v7.85h-1.68V383.7a3.42,3.42,0,0,0-.84-2.43,2.88,2.88,0,0,0-2.2-.89,3.78,3.78,0,0,0-1.77.41,3.57,3.57,0,0,0-1.27,1,2.24,2.24,0,0,0-.47,1.32v8Z"/><path class="cls-5" d="M517.82,418.74v-19h3.73v15.71h6.85v3.26Z"/><path class="cls-5" d="M536.94,419.11a6.86,6.86,0,0,1-3.31-.79,6,6,0,0,1-2.34-2.21,6.54,6.54,0,0,1,0-6.52,6,6,0,0,1,2.33-2.2,7.37,7.37,0,0,1,6.64,0,6,6,0,0,1,2.34,2.2,6.61,6.61,0,0,1,0,6.52,6,6,0,0,1-2.34,2.21A6.87,6.87,0,0,1,536.94,419.11Zm0-1.5a5,5,0,0,0,2.47-.6,4.52,4.52,0,0,0,1.7-1.69,5.21,5.21,0,0,0,0-4.93,4.52,4.52,0,0,0-1.7-1.69,5.05,5.05,0,0,0-2.47-.61,5,5,0,0,0-2.46.61,4.52,4.52,0,0,0-1.7,1.69,5.19,5.19,0,0,0,0,4.92,4.48,4.48,0,0,0,1.7,1.7A5,5,0,0,0,536.94,417.61Z"/><path class="cls-5" d="M552.42,419.11a5.6,5.6,0,0,1-3-.81,5.81,5.81,0,0,1-2.11-2.23,6.68,6.68,0,0,1-.77-3.23,6.61,6.61,0,0,1,.76-3.2,5.85,5.85,0,0,1,2.1-2.23,6,6,0,0,1,5.9-.06,4.86,4.86,0,0,1,2,2.06V407H559v11.77H557.3v-2.48a5.68,5.68,0,0,1-2,2.09A5.39,5.39,0,0,1,552.42,419.11Zm.42-1.46a4.45,4.45,0,0,0,2.34-.62,4.3,4.3,0,0,0,1.6-1.7,5.14,5.14,0,0,0,.59-2.48,5.25,5.25,0,0,0-.58-2.48,4.32,4.32,0,0,0-1.61-1.7,4.81,4.81,0,0,0-4.69,0,4.39,4.39,0,0,0-1.61,1.7,5.51,5.51,0,0,0,0,5,4.32,4.32,0,0,0,1.61,1.7A4.48,4.48,0,0,0,552.84,417.65Z"/><path class="cls-5" d="M569,419.11a5.63,5.63,0,0,1-3-.81,5.76,5.76,0,0,1-2.1-2.22,7.08,7.08,0,0,1,0-6.44,6,6,0,0,1,2.1-2.23,5.69,5.69,0,0,1,3-.81,5.52,5.52,0,0,1,2.85.75,5.22,5.22,0,0,1,2,2.06V399h1.68v19.79h-1.68v-2.48a5.5,5.5,0,0,1-4.87,2.85Zm.4-1.46a4.51,4.51,0,0,0,2.35-.62,4.32,4.32,0,0,0,1.61-1.7,5.57,5.57,0,0,0,0-4.95,4.21,4.21,0,0,0-1.61-1.71,4.48,4.48,0,0,0-2.35-.61,4.43,4.43,0,0,0-2.33.61,4.28,4.28,0,0,0-1.61,1.71,5.55,5.55,0,0,0,0,5A4.29,4.29,0,0,0,567,417,4.5,4.5,0,0,0,569.35,417.65Z"/><rect class="cls-1" x="1107.82" y="334.38" width="7.9" height="81.71"/><rect class="cls-1" x="1148.14" y="367.87" width="7.9" height="88.53" transform="translate(1564.23 -739.95) rotate(90)"/><rect class="cls-1" x="1108.91" y="344.34" width="39.37" height="7.46" transform="translate(-22.83 610.93) rotate(-30)"/><rect class="cls-1" x="1138.21" y="344.86" width="36.18" height="7.46" transform="translate(425.57 -612.96) rotate(35.99)"/><rect class="cls-1" x="1160.57" y="342.64" width="39.37" height="7.46" transform="translate(195.84 1083.87) rotate(-53.19)"/><rect class="cls-1" x="1120.28" y="364.11" width="16.09" height="39.93"/><rect class="cls-1" x="1140.21" y="358.24" width="16.09" height="45.64"/><rect class="cls-1" x="1160.46" y="383.05" width="16.09" height="20.82"/><rect class="cls-1" x="1180.26" y="361.55" width="16.09" height="42.48"/><line class="cls-6" x1="157.11" y1="252.31" x2="106.62" y2="252.31"/><line class="cls-6" x1="100.16" y1="350.95" x2="55.27" y2="350.95"/><line class="cls-6" x1="157.11" y1="449.6" x2="106.62" y2="449.6"/><path class="cls-1" d="M258.31,667.91h-87.4V571.3h87.4Zm-80.07-7.32H251v-82H178.24Z"/><rect class="cls-1" x="174.57" y="600" width="80.08" height="7.33"/><rect class="cls-1" x="175.97" y="628.9" width="80.08" height="7.33"/><circle class="cls-1" cx="226.83" cy="648.87" r="4.19"/><circle class="cls-1" cx="240.67" cy="648.87" r="4.19"/><circle class="cls-1" cx="226.83" cy="618.77" r="4.19"/><circle class="cls-1" cx="240.67" cy="618.77" r="4.19"/><circle class="cls-1" cx="226.83" cy="589.3" r="4.19"/><circle class="cls-1" cx="240.67" cy="589.3" r="4.19"/><path class="cls-1" d="M211.49,593H187.16a3.67,3.67,0,0,1,0-7.33h24.33a3.67,3.67,0,0,1,0,7.33Z"/><path class="cls-1" d="M212.27,621.78H187.94a3.67,3.67,0,0,1,0-7.33h24.33a3.67,3.67,0,0,1,0,7.33Z"/><path class="cls-1" d="M211.49,652.54H187.16a3.67,3.67,0,0,1,0-7.33h24.33a3.67,3.67,0,0,1,0,7.33Z"/><path class="cls-1" d="M1342.44,289.52a39.21,39.21,0,1,1,39.21-39.21A39.26,39.26,0,0,1,1342.44,289.52Zm0-70.42a31.21,31.21,0,1,0,31.21,31.21A31.24,31.24,0,0,0,1342.44,219.1Z"/><rect class="cls-1" x="1378.76" y="272.76" width="19.04" height="35.26" transform="translate(2532.25 -548.03) rotate(131.95)"/><rect class="cls-1" x="1369.85" y="268.54" width="10.63" height="20.15" transform="translate(2501.61 -557.94) rotate(131.95)"/><polygon class="cls-1" points="1364.98 265.46 1322.12 265.46 1322.12 233.24 1328.12 233.24 1328.12 259.46 1364.98 259.46 1364.98 265.46"/><polygon class="cls-1" points="1342.24 256.13 1334.48 246.25 1326.28 250.85 1325.3 249.11 1334.99 243.66 1342.53 253.25 1355.67 241.94 1356.98 243.46 1342.24 256.13"/><polygon class="cls-1" points="1357.29 249.34 1355.3 249.11 1356.03 242.88 1349.36 242.88 1349.36 240.88 1358.28 240.88 1357.29 249.34"/><path class="cls-1" d="M1331.71,514.33a7,7,0,1,1,7-7A7,7,0,0,1,1331.71,514.33Zm0-10.23a3.23,3.23,0,1,0,3.23,3.22A3.23,3.23,0,0,0,1331.71,504.1Z"/><path class="cls-1" d="M1385.25,529.38a7,7,0,1,1,7-7A7,7,0,0,1,1385.25,529.38Zm0-10.23a3.23,3.23,0,1,0,3.23,3.23A3.23,3.23,0,0,0,1385.25,519.15Z"/><polygon class="cls-1" points="1356.39 537.04 1340.87 537.04 1340.87 522.92 1329.82 522.8 1329.82 511.15 1333.6 511.15 1333.6 519.06 1344.64 519.18 1344.64 533.26 1356.39 533.26 1356.39 537.04"/><rect class="cls-1" x="1354.5" y="529.48" width="3.78" height="11.33"/><rect class="cls-1" x="1360.32" y="525.78" width="3.78" height="18.89"/><polygon class="cls-1" points="1376.29 537.13 1362.83 537.04 1362.85 533.26 1372.51 533.33 1372.51 520.49 1381.22 520.49 1381.22 524.27 1376.29 524.27 1376.29 537.13"/><path class="cls-1" d="M1369.4,501.71h-20.46v-8.43a10,10,0,0,0-3.19-7.52,20.19,20.19,0,1,1,27-.21,10.79,10.79,0,0,0-3.4,7.95Zm-12.91-7.55h5.35v-.66A18.37,18.37,0,0,1,1367.7,480a12.63,12.63,0,1,0-16.93.13,17.53,17.53,0,0,1,5.72,13.17Z"/><rect class="cls-1" x="1349.08" y="506.25" width="20.14" height="7.3"/><rect class="cls-1" x="1351.69" y="515.26" width="14.96" height="5.32"/><polyline class="cls-7" points="356.07 324.38 382.5 351.1 355.77 377.53"/><polyline class="cls-7" points="691.85 325.58 718.28 352.3 691.55 378.73"/><polyline class="cls-7" points="985.71 325.86 1012.14 352.58 985.41 379.01"/></g></g></svg>