<?xml version="1.0" encoding="utf-8"?>
<!-- Generator: Adobe Illustrator 26.0.3, SVG Export Plug-In . SVG Version: 6.00 Build 0)  -->
<svg version="1.1" id="Layer_1" xmlns="http://www.w3.org/2000/svg" xmlns:xlink="http://www.w3.org/1999/xlink" x="0px" y="0px"
	 viewBox="0 0 1510.4 742" style="enable-background:new 0 0 1510.4 742;" xml:space="preserve">
<style type="text/css">
	.st0{fill:#F4CE45;}
	.st1{fill:none;stroke:#4C6BA7;stroke-width:5;stroke-miterlimit:10;}
	.st2{fill:#4C6BA7;}
	.st3{fill:#F5F7F5;stroke:#F5F7F5;stroke-width:6;stroke-miterlimit:10;}
	.st4{fill:#1C1A17;}
	.st5{fill:#191919;}
	.st6{fill:#F5F7F5;}
	.st7{fill:none;stroke:#F5F7F5;stroke-width:6;stroke-linecap:round;stroke-miterlimit:10;}
	.st8{fill:none;stroke:#F4CE45;stroke-width:7;stroke-miterlimit:10;}
</style>
<g id="Layer_2_00000106867981490087473760000007528559317318715054_">
	<g id="Layer_2-2">
		<path class="st0" d="M1429.7,150.6l58.8,101.7L1419,372.5l69.2,119.6l-58.7,101.7h-117.2l-69.3-120h-137.1l-59-102.1l58.6-101.5
			l137.6,0.3l69.2-119.9L1429.7,150.6 M1440.6,131.5h-11l-117.4,0.1h-11l-5.5,9.5L1232,251.5l-126.6-0.3h-11l-5.5,9.5l-58.6,101.5
			l-5.5,9.5l5.5,9.5l59,102.1l5.5,9.5h11H1232l63.8,110.5l5.5,9.5h139.2l5.5-9.5l58.7-101.6l5.5-9.5l-5.5-9.5L1441,372.6l64-110.7
			l5.5-9.5l-5.5-9.5L1446.1,141L1440.6,131.5L1440.6,131.5z"/>
		<path class="st0" d="M272.7,19l58.7,101.6l-58.6,101.6l-0.1,47.1L331.3,371l-58.6,101.6v47.1l58.7,101.6l-58.7,101.5L155.4,723
			L96.8,621.3l58.6-101.6v-47L96.8,370.9l58.5-101.6l0.6-47.1L96.8,120.6L155.4,19H272.7 M283.7,0H144.4l-5.5,9.5L80.4,111.2
			l-5.5,9.5l5.5,9.5l56.5,97l-0.5,36.9l-56,97.3l-5.5,9.5l5.5,9.5l56.1,97.4v36.8l-56.1,97.2l-5.5,9.5l5.5,9.5L139,732.4l5.5,9.5h11
			l117.3-0.1h10.9l5.5-9.5l58.7-101.5l5.5-9.5l-5.5-9.5l-56.2-97.2v-36.9l56-97.2l5.5-9.4l-5.5-9.5l-56-97.2l0.1-37l56.1-97.2
			l5.5-9.5l-5.5-9.5L289.2,9.5L283.7,0L283.7,0z"/>
		<polygon class="st1" points="611.6,259.3 481.6,259.3 416.6,371.9 481.6,484.5 611.6,484.5 676.6,371.9 		"/>
		<polygon class="st2" points="550.5,254.8 558.3,259.3 550.5,263.8 542.7,268.3 542.7,259.3 542.7,250.3 		"/>
		<polygon class="st2" points="649.6,316.1 649.6,325.1 641.8,320.6 634,316.1 641.8,311.6 649.6,307.1 		"/>
		<polygon class="st2" points="646.9,431.8 639.1,436.3 639.1,427.3 639.1,418.3 646.9,422.8 654.7,427.3 		"/>
		<polygon class="st2" points="551,485 551,494.1 543.1,489.5 535.3,485 543.1,480.5 551,476 		"/>
		<polygon class="st2" points="452.4,434.3 444.5,438.8 444.5,429.8 444.5,420.8 452.4,425.3 460.2,429.8 		"/>
		<polygon class="st2" points="448.8,316.3 441,311.8 448.8,307.3 456.6,302.8 456.6,311.8 456.6,320.8 		"/>
		<polygon class="st3" points="910.7,273.5 796.8,273.5 739.9,372.1 796.8,470.8 910.7,470.8 967.7,372.1 		"/>
		<path class="st4" d="M899.9,353L899.9,353l-0.3-0.6c-1.9-3.8-6.7-6.4-15.5-8.3c-9.8-1.9-19.8-2.8-29.8-2.7H851h-0.3
			c-2.9,0.1-4.8,0.1-6.5,0.3l-2.5,0.1c-2,0.1-3.9,0.3-5.8,0.5l-1.2,0.1c-0.6,0.1-1.2,0.1-1.8,0.2c-2.5,0.4-4.6,0.7-6.5,1l-0.4,0.1
			l-0.9,0.2l-0.7,0.1c-1.8,0.4-3.5,0.8-4.9,1.3c-0.4,0.1-0.7,0.2-1,0.3c-1.6,0.5-3.1,1.2-4.6,2c-2.1,1-3.9,2.7-5,4.7
			c-0.6,1.2-0.9,2.5-0.9,3.9v79l3,1.6c0.5,0.3,13.4,7.5,42,7.5c27,0,42.3-6.5,43.9-7.2l3.5-1.5v-79.3
			C900.5,355.1,900.3,354.1,899.9,353z M843.1,353.8l1.5-0.1c2.2-0.1,4.3-0.2,6.2-0.2c1.1,0,2.3,0,3.4,0c9-0.1,17.9,0.7,26.7,2.3
			c0.8,0.2,1.6,0.4,2.4,0.5c-0.8,0.2-1.5,0.4-2.4,0.5c-8.7,1.6-17.5,2.4-26.3,2.3c-1.3,0-2.6,0-3.9,0c-1.8,0-3.8-0.1-6.2-0.2
			c-1.4-0.1-2.8-0.2-4.2-0.3c-2.2-0.2-4.4-0.4-6.4-0.7c-0.6-0.1-1.2-0.2-1.8-0.3c-0.4,0-0.8-0.1-1.2-0.2c-0.8-0.1-1.6-0.3-2.3-0.4
			l-0.9-0.2l-2.5-0.6c0.6-0.1,1.2-0.3,1.8-0.4l0.5-0.1l0.3-0.1c0.9-0.2,1.9-0.4,3-0.5s2-0.3,3.1-0.5
			C836.8,354.2,839.9,354,843.1,353.8L843.1,353.8z M889.1,427.2c-5.7,1.9-18,5-36.1,5c-17.7,0-28.6-3-33.7-4.8v-12
			c11.5,3.4,23.4,5.1,35.4,5c11.6,0,23.1-1.5,34.3-4.6L889.1,427.2L889.1,427.2z M889.1,403.2c-11.1,3.5-22.7,5.2-34.3,5.2
			c-12,0.1-24-1.8-35.4-5.6v-11.6c11.5,3.4,23.4,5.1,35.4,5c11.6,0,23.1-1.5,34.3-4.7V403.2z M889.1,378.9
			c-20,6.2-41.3,6.8-61.6,1.9c-3.1-0.7-5.6-1.5-7.5-2.2l-0.6-0.2v-11.3c1.5,0.5,3.2,0.9,5,1.3l1.2,0.3l0.8,0.1l1.5,0.3l0,0
			c1.5,0.3,3.2,0.5,5,0.8c3.1,0.4,6.3,0.7,9.8,1l0,0c0.5,0,1,0.1,1.5,0.1c2.1,0.1,4.2,0.2,6.5,0.2h0.4c1.1,0,2.2,0,3.3,0
			c10,0.1,20-0.8,29.8-2.8c1.9-0.4,3.6-0.8,5.1-1.3L889.1,378.9z"/>
		<polygon class="st3" points="1427.8,393.5 1313.9,393.5 1256.9,492.2 1313.9,590.8 1427.8,590.8 1484.7,492.2 		"/>
		<polygon class="st3" points="1428,153.6 1314.1,153.6 1257.2,252.2 1314.1,350.9 1428,350.9 1485,252.2 		"/>
		<polygon class="st3" points="1221.1,273.2 1107.2,273.2 1050.3,372.3 1107.2,471.2 1221.1,471.2 1278.1,372.3 		"/>
		<polygon class="st3" points="603.8,273.2 489.9,273.2 433,371.9 489.9,470.5 603.8,470.5 660.8,371.9 		"/>
		<polygon class="st3" points="271,22 157.1,22 100.2,120.6 157.1,219.3 271,219.3 328,120.6 		"/>
		<path class="st4" d="M265.8,186.6H163.4l0.1-53.1h102.4v53.1H265.8z M170.6,179.5h88.1V141h-88.1V179.5z"/>
		<path class="st4" d="M265.8,186.6H163.4v-67.9l43.1-0.3l3.9-10.4H255l3.5,10.3l7.3,0.1V186.6z M170.6,179.5h88.1v-53.9l-5.3-0.1
			l-3.4-10.2h-34.6l-3.9,10.4l-40.9,0.2L170.6,179.5z"/>
		<polygon class="st4" points="204.4,115.3 163.5,115.3 163.5,108.1 206.8,108.1 		"/>
		<polygon class="st3" points="271,272.3 157.1,272.3 100.2,371 157.1,469.6 271,469.6 328,371 		"/>
		<polygon class="st3" points="271,522.6 157.1,522.6 100.2,621.3 157.1,719.9 271,719.9 328,621.3 		"/>
		<path class="st4" d="M263.1,329.3v-0.1l-0.3-0.6c-2.1-4.1-7.2-6.9-16.7-9c-8.6-1.9-20-2.9-32-2.9h-3.6h-0.3
			c-3.1,0.1-5.2,0.2-6.9,0.3l-2.7,0.2c-2.1,0.1-4.2,0.3-6.3,0.5l-1.2,0.1l-1.9,0.2c-2.7,0.4-5,0.7-7,1.1l-0.4,0.1l-0.9,0.2l-0.7,0.2
			c-1.9,0.4-3.7,0.9-5.3,1.4c-0.4,0.1-0.8,0.2-1.1,0.4c-1.7,0.6-3.3,1.3-4.9,2.1c-2.3,1.1-4.1,2.9-5.3,5.1c-0.7,1.3-1,2.7-1,4.2
			v84.9l3.3,1.7c0.6,0.3,14.4,8,45.1,8c29,0,45.5-7,47.3-7.8l3.7-1.7v-85.1C263.8,331.5,263.5,330.4,263.1,329.3z M202.1,330
			l1.6-0.1c2.4-0.1,4.6-0.2,6.7-0.2c1.2,0,2.5,0,3.7,0c9.6-0.1,19.3,0.7,28.7,2.5c0.9,0.2,1.8,0.4,2.6,0.6c-0.8,0.2-1.7,0.4-2.6,0.6
			c-9.3,1.8-18.8,2.6-28.3,2.5c-1.4,0-2.8,0-4.2,0c-1.9,0-4.1-0.1-6.6-0.2c-1.5-0.1-3.1-0.2-4.6-0.3c-2.4-0.2-4.7-0.4-6.9-0.7
			l-2-0.3L189,334c-0.9-0.1-1.7-0.3-2.5-0.4l-1-0.2l-2.7-0.6c0.6-0.2,1.3-0.3,2-0.5l0.5-0.1l0.3-0.1c1-0.2,2.1-0.4,3.2-0.6
			s2.1-0.3,3.4-0.5C195.2,330.5,198.5,330.2,202.1,330L202.1,330z M251.6,409c-6.2,2-19.4,5.4-38.8,5.4c-19,0-30.8-3.2-36.2-5.2
			v-12.9c12.4,3.6,25.2,5.4,38.1,5.4c12.5,0,24.9-1.7,36.9-5V409z M251.6,383.2c-11.9,3.7-24.4,5.6-36.9,5.6
			c-12.9,0.1-25.8-1.9-38.1-6v-12.5c12.4,3.6,25.2,5.4,38.1,5.4c12.5,0,24.9-1.6,36.9-5V383.2z M251.6,357.1
			c-21.5,6.6-44.4,7.3-66.3,2.1c-3.3-0.8-6-1.6-8.1-2.3c-0.2-0.1-0.4-0.1-0.6-0.2v-12.2c1.6,0.5,3.4,1,5.4,1.4l1.2,0.3l0.8,0.2
			l1.6,0.3l0,0c1.6,0.3,3.4,0.5,5.4,0.8c3.3,0.5,6.8,0.8,10.5,1l0,0c0.5,0,1,0.1,1.6,0.1c2.2,0.1,4.5,0.2,7,0.2h0.2
			c1.2,0,2.4,0,3.6,0c12,0,23.4-1,32-3c2-0.4,3.8-0.9,5.5-1.4L251.6,357.1z"/>
		<path class="st5" d="M506.3,345.8v-41.2h24.4v9.6h-13.4v6.1h12.8v9.6h-12.8v6.2h13.4v9.6L506.3,345.8L506.3,345.8z"/>
		<path class="st5" d="M543.7,345.8v-31.6h-9v-9.6h29v9.6h-9v31.6H543.7z"/>
		<path class="st5" d="M568.3,345.8v-41.2h11v31.6h13.3v9.6H568.3z"/>
		<path class="st5" d="M803.6,318.7v-14.9h3.3c1,0,2,0.2,2.9,0.6s1.7,0.9,2.4,1.6s1.2,1.5,1.6,2.4c0.8,1.9,0.8,4,0,5.8
			c-0.4,0.9-0.9,1.7-1.6,2.4c-0.7,0.7-1.5,1.2-2.4,1.6c-1,0.4-2,0.6-3,0.6L803.6,318.7z M804.9,317.5h1.9c0.8,0,1.7-0.2,2.4-0.5
			c1.5-0.6,2.7-1.8,3.3-3.3c0.6-1.6,0.6-3.3,0-4.9c-0.3-0.7-0.7-1.4-1.3-2s-1.3-1-2-1.3c-0.8-0.3-1.6-0.5-2.4-0.5h-1.9V317.5z"/>
		<path class="st5" d="M816.9,318.7l5.8-14.9h1.3l5.8,14.9h-1.5l-1.8-4.7h-6.4l-1.8,4.7H816.9z M820.6,312.7h5.5l-2.7-7.1
			L820.6,312.7z"/>
		<path class="st5" d="M835.5,318.7v-13.6H831v-1.2h10.4v1.2h-4.5v13.6H835.5z"/>
		<path class="st5" d="M842.5,318.7l5.8-14.9h1.3l5.8,14.9H854l-1.8-4.7h-6.4l-1.8,4.7H842.5z M846.2,312.7h5.5l-2.7-7.1
			L846.2,312.7z"/>
		<path class="st5" d="M858.2,318.7v-14.9h3.1c1.2-0.1,2.4,0.3,3.4,1c1.5,1.4,1.6,3.8,0.2,5.3c-0.3,0.4-0.7,0.7-1.2,0.9
			c1,0.1,1.9,0.5,2.6,1.2c0.6,0.7,0.9,1.6,0.9,2.6c0,0.8-0.2,1.5-0.6,2.1c-0.4,0.6-0.9,1.1-1.6,1.4c-0.8,0.3-1.6,0.5-2.5,0.5
			L858.2,318.7z M859.6,310.5h1.5c0.9,0.1,1.8-0.2,2.6-0.7c1.1-1,1.2-2.8,0.2-4c-0.1-0.1-0.1-0.1-0.2-0.2c-0.8-0.5-1.7-0.8-2.6-0.7
			h-1.5V310.5z M859.6,317.5h2.7c0.9,0.1,1.9-0.2,2.7-0.8c0.6-0.5,1-1.3,0.9-2.1c0-0.8-0.3-1.6-0.9-2.2c-0.8-0.6-1.7-0.8-2.7-0.8
			h-2.7V317.5z"/>
		<path class="st5" d="M869.1,318.7l5.8-14.9h1.3l5.8,14.9h-1.5l-1.8-4.7h-6.4l-1.8,4.7H869.1z M872.8,312.7h5.5l-2.7-7.1
			L872.8,312.7z"/>
		<path class="st5" d="M888.8,319c-0.7,0-1.4-0.1-2-0.4c-0.5-0.2-1-0.5-1.5-0.8c-0.4-0.3-0.7-0.6-1-1c-0.2-0.3-0.4-0.5-0.5-0.7
			l0.8-1l0.5,0.7c0.3,0.3,0.5,0.6,0.8,0.9c0.4,0.3,0.8,0.6,1.2,0.7c0.5,0.2,1.1,0.3,1.7,0.3c0.6,0,1.1-0.1,1.7-0.3
			c0.5-0.2,0.9-0.6,1.2-1c0.6-0.9,0.6-2,0.1-2.9c-0.2-0.4-0.5-0.7-0.9-0.9c-0.4-0.3-0.8-0.5-1.3-0.7s-1-0.4-1.5-0.6
			c-0.4-0.1-0.7-0.3-1.1-0.5c-0.4-0.2-0.8-0.4-1.1-0.7c-0.3-0.3-0.6-0.6-0.8-1c-0.2-0.5-0.3-1-0.3-1.5s0.1-1,0.3-1.5
			s0.5-0.9,0.9-1.3s0.8-0.7,1.3-0.9c0.5-0.2,1.1-0.3,1.7-0.3c0.6,0,1.1,0.1,1.6,0.3c0.5,0.2,0.9,0.4,1.3,0.7
			c0.3,0.3,0.6,0.6,0.9,0.9l-0.7,1c-0.2-0.3-0.4-0.6-0.7-0.8c-0.3-0.3-0.7-0.5-1.1-0.6c-0.4-0.2-0.9-0.2-1.3-0.2
			c-0.6,0-1.1,0.1-1.6,0.4c-0.4,0.2-0.8,0.6-1,1s-0.3,0.9-0.3,1.3s0.1,0.7,0.3,1.1c0.2,0.3,0.4,0.5,0.7,0.7s0.6,0.4,1,0.5
			c0.3,0.1,0.7,0.3,1,0.4c0.6,0.2,1.1,0.5,1.7,0.7c0.5,0.2,1,0.5,1.4,0.9c0.4,0.3,0.8,0.7,1,1.2c0.3,0.5,0.4,1.1,0.4,1.7
			c0,0.8-0.2,1.6-0.6,2.3c-0.4,0.6-1,1.1-1.7,1.4C890.4,318.8,889.6,319,888.8,319z"/>
		<path class="st5" d="M897.4,318.7v-14.9h7.5v1.2h-6.1v5.6h5.9v1.2h-5.9v5.6h6.1v1.2L897.4,318.7z"/>
		<path class="st5" d="M157.5,71.8c-0.9,0-1.8-0.2-2.6-0.5s-1.5-0.8-2.1-1.5c-1.9-2-2.5-5-1.4-7.5c0.3-0.8,0.8-1.5,1.4-2.2
			c0.6-0.6,1.3-1.1,2.1-1.5s1.7-0.5,2.6-0.5c0.9,0,1.8,0.2,2.6,0.5c0.8,0.4,1.5,0.8,2.1,1.5c0.6,0.6,1.1,1.4,1.4,2.2
			c0.7,1.7,0.7,3.6,0,5.3c-0.3,0.8-0.8,1.6-1.4,2.2c-0.6,0.6-1.3,1.1-2.1,1.5C159.2,71.7,158.4,71.9,157.5,71.8z M157.5,70.7
			c0.7,0,1.4-0.1,2.1-0.4c0.6-0.3,1.2-0.7,1.7-1.2s0.9-1.1,1.1-1.8c0.5-1.4,0.5-3,0-4.5c-0.3-0.7-0.6-1.3-1.1-1.8s-1.1-0.9-1.7-1.2
			c-1.3-0.6-2.9-0.6-4.2,0c-0.6,0.3-1.2,0.7-1.7,1.2s-0.9,1.1-1.1,1.8c-0.5,1.4-0.5,3,0,4.5c0.3,0.6,0.7,1.2,1.1,1.7
			c0.5,0.5,1.1,0.9,1.7,1.2C156,70.5,156.7,70.7,157.5,70.7z"/>
		<path class="st5" d="M167.6,71.6V58.4h3.4c0.8,0,1.5,0.1,2.2,0.4c0.6,0.3,1.1,0.7,1.5,1.3s0.5,1.3,0.5,2s-0.2,1.4-0.5,2
			c-0.3,0.6-0.9,1.1-1.5,1.4c-0.7,0.3-1.5,0.5-2.2,0.5h-2.2v5.6L167.6,71.6z M168.8,65h1.9c0.6,0,1.2-0.1,1.7-0.3
			c0.5-0.2,0.9-0.6,1.1-1c0.3-0.5,0.4-1,0.4-1.5s-0.1-1-0.4-1.5c-0.3-0.4-0.7-0.8-1.1-1c-0.5-0.2-1.1-0.3-1.7-0.3h-1.9V65z"/>
		<path class="st5" d="M178.6,71.6V58.4h6.6v1.1h-5.4v5h5.2v1.1h-5.2v5h5.4v1H178.6z"/>
		<path class="st5" d="M188.8,71.6V58.4h3.4c0.8,0,1.5,0.1,2.2,0.4c0.6,0.3,1.1,0.7,1.5,1.3s0.5,1.3,0.5,2c0,0.6-0.1,1.3-0.4,1.9
			c-0.3,0.5-0.7,1-1.2,1.3c-0.6,0.3-1.2,0.6-1.9,0.6l4.4,5.7h-1.6l-4.2-5.6H190v5.6H188.8z M190,65h1.9c0.6,0,1.2-0.1,1.7-0.3
			c0.5-0.2,0.9-0.6,1.1-1c0.3-0.5,0.4-1,0.4-1.5c0-0.8-0.3-1.5-0.9-2c-0.7-0.5-1.5-0.8-2.4-0.7H190V65z"/>
		<path class="st5" d="M198.7,71.6l5.2-13.2h1.1l5.2,13.2h-1.3l-1.6-4.2h-5.7l-1.6,4.2H198.7z M202,66.3h4.8l-2.4-6.3L202,66.3z"/>
		<path class="st5" d="M215.2,71.6V59.5h-4v-1.1h9.3v1.1h-4v12.1H215.2z"/>
		<path class="st5" d="M223.5,71.6V58.4h1.2v13.2H223.5z"/>
		<path class="st5" d="M234.9,71.8c-0.9,0-1.8-0.2-2.6-0.5s-1.5-0.8-2.1-1.5c-0.6-0.6-1.1-1.4-1.4-2.2c-1.1-2.6-0.5-5.5,1.4-7.5
			c0.6-0.6,1.3-1.1,2.1-1.5c1.7-0.7,3.5-0.7,5.2,0c0.8,0.4,1.5,0.8,2.1,1.5c2.6,2.7,2.6,7,0,9.7c-0.6,0.6-1.3,1.1-2.1,1.5
			C236.7,71.7,235.8,71.9,234.9,71.8z M234.9,70.7c0.7,0,1.4-0.1,2.1-0.4c0.6-0.3,1.2-0.7,1.7-1.2s0.9-1.1,1.1-1.8
			c0.5-1.4,0.5-3,0-4.5c-0.3-0.7-0.7-1.3-1.1-1.8c-0.5-0.5-1.1-0.9-1.7-1.2c-1.3-0.6-2.9-0.6-4.2,0c-0.6,0.3-1.2,0.7-1.7,1.2
			s-0.9,1.1-1.1,1.8c-0.5,1.4-0.5,3,0,4.5c0.3,0.6,0.7,1.2,1.1,1.7c0.5,0.5,1.1,0.9,1.7,1.2C233.4,70.5,234.2,70.7,234.9,70.7z"/>
		<path class="st5" d="M245,71.6V58.4h1.2l7.1,11.1V58.4h1.2v13.2h-1.2l-7.1-11.1v11.1H245z"/>
		<path class="st5" d="M257.6,71.6l5.2-13.2h1.1l5.2,13.2h-1.3l-1.6-4.2h-5.7l-1.6,4.2H257.6z M260.9,66.3h4.9l-2.4-6.3L260.9,66.3z
			"/>
		<path class="st5" d="M272.1,71.6V58.4h1.2v12.1h5.5v1.1H272.1z"/>
		<path class="st5" d="M180.5,91.1c-0.6,0-1.2-0.1-1.8-0.3c-0.5-0.2-0.9-0.4-1.3-0.7c-0.3-0.3-0.6-0.5-0.9-0.8
			c-0.2-0.3-0.4-0.5-0.4-0.6l0.7-0.9c0.1,0.2,0.2,0.3,0.4,0.6c0.2,0.3,0.5,0.5,0.7,0.8c0.3,0.3,0.7,0.5,1.1,0.7
			c0.5,0.2,1,0.3,1.5,0.3s1-0.1,1.5-0.3c0.4-0.2,0.8-0.5,1.1-0.8c0.3-0.4,0.4-0.9,0.4-1.4c0-0.4-0.1-0.8-0.3-1.2
			c-0.2-0.3-0.4-0.6-0.8-0.8c-0.4-0.2-0.7-0.4-1.1-0.6c-0.4-0.2-0.9-0.4-1.3-0.5s-0.7-0.3-1-0.4c-0.4-0.2-0.7-0.4-1-0.6
			c-0.3-0.3-0.6-0.6-0.7-0.9c-0.2-0.4-0.3-0.9-0.3-1.3c0-0.5,0.1-0.9,0.3-1.4c0.4-0.9,1.1-1.6,1.9-1.9c0.5-0.2,1-0.3,1.5-0.3
			s1,0.1,1.5,0.3c0.4,0.2,0.8,0.4,1.2,0.7c0.3,0.2,0.6,0.5,0.8,0.8l-0.6,0.8c-0.2-0.3-0.4-0.5-0.6-0.7c-0.3-0.2-0.6-0.4-0.9-0.6
			c-0.4-0.1-0.8-0.2-1.2-0.2c-0.5,0-1,0.1-1.4,0.3c-0.4,0.2-0.7,0.5-0.9,0.9s-0.3,0.8-0.3,1.2c0,0.3,0.1,0.7,0.2,0.9
			c0.2,0.3,0.4,0.5,0.6,0.7c0.3,0.2,0.5,0.3,0.8,0.5c0.3,0.1,0.6,0.2,0.9,0.4c0.5,0.2,1,0.4,1.5,0.6s0.9,0.5,1.3,0.8
			c0.8,0.6,1.3,1.6,1.2,2.6c0,0.7-0.2,1.4-0.6,2c-0.4,0.6-0.9,1-1.5,1.3C181.9,90.9,181.2,91.1,180.5,91.1z"/>
		<path class="st5" d="M189.8,90.8v-5.7l-4.5-7.5h1.5l3.7,6.2l3.7-6.2h1.5l-4.6,7.5v5.7H189.8z"/>
		<path class="st5" d="M201,91.1c-0.6,0-1.2-0.1-1.8-0.3c-0.5-0.2-0.9-0.4-1.3-0.7c-0.3-0.3-0.6-0.5-0.9-0.8
			c-0.2-0.3-0.4-0.5-0.4-0.6l0.7-0.9c0.1,0.2,0.2,0.3,0.4,0.6c0.2,0.3,0.5,0.5,0.8,0.8s0.7,0.5,1.1,0.7c0.5,0.2,1,0.3,1.5,0.3
			s1-0.1,1.5-0.3c0.9-0.3,1.5-1.3,1.5-2.3c0-0.4-0.1-0.8-0.3-1.2c-0.2-0.3-0.4-0.6-0.8-0.8c-0.4-0.2-0.7-0.4-1.1-0.6
			c-0.4-0.2-0.9-0.4-1.3-0.5s-0.6-0.3-1-0.4c-0.4-0.2-0.7-0.4-1-0.6c-0.3-0.3-0.6-0.6-0.7-0.9c-0.2-0.4-0.3-0.9-0.3-1.3
			c0-0.9,0.3-1.8,1-2.5c0.3-0.3,0.7-0.6,1.2-0.8c0.5-0.2,1-0.3,1.5-0.3s1,0.1,1.5,0.3c0.4,0.2,0.8,0.4,1.2,0.7
			c0.3,0.2,0.6,0.5,0.8,0.8l-0.6,0.8c-0.2-0.3-0.4-0.5-0.6-0.7c-0.3-0.2-0.6-0.4-0.9-0.6c-0.4-0.1-0.8-0.2-1.2-0.2
			c-0.5,0-1,0.1-1.4,0.3c-0.4,0.2-0.7,0.5-0.9,0.9s-0.3,0.8-0.3,1.2c0,0.3,0.1,0.7,0.2,0.9c0.2,0.3,0.4,0.5,0.6,0.7
			c0.3,0.2,0.6,0.3,0.9,0.5c0.3,0.1,0.6,0.2,0.9,0.4c0.5,0.2,1,0.4,1.5,0.6s0.9,0.5,1.3,0.8c0.4,0.3,0.7,0.7,0.9,1.1
			c0.2,0.5,0.3,1,0.3,1.5c0,0.7-0.2,1.4-0.6,2c-0.4,0.6-0.9,1-1.5,1.3C202.5,90.9,201.7,91.1,201,91.1z"/>
		<path class="st5" d="M210.7,90.8V78.7h-4v-1.1h9.3v1.1h-4v12.1C212,90.8,210.7,90.8,210.7,90.8z"/>
		<path class="st5" d="M219,90.8V77.6h6.6v1.1h-5.4v5h5.2v1.1h-5.2v5h5.4v1.1L219,90.8L219,90.8z"/>
		<path class="st5" d="M228.4,90.8l1.7-13.2h1.3l3.9,10.3l3.9-10.3h1.3l1.7,13.2H241l-1.5-10.9L235.7,90h-0.9L231,79.9l-1.5,10.9
			H228.4z"/>
		<path class="st5" d="M248.7,91.1c-0.6,0-1.2-0.1-1.8-0.3c-0.5-0.2-0.9-0.4-1.3-0.7c-0.3-0.3-0.6-0.5-0.9-0.8
			c-0.2-0.3-0.4-0.5-0.4-0.6l0.7-0.9c0.1,0.2,0.2,0.3,0.4,0.6c0.2,0.3,0.5,0.5,0.8,0.8s0.7,0.5,1.1,0.7c0.5,0.2,1,0.3,1.5,0.3
			s1-0.1,1.5-0.3c0.9-0.4,1.5-1.3,1.5-2.3c0-0.4-0.1-0.8-0.3-1.2c-0.2-0.3-0.4-0.6-0.8-0.8c-0.4-0.2-0.7-0.4-1.1-0.6
			c-0.4-0.2-0.9-0.4-1.3-0.5s-0.6-0.3-1-0.4c-0.4-0.2-0.7-0.4-1-0.6c-0.3-0.3-0.6-0.6-0.7-0.9c-0.2-0.4-0.3-0.9-0.3-1.3
			c0-0.9,0.3-1.8,1-2.5c0.3-0.3,0.7-0.6,1.2-0.8c0.5-0.2,1-0.3,1.5-0.3s1,0.1,1.5,0.3c0.4,0.2,0.8,0.4,1.2,0.7
			c0.3,0.2,0.6,0.5,0.8,0.8l-0.6,0.8c-0.2-0.3-0.4-0.5-0.6-0.7c-0.3-0.2-0.6-0.4-0.9-0.6c-0.4-0.1-0.8-0.2-1.2-0.2
			c-0.5,0-1,0.1-1.4,0.3c-0.4,0.2-0.7,0.5-0.9,0.9s-0.3,0.8-0.3,1.2c0,0.3,0.1,0.7,0.2,0.9c0.2,0.3,0.4,0.5,0.6,0.7
			c0.3,0.2,0.6,0.4,0.9,0.5c0.3,0.1,0.6,0.2,0.9,0.4c0.5,0.2,1,0.4,1.5,0.6s0.9,0.5,1.3,0.8c0.4,0.3,0.7,0.7,0.9,1.1
			c0.2,0.5,0.3,1,0.3,1.5c0,0.7-0.2,1.4-0.6,2c-0.4,0.6-0.9,1-1.5,1.3C250.2,90.9,249.4,91.1,248.7,91.1z"/>
		<path class="st5" d="M180.3,567.5c-0.6,0-1.2-0.1-1.8-0.3c-0.5-0.2-0.9-0.4-1.3-0.7c-0.3-0.2-0.6-0.5-0.9-0.8
			c-0.2-0.3-0.4-0.5-0.4-0.6l0.7-0.9c0.1,0.2,0.2,0.3,0.4,0.6s0.5,0.5,0.8,0.8s0.7,0.5,1.1,0.7c0.5,0.2,1,0.3,1.5,0.3s1-0.1,1.5-0.3
			c0.4-0.2,0.8-0.5,1.1-0.9s0.4-0.9,0.4-1.4c0-0.4-0.1-0.8-0.3-1.2c-0.2-0.3-0.4-0.6-0.8-0.8c-0.4-0.2-0.7-0.4-1.1-0.6
			c-0.4-0.2-0.9-0.3-1.3-0.5s-0.7-0.3-1-0.4c-0.4-0.2-0.7-0.4-1-0.6c-0.3-0.3-0.6-0.6-0.7-0.9c-0.2-0.4-0.3-0.9-0.3-1.3
			c0-0.5,0.1-0.9,0.3-1.4c0.2-0.4,0.4-0.8,0.8-1.1c0.3-0.4,0.7-0.6,1.2-0.8c1-0.4,2-0.4,3,0c0.4,0.2,0.8,0.4,1.2,0.7
			c0.3,0.2,0.6,0.5,0.8,0.8l-0.6,0.8c-0.2-0.3-0.4-0.5-0.6-0.7c-0.3-0.2-0.6-0.4-0.9-0.5c-0.4-0.1-0.8-0.2-1.2-0.2
			c-0.5,0-1,0.1-1.4,0.3s-0.7,0.5-0.9,0.9s-0.3,0.8-0.3,1.2c0,0.3,0.1,0.7,0.2,1c0.2,0.3,0.4,0.5,0.6,0.7c0.3,0.2,0.5,0.3,0.8,0.5
			l0.9,0.4c0.5,0.2,1,0.4,1.5,0.6c0.5,0.2,0.9,0.5,1.3,0.8c0.8,0.6,1.3,1.6,1.2,2.6c0.1,1.4-0.8,2.7-2.1,3.3
			C181.8,567.3,181.1,567.5,180.3,567.5z"/>
		<path class="st5" d="M188,567.2V554h6.6v1.1h-5.4v5h5.2v1.1h-5.2v5h5.4v1.1L188,567.2z"/>
		<path class="st5" d="M198.2,567.2V554h3.4c0.8,0,1.5,0.1,2.2,0.4c0.6,0.3,1.1,0.7,1.5,1.3s0.5,1.3,0.5,2s-0.1,1.3-0.4,1.9
			c-0.3,0.5-0.7,1-1.2,1.3c-0.6,0.4-1.2,0.6-1.9,0.6l4.4,5.7h-1.5l-4.2-5.6h-1.5v5.6H198.2z M199.4,560.6h1.9c0.6,0,1.2-0.1,1.7-0.3
			s0.9-0.6,1.1-1c0.3-0.5,0.4-1,0.4-1.5c0-0.8-0.3-1.5-0.9-2c-0.7-0.5-1.5-0.8-2.4-0.7h-1.9L199.4,560.6L199.4,560.6z"/>
		<path class="st5" d="M213.6,567.2l-5.5-13.2h1.4l4.6,11.4l4.6-11.4h1.4l-5.5,13.2H213.6z"/>
		<path class="st5" d="M223.1,567.2V554h6.6v1.1h-5.4v5h5.2v1.1h-5.2v5h5.4v1.1L223.1,567.2z"/>
		<path class="st5" d="M233.3,567.2V554h3.4c0.8,0,1.5,0.1,2.2,0.4c0.6,0.3,1.1,0.7,1.5,1.3s0.5,1.3,0.5,2s-0.1,1.3-0.4,1.9
			c-0.3,0.5-0.7,1-1.2,1.3c-0.6,0.4-1.2,0.6-1.9,0.6l4.4,5.7h-1.5l-4.2-5.6h-1.5v5.6H233.3z M234.5,560.6h1.9c0.6,0,1.2-0.1,1.7-0.3
			s0.9-0.6,1.1-1c0.3-0.5,0.4-1,0.4-1.5c0-0.8-0.3-1.5-0.9-2c-0.7-0.5-1.5-0.8-2.4-0.7h-1.9L234.5,560.6L234.5,560.6z"/>
		<path class="st5" d="M247.8,567.5c-0.6,0-1.2-0.1-1.8-0.3c-0.5-0.2-0.9-0.4-1.3-0.7c-0.3-0.2-0.6-0.5-0.9-0.8
			c-0.2-0.2-0.3-0.4-0.4-0.6l0.7-0.9c0.1,0.2,0.2,0.3,0.4,0.6s0.5,0.5,0.8,0.8s0.7,0.5,1.1,0.7c0.5,0.2,1,0.3,1.5,0.3s1-0.1,1.5-0.3
			c0.4-0.2,0.8-0.5,1.1-0.9s0.4-0.9,0.4-1.4c0-0.4-0.1-0.8-0.3-1.2c-0.2-0.3-0.5-0.6-0.8-0.8s-0.7-0.4-1.1-0.6
			c-0.4-0.2-0.9-0.3-1.3-0.5s-0.6-0.3-1-0.4c-0.4-0.2-0.7-0.4-1-0.6c-0.3-0.3-0.6-0.6-0.7-0.9c-0.2-0.4-0.3-0.9-0.3-1.3
			c0-0.5,0.1-0.9,0.3-1.4c0.2-0.4,0.4-0.8,0.8-1.1c0.3-0.3,0.7-0.6,1.2-0.8s1-0.3,1.5-0.3s1,0.1,1.4,0.3s0.8,0.4,1.2,0.7
			c0.3,0.2,0.6,0.5,0.8,0.8l-0.6,0.8c-0.2-0.3-0.4-0.5-0.6-0.7c-0.3-0.2-0.6-0.4-0.9-0.5c-0.4-0.1-0.8-0.2-1.2-0.2
			c-0.5,0-1,0.1-1.4,0.3c-0.7,0.4-1.2,1.2-1.2,2.1c0,0.3,0.1,0.7,0.2,1c0.2,0.3,0.4,0.5,0.6,0.7c0.3,0.2,0.6,0.3,0.9,0.5
			c0.3,0.1,0.6,0.2,0.9,0.4c0.5,0.2,1,0.4,1.5,0.6c0.5,0.2,0.9,0.5,1.3,0.8c0.8,0.6,1.3,1.6,1.2,2.6c0,0.7-0.2,1.4-0.6,2
			c-0.4,0.6-0.9,1-1.5,1.3C249.2,567.3,248.5,567.5,247.8,567.5z"/>
		<path class="st6" d="M29.3,283.5v-14.9h7.5v1.2h-6.1v5.6h5.9v1.2h-5.9v5.6h6.1v1.2L29.3,283.5L29.3,283.5z"/>
		<path class="st6" d="M40.8,283.5v-14.9h3.3c1,0,2,0.2,2.9,0.6s1.7,0.9,2.4,1.6s1.2,1.5,1.6,2.4c0.8,1.9,0.8,4,0,5.9
			c-0.4,0.9-0.9,1.7-1.6,2.4c-0.7,0.7-1.5,1.2-2.4,1.6c-1,0.4-2,0.6-3,0.6L40.8,283.5z M42.1,282.2H44c0.8,0,1.7-0.2,2.4-0.5
			s1.4-0.8,2-1.3c0.6-0.6,1-1.3,1.3-2c0.6-1.6,0.6-3.3,0-4.9c-0.3-0.7-0.7-1.4-1.3-2s-1.3-1-2-1.3c-0.8-0.3-1.6-0.5-2.4-0.5h-1.9
			V282.2z"/>
		<path class="st6" d="M54.7,283.5l1.9-14.9H58l4.4,11.6l4.4-11.6h1.4l1.9,14.9h-1.3l-1.7-12.3l-4.2,11.4h-1l-4.2-11.4L56,283.5
			H54.7z"/>
		<path class="st6" d="M77.5,283.8c-0.7,0-1.4-0.1-2-0.3c-0.5-0.2-1-0.5-1.5-0.8c-0.4-0.3-0.7-0.6-1-1c-0.2-0.3-0.4-0.5-0.5-0.7
			l0.8-1c0.1,0.2,0.3,0.5,0.5,0.7c0.3,0.3,0.5,0.6,0.8,0.9c0.4,0.3,0.8,0.6,1.2,0.7c0.5,0.2,1.1,0.3,1.7,0.3s1.1-0.1,1.6-0.3
			c0.5-0.2,0.9-0.6,1.2-1c0.3-0.5,0.5-1,0.4-1.6c0-0.5-0.1-0.9-0.3-1.3c-0.2-0.4-0.5-0.7-0.9-0.9c-0.4-0.3-0.8-0.5-1.2-0.7
			c-0.5-0.2-1-0.4-1.5-0.6s-0.7-0.3-1.1-0.5s-0.8-0.4-1.1-0.7c-0.3-0.3-0.6-0.6-0.8-1c-0.2-0.5-0.3-1-0.3-1.5s0.1-1,0.3-1.5
			c0.2-0.5,0.5-0.9,0.8-1.3c0.4-0.4,0.8-0.7,1.3-0.9c1.1-0.4,2.3-0.4,3.3,0c0.5,0.2,0.9,0.4,1.3,0.7c0.3,0.3,0.6,0.6,0.9,0.9
			l-0.7,0.9c-0.2-0.3-0.4-0.6-0.7-0.8c-0.3-0.3-0.7-0.5-1.1-0.6c-0.4-0.2-0.9-0.2-1.3-0.2c-0.5,0-1.1,0.1-1.6,0.4
			c-0.4,0.2-0.8,0.6-1,1s-0.3,0.9-0.3,1.3s0.1,0.7,0.3,1.1c0.2,0.3,0.4,0.6,0.7,0.8c0.3,0.2,0.6,0.4,1,0.5c0.3,0.1,0.7,0.3,1,0.4
			c0.6,0.2,1.1,0.4,1.7,0.7c0.5,0.2,1,0.5,1.4,0.9c0.4,0.3,0.8,0.7,1,1.2c0.3,0.5,0.4,1.1,0.4,1.7c0.1,1.6-0.9,3.1-2.3,3.7
			C79.2,283.6,78.3,283.8,77.5,283.8z"/>
		<path class="st5" d="M1142.1,314.6v-13.2h3c0.9,0,1.8,0.2,2.6,0.5c1.6,0.7,2.9,1.9,3.5,3.5c0.3,0.8,0.5,1.7,0.5,2.6
			s-0.2,1.8-0.5,2.6c-0.3,0.8-0.8,1.5-1.4,2.1s-1.3,1.1-2.1,1.4c-0.8,0.3-1.7,0.5-2.6,0.5H1142.1z M1143.3,313.5h1.7
			c0.7,0,1.5-0.1,2.2-0.4s1.2-0.7,1.7-1.2s0.9-1.1,1.2-1.8c0.3-0.7,0.4-1.4,0.4-2.2c0-0.7-0.1-1.5-0.4-2.2s-0.7-1.3-1.2-1.8
			s-1.1-0.9-1.8-1.2c-0.7-0.3-1.4-0.4-2.2-0.4h-1.7v11.2H1143.3z"/>
		<path class="st5" d="M1153.9,314.6l5.2-13.2h1.1l5.2,13.2h-1.3l-1.6-4.2h-5.7l-1.6,4.2H1153.9z M1157.2,309.3h4.8l-2.4-6.3
			L1157.2,309.3z"/>
		<path class="st5" d="M1170.4,314.6v-12.1h-4v-1.1h9.3v1.1h-4v12.1H1170.4z"/>
		<path class="st5" d="M1176.7,314.6l5.2-13.2h1.1l5.2,13.2h-1.3l-1.6-4.2h-5.7l-1.6,4.2H1176.7z M1180,309.3h4.8l-2.4-6.3
			L1180,309.3z"/>
		<path class="st5" d="M1101.8,333.8l-5.5-13.2h1.4l4.6,11.4l4.6-11.4h1.4l-5.5,13.2H1101.8z"/>
		<path class="st5" d="M1111.3,333.8v-13.2h1.2v13.2H1111.3z"/>
		<path class="st5" d="M1119.8,334c-0.6,0-1.2-0.1-1.8-0.3c-0.5-0.2-0.9-0.4-1.3-0.7c-0.3-0.3-0.6-0.5-0.9-0.9
			c-0.2-0.3-0.4-0.5-0.4-0.6l0.7-0.9c0.1,0.1,0.2,0.4,0.4,0.6c0.2,0.3,0.5,0.5,0.8,0.8s0.7,0.5,1.1,0.6c0.5,0.2,1,0.3,1.5,0.3
			s1-0.1,1.5-0.3c0.9-0.4,1.5-1.3,1.5-2.3c0-0.4-0.1-0.8-0.3-1.2c-0.2-0.3-0.4-0.6-0.8-0.8c-0.4-0.2-0.7-0.5-1.1-0.6
			c-0.4-0.2-0.8-0.4-1.3-0.5s-0.7-0.3-1-0.4c-0.4-0.2-0.7-0.4-1-0.6c-0.3-0.3-0.6-0.6-0.7-0.9c-0.2-0.4-0.3-0.9-0.3-1.3
			c0-0.5,0.1-0.9,0.3-1.4c0.2-0.4,0.4-0.8,0.8-1.1c0.3-0.3,0.7-0.6,1.2-0.8c1-0.4,2-0.4,3,0c0.4,0.2,0.8,0.4,1.2,0.7
			c0.3,0.2,0.6,0.5,0.8,0.8l-0.6,0.8c-0.2-0.3-0.4-0.5-0.6-0.7c-0.3-0.2-0.6-0.4-0.9-0.5c-0.4-0.1-0.8-0.2-1.2-0.2
			c-0.5,0-1,0.1-1.4,0.4c-0.4,0.2-0.7,0.5-0.9,0.9c-0.2,0.4-0.3,0.8-0.3,1.2c0,0.3,0.1,0.7,0.2,1c0.2,0.3,0.4,0.5,0.6,0.7
			c0.3,0.2,0.5,0.3,0.8,0.5l0.9,0.4c0.5,0.2,1,0.4,1.5,0.6s0.9,0.5,1.3,0.8c0.8,0.6,1.3,1.6,1.2,2.6c0.1,1.4-0.8,2.7-2.1,3.3
			C1121.2,333.9,1120.5,334,1119.8,334z"/>
		<path class="st5" d="M1131.8,334c-1.3,0.1-2.5-0.4-3.4-1.2c-0.8-1.1-1.3-2.4-1.2-3.7v-8.5h1.2v8.2c-0.1,1.1,0.2,2.1,0.8,3
			c0.6,0.7,1.6,1.1,2.5,1c0.9,0.1,1.9-0.3,2.5-1c0.6-0.9,0.9-1.9,0.8-3v-8.2h1.2v8.5c0.1,1.3-0.3,2.7-1.1,3.7
			C1134.3,333.6,1133,334.1,1131.8,334z"/>
		<path class="st5" d="M1139.2,333.8l5.2-13.2h1.1l5.2,13.2h-1.3l-1.6-4.2h-5.7l-1.6,4.2H1139.2z M1142.5,328.5h4.8l-2.4-6.3
			L1142.5,328.5z"/>
		<path class="st5" d="M1153.7,333.8v-13.2h1.2v12.1h5.5v1.1H1153.7z"/>
		<path class="st5" d="M1163.5,333.8v-13.2h1.2v13.2H1163.5z"/>
		<path class="st5" d="M1172,334c-0.6,0-1.2-0.1-1.8-0.3c-0.5-0.2-0.9-0.4-1.3-0.7c-0.3-0.3-0.6-0.5-0.9-0.9
			c-0.2-0.3-0.4-0.5-0.4-0.6l0.7-0.9c0.1,0.1,0.2,0.4,0.4,0.6c0.2,0.3,0.5,0.5,0.8,0.8s0.7,0.5,1.1,0.6c0.5,0.2,1,0.3,1.5,0.3
			s1-0.1,1.5-0.3c0.9-0.4,1.5-1.3,1.5-2.3c0-0.4-0.1-0.8-0.3-1.2c-0.2-0.3-0.4-0.6-0.8-0.8c-0.4-0.2-0.7-0.5-1.1-0.6l-1.3-0.5
			c-0.3-0.1-0.7-0.3-1-0.4c-0.4-0.2-0.7-0.4-1-0.6c-0.3-0.3-0.6-0.6-0.7-0.9c-0.2-0.4-0.3-0.9-0.3-1.3c0-0.5,0.1-0.9,0.3-1.4
			c0.2-0.4,0.4-0.8,0.8-1.1c0.3-0.3,0.7-0.6,1.2-0.8c0.5-0.2,1-0.3,1.5-0.3s1,0.1,1.5,0.3c0.4,0.2,0.8,0.4,1.2,0.7
			c0.3,0.2,0.6,0.5,0.8,0.8l-0.6,0.8c-0.2-0.3-0.4-0.5-0.6-0.7c-0.3-0.2-0.6-0.4-1-0.5s-0.8-0.2-1.2-0.2c-0.5,0-1,0.1-1.4,0.4
			c-0.4,0.2-0.7,0.5-0.9,0.9c-0.2,0.4-0.3,0.8-0.3,1.2c0,0.3,0.1,0.7,0.2,1c0.2,0.3,0.4,0.5,0.6,0.7c0.3,0.2,0.5,0.3,0.8,0.5
			c0.3,0.1,0.6,0.2,0.9,0.4c0.5,0.2,1,0.4,1.5,0.6s0.9,0.5,1.3,0.8s0.7,0.7,0.9,1.1c0.2,0.5,0.3,1,0.3,1.5c0,0.7-0.2,1.4-0.6,2
			s-0.9,1-1.5,1.3C1173.4,333.8,1172.7,334,1172,334z"/>
		<path class="st5" d="M1178.3,333.8l5.2-13.2h1.1l5.2,13.2h-1.3l-1.6-4.2h-5.7l-1.6,4.2H1178.3z M1181.7,328.5h4.8l-2.4-6.3
			L1181.7,328.5z"/>
		<path class="st5" d="M1194.9,333.8v-12.1h-4v-1.1h9.3v1.1h-4v12.1H1194.9z"/>
		<path class="st5" d="M1203.2,333.8v-13.2h1.2v13.2H1203.2z"/>
		<path class="st5" d="M1214.5,334c-0.9,0-1.8-0.2-2.6-0.5c-0.8-0.3-1.5-0.8-2.1-1.5c-0.6-0.6-1.1-1.4-1.4-2.2
			c-1.1-2.6-0.5-5.5,1.4-7.5c0.6-0.6,1.3-1.1,2.1-1.5c1.7-0.7,3.5-0.7,5.2,0c0.8,0.3,1.5,0.8,2.1,1.5c0.6,0.6,1.1,1.4,1.4,2.2
			c1.1,2.6,0.5,5.5-1.4,7.5c-0.6,0.6-1.3,1.1-2.1,1.5C1216.3,333.8,1215.4,334,1214.5,334z M1214.5,332.8c0.7,0,1.4-0.1,2.1-0.4
			c0.6-0.3,1.2-0.7,1.7-1.2s0.9-1.1,1.1-1.8c0.5-1.4,0.5-3,0-4.5c-0.3-0.7-0.6-1.3-1.1-1.8s-1.1-0.9-1.7-1.2c-1.3-0.6-2.9-0.6-4.2,0
			c-0.6,0.3-1.2,0.7-1.7,1.2s-0.9,1.1-1.1,1.8c-0.5,1.4-0.5,3,0,4.5c0.3,0.7,0.7,1.3,1.1,1.8c0.5,0.5,1.1,0.9,1.7,1.2
			C1213.1,332.7,1213.8,332.9,1214.5,332.8L1214.5,332.8z"/>
		<path class="st5" d="M1224.7,333.8v-13.2h1.2l7.1,11.1v-11.1h1.2v13.2h-1.2l-7.1-11.1v11.1H1224.7z"/>
		<path class="st5" d="M1348.7,196.8v-13.2h3c0.9,0,1.8,0.2,2.6,0.5c0.8,0.3,1.5,0.8,2.1,1.4c0.6,0.6,1.1,1.3,1.4,2.1
			c0.4,0.8,0.5,1.7,0.5,2.6c0,0.9-0.2,1.8-0.5,2.6c-0.7,1.6-1.9,2.9-3.5,3.5c-0.8,0.3-1.7,0.5-2.6,0.5L1348.7,196.8L1348.7,196.8z
			 M1349.9,195.7h1.7c0.7,0,1.5-0.1,2.2-0.4c0.7-0.3,1.2-0.7,1.8-1.2c1.6-1.6,2-4,1.2-6.1c-0.3-0.7-0.7-1.2-1.2-1.8
			c-0.5-0.5-1.1-0.9-1.8-1.2c-0.7-0.3-1.4-0.4-2.2-0.4h-1.7V195.7z"/>
		<path class="st5" d="M1360.5,196.8l5.2-13.2h1.1l5.2,13.2h-1.3l-1.6-4.2h-5.7l-1.6,4.2H1360.5z M1363.8,191.5h4.8l-2.4-6.3
			L1363.8,191.5z"/>
		<path class="st5" d="M1377,196.8v-12.1h-4v-1.1h9.3v1.1h-4v12.1H1377z"/>
		<path class="st5" d="M1383.3,196.8l5.2-13.2h1.1l5.2,13.2h-1.3l-1.6-4.2h-5.7l-1.6,4.2H1383.3z M1386.6,191.5h4.8l-2.4-6.3
			L1386.6,191.5z"/>
		<path class="st5" d="M1321.4,216l5.2-13.2h1.1l5.2,13.2h-1.3l-1.6-4.2h-5.7l-1.6,4.2H1321.4z M1324.8,210.7h4.8l-2.4-6.3
			L1324.8,210.7z"/>
		<path class="st5" d="M1336,216v-13.2h1.2l7.1,11.1v-11.2h1.2V216h-1.2l-7.1-11.1V216H1336z"/>
		<path class="st5" d="M1348.5,216l5.2-13.2h1.1l5.2,13.2h-1.3l-1.6-4.2h-5.7l-1.6,4.2H1348.5z M1351.8,210.7h4.8l-2.4-6.3
			L1351.8,210.7z"/>
		<path class="st5" d="M1363,216v-13.2h1.2v12.1h5.5v1.1L1363,216L1363,216z"/>
		<path class="st5" d="M1374.7,216v-5.7l-4.5-7.5h1.5l3.7,6.2l3.7-6.2h1.5l-4.5,7.5v5.7H1374.7z"/>
		<path class="st5" d="M1386.2,216v-12.1h-4v-1.1h9.3v1.1h-4V216H1386.2z"/>
		<path class="st5" d="M1394.5,216v-13.2h1.2V216H1394.5z"/>
		<path class="st5" d="M1405.8,216.2c-0.9,0-1.9-0.2-2.8-0.5c-0.8-0.3-1.6-0.8-2.2-1.4c-2.7-2.6-2.8-6.9-0.2-9.6
			c0.7-0.7,1.5-1.2,2.4-1.6c0.9-0.4,1.8-0.5,2.8-0.5c0.8,0,1.6,0.1,2.3,0.4c0.7,0.2,1.3,0.6,1.9,1l-0.6,1c-0.5-0.4-1-0.7-1.6-0.9
			c-1.4-0.5-2.9-0.4-4.3,0.1c-0.7,0.3-1.3,0.7-1.8,1.2s-0.9,1.1-1.2,1.8c-0.6,1.4-0.6,3,0,4.4c0.3,0.7,0.7,1.3,1.2,1.8
			s1.1,0.9,1.8,1.2c1.4,0.5,2.9,0.6,4.3,0.1c0.6-0.2,1.1-0.5,1.6-0.9l0.6,1c-0.6,0.4-1.2,0.8-1.9,1
			C1407.3,216.1,1406.6,216.2,1405.8,216.2z"/>
		<path class="st5" d="M1416.2,216.2c-0.6,0-1.2-0.1-1.8-0.3c-0.5-0.2-0.9-0.4-1.3-0.7c-0.3-0.3-0.6-0.5-0.9-0.9
			c-0.2-0.2-0.3-0.4-0.5-0.6l0.7-0.9c0.1,0.1,0.2,0.4,0.4,0.6c0.2,0.3,0.5,0.5,0.7,0.8c0.3,0.3,0.7,0.5,1.1,0.6
			c0.5,0.2,1,0.3,1.5,0.3s1-0.1,1.5-0.3c0.4-0.2,0.8-0.5,1.1-0.9c0.5-0.8,0.5-1.8,0.1-2.6c-0.2-0.3-0.4-0.6-0.8-0.8
			s-0.7-0.5-1.1-0.6c-0.4-0.2-0.8-0.4-1.3-0.5s-0.7-0.3-1-0.4c-0.4-0.2-0.7-0.4-1-0.6c-0.3-0.3-0.6-0.6-0.7-0.9
			c-0.2-0.4-0.3-0.9-0.3-1.3c0-0.5,0.1-0.9,0.3-1.4c0.2-0.4,0.4-0.8,0.8-1.1c0.3-0.3,0.7-0.6,1.2-0.8c1-0.4,2-0.4,3,0
			c0.4,0.2,0.8,0.4,1.2,0.7c0.3,0.2,0.6,0.5,0.8,0.8l-0.6,0.8c-0.2-0.3-0.4-0.5-0.6-0.7c-0.3-0.2-0.6-0.4-0.9-0.5
			c-0.4-0.2-0.8-0.2-1.2-0.2c-0.5,0-1,0.1-1.4,0.4c-0.4,0.2-0.7,0.5-0.9,0.9c-0.2,0.4-0.3,0.8-0.3,1.2c0,0.3,0.1,0.7,0.2,0.9
			c0.2,0.3,0.4,0.5,0.6,0.7c0.3,0.2,0.5,0.3,0.8,0.5c0.3,0.1,0.6,0.2,0.9,0.4c0.5,0.2,1,0.4,1.5,0.6c0.5,0.2,0.9,0.5,1.3,0.8
			s0.6,0.7,0.8,1.1c0.2,0.5,0.3,1,0.3,1.5c0.1,1.4-0.8,2.7-2.1,3.3C1417.6,216.1,1416.9,216.2,1416.2,216.2z"/>
		<path class="st5" d="M1330.1,438.4v-13.2h2.8c1.1-0.1,2.1,0.2,3,0.9c0.7,0.6,1.1,1.5,1.1,2.5c0.1,1.3-0.7,2.5-1.9,3
			c0.9,0.1,1.7,0.5,2.3,1.1c0.5,0.6,0.8,1.4,0.8,2.3c0,0.7-0.2,1.3-0.5,1.9c-0.3,0.5-0.8,1-1.4,1.2c-0.7,0.3-1.5,0.4-2.2,0.4
			L1330.1,438.4z M1331.3,431.1h1.4c0.8,0.1,1.6-0.2,2.3-0.6c1-0.9,1.1-2.5,0.2-3.5c-0.1-0.1-0.1-0.1-0.2-0.2
			c-0.7-0.5-1.5-0.7-2.3-0.6h-1.4V431.1z M1331.3,437.4h2.3c0.8,0.1,1.7-0.2,2.4-0.7c0.6-0.5,0.9-1.2,0.8-1.9c0-0.7-0.3-1.5-0.8-1.9
			c-0.7-0.5-1.5-0.7-2.4-0.7h-2.3V437.4z"/>
		<path class="st5" d="M1345.4,438.6c-1.3,0.1-2.5-0.4-3.4-1.2c-0.8-1.1-1.2-2.4-1.1-3.7v-8.5h1.2v8.2c-0.1,1.1,0.2,2.1,0.8,3
			c1.4,1.3,3.6,1.3,5,0c0.6-0.9,0.9-1.9,0.8-3v-8.2h1.3v8.5c0.1,1.3-0.3,2.7-1.2,3.7C1347.9,438.3,1346.7,438.7,1345.4,438.6z"/>
		<path class="st5" d="M1357.1,438.6c-0.6,0-1.2-0.1-1.8-0.3c-0.5-0.2-0.9-0.4-1.3-0.8c-0.3-0.2-0.6-0.5-0.9-0.9
			c-0.2-0.2-0.3-0.4-0.4-0.6l0.7-0.9c0.1,0.1,0.2,0.4,0.4,0.6c0.2,0.3,0.5,0.5,0.8,0.8s0.7,0.5,1.1,0.7c0.5,0.2,1,0.3,1.5,0.3
			s1-0.1,1.5-0.3c0.4-0.2,0.8-0.5,1.1-0.9c0.3-0.4,0.4-0.9,0.4-1.4c0-0.4-0.1-0.8-0.3-1.2c-0.2-0.3-0.5-0.6-0.8-0.8
			c-0.3-0.2-0.7-0.4-1.1-0.6s-0.9-0.4-1.3-0.5s-0.7-0.3-1-0.4c-0.4-0.2-0.7-0.4-1-0.6c-0.3-0.3-0.6-0.6-0.7-0.9
			c-0.2-0.4-0.3-0.9-0.3-1.3c0-0.5,0.1-0.9,0.3-1.4c0.2-0.4,0.4-0.8,0.8-1.1c0.3-0.3,0.7-0.6,1.2-0.8c0.5-0.2,1-0.3,1.5-0.3
			s1,0.1,1.4,0.3c0.4,0.2,0.8,0.4,1.2,0.6c0.3,0.2,0.6,0.5,0.8,0.8l-0.6,0.8c-0.2-0.3-0.4-0.5-0.6-0.7c-0.3-0.2-0.6-0.4-0.9-0.5
			c-0.4-0.1-0.8-0.2-1.2-0.2c-0.5,0-1,0.1-1.4,0.4c-0.4,0.2-0.7,0.5-0.9,0.9c-0.2,0.4-0.3,0.8-0.3,1.2c0,0.3,0.1,0.7,0.2,1
			c0.2,0.3,0.4,0.5,0.6,0.7c0.3,0.2,0.5,0.3,0.8,0.5c0.3,0.1,0.6,0.3,0.9,0.4c0.5,0.2,1,0.4,1.5,0.6s0.9,0.5,1.3,0.8
			s0.7,0.7,0.9,1.1c0.2,0.5,0.3,1,0.3,1.5c0,0.7-0.2,1.4-0.6,2s-0.9,1-1.5,1.3C1358.5,438.5,1357.8,438.6,1357.1,438.6z"/>
		<path class="st5" d="M1364.7,438.4v-13.2h1.2v13.2H1364.7z"/>
		<path class="st5" d="M1370.2,438.4v-13.2h1.2l7.1,11.1v-11.1h1.2v13.2h-1.2l-7.1-11.1v11.1H1370.2z"/>
		<path class="st5" d="M1384.1,438.4v-13.2h6.7v1.1h-5.4v5h5.2v1.1h-5.2v5h5.4v1.1L1384.1,438.4z"/>
		<path class="st5" d="M1397.6,438.6c-0.6,0-1.2-0.1-1.8-0.3c-0.5-0.2-0.9-0.4-1.3-0.8c-0.3-0.2-0.6-0.5-0.9-0.9
			c-0.2-0.3-0.4-0.5-0.5-0.6l0.7-0.9c0.1,0.1,0.2,0.4,0.4,0.6c0.2,0.3,0.5,0.5,0.7,0.8c0.3,0.3,0.7,0.5,1.1,0.7
			c0.5,0.2,1,0.3,1.5,0.3s1-0.1,1.5-0.3c0.4-0.2,0.8-0.5,1.1-0.9c0.3-0.4,0.4-0.9,0.4-1.4c0-0.4-0.1-0.8-0.3-1.2
			c-0.2-0.3-0.4-0.6-0.8-0.8c-0.4-0.2-0.7-0.4-1.1-0.6s-0.8-0.4-1.3-0.5s-0.7-0.3-1-0.4c-0.4-0.2-0.7-0.4-1-0.6
			c-0.3-0.3-0.6-0.6-0.7-0.9c-0.2-0.4-0.3-0.9-0.3-1.3c0-0.5,0.1-0.9,0.3-1.4c0.2-0.4,0.4-0.8,0.8-1.1c0.3-0.3,0.7-0.6,1.2-0.8
			c0.5-0.2,1-0.3,1.5-0.3s1,0.1,1.5,0.3c0.4,0.2,0.8,0.4,1.2,0.6c0.3,0.2,0.6,0.5,0.8,0.8l-0.6,0.8c-0.2-0.3-0.4-0.5-0.6-0.7
			c-0.3-0.2-0.6-0.4-0.9-0.5c-0.4-0.1-0.8-0.2-1.2-0.2c-0.5,0-1,0.1-1.4,0.4c-0.4,0.2-0.7,0.5-0.9,0.9c-0.2,0.4-0.3,0.8-0.3,1.2
			c0,0.3,0.1,0.7,0.2,1c0.2,0.3,0.4,0.5,0.6,0.7c0.3,0.2,0.5,0.3,0.8,0.5c0.3,0.1,0.6,0.3,0.9,0.4c0.5,0.2,1,0.4,1.5,0.6
			s0.9,0.5,1.3,0.8c0.8,0.6,1.3,1.6,1.2,2.6c0,0.7-0.2,1.4-0.6,2s-0.9,1-1.5,1.3C1399,438.5,1398.3,438.6,1397.6,438.6z"/>
		<path class="st5" d="M1408.2,438.6c-0.6,0-1.2-0.1-1.8-0.3c-0.5-0.2-0.9-0.4-1.3-0.8c-0.3-0.2-0.6-0.5-0.9-0.9
			c-0.2-0.3-0.4-0.5-0.4-0.6l0.7-0.9c0.1,0.1,0.2,0.4,0.4,0.6c0.2,0.3,0.5,0.5,0.8,0.8s0.7,0.5,1.1,0.7c0.5,0.2,1,0.3,1.5,0.3
			s1-0.1,1.5-0.3c0.4-0.2,0.8-0.5,1.1-0.9c0.5-0.8,0.5-1.8,0.1-2.6c-0.2-0.3-0.4-0.6-0.8-0.8c-0.4-0.2-0.7-0.4-1.1-0.6
			s-0.9-0.4-1.3-0.5s-0.7-0.3-1-0.4c-0.4-0.2-0.7-0.4-1-0.6c-0.3-0.3-0.6-0.6-0.7-0.9c-0.2-0.4-0.3-0.9-0.3-1.3
			c0-0.5,0.1-0.9,0.3-1.4c0.2-0.4,0.4-0.8,0.8-1.1c0.3-0.3,0.7-0.6,1.2-0.8c0.5-0.2,1-0.3,1.5-0.3s1,0.1,1.5,0.3
			c0.4,0.2,0.8,0.4,1.2,0.6c0.3,0.2,0.6,0.5,0.8,0.8l-0.6,0.8c-0.2-0.3-0.4-0.5-0.6-0.7c-0.3-0.2-0.6-0.4-0.9-0.5
			c-0.4-0.1-0.8-0.2-1.2-0.2c-0.5,0-1,0.1-1.4,0.4c-0.4,0.2-0.7,0.5-0.9,0.9c-0.2,0.4-0.3,0.8-0.3,1.2c0,0.3,0.1,0.7,0.2,1
			s0.4,0.5,0.6,0.7c0.3,0.2,0.5,0.3,0.8,0.5c0.3,0.1,0.6,0.2,0.9,0.4c0.5,0.2,1,0.4,1.5,0.6s0.9,0.5,1.3,0.8s0.7,0.7,0.9,1.1
			c0.2,0.5,0.3,1,0.3,1.5c0,0.7-0.2,1.4-0.6,2s-0.9,1-1.5,1.3C1409.6,438.5,1408.9,438.6,1408.2,438.6z"/>
		<path class="st5" d="M1309.7,457.6v-13.2h1.2v13.2H1309.7z"/>
		<path class="st5" d="M1315.2,457.6v-13.2h1.2l7.1,11.1v-11.1h1.2v13.2h-1.2l-7.1-11.1v11.1H1315.2z"/>
		<path class="st5" d="M1331,457.6v-12.1h-4v-1.1h9.3v1.1h-4v12.1H1331z"/>
		<path class="st5" d="M1339.3,457.6v-13.2h6.7v1.1h-5.4v5h5.2v1.1h-5.2v5h5.4v1.1L1339.3,457.6z"/>
		<path class="st5" d="M1349.5,457.6v-13.2h1.2v12.1h5.5v1.1H1349.5z"/>
		<path class="st5" d="M1359.3,457.6v-13.2h1.2v12.1h5.5v1.1H1359.3z"/>
		<path class="st5" d="M1369.1,457.6v-13.2h1.2v13.2H1369.1z"/>
		<path class="st5" d="M1380.3,457.8c-0.9,0-1.8-0.2-2.6-0.5c-0.8-0.3-1.5-0.8-2.1-1.5c-0.6-0.6-1.1-1.4-1.4-2.2
			c-0.3-0.8-0.5-1.8-0.5-2.7c0-0.9,0.1-1.7,0.4-2.6c0.3-0.8,0.7-1.6,1.3-2.2c0.6-0.7,1.3-1.2,2.1-1.5c0.9-0.4,1.8-0.6,2.8-0.6
			c0.7,0,1.3,0.1,1.9,0.2c0.6,0.2,1.1,0.4,1.7,0.7c0.5,0.3,0.9,0.6,1.3,1.1l-0.6,0.9c-0.5-0.6-1.2-1.1-1.9-1.4
			c-0.8-0.3-1.6-0.5-2.4-0.5s-1.5,0.1-2.2,0.5c-0.6,0.3-1.2,0.7-1.7,1.3c-0.4,0.5-0.8,1.2-1,1.8c-0.5,1.4-0.5,3,0,4.4
			c0.2,0.7,0.6,1.3,1.1,1.8s1,0.9,1.7,1.2c0.6,0.3,1.3,0.4,2,0.4c0.6,0,1.2-0.1,1.8-0.3c0.6-0.2,1.1-0.5,1.5-0.9s0.8-0.8,1.1-1.3
			c0.3-0.5,0.4-1.1,0.4-1.8V452h-4.9v-1h6.1v1.2c0,0.8-0.2,1.7-0.5,2.5c-0.3,0.7-0.8,1.3-1.4,1.8s-1.3,0.8-2,1.1
			C1381.7,457.7,1381,457.8,1380.3,457.8z"/>
		<path class="st5" d="M1389.7,457.6v-13.2h6.6v1.1h-5.4v5h5.2v1.1h-5.2v5h5.4v1.1L1389.7,457.6z"/>
		<path class="st5" d="M1399.9,457.6v-13.2h1.2l7.1,11.1v-11.1h1.2v13.2h-1.2l-7.1-11.1v11.1H1399.9z"/>
		<path class="st5" d="M1419.5,457.8c-0.9,0-1.9-0.2-2.8-0.5c-0.8-0.3-1.6-0.8-2.2-1.5c-0.6-0.6-1.1-1.4-1.5-2.2
			c-0.7-1.7-0.7-3.7,0-5.4c0.3-0.8,0.8-1.6,1.5-2.2c0.6-0.6,1.4-1.1,2.2-1.5c0.9-0.4,1.8-0.5,2.8-0.5c0.8,0,1.6,0.1,2.3,0.4
			c0.7,0.2,1.3,0.6,1.9,1l-0.6,1c-0.5-0.4-1-0.7-1.6-0.9c-0.6-0.2-1.3-0.3-2-0.3c-0.8,0-1.6,0.1-2.3,0.4c-0.7,0.3-1.3,0.7-1.8,1.2
			s-0.9,1.1-1.2,1.8c-0.6,1.4-0.6,3,0,4.4c0.3,0.7,0.7,1.3,1.2,1.8s1.1,0.9,1.8,1.2c0.7,0.3,1.5,0.4,2.3,0.4c0.7,0,1.4-0.1,2-0.3
			c0.6-0.2,1.1-0.5,1.6-0.9l0.6,1c-0.6,0.4-1.2,0.8-1.9,1C1421.1,457.7,1420.3,457.8,1419.5,457.8z"/>
		<path class="st5" d="M1426.6,457.6v-13.2h6.7v1.1h-5.4v5h5.2v1.1h-5.2v5h5.4v1.1L1426.6,457.6z"/>
		<path class="st6" d="M0,377.7v-14.8h3.8c0.9,0,1.7,0.1,2.5,0.5c0.7,0.3,1.2,0.8,1.6,1.4c0.4,0.7,0.6,1.5,0.6,2.2
			c0,0.8-0.2,1.6-0.6,2.3c-0.4,0.7-1,1.2-1.6,1.5c-0.8,0.4-1.6,0.6-2.5,0.5H1.4v6.3H0V377.7z M1.4,370.3h2.2c0.7,0,1.3-0.1,1.9-0.4
			c0.5-0.2,1-0.6,1.3-1.1s0.5-1.1,0.4-1.7c0-0.6-0.1-1.2-0.4-1.7s-0.7-0.8-1.3-1.1c-0.6-0.3-1.3-0.4-1.9-0.4H1.4V370.3z"/>
		<path class="st6" d="M12.3,377.7v-14.8h1.4v13.6h6.2v1.2L12.3,377.7z"/>
		<path class="st6" d="M22.5,377.7l1.9-14.9h1.5l4.4,11.6l4.4-11.6H36l2,14.9h-1.4L35,365.4l-4.2,11.4h-1l-4.2-11.4L24,377.7
			L22.5,377.7L22.5,377.7z"/>
		<path class="st6" d="M34.8,477.2v-14.9h3.8c0.9,0,1.7,0.2,2.5,0.5c0.7,0.3,1.2,0.8,1.6,1.4c0.4,0.7,0.6,1.5,0.6,2.2
			c0,0.8-0.2,1.6-0.6,2.3c-0.4,0.7-1,1.2-1.6,1.5c-0.8,0.4-1.6,0.6-2.5,0.5h-2.5v6.3h-1.3V477.2z M36.2,469.7h2.2
			c0.7,0,1.3-0.1,1.9-0.4c0.5-0.2,1-0.6,1.3-1.1s0.5-1.1,0.5-1.7s-0.1-1.2-0.5-1.7c-0.3-0.5-0.7-0.8-1.3-1.1
			c-0.6-0.3-1.3-0.4-1.9-0.4h-2.2V469.7z"/>
		<path class="st6" d="M47.2,477.2v-14.9h3.3c1,0,2,0.2,2.9,0.6s1.7,0.9,2.4,1.6s1.2,1.5,1.6,2.4c1.2,2.8,0.6,6-1.6,8.2
			c-0.7,0.7-1.5,1.2-2.4,1.6c-1,0.4-2,0.6-3,0.6L47.2,477.2z M48.5,475.9h1.8c0.8,0,1.7-0.2,2.4-0.5s1.4-0.8,2-1.3
			c0.6-0.6,1-1.3,1.3-2c0.6-1.6,0.6-3.3,0-4.9c-0.3-0.7-0.7-1.4-1.3-2s-1.3-1-2-1.3c-0.8-0.3-1.6-0.5-2.4-0.5h-1.9v12.5H48.5z"/>
		<path class="st6" d="M61.1,477.2l1.9-14.9h1.4l4.4,11.6l4.4-11.6h1.4l1.9,14.9h-1.4l-1.7-12.3l-4.2,11.4h-1L64,464.9l-1.7,12.3
			H61.1z"/>
		<path class="st5" d="M506.5,383.3v-19H517v3.3h-6.8v4.6h6.5v3.3h-6.5v4.6h6.8v3.3L506.5,383.3L506.5,383.3z"/>
		<path class="st5" d="M519.7,383.3l5-6.1l-4.3-5.7h1.9l3.5,4.5l3.5-4.5h1.9l-4.3,5.7l5,6.1h-2l-4.1-5l-4.1,5H519.7z"/>
		<path class="st5" d="M537.9,383.6c-0.8,0-1.5-0.3-2-0.9c-0.5-0.7-0.8-1.6-0.7-2.5v-7.5H534v-1.3h1.2V367h1.7v4.4h2.9v1.3h-2.9v7.4
			c0,0.5,0.1,1,0.4,1.5c0.2,0.3,0.7,0.5,1.1,0.5c0.4,0,0.9-0.1,1.2-0.4l0.4,1.3c-0.3,0.2-0.6,0.3-0.9,0.4
			C538.7,383.6,538.3,383.6,537.9,383.6z"/>
		<path class="st5" d="M543.6,383.3v-11.8h1.7v1.7c0.7-1.3,2-2.2,3.5-2.1c0.4,0,0.7,0,1,0.1s0.6,0.2,0.9,0.3l-0.7,1.4
			c-0.3-0.1-0.5-0.2-0.8-0.3c-0.3-0.1-0.6-0.1-0.8-0.1c-0.5,0-1.1,0.1-1.5,0.4c-0.5,0.3-0.9,0.6-1.2,1.1c-0.3,0.4-0.4,0.9-0.5,1.4
			v7.8h-1.6V383.3z"/>
		<path class="st5" d="M558.7,383.6c-1.1,0-2.1-0.3-3-0.8s-1.6-1.3-2.1-2.2c-1-2-1-4.4,0-6.4c0.5-0.9,1.2-1.7,2.1-2.2
			c0.9-0.6,1.9-0.8,3-0.8c1,0,2,0.2,2.9,0.8c0.9,0.5,1.5,1.2,2,2.1v-2.5h1.7v11.8h-1.7v-2.5c-0.5,0.9-1.2,1.6-2,2.1
			C560.7,383.4,559.7,383.6,558.7,383.6z M559.1,382.2c1.6,0,3.2-0.8,4-2.3c0.8-1.6,0.8-3.4,0-5c-0.4-0.7-0.9-1.3-1.6-1.7
			c-1.5-0.8-3.2-0.8-4.7,0c-0.7,0.4-1.2,1-1.6,1.7c-0.8,1.6-0.8,3.4,0,5c0.4,0.7,0.9,1.3,1.6,1.7C557.5,382,558.3,382.2,559.1,382.2
			z"/>
		<path class="st5" d="M575.7,383.6c-0.8,0-1.7-0.1-2.5-0.5c-1.5-0.6-2.8-1.8-3.4-3.3c-0.3-0.8-0.5-1.6-0.5-2.5
			c0-0.8,0.2-1.7,0.5-2.5c0.6-1.5,1.9-2.7,3.4-3.3c0.8-0.3,1.7-0.5,2.5-0.5s1.5,0.1,2.2,0.4c0.7,0.2,1.3,0.5,1.8,1l-0.7,1.1
			c-1.7-1.2-3.9-1.3-5.7-0.4c-0.7,0.4-1.3,1-1.7,1.7c-0.4,0.8-0.6,1.6-0.6,2.5s0.2,1.7,0.6,2.5c0.4,0.7,1,1.3,1.7,1.7
			c0.8,0.4,1.6,0.6,2.5,0.6c0.6,0,1.2-0.1,1.7-0.3c0.5-0.2,1-0.4,1.4-0.7l0.7,1.1c-0.5,0.4-1.2,0.7-1.8,0.9
			C577.2,383.5,576.4,383.6,575.7,383.6z"/>
		<path class="st5" d="M586.2,383.6c-0.8,0-1.5-0.3-2-0.9c-0.5-0.7-0.8-1.6-0.7-2.5v-7.5h-1.2v-1.3h1.2V367h1.7v4.4h2.9v1.3h-2.9
			v7.4c0,0.5,0.1,1,0.4,1.5c0.2,0.3,0.7,0.5,1.1,0.5c0.4,0,0.8-0.1,1.2-0.4l0.4,1.3c-0.3,0.2-0.6,0.3-0.9,0.4
			C586.9,383.6,586.5,383.6,586.2,383.6z"/>
		<path class="st5" d="M489.6,410.9v-15.7h-4.8v-3.3h13.3v3.3h-4.8v15.7H489.6z"/>
		<path class="st5" d="M501,410.9v-11.8h1.7v1.7c0.3-0.6,0.8-1.2,1.5-1.6c0.6-0.4,1.3-0.6,2.1-0.5c0.4,0,0.7,0,1,0.1
			s0.6,0.2,0.9,0.3l-0.7,1.4c-0.3-0.1-0.5-0.2-0.8-0.3c-0.3-0.1-0.6-0.1-0.8-0.1c-0.5,0-1.1,0.1-1.5,0.4c-0.5,0.3-0.9,0.6-1.2,1.1
			c-0.3,0.4-0.5,0.9-0.5,1.4v7.8L501,410.9z"/>
		<path class="st5" d="M516.2,411.2c-1.1,0-2.1-0.3-3-0.8s-1.6-1.3-2.1-2.2c-1-2-1-4.4,0-6.4c0.5-0.9,1.2-1.7,2.1-2.2s1.9-0.8,3-0.8
			c1,0,2,0.2,2.9,0.8c0.9,0.5,1.6,1.2,2,2.1v-2.5h1.7V411H521v-2.5c-0.5,0.9-1.2,1.6-2,2.1C518.1,411,517.2,411.2,516.2,411.2z
			 M516.6,409.8c1.6,0.1,3.2-0.8,3.9-2.3c0.4-0.8,0.6-1.6,0.6-2.5s-0.2-1.7-0.6-2.5c-0.4-0.7-0.9-1.3-1.6-1.7
			c-1.5-0.8-3.2-0.8-4.7,0c-0.7,0.4-1.2,1-1.6,1.7c-0.8,1.6-0.8,3.4,0,5c0.4,0.7,0.9,1.3,1.6,1.7
			C514.9,409.6,515.7,409.8,516.6,409.8L516.6,409.8z"/>
		<path class="st5" d="M527.7,410.9v-11.8h1.7v1.6c0.4-0.6,0.9-1.1,1.5-1.4c0.8-0.4,1.6-0.6,2.5-0.6c0.8,0,1.6,0.2,2.4,0.6
			c0.7,0.4,1.2,0.9,1.5,1.6c0.4,0.8,0.6,1.7,0.5,2.6v7.4H536v-7c0.1-1-0.2-2-0.8-2.8c-0.6-0.7-1.5-1-2.4-1c-0.6,0-1.3,0.1-1.8,0.4
			s-0.9,0.7-1.2,1.1c-0.3,0.5-0.4,1-0.4,1.5v7.7L527.7,410.9z"/>
		<path class="st5" d="M545.4,411.2c-0.9,0-1.8-0.2-2.6-0.7s-1.4-1.2-1.7-2l0.9-1c0.3,0.7,0.8,1.3,1.4,1.8c0.6,0.4,1.3,0.6,2,0.6
			c0.5,0,0.9-0.1,1.3-0.3c0.4-0.2,0.8-0.5,1-0.9s0.4-0.9,0.4-1.3s-0.1-0.8-0.3-1.1c-0.3-0.3-0.6-0.5-1-0.7s-1-0.4-1.6-0.7
			c-0.5-0.2-1-0.4-1.5-0.7c-0.5-0.2-0.9-0.6-1.2-1s-0.5-1-0.5-1.5c0-0.6,0.2-1.1,0.5-1.6s0.8-0.9,1.3-1.1c0.6-0.3,1.3-0.4,1.9-0.4
			c0.6,0,1.3,0.1,1.8,0.4c0.6,0.3,1.1,0.7,1.6,1.2l-0.8,1c-0.6-0.9-1.6-1.4-2.6-1.4c-0.6,0-1.1,0.2-1.6,0.5
			c-0.4,0.3-0.6,0.8-0.6,1.3c0,0.4,0.1,0.7,0.4,1c0.3,0.3,0.6,0.5,1,0.7s0.8,0.4,1.3,0.5c0.6,0.2,1.2,0.5,1.8,0.8
			c0.5,0.2,0.9,0.6,1.2,1c0.3,0.5,0.5,1.1,0.4,1.6c0,0.7-0.2,1.4-0.5,2c-0.4,0.6-0.9,1-1.5,1.3C547,411.1,546.2,411.3,545.4,411.2z"
			/>
		<path class="st5" d="M554,410.9v-10.5h-1.2v-1.3h1.2v-4.2c0-0.8,0.1-1.5,0.4-2.2c0.2-0.6,0.6-1.1,1.1-1.4s1.2-0.5,1.8-0.5
			c0.4,0,0.8,0.1,1.2,0.2s0.7,0.3,1,0.5l-0.6,1.2c-0.4-0.3-0.9-0.4-1.3-0.4c-0.4,0-0.8,0.1-1.1,0.3c-0.3,0.2-0.5,0.5-0.6,0.9
			s-0.2,0.9-0.2,1.4v4.3h3v1.3h-3V411L554,410.9L554,410.9z"/>
		<path class="st5" d="M567.7,411.2c-1.2,0-2.3-0.3-3.3-0.8s-1.8-1.3-2.3-2.2c-1.8-2.9-0.9-6.7,2-8.5c0.1-0.1,0.2-0.1,0.3-0.2
			c2.1-1.1,4.6-1.1,6.6,0c1,0.5,1.8,1.3,2.3,2.2c1.1,2,1.1,4.5,0,6.5c-0.6,0.9-1.4,1.7-2.3,2.2C570,411,568.8,411.2,567.7,411.2z
			 M567.7,409.7c0.9,0,1.7-0.2,2.5-0.6c0.7-0.4,1.3-1,1.7-1.7c0.8-1.5,0.8-3.4,0-4.9c-0.4-0.7-1-1.3-1.7-1.7c-1.5-0.8-3.4-0.8-4.9,0
			c-0.7,0.4-1.3,1-1.7,1.7c-0.8,1.5-0.8,3.4,0,4.9c0.4,0.7,1,1.3,1.7,1.7C566,409.5,566.8,409.8,567.7,409.7L567.7,409.7z"/>
		<path class="st5" d="M578.2,410.9v-11.8h1.7v1.7c0.3-0.6,0.8-1.2,1.5-1.6c0.6-0.4,1.3-0.6,2.1-0.5c0.4,0,0.7,0,1,0.1
			s0.6,0.2,0.9,0.3l-0.7,1.4c-0.3-0.1-0.5-0.2-0.8-0.3c-0.3-0.1-0.6-0.1-0.8-0.1c-0.5,0-1.1,0.1-1.5,0.4c-0.5,0.3-0.9,0.6-1.2,1.1
			c-0.3,0.4-0.5,0.9-0.5,1.4v7.8L578.2,410.9z"/>
		<path class="st5" d="M588.5,410.9v-11.8h1.7v1.6c0.9-1.3,2.3-2,3.9-2c0.9,0,1.8,0.2,2.5,0.7c0.7,0.4,1.2,1.1,1.5,1.8
			c0.4-0.7,1-1.3,1.7-1.8s1.6-0.7,2.5-0.7c0.8,0,1.5,0.2,2.2,0.5c0.6,0.3,1.2,0.9,1.5,1.5c0.4,0.7,0.6,1.6,0.6,2.4v7.7h-1.7v-7.2
			c0.1-0.9-0.2-1.8-0.8-2.5c-0.6-0.6-1.4-1-2.2-1c-0.6,0-1.2,0.1-1.8,0.4c-0.5,0.3-0.9,0.6-1.2,1.1c-0.3,0.4-0.5,0.9-0.5,1.4v7.9
			h-1.7v-7.4c0-0.9-0.3-1.8-0.8-2.4c-0.6-0.6-1.4-0.9-2.2-0.9c-0.6,0-1.2,0.1-1.8,0.4c-0.5,0.2-0.9,0.6-1.3,1
			c-0.3,0.4-0.5,0.8-0.5,1.3v8H588.5z"/>
		<path class="st5" d="M517.8,438.5v-19h3.7v15.7h6.8v3.3H517.8z"/>
		<path class="st5" d="M536.9,438.8c-1.2,0-2.3-0.3-3.3-0.8s-1.8-1.3-2.3-2.2c-1.2-2-1.2-4.5,0-6.5c0.6-0.9,1.4-1.7,2.3-2.2
			c2.1-1.1,4.6-1.1,6.6,0c1,0.5,1.8,1.3,2.3,2.2c1.1,2,1.1,4.5,0,6.5c-0.6,0.9-1.4,1.7-2.3,2.2C539.2,438.6,538.1,438.9,536.9,438.8
			z M536.9,437.3c0.9,0,1.7-0.2,2.5-0.6c0.7-0.4,1.3-1,1.7-1.7c0.8-1.5,0.8-3.4,0-4.9c-0.4-0.7-1-1.3-1.7-1.7
			c-0.8-0.4-1.6-0.6-2.5-0.6s-1.7,0.2-2.5,0.6c-0.7,0.4-1.3,1-1.7,1.7c-0.8,1.5-0.8,3.4,0,4.9c0.4,0.7,1,1.3,1.7,1.7
			C535.2,437.1,536.1,437.4,536.9,437.3z"/>
		<path class="st5" d="M552.4,438.8c-1.1,0-2.1-0.3-3-0.8s-1.6-1.3-2.1-2.2c-1-2-1-4.4,0-6.4c0.5-0.9,1.2-1.7,2.1-2.2
			c0.9-0.6,1.9-0.8,3-0.8c1,0,2,0.2,2.9,0.8c0.9,0.5,1.6,1.2,2,2.1v-2.5h1.7v11.8h-1.7V436c-0.5,0.9-1.2,1.6-2,2.1
			C554.4,438.6,553.4,438.9,552.4,438.8z M552.8,437.4c0.8,0,1.6-0.2,2.3-0.6s1.2-1,1.6-1.7c0.4-0.8,0.6-1.6,0.6-2.5
			s-0.2-1.7-0.6-2.5c-0.4-0.7-0.9-1.3-1.6-1.7c-1.5-0.8-3.2-0.8-4.7,0c-0.7,0.4-1.2,1-1.6,1.7c-0.8,1.6-0.8,3.4,0,5
			c0.4,0.7,0.9,1.3,1.6,1.7C551.2,437.2,552,437.4,552.8,437.4L552.8,437.4z"/>
		<path class="st5" d="M569,438.8c-1.1,0-2.1-0.3-3-0.8s-1.6-1.3-2.1-2.2c-0.5-1-0.8-2.1-0.8-3.2s0.2-2.2,0.8-3.2
			c0.5-0.9,1.2-1.7,2.1-2.2c0.9-0.6,1.9-0.8,3-0.8c1,0,2,0.2,2.8,0.8c0.8,0.5,1.5,1.2,2,2.1v-10.5h1.7v19.8h-1.7V436
			C572.9,437.8,571,438.9,569,438.8L569,438.8z M569.4,437.4c0.8,0,1.6-0.2,2.3-0.6s1.2-1,1.6-1.7c0.8-1.6,0.8-3.4,0-5
			c-0.4-0.7-0.9-1.3-1.6-1.7c-0.7-0.4-1.5-0.6-2.3-0.6s-1.6,0.2-2.3,0.6s-1.2,1-1.6,1.7c-0.4,0.8-0.6,1.6-0.6,2.5s0.2,1.7,0.6,2.5
			c0.4,0.7,0.9,1.3,1.6,1.7C567.8,437.1,568.5,437.4,569.4,437.4L569.4,437.4z"/>
		<rect x="1118.4" y="355.6" class="st4" width="7.9" height="81.7"/>
		<rect x="1118.4" y="429.4" class="st4" width="88.5" height="7.9"/>
		
			<rect x="1119.5" y="365.4" transform="matrix(0.867 -0.4983 0.4983 0.867 -32.4624 616.7676)" class="st4" width="39.5" height="7.5"/>
		
			<rect x="1163.1" y="351.7" transform="matrix(0.5876 -0.8091 0.8091 0.5876 181.9967 1096.6508)" class="st4" width="7.5" height="36.2"/>
		
			<rect x="1171.2" y="364" transform="matrix(0.5992 -0.8006 0.8006 0.5992 182.9397 1100.847)" class="st4" width="39.4" height="7.5"/>
		<rect x="1130.9" y="385.3" class="st4" width="16.1" height="39.9"/>
		<rect x="1150.8" y="379.4" class="st4" width="16.1" height="45.6"/>
		<rect x="1171.1" y="404.2" class="st4" width="16.1" height="20.8"/>
		<rect x="1190.9" y="382.8" class="st4" width="16.1" height="42.5"/>
		<line class="st7" x1="157.1" y1="272.3" x2="106.6" y2="272.3"/>
		<line class="st7" x1="100.2" y1="371" x2="55.3" y2="371"/>
		<line class="st7" x1="157.1" y1="469.6" x2="106.6" y2="469.6"/>
		<path class="st4" d="M258.3,687.9h-87.4v-96.6h87.4V687.9z M178.2,680.6H251v-82h-72.8V680.6z"/>
		<rect x="174.6" y="620" class="st4" width="80.1" height="7.3"/>
		<rect x="176" y="648.9" class="st4" width="80.1" height="7.3"/>
		<circle class="st4" cx="226.8" cy="668.9" r="4.2"/>
		<circle class="st4" cx="240.7" cy="668.9" r="4.2"/>
		<circle class="st4" cx="226.8" cy="638.8" r="4.2"/>
		<circle class="st4" cx="240.7" cy="638.8" r="4.2"/>
		<circle class="st4" cx="226.8" cy="609.3" r="4.2"/>
		<circle class="st4" cx="240.7" cy="609.3" r="4.2"/>
		<path class="st4" d="M211.5,613h-24.3c-2-0.1-3.6-1.8-3.5-3.9c0.1-1.9,1.6-3.4,3.5-3.5h24.3c2,0.1,3.6,1.8,3.5,3.9
			C214.9,611.4,213.4,612.9,211.5,613z"/>
		<path class="st4" d="M212.3,641.8H188c-2-0.1-3.6-1.8-3.5-3.9c0.1-1.9,1.6-3.4,3.5-3.5h24.3c2,0.1,3.6,1.8,3.5,3.9
			C215.6,640.2,214.1,641.7,212.3,641.8z"/>
		<path class="st4" d="M211.5,672.5h-24.3c-2-0.1-3.6-1.8-3.5-3.9c0.1-1.9,1.6-3.4,3.5-3.5h24.3c2,0.1,3.6,1.8,3.5,3.9
			C214.9,670.9,213.4,672.4,211.5,672.5z"/>
		<path class="st4" d="M1353.1,310.7c-21.7,0-39.2-17.5-39.2-39.2s17.5-39.2,39.2-39.2s39.2,17.5,39.2,39.2l0,0
			C1392.2,293.2,1374.7,310.7,1353.1,310.7z M1353.1,240.3c-17.2,0-31.2,14-31.2,31.2s14,31.2,31.2,31.2s31.2-14,31.2-31.2l0,0
			C1384.2,254.3,1370.3,240.3,1353.1,240.3L1353.1,240.3z"/>
		
			<rect x="1389.3" y="294" transform="matrix(0.6685 -0.7437 0.7437 0.6685 231.9457 1143.629)" class="st4" width="19" height="35.3"/>
		
			<rect x="1380.4" y="289.8" transform="matrix(0.6685 -0.7437 0.7437 0.6685 236.3803 1129.9597)" class="st4" width="10.6" height="20.1"/>
		<polygon class="st4" points="1375.6,286.7 1332.7,286.7 1332.7,254.4 1338.7,254.4 1338.7,280.7 1375.6,280.7 		"/>
		<polygon class="st4" points="1352.8,277.3 1345.1,267.4 1336.9,272 1335.9,270.3 1345.6,264.9 1353.1,274.4 1366.3,263.1 
			1367.6,264.7 		"/>
		<polygon class="st4" points="1367.9,270.5 1365.9,270.3 1366.6,264.1 1360,264.1 1360,262.1 1368.9,262.1 		"/>
		<path class="st4" d="M1342.3,535.5c-3.9,0-7-3.1-7-7s3.1-7,7-7s7,3.1,7,7S1346.2,535.5,1342.3,535.5z M1342.3,525.3
			c-1.8,0-3.2,1.4-3.2,3.2s1.4,3.2,3.2,3.2c1.8,0,3.2-1.4,3.2-3.2l0,0C1345.5,526.7,1344.1,525.3,1342.3,525.3L1342.3,525.3
			L1342.3,525.3z"/>
		<path class="st4" d="M1395.9,550.6c-3.9,0-7-3.1-7-7s3.1-7,7-7s7,3.1,7,7S1399.7,550.6,1395.9,550.6z M1395.9,540.4
			c-1.8,0-3.2,1.4-3.2,3.2s1.4,3.2,3.2,3.2c1.8,0,3.2-1.4,3.2-3.2l0,0C1399.1,541.8,1397.6,540.3,1395.9,540.4L1395.9,540.4
			L1395.9,540.4z"/>
		<polygon class="st4" points="1367,558.2 1351.5,558.2 1351.5,544.1 1340.4,544 1340.4,532.3 1344.2,532.3 1344.2,540.3 
			1355.2,540.4 1355.2,554.5 1367,554.5 		"/>
		<rect x="1365.1" y="550.7" class="st4" width="3.8" height="11.3"/>
		<rect x="1370.9" y="547" class="st4" width="3.8" height="18.9"/>
		<polygon class="st4" points="1386.9,558.3 1373.4,558.2 1373.5,554.5 1383.1,554.5 1383.1,541.7 1391.8,541.7 1391.8,545.5 
			1386.9,545.5 		"/>
		<path class="st4" d="M1380,522.9h-20.5v-8.4c0.1-2.8-1.1-5.6-3.2-7.5c-8.3-7.4-9.1-20.2-1.7-28.5s20.2-9.1,28.5-1.7
			s9.1,20.2,1.7,28.5c-0.5,0.5-0.9,1-1.5,1.5c-2.2,2.1-3.4,4.9-3.4,7.9L1380,522.9L1380,522.9z M1367.1,515.3h5.3v-0.7
			c0-5.1,2.1-10,5.9-13.5c2.6-2.4,4.1-5.8,4.1-9.3c0-7-5.7-12.6-12.7-12.6c-0.2,0-0.4,0-0.6,0c-7,0.4-12.3,6.3-12,13.3
			c0.2,3.4,1.7,6.6,4.2,8.8c3.7,3.4,5.8,8.2,5.7,13.2L1367.1,515.3z"/>
		<rect x="1359.7" y="527.4" class="st4" width="20.1" height="7.3"/>
		<rect x="1362.3" y="536.5" class="st4" width="15" height="5.3"/>
		<polyline class="st8" points="366.4,345.6 392.9,372.3 366.1,398.7 		"/>
		<polyline class="st8" points="689.5,345.6 715.9,372.3 689.2,398.7 		"/>
		<polyline class="st8" points="981.8,345.6 1008.2,372.3 981.5,398.7 		"/>
	</g>
</g>
</svg>
