<svg xmlns="http://www.w3.org/2000/svg" viewBox="0 0 1510.45 741.96"><defs><style>.cls-1{fill:#f4ce45;}.cls-2,.cls-7,.cls-8{fill:none;}.cls-2{stroke:#4c6ba7;stroke-width:5px;}.cls-2,.cls-4,.cls-7,.cls-8{stroke-miterlimit:10;}.cls-3{fill:#4c6ba7;}.cls-4{fill:#f5f7f5;}.cls-4,.cls-7{stroke:#f5f7f5;stroke-width:6px;}.cls-5{fill:#1c1a17;}.cls-6{fill:#191919;}.cls-7{stroke-linecap:round;}.cls-8{stroke:#f4ce45;stroke-width:7px;}</style></defs><g id="Layer_2" data-name="Layer 2"><g id="Layer_2-2" data-name="Layer 2"><path class="cls-1" d="M1429.69,150.55l58.81,101.68L1419,372.48l69.25,119.59-58.68,101.65H1312.33l-69.26-120-137.14,0-59-102.11,58.57-101.45,137.64.32,69.15-119.94,117.36-.06m11-19h-11l-117.36.06h-11l-5.48,9.5-63.65,110.4-126.64-.29-11,0-5.49,9.52-58.57,101.45-5.49,9.5,5.49,9.5,59,102.11,5.49,9.51h11l126.17,0,63.78,110.45,5.48,9.5h139.15l5.48-9.5,58.68-101.65,5.5-9.51-5.51-9.51-63.74-110.07,64-110.74,5.5-9.51-5.5-9.52L1446.14,141l-5.49-9.49Z"/><path class="cls-1" d="M272.71,19l58.66,101.64L272.78,222.23l-.1,47.14L331.27,371l-58.56,101.6v47.08l58.73,101.63L272.71,722.81,155.45,723,96.83,621.28l58.64-101.62,0-47L96.83,370.89l58.5-101.59.64-47.14L96.83,120.64,155.4,19H272.71m11-19H144.42l-5.49,9.51L80.37,111.16l-5.5,9.53,5.54,9.51,56.49,97-.5,36.93-56,97.31-5.46,9.49,5.46,9.48,56.07,97.36,0,36.84-56.09,97.2-5.48,9.5,5.47,9.49L139,732.44l5.49,9.52h11l117.26-.14h10.94l5.48-9.48,58.72-101.55,5.49-9.51-5.49-9.51L291.7,514.53V477.64l56-97.2L353.2,371l-5.47-9.49-56-97.16.08-37,56.06-97.2,5.48-9.49-5.48-9.5L289.17,9.5,283.69,0Z"/><polygon class="cls-2" points="611.62 259.28 481.59 259.28 416.58 371.88 481.59 484.48 611.62 484.48 676.63 371.88 611.62 259.28"/><polygon class="cls-3" points="550.46 254.77 558.26 259.28 550.46 263.78 542.65 268.29 542.65 259.28 542.65 250.27 550.46 254.77"/><polygon class="cls-3" points="649.56 316.08 649.56 325.1 641.76 320.59 633.95 316.08 641.76 311.58 649.56 307.07 649.56 316.08"/><polygon class="cls-3" points="550.95 485.05 550.95 494.06 543.14 489.55 535.34 485.05 543.14 480.54 550.95 476.03 550.95 485.05"/><polygon class="cls-3" points="452.35 434.3 444.55 438.81 444.55 429.79 444.55 420.78 452.35 425.29 460.16 429.79 452.35 434.3"/><polygon class="cls-3" points="448.78 316.29 440.97 311.78 448.78 307.28 456.58 302.77 456.58 311.78 456.58 320.79 448.78 316.29"/><polygon class="cls-4" points="910.74 273.5 796.84 273.5 739.88 372.15 796.84 470.8 910.74 470.8 967.7 372.15 910.74 273.5"/><path class="cls-5" d="M899.91,353.05V353l-.3-.58c-1.94-3.84-6.73-6.41-15.52-8.34a146.35,146.35,0,0,0-29.79-2.72l-3.31,0h-.29c-2.88.07-4.82.15-6.46.26l-2.52.14q-3,.19-5.83.51l-1.17.14c-.6.06-1.17.13-1.75.21-2.5.35-4.62.69-6.52,1l-.42.08-.88.19-.67.15c-1.81.4-3.45.82-4.91,1.28-.36.1-.71.22-1,.33a26.94,26.94,0,0,0-4.57,2,11.42,11.42,0,0,0-5,4.74,8.35,8.35,0,0,0-.9,3.87v78.95l3,1.61c.51.3,13.43,7.45,42,7.45,27,0,42.27-6.49,43.94-7.23l3.46-1.55V356.24A8.56,8.56,0,0,0,899.91,353.05Zm-56.76.7,1.5-.09c2.2-.14,4.28-.21,6.21-.23,1.14,0,2.3,0,3.44,0A138.35,138.35,0,0,1,881,355.7c.84.17,1.64.35,2.39.54-.76.18-1.55.36-2.39.53a135.14,135.14,0,0,1-26.32,2.32c-1.28,0-2.57,0-3.88,0-1.8,0-3.78-.09-6.19-.23-1.43-.08-2.85-.18-4.25-.3-2.21-.17-4.36-.4-6.39-.66-.62-.08-1.24-.17-1.83-.27-.39,0-.77-.11-1.15-.18-.8-.12-1.57-.26-2.31-.41l-.9-.18-2.5-.6c.58-.15,1.19-.28,1.84-.42l.47-.1.29-.07c.94-.19,1.92-.37,3-.54s2-.31,3.12-.47C836.79,354.24,839.87,354,843.15,353.75Zm46,73.42c-5.74,1.85-18,5-36.06,5-17.66,0-28.62-3-33.65-4.8V415.41a124,124,0,0,0,35.4,5,127.39,127.39,0,0,0,34.31-4.65Zm0-24a113.84,113.84,0,0,1-34.31,5.17,110.41,110.41,0,0,1-35.4-5.6v-11.6a123.82,123.82,0,0,0,35.4,5,126,126,0,0,0,34.31-4.67Zm0-24.28a116.6,116.6,0,0,1-61.63,1.93c-3.06-.74-5.59-1.52-7.52-2.17l-.56-.19V367.13c1.51.47,3.2.91,5,1.3l1.17.26.76.15,1.47.27h0c1.51.26,3.17.51,5.05.76,3.07.43,6.34.73,9.77.95h0c.48,0,1,.07,1.47.09,2.09.12,4.16.2,6.52.23H851c1.1,0,2.22,0,3.32,0a144.82,144.82,0,0,0,29.79-2.75c1.88-.4,3.56-.83,5.07-1.3Z"/><polygon class="cls-4" points="1427.89 393.43 1313.99 393.43 1257.03 492.07 1313.99 590.72 1427.89 590.72 1484.85 492.07 1427.89 393.43"/><polygon class="cls-4" points="1428.04 153.58 1314.14 153.58 1257.18 252.23 1314.14 350.87 1428.04 350.87 1485 252.23 1428.04 153.58"/><polygon class="cls-4" points="1221.45 273.52 1107.54 273.52 1050.59 372.16 1107.54 470.81 1221.45 470.81 1278.4 372.16 1221.45 273.52"/><polygon class="cls-4" points="603.83 273.23 489.92 273.23 432.97 371.88 489.92 470.53 603.83 470.53 660.78 371.88 603.83 273.23"/><polygon class="cls-4" points="271.02 22 157.11 22 100.16 120.64 157.11 219.29 271.02 219.29 327.97 120.64 271.02 22"/><path class="cls-5" d="M265.81,186.65H163.4l.06-53.1H265.81Zm-95.24-7.16h88.08V140.94H170.58Z"/><path class="cls-5" d="M265.81,186.65H163.4V118.79l43.06-.27,3.87-10.41H255l3.45,10.28,7.34.08Zm-95.24-7.16h88.08V125.56l-5.34-.06-3.44-10.22H215.3l-3.85,10.37-40.88.25Z"/><polygon class="cls-5" points="204.39 115.28 163.46 115.28 163.46 108.11 206.83 108.11 204.39 115.28"/><polygon class="cls-4" points="271.02 272.3 157.11 272.3 100.16 370.95 157.11 469.59 271.02 469.59 327.97 370.95 271.02 272.3"/><polygon class="cls-4" points="271.02 522.61 157.11 522.61 100.16 621.26 157.11 719.9 271.02 719.9 327.97 621.26 271.02 522.61"/><path class="cls-5" d="M263.11,329.27v-.11l-.32-.63c-2.09-4.12-7.23-6.89-16.69-9-8.62-1.88-20-2.93-32-2.93l-3.56,0h-.31c-3.1.07-5.19.16-6.95.27l-2.71.16c-2.13.13-4.22.32-6.28.54l-1.25.15-1.88.23c-2.69.37-5,.74-7,1.12l-.44.09-.95.2-.73.16c-1.94.43-3.7.88-5.28,1.37-.38.11-.76.24-1.12.36a28.3,28.3,0,0,0-4.91,2.12,12.34,12.34,0,0,0-5.34,5.09,9.1,9.1,0,0,0-1,4.17v84.91l3.28,1.74c.55.32,14.44,8,45.11,8,29,0,45.47-7,47.26-7.78l3.73-1.66V332.7A9.25,9.25,0,0,0,263.11,329.27Zm-61,.75,1.61-.1c2.36-.14,4.6-.22,6.68-.24,1.22,0,2.48,0,3.7,0a148.89,148.89,0,0,1,28.73,2.47c.91.19,1.78.39,2.58.59-.82.19-1.67.39-2.58.57a145.43,145.43,0,0,1-28.3,2.5c-1.38,0-2.76,0-4.18,0-1.93,0-4.06-.1-6.65-.25-1.54-.08-3.07-.19-4.57-.32-2.37-.18-4.69-.43-6.88-.71l-2-.28L189,334c-.86-.14-1.68-.28-2.48-.44l-1-.2-2.68-.64c.63-.16,1.28-.31,2-.46l.51-.11.3-.07c1-.2,2.07-.39,3.2-.58s2.15-.33,3.35-.5C195.23,330.55,198.54,330.24,202.07,330Zm49.49,79c-6.18,2-19.42,5.37-38.8,5.37-19,0-30.78-3.21-36.18-5.16V396.35a133.66,133.66,0,0,0,38.07,5.37,136.9,136.9,0,0,0,36.91-5Zm0-25.83a122.33,122.33,0,0,1-36.91,5.56,119,119,0,0,1-38.07-6V370.22a133,133,0,0,0,38.07,5.39,136,136,0,0,0,36.91-5Zm0-26.11a125.5,125.5,0,0,1-66.29,2.08c-3.3-.8-6-1.64-8.09-2.34-.21-.06-.4-.14-.6-.2V344.41c1.63.5,3.43,1,5.43,1.4l1.25.29.83.16,1.57.28h0c1.63.28,3.41.55,5.43.82,3.3.46,6.82.79,10.51,1h0c.52,0,1,.08,1.58.1,2.25.13,4.48.21,7,.25h.25c1.18,0,2.38,0,3.57,0,12,0,23.42-1,32-3,2-.43,3.83-.9,5.46-1.4Z"/><path class="cls-6" d="M506.34,345.77V304.52h24.4v9.65h-13.4v6.1h12.8v9.65h-12.8v6.2h13.4v9.65Z"/><path class="cls-6" d="M543.66,345.77v-31.6h-9v-9.65h29v9.65h-9v31.6Z"/><path class="cls-6" d="M568.29,345.77V304.52h11v31.6h13.3v9.65Z"/><path class="cls-6" d="M803.56,318.67V303.82h3.35a7.55,7.55,0,0,1,2.94.57,7.26,7.26,0,0,1,2.38,1.57,7.57,7.57,0,0,1,1.6,2.37,7.76,7.76,0,0,1,0,5.84,7,7,0,0,1-1.58,2.36,7.43,7.43,0,0,1-2.39,1.58,7.75,7.75,0,0,1-3,.56Zm1.37-1.22h1.86a6.13,6.13,0,0,0,2.43-.48,6,6,0,0,0,3.27-3.28,6.59,6.59,0,0,0,0-4.89,6.12,6.12,0,0,0-1.31-2,6,6,0,0,0-2-1.31,6.13,6.13,0,0,0-2.43-.48h-1.86Z"/><path class="cls-6" d="M816.86,318.67l5.85-14.85H824l5.84,14.85h-1.48l-1.81-4.73h-6.38l-1.83,4.73Zm3.75-5.94h5.45l-2.72-7.11Z"/><path class="cls-6" d="M835.47,318.67V305.06h-4.53v-1.24h10.44v1.24h-4.54v13.61Z"/><path class="cls-6" d="M842.48,318.67l5.85-14.85h1.27l5.84,14.85H854l-1.81-4.73h-6.38L844,318.67Zm3.75-5.94h5.46L849,305.62Z"/><path class="cls-6" d="M858.21,318.67V303.82h3.14a5.2,5.2,0,0,1,3.37,1,3.73,3.73,0,0,1-.94,6.13,4.15,4.15,0,0,1,2.56,1.21,3.62,3.62,0,0,1,.9,2.56,3.94,3.94,0,0,1-.56,2.14,3.54,3.54,0,0,1-1.6,1.37,6.11,6.11,0,0,1-2.49.47Zm1.37-8.17h1.53a4,4,0,0,0,2.6-.73,2.81,2.81,0,0,0,0-4.14,4.09,4.09,0,0,0-2.6-.72h-1.53Zm0,7.05h2.65a4.18,4.18,0,0,0,2.67-.75,2.57,2.57,0,0,0,.94-2.15,2.65,2.65,0,0,0-.94-2.17,4.12,4.12,0,0,0-2.67-.78h-2.65Z"/><path class="cls-6" d="M869.07,318.67l5.85-14.85h1.27L882,318.67h-1.48l-1.81-4.73h-6.38l-1.83,4.73Zm3.75-5.94h5.45l-2.72-7.11Z"/><path class="cls-6" d="M888.78,319a5.5,5.5,0,0,1-2-.35,5.67,5.67,0,0,1-1.48-.84,5.52,5.52,0,0,1-1-1c-.24-.31-.41-.54-.51-.7l.78-1,.49.68a5.7,5.7,0,0,0,.85.86,4.62,4.62,0,0,0,1.23.74,4.28,4.28,0,0,0,1.66.3,4.05,4.05,0,0,0,1.65-.33,2.74,2.74,0,0,0,1.19-1,3,3,0,0,0,.14-2.93,3,3,0,0,0-.86-.94,6.85,6.85,0,0,0-1.26-.69c-.47-.2-1-.39-1.48-.59-.36-.13-.73-.3-1.13-.49a5.16,5.16,0,0,1-1.1-.71,3.26,3.26,0,0,1-.83-1,3.19,3.19,0,0,1-.32-1.47,3.94,3.94,0,0,1,.3-1.53,4.12,4.12,0,0,1,.86-1.28,4,4,0,0,1,1.31-.87,4.44,4.44,0,0,1,1.7-.31,4.5,4.5,0,0,1,1.63.29,5,5,0,0,1,1.31.74,3.71,3.71,0,0,1,.87.92l-.7.95a3.41,3.41,0,0,0-.7-.8,3.77,3.77,0,0,0-1.06-.61,3.59,3.59,0,0,0-1.34-.24,2.89,2.89,0,0,0-1.57.4,2.57,2.57,0,0,0-1,1,2.65,2.65,0,0,0-.34,1.32,2.12,2.12,0,0,0,.26,1.07,2.47,2.47,0,0,0,.7.74,5.39,5.39,0,0,0,1,.52c.34.14.69.28,1,.4q.87.33,1.68.69a7,7,0,0,1,1.43.86,3.81,3.81,0,0,1,1,1.22,3.68,3.68,0,0,1,.37,1.73,4,4,0,0,1-.63,2.27,4.1,4.1,0,0,1-1.7,1.43A5.88,5.88,0,0,1,888.78,319Z"/><path class="cls-6" d="M897.37,318.67V303.82h7.48V305h-6.11v5.59h5.89v1.21h-5.89v5.63h6.11v1.21Z"/><path class="cls-6" d="M157.47,71.85a6.29,6.29,0,0,1-2.59-.53,6.75,6.75,0,0,1-2.12-1.46,7.12,7.12,0,0,1-1.43-7.53,7.11,7.11,0,0,1,1.43-2.18,7,7,0,0,1,2.12-1.47,6.44,6.44,0,0,1,2.59-.52,6.38,6.38,0,0,1,2.59.52,6.88,6.88,0,0,1,2.13,1.47,7.08,7.08,0,0,1,1.42,2.18,7.11,7.11,0,0,1,0,5.34,7,7,0,0,1-1.42,2.19,6.68,6.68,0,0,1-2.13,1.46A6.22,6.22,0,0,1,157.47,71.85Zm0-1.17a5.06,5.06,0,0,0,2.1-.44,5.31,5.31,0,0,0,1.7-1.2,5.56,5.56,0,0,0,1.14-1.81,6.24,6.24,0,0,0,0-4.45A5.56,5.56,0,0,0,161.27,61a5.5,5.5,0,0,0-1.7-1.21,5.34,5.34,0,0,0-4.2,0,5.5,5.5,0,0,0-1.7,1.21,5.92,5.92,0,0,0-1.14,1.81,6.24,6.24,0,0,0,0,4.45A5.92,5.92,0,0,0,153.67,69a5.31,5.31,0,0,0,1.7,1.2A5.1,5.1,0,0,0,157.47,70.68Z"/><path class="cls-6" d="M167.62,71.6V58.4h3.43a5.33,5.33,0,0,1,2.24.44,3.38,3.38,0,0,1,1.46,1.28,3.79,3.79,0,0,1,.52,2,4,4,0,0,1-.52,2,3.49,3.49,0,0,1-1.46,1.36,4.9,4.9,0,0,1-2.24.48h-2.21v5.6ZM168.84,65h1.92a4,4,0,0,0,1.73-.34,2.7,2.7,0,0,0,1.13-1,2.85,2.85,0,0,0,.4-1.5,2.75,2.75,0,0,0-.4-1.5,2.57,2.57,0,0,0-1.13-.95,4.38,4.38,0,0,0-1.73-.32h-1.92Z"/><path class="cls-6" d="M178.58,71.6V58.4h6.65v1.07h-5.44v5H185v1.08h-5.24v5h5.44V71.6Z"/><path class="cls-6" d="M188.79,71.6V58.4h3.42a5.33,5.33,0,0,1,2.24.44,3.34,3.34,0,0,1,1.46,1.29,3.76,3.76,0,0,1,.52,2A3.92,3.92,0,0,1,196,64a3.44,3.44,0,0,1-1.23,1.31,4.31,4.31,0,0,1-1.89.61l4.39,5.68h-1.55L191.51,66H190V71.6ZM190,65h1.92a4.06,4.06,0,0,0,1.74-.34,2.62,2.62,0,0,0,1.12-1,2.76,2.76,0,0,0,.4-1.5,2.53,2.53,0,0,0-.87-2,3.56,3.56,0,0,0-2.39-.73H190Z"/><path class="cls-6" d="M198.68,71.6l5.2-13.2H205l5.19,13.2h-1.31l-1.61-4.21h-5.67L200,71.6ZM202,66.32h4.84L204.44,60Z"/><path class="cls-6" d="M215.23,71.6V59.5h-4V58.4h9.28v1.1h-4V71.6Z"/><path class="cls-6" d="M223.51,71.6V58.4h1.22V71.6Z"/><path class="cls-6" d="M234.88,71.85a6.25,6.25,0,0,1-2.59-.53,6.64,6.64,0,0,1-2.12-1.46,6.86,6.86,0,0,1-1.43-2.19,7,7,0,0,1,1.43-7.52,6.83,6.83,0,0,1,2.12-1.47,6.71,6.71,0,0,1,5.18,0,6.83,6.83,0,0,1,2.12,1.47,7,7,0,0,1,0,9.71,6.64,6.64,0,0,1-2.12,1.46A6.25,6.25,0,0,1,234.88,71.85Zm0-1.17a5.1,5.1,0,0,0,2.1-.44,5.31,5.31,0,0,0,1.7-1.2,5.92,5.92,0,0,0,1.14-1.81,6.39,6.39,0,0,0,0-4.45A5.92,5.92,0,0,0,238.68,61a5.5,5.5,0,0,0-1.7-1.21,5.34,5.34,0,0,0-4.2,0,5.39,5.39,0,0,0-1.7,1.21,5.73,5.73,0,0,0-1.14,1.81,6.24,6.24,0,0,0,0,4.45A5.73,5.73,0,0,0,231.08,69a5.2,5.2,0,0,0,1.7,1.2A5.1,5.1,0,0,0,234.88,70.68Z"/><path class="cls-6" d="M245,71.6V58.4h1.22l7.09,11.12V58.4h1.21V71.6h-1.21l-7.09-11.12V71.6Z"/><path class="cls-6" d="M257.57,71.6l5.2-13.2h1.13l5.19,13.2h-1.31l-1.61-4.21H260.5l-1.63,4.21Zm3.33-5.28h4.85L263.33,60Z"/><path class="cls-6" d="M272.11,71.6V58.4h1.22V70.52h5.53V71.6Z"/><path class="cls-6" d="M180.47,91.05a4.71,4.71,0,0,1-1.8-.31,4.89,4.89,0,0,1-1.32-.74,5.89,5.89,0,0,1-.87-.85q-.31-.42-.45-.63l.7-.89c.1.15.24.35.44.6a5.25,5.25,0,0,0,.74.77,4.23,4.23,0,0,0,1.1.66,4,4,0,0,0,1.48.26,3.49,3.49,0,0,0,1.46-.29,2.46,2.46,0,0,0,1.06-.85,2.37,2.37,0,0,0,.4-1.41,2.3,2.3,0,0,0-.28-1.19,2.53,2.53,0,0,0-.76-.84,6.24,6.24,0,0,0-1.12-.61c-.42-.18-.85-.36-1.31-.53s-.66-.26-1-.43a4.71,4.71,0,0,1-1-.64,3,3,0,0,1-.74-.92,2.79,2.79,0,0,1-.28-1.31,3.47,3.47,0,0,1,.27-1.36,3.56,3.56,0,0,1,1.93-1.91,4,4,0,0,1,1.5-.27,3.83,3.83,0,0,1,1.46.26,4.48,4.48,0,0,1,1.16.65,3.42,3.42,0,0,1,.77.82l-.62.84a3.06,3.06,0,0,0-.62-.7,3.23,3.23,0,0,0-.94-.55,3.29,3.29,0,0,0-1.2-.21,2.66,2.66,0,0,0-1.39.35,2.27,2.27,0,0,0-.86.91,2.43,2.43,0,0,0-.3,1.17,1.88,1.88,0,0,0,.23.95,2.16,2.16,0,0,0,.62.66,4.22,4.22,0,0,0,.84.46q.47.19.93.36c.51.19,1,.4,1.49.61a6.6,6.6,0,0,1,1.27.77,3.14,3.14,0,0,1,1.22,2.62,3.58,3.58,0,0,1-.56,2,3.68,3.68,0,0,1-1.51,1.27A5.13,5.13,0,0,1,180.47,91.05Z"/><path class="cls-6" d="M189.82,90.8V85.08l-4.53-7.48h1.46l3.68,6.18,3.68-6.18h1.47L191,85.08V90.8Z"/><path class="cls-6" d="M201,91.05a4.78,4.78,0,0,1-1.8-.31,5,5,0,0,1-1.31-.74,5.89,5.89,0,0,1-.87-.85q-.31-.42-.45-.63l.7-.89c.09.15.24.35.43.6a6,6,0,0,0,.75.77,4.07,4.07,0,0,0,1.1.66,4,4,0,0,0,1.48.26,3.49,3.49,0,0,0,1.46-.29A2.32,2.32,0,0,0,204,87.37a2.41,2.41,0,0,0-.28-1.19,2.53,2.53,0,0,0-.76-.84,6.24,6.24,0,0,0-1.12-.61c-.42-.18-.86-.36-1.32-.53s-.65-.26-1-.43a4.47,4.47,0,0,1-1-.64,3,3,0,0,1-.74-.92,2.79,2.79,0,0,1-.28-1.31,3.49,3.49,0,0,1,1-2.49,3.43,3.43,0,0,1,1.17-.78,4,4,0,0,1,1.5-.27,3.87,3.87,0,0,1,1.46.26,4.48,4.48,0,0,1,1.16.65,3.64,3.64,0,0,1,.77.82l-.62.84a2.89,2.89,0,0,0-.63-.7,3.11,3.11,0,0,0-.94-.55,3.23,3.23,0,0,0-1.19-.21,2.63,2.63,0,0,0-1.39.35,2.37,2.37,0,0,0-.87.91,2.42,2.42,0,0,0-.29,1.17,1.78,1.78,0,0,0,.23.95,2.13,2.13,0,0,0,.61.66,4.61,4.61,0,0,0,.85.46c.31.13.61.25.92.36.52.19,1,.4,1.49.61a6.39,6.39,0,0,1,1.28.77,3.43,3.43,0,0,1,.89,1.08,3.31,3.31,0,0,1,.33,1.54,3.58,3.58,0,0,1-.56,2,3.71,3.71,0,0,1-1.52,1.27A5.1,5.1,0,0,1,201,91.05Z"/><path class="cls-6" d="M210.67,90.8V78.7h-4V77.6h9.28v1.1h-4V90.8Z"/><path class="cls-6" d="M219,90.8V77.6h6.65v1.07h-5.43v5h5.24v1.07h-5.24v5h5.43V90.8Z"/><path class="cls-6" d="M228.42,90.8l1.71-13.2h1.29l3.88,10.32,3.88-10.32h1.29l1.71,13.2H241L239.5,79.86,235.74,90h-.88L231.1,79.86,229.63,90.8Z"/><path class="cls-6" d="M248.71,91.05a4.78,4.78,0,0,1-1.8-.31A5,5,0,0,1,245.6,90a5.89,5.89,0,0,1-.87-.85q-.31-.42-.45-.63l.7-.89c.09.15.24.35.43.6a6,6,0,0,0,.75.77,4.07,4.07,0,0,0,1.1.66,4,4,0,0,0,1.48.26,3.49,3.49,0,0,0,1.46-.29,2.32,2.32,0,0,0,1.46-2.26,2.41,2.41,0,0,0-.28-1.19,2.53,2.53,0,0,0-.76-.84,6.24,6.24,0,0,0-1.12-.61c-.42-.18-.86-.36-1.32-.53s-.65-.26-1-.43a4.47,4.47,0,0,1-1-.64,3,3,0,0,1-.74-.92,2.79,2.79,0,0,1-.28-1.31,3.49,3.49,0,0,1,1-2.49,3.43,3.43,0,0,1,1.17-.78,4,4,0,0,1,1.5-.27,3.87,3.87,0,0,1,1.46.26,4.48,4.48,0,0,1,1.16.65,3.64,3.64,0,0,1,.77.82l-.62.84a2.89,2.89,0,0,0-.63-.7,3.11,3.11,0,0,0-.94-.55,3.23,3.23,0,0,0-1.19-.21,2.63,2.63,0,0,0-1.39.35,2.37,2.37,0,0,0-.87.91,2.42,2.42,0,0,0-.29,1.17,1.78,1.78,0,0,0,.23.95,2.13,2.13,0,0,0,.61.66A4.61,4.61,0,0,0,248,83c.3.13.61.25.92.36.52.19,1,.4,1.49.61a6.39,6.39,0,0,1,1.28.77,3.43,3.43,0,0,1,.89,1.08,3.31,3.31,0,0,1,.33,1.54,3.58,3.58,0,0,1-.56,2,3.71,3.71,0,0,1-1.52,1.27A5.1,5.1,0,0,1,248.71,91.05Z"/><path class="cls-6" d="M180.31,567.45a4.78,4.78,0,0,1-1.8-.31,5,5,0,0,1-1.31-.74,5.43,5.43,0,0,1-.87-.85q-.32-.42-.45-.63l.7-.89c.09.15.24.35.43.6a5.38,5.38,0,0,0,.75.77,4.23,4.23,0,0,0,1.1.66,3.8,3.8,0,0,0,1.48.26,3.65,3.65,0,0,0,1.46-.28,2.56,2.56,0,0,0,1.06-.86,2.37,2.37,0,0,0,.4-1.41,2.3,2.3,0,0,0-.28-1.19,2.53,2.53,0,0,0-.76-.84,6.24,6.24,0,0,0-1.12-.61c-.42-.18-.85-.35-1.31-.53s-.66-.26-1-.43a5.1,5.1,0,0,1-1-.63,3.07,3.07,0,0,1-.74-.93,2.79,2.79,0,0,1-.28-1.31,3.47,3.47,0,0,1,.27-1.36,3.63,3.63,0,0,1,.76-1.13A3.45,3.45,0,0,1,179,554a4.19,4.19,0,0,1,3,0,4.48,4.48,0,0,1,1.16.65,3.42,3.42,0,0,1,.77.82l-.62.84a3.06,3.06,0,0,0-.62-.7,3.23,3.23,0,0,0-.94-.55,3.29,3.29,0,0,0-1.2-.21,2.66,2.66,0,0,0-1.39.35,2.44,2.44,0,0,0-.87.91,2.53,2.53,0,0,0-.29,1.17,1.88,1.88,0,0,0,.23,1,2.16,2.16,0,0,0,.62.66,4.22,4.22,0,0,0,.84.46l.92.36c.52.19,1,.4,1.5.61a6.6,6.6,0,0,1,1.27.77,3.14,3.14,0,0,1,1.22,2.62,3.44,3.44,0,0,1-2.07,3.29A5.18,5.18,0,0,1,180.31,567.45Z"/><path class="cls-6" d="M188,567.2V554h6.65v1.07h-5.43v5h5.24v1.07h-5.24v5h5.43v1.07Z"/><path class="cls-6" d="M198.16,567.2V554h3.43a5.33,5.33,0,0,1,2.24.44,3.4,3.4,0,0,1,1.46,1.29,3.75,3.75,0,0,1,.51,2,3.92,3.92,0,0,1-.43,1.88,3.39,3.39,0,0,1-1.24,1.31,4.18,4.18,0,0,1-1.89.61l4.39,5.68h-1.54l-4.21-5.56h-1.5v5.56Zm1.22-6.62h1.92a4,4,0,0,0,1.73-.34,2.65,2.65,0,0,0,1.13-1,2.84,2.84,0,0,0,.39-1.5,2.52,2.52,0,0,0-.86-2,3.58,3.58,0,0,0-2.39-.73h-1.92Z"/><path class="cls-6" d="M213.59,567.2,208.05,554h1.38l4.64,11.36L218.7,554h1.37l-5.53,13.2Z"/><path class="cls-6" d="M223.08,567.2V554h6.65v1.07H224.3v5h5.24v1.07H224.3v5h5.43v1.07Z"/><path class="cls-6" d="M233.29,567.2V554h3.42a5.29,5.29,0,0,1,2.24.44,3.34,3.34,0,0,1,1.46,1.29,3.67,3.67,0,0,1,.52,2,3.92,3.92,0,0,1-.44,1.88,3.44,3.44,0,0,1-1.23,1.31,4.18,4.18,0,0,1-1.89.61l4.39,5.68h-1.54L236,561.64h-1.5v5.56Zm1.22-6.62h1.92a4,4,0,0,0,1.73-.34,2.65,2.65,0,0,0,1.13-1,2.84,2.84,0,0,0,.39-1.5,2.55,2.55,0,0,0-.86-2,3.59,3.59,0,0,0-2.39-.73h-1.92Z"/><path class="cls-6" d="M247.77,567.45a4.78,4.78,0,0,1-1.8-.31,4.89,4.89,0,0,1-1.32-.74,5.33,5.33,0,0,1-.86-.85,5.93,5.93,0,0,1-.45-.63L244,564c.1.15.24.35.44.6a4.48,4.48,0,0,0,.75.77,4.16,4.16,0,0,0,1.09.66,3.8,3.8,0,0,0,1.48.26,3.62,3.62,0,0,0,1.46-.28,2.5,2.5,0,0,0,1.06-.86,2.37,2.37,0,0,0,.4-1.41,2.41,2.41,0,0,0-.27-1.19,2.57,2.57,0,0,0-.77-.84,5.82,5.82,0,0,0-1.11-.61c-.42-.18-.86-.35-1.32-.53s-.65-.26-1-.43a4.81,4.81,0,0,1-1-.63,2.93,2.93,0,0,1-.74-.93,2.79,2.79,0,0,1-.29-1.31,3.31,3.31,0,0,1,.28-1.36,3.46,3.46,0,0,1,.76-1.13,3.32,3.32,0,0,1,1.16-.77,3.9,3.9,0,0,1,1.51-.28,3.78,3.78,0,0,1,1.45.26,4.54,4.54,0,0,1,1.17.65,3.64,3.64,0,0,1,.77.82l-.62.84a2.89,2.89,0,0,0-.63-.7,3.23,3.23,0,0,0-.94-.55,3.27,3.27,0,0,0-1.19-.21,2.63,2.63,0,0,0-1.39.35,2.44,2.44,0,0,0-1.17,2.08,1.79,1.79,0,0,0,.24,1,2.13,2.13,0,0,0,.61.66,4.61,4.61,0,0,0,.85.46c.3.13.61.25.92.36.52.19,1,.4,1.49.61a6.69,6.69,0,0,1,1.28.77,3.1,3.1,0,0,1,1.21,2.62,3.5,3.5,0,0,1-.56,2,3.55,3.55,0,0,1-1.51,1.27A5.1,5.1,0,0,1,247.77,567.45Z"/><path class="cls-6" d="M29.29,283.48V268.63h7.48v1.2H30.65v5.6h5.9v1.21h-5.9v5.63h6.12v1.21Z"/><path class="cls-6" d="M40.77,283.48V268.63h3.35a7.55,7.55,0,0,1,2.94.56,7.44,7.44,0,0,1,2.38,1.58A7.33,7.33,0,0,1,51,273.13,7.73,7.73,0,0,1,51,279a7.33,7.33,0,0,1-1.59,2.36,7.26,7.26,0,0,1-2.38,1.57,7.6,7.6,0,0,1-3,.57Zm1.37-1.23H44a6.31,6.31,0,0,0,2.44-.47,6.1,6.1,0,0,0,2-1.32,5.91,5.91,0,0,0,1.31-2,6.57,6.57,0,0,0,0-4.88,6.12,6.12,0,0,0-1.31-2,6.2,6.2,0,0,0-2-1.32,6.3,6.3,0,0,0-2.43-.47H42.14Z"/><path class="cls-6" d="M54.67,283.48l1.92-14.85H58l4.37,11.62,4.37-11.62h1.45l1.93,14.85H68.79l-1.65-12.31-4.24,11.4h-1l-4.24-11.4L56,283.48Z"/><path class="cls-6" d="M77.5,283.76a5.54,5.54,0,0,1-2-.34,5.67,5.67,0,0,1-1.48-.84,6.3,6.3,0,0,1-1-1c-.24-.31-.41-.54-.51-.7l.79-1a7,7,0,0,0,.49.68,6.14,6.14,0,0,0,.84.87,4.6,4.6,0,0,0,1.23.73,4.32,4.32,0,0,0,1.67.31,4,4,0,0,0,1.64-.33,2.81,2.81,0,0,0,1.19-1,2.71,2.71,0,0,0,.45-1.59,2.68,2.68,0,0,0-.31-1.34,2.85,2.85,0,0,0-.86-.94,6.75,6.75,0,0,0-1.25-.69c-.48-.2-1-.4-1.48-.59s-.74-.3-1.13-.49a5.65,5.65,0,0,1-1.11-.71,3.38,3.38,0,0,1-.83-1,3.2,3.2,0,0,1-.32-1.48,3.77,3.77,0,0,1,.31-1.53,4,4,0,0,1,.85-1.27,4,4,0,0,1,1.32-.87,4.77,4.77,0,0,1,3.33,0,5.06,5.06,0,0,1,1.31.74,3.67,3.67,0,0,1,.86.92l-.7.94a3.37,3.37,0,0,0-.7-.79,3.55,3.55,0,0,0-1.06-.61,3.59,3.59,0,0,0-1.34-.24,2.91,2.91,0,0,0-1.56.39,2.73,2.73,0,0,0-1,1,2.81,2.81,0,0,0-.33,1.32,2,2,0,0,0,.26,1.07,2.25,2.25,0,0,0,.69.75,4.78,4.78,0,0,0,1,.51c.34.15.69.28,1,.41.58.22,1.14.44,1.68.69a7,7,0,0,1,1.43.86,3.58,3.58,0,0,1,1,1.22,3.66,3.66,0,0,1,.37,1.73,3.84,3.84,0,0,1-2.33,3.69A5.69,5.69,0,0,1,77.5,283.76Z"/><path class="cls-6" d="M1142.08,314.58v-13.2h3a6.69,6.69,0,0,1,2.62.51,6.53,6.53,0,0,1,3.53,3.5,6.59,6.59,0,0,1,.51,2.6,6.72,6.72,0,0,1-.5,2.59,6.44,6.44,0,0,1-1.42,2.1,6.37,6.37,0,0,1-2.12,1.4,6.65,6.65,0,0,1-2.62.5Zm1.21-1.08h1.65a5.56,5.56,0,0,0,2.17-.42,5.44,5.44,0,0,0,1.74-1.17,5.3,5.3,0,0,0,1.16-1.75,5.61,5.61,0,0,0,.42-2.18,5.51,5.51,0,0,0-.42-2.16,5.24,5.24,0,0,0-1.16-1.76,5.38,5.38,0,0,0-1.75-1.17,5.47,5.47,0,0,0-2.16-.42h-1.65Z"/><path class="cls-6" d="M1153.89,314.58l5.2-13.2h1.13l5.19,13.2h-1.31l-1.61-4.2h-5.67l-1.62,4.2Zm3.34-5.28h4.85l-2.43-6.32Z"/><path class="cls-6" d="M1170.44,314.58V302.49h-4v-1.11h9.28v1.11h-4v12.09Z"/><path class="cls-6" d="M1176.67,314.58l5.2-13.2H1183l5.19,13.2h-1.31l-1.61-4.2h-5.67l-1.63,4.2Zm3.34-5.28h4.84l-2.42-6.32Z"/><path class="cls-6" d="M1101.76,333.78l-5.53-13.2h1.37l4.64,11.37,4.63-11.37h1.38l-5.53,13.2Z"/><path class="cls-6" d="M1111.26,333.78v-13.2h1.22v13.2Z"/><path class="cls-6" d="M1119.75,334a4.78,4.78,0,0,1-1.8-.31,5,5,0,0,1-1.31-.74,5.46,5.46,0,0,1-.87-.86c-.21-.27-.36-.48-.45-.62l.7-.89c.09.14.24.35.43.6a6,6,0,0,0,.75.77,4.21,4.21,0,0,0,1.1.65,3.79,3.79,0,0,0,1.48.27,3.49,3.49,0,0,0,1.46-.29,2.32,2.32,0,0,0,1.46-2.26,2.37,2.37,0,0,0-.28-1.2,2.6,2.6,0,0,0-.76-.83,6.27,6.27,0,0,0-1.12-.62c-.42-.17-.85-.35-1.31-.52s-.66-.27-1-.43a4.71,4.71,0,0,1-1-.64,3,3,0,0,1-.74-.92,2.79,2.79,0,0,1-.28-1.31,3.44,3.44,0,0,1,.27-1.36,3.67,3.67,0,0,1,.76-1.14,3.78,3.78,0,0,1,1.17-.77,4.19,4.19,0,0,1,3,0,4.81,4.81,0,0,1,1.16.66,3.25,3.25,0,0,1,.77.82l-.62.84a3.1,3.1,0,0,0-.62-.71,3.45,3.45,0,0,0-.94-.54,3.29,3.29,0,0,0-1.2-.21,2.56,2.56,0,0,0-1.39.35,2.35,2.35,0,0,0-.87.9,2.6,2.6,0,0,0-.29,1.18,1.88,1.88,0,0,0,.23.95,2.16,2.16,0,0,0,.62.66,4.22,4.22,0,0,0,.84.46l.92.36c.52.19,1,.39,1.5.61a6.13,6.13,0,0,1,1.27.77,3.14,3.14,0,0,1,1.22,2.62,3.41,3.41,0,0,1-2.07,3.28A5.18,5.18,0,0,1,1119.75,334Z"/><path class="cls-6" d="M1131.78,334a4.44,4.44,0,0,1-3.43-1.25,5.33,5.33,0,0,1-1.15-3.74v-8.47h1.22v8.21a4.74,4.74,0,0,0,.83,3,3.13,3.13,0,0,0,2.53,1,3.09,3.09,0,0,0,2.51-1,4.68,4.68,0,0,0,.84-3v-8.21h1.22v8.47a5.38,5.38,0,0,1-1.14,3.74A4.45,4.45,0,0,1,1131.78,334Z"/><path class="cls-6" d="M1139.17,333.78l5.2-13.2h1.13l5.19,13.2h-1.31l-1.61-4.2h-5.67l-1.63,4.2Zm3.34-5.28h4.84l-2.42-6.32Z"/><path class="cls-6" d="M1153.71,333.78v-13.2h1.22v12.13h5.53v1.07Z"/><path class="cls-6" d="M1163.5,333.78v-13.2h1.21v13.2Z"/><path class="cls-6" d="M1172,334a4.78,4.78,0,0,1-1.8-.31,5,5,0,0,1-1.31-.74,5.46,5.46,0,0,1-.87-.86c-.21-.27-.36-.48-.45-.62l.7-.89c.09.14.24.35.43.6a6,6,0,0,0,.75.77,4.21,4.21,0,0,0,1.1.65,3.76,3.76,0,0,0,1.48.27,3.49,3.49,0,0,0,1.46-.29,2.32,2.32,0,0,0,1.46-2.26,2.37,2.37,0,0,0-.28-1.2,2.6,2.6,0,0,0-.76-.83,6.27,6.27,0,0,0-1.12-.62l-1.31-.52c-.32-.12-.66-.27-1-.43a4.71,4.71,0,0,1-1-.64,3,3,0,0,1-.74-.92,2.79,2.79,0,0,1-.28-1.31,3.44,3.44,0,0,1,.27-1.36,3.5,3.5,0,0,1,.76-1.14,3.56,3.56,0,0,1,1.17-.77,4,4,0,0,1,1.5-.28,4.07,4.07,0,0,1,1.46.26,4.81,4.81,0,0,1,1.16.66,3.44,3.44,0,0,1,.77.82l-.62.84a3.1,3.1,0,0,0-.62-.71,3.36,3.36,0,0,0-1-.54,3.19,3.19,0,0,0-1.19-.21,2.56,2.56,0,0,0-1.39.35,2.35,2.35,0,0,0-.87.9,2.6,2.6,0,0,0-.29,1.18,1.78,1.78,0,0,0,.23.95,2.05,2.05,0,0,0,.62.66,4.22,4.22,0,0,0,.84.46c.31.13.61.25.92.36.52.19,1,.39,1.5.61a6.13,6.13,0,0,1,1.27.77,3.43,3.43,0,0,1,.89,1.08,3.31,3.31,0,0,1,.33,1.54,3.58,3.58,0,0,1-.56,2,3.65,3.65,0,0,1-1.51,1.26A5.18,5.18,0,0,1,1172,334Z"/><path class="cls-6" d="M1178.34,333.78l5.2-13.2h1.13l5.19,13.2h-1.31l-1.61-4.2h-5.67l-1.62,4.2Zm3.34-5.28h4.85l-2.43-6.32Z"/><path class="cls-6" d="M1194.89,333.78V321.69h-4v-1.11h9.28v1.11h-4v12.09Z"/><path class="cls-6" d="M1203.18,333.78v-13.2h1.21v13.2Z"/><path class="cls-6" d="M1214.54,334a6.45,6.45,0,0,1-2.59-.53,6.62,6.62,0,0,1-2.12-1.47,6.87,6.87,0,0,1-1.43-2.18,7,7,0,0,1,1.43-7.52,6.62,6.62,0,0,1,2.12-1.47,6.62,6.62,0,0,1,5.19,0,6.62,6.62,0,0,1,2.12,1.47,7,7,0,0,1,1.42,2.18,7,7,0,0,1-1.42,7.52,6.62,6.62,0,0,1-2.12,1.47A6.46,6.46,0,0,1,1214.54,334Zm0-1.18a5.06,5.06,0,0,0,2.1-.43,5.34,5.34,0,0,0,1.7-1.21,5.52,5.52,0,0,0,1.14-1.8,6.24,6.24,0,0,0,0-4.45,5.56,5.56,0,0,0-1.14-1.81,5.34,5.34,0,0,0-1.7-1.21,5.34,5.34,0,0,0-4.2,0,5.34,5.34,0,0,0-1.7,1.21,5.92,5.92,0,0,0-1.14,1.81,6.24,6.24,0,0,0,0,4.45,5.87,5.87,0,0,0,1.14,1.8,5.34,5.34,0,0,0,1.7,1.21A5.09,5.09,0,0,0,1214.54,332.86Z"/><path class="cls-6" d="M1224.7,333.78v-13.2h1.21l7.09,11.13V320.58h1.22v13.2H1233l-7.09-11.11v11.11Z"/><path class="cls-6" d="M1348.67,196.75v-13.2h3a6.67,6.67,0,0,1,2.61.51,6.48,6.48,0,0,1,2.12,1.4,6.58,6.58,0,0,1,1.41,2.1,6.42,6.42,0,0,1,.52,2.6,6.54,6.54,0,0,1-.51,2.59,6.45,6.45,0,0,1-3.53,3.5,6.68,6.68,0,0,1-2.62.5Zm1.22-1.09h1.65a5.47,5.47,0,0,0,2.16-.42,5.35,5.35,0,0,0,1.75-1.16,5.72,5.72,0,0,0,1.16-6.1,5.63,5.63,0,0,0-1.16-1.75,5.49,5.49,0,0,0-1.75-1.17,5.54,5.54,0,0,0-2.16-.42h-1.65Z"/><path class="cls-6" d="M1360.49,196.75l5.2-13.2h1.13l5.19,13.2h-1.31l-1.61-4.21h-5.67l-1.63,4.21Zm3.34-5.28h4.84l-2.42-6.32Z"/><path class="cls-6" d="M1377,196.75V184.66h-4v-1.11h9.28v1.11h-4v12.09Z"/><path class="cls-6" d="M1383.27,196.75l5.2-13.2h1.12l5.19,13.2h-1.31l-1.61-4.21h-5.67l-1.62,4.21Zm3.33-5.28h4.85l-2.43-6.32Z"/><path class="cls-6" d="M1321.41,216l5.2-13.2h1.13l5.19,13.2h-1.31l-1.61-4.21h-5.67l-1.63,4.21Zm3.34-5.28h4.84l-2.42-6.32Z"/><path class="cls-6" d="M1336,216v-13.2h1.22l7.09,11.13V202.75h1.21V216h-1.21l-7.09-11.11V216Z"/><path class="cls-6" d="M1348.49,216l5.2-13.2h1.13L1360,216h-1.31l-1.61-4.21h-5.67l-1.63,4.21Zm3.34-5.28h4.84l-2.42-6.32Z"/><path class="cls-6" d="M1363,216v-13.2h1.22v12.13h5.53V216Z"/><path class="cls-6" d="M1374.73,216v-5.72l-4.54-7.48h1.47l3.68,6.19,3.68-6.19h1.47l-4.54,7.48V216Z"/><path class="cls-6" d="M1386.18,216V203.86h-4v-1.11h9.28v1.11h-4V216Z"/><path class="cls-6" d="M1394.47,216v-13.2h1.21V216Z"/><path class="cls-6" d="M1405.75,216.21a7.37,7.37,0,0,1-2.76-.52,6.94,6.94,0,0,1-2.22-1.45A6.82,6.82,0,0,1,1403,203a7.29,7.29,0,0,1,2.76-.52,7.05,7.05,0,0,1,2.32.37,6.46,6.46,0,0,1,1.92,1l-.57,1a5.1,5.1,0,0,0-1.63-.87,6.39,6.39,0,0,0-4.27.12,5.51,5.51,0,0,0-1.81,1.2,5.43,5.43,0,0,0-1.19,1.8,6.08,6.08,0,0,0,0,4.44,5.43,5.43,0,0,0,1.19,1.8,5.51,5.51,0,0,0,1.81,1.2,6.39,6.39,0,0,0,4.27.12,5.1,5.1,0,0,0,1.63-.87l.57,1a7,7,0,0,1-1.9,1A7.17,7.17,0,0,1,1405.75,216.21Z"/><path class="cls-6" d="M1416.15,216.21a4.71,4.71,0,0,1-1.8-.31,5.17,5.17,0,0,1-1.32-.74,5,5,0,0,1-.86-.86,7.15,7.15,0,0,1-.46-.62l.7-.9c.1.15.24.35.44.61a5.25,5.25,0,0,0,.74.77,4.21,4.21,0,0,0,1.1.65,3.79,3.79,0,0,0,1.48.27,3.66,3.66,0,0,0,1.46-.29,2.54,2.54,0,0,0,1.06-.85,2.7,2.7,0,0,0,.12-2.61,2.4,2.4,0,0,0-.76-.83,6.27,6.27,0,0,0-1.12-.62c-.41-.17-.85-.35-1.31-.52s-.66-.27-1-.44a4.3,4.3,0,0,1-1-.63,3,3,0,0,1-.74-.92,2.79,2.79,0,0,1-.28-1.31,3.44,3.44,0,0,1,.27-1.36,3.67,3.67,0,0,1,.76-1.14,3.78,3.78,0,0,1,1.17-.77,4.19,4.19,0,0,1,3,0,4.5,4.5,0,0,1,1.16.66,3.32,3.32,0,0,1,.78.82l-.63.84a3.1,3.1,0,0,0-.62-.71,3.45,3.45,0,0,0-.94-.54,3.09,3.09,0,0,0-1.2-.22,2.57,2.57,0,0,0-1.39.36,2.25,2.25,0,0,0-.86.9,2.49,2.49,0,0,0-.3,1.18,1.88,1.88,0,0,0,.23.95,2.16,2.16,0,0,0,.62.66,4.22,4.22,0,0,0,.84.46q.46.19.93.36c.51.19,1,.39,1.49.61a6.13,6.13,0,0,1,1.27.77A3.11,3.11,0,0,1,1420,211a3.31,3.31,0,0,1,.33,1.54,3.44,3.44,0,0,1-2.07,3.28A5.13,5.13,0,0,1,1416.15,216.21Z"/><path class="cls-6" d="M1330.1,438.36v-13.2h2.79a4.68,4.68,0,0,1,3,.86,3,3,0,0,1,1.07,2.47,3,3,0,0,1-1.91,3,3.69,3.69,0,0,1,2.28,1.08,3.23,3.23,0,0,1,.8,2.27,3.55,3.55,0,0,1-.5,1.91,3.25,3.25,0,0,1-1.42,1.21,5.36,5.36,0,0,1-2.22.42Zm1.22-7.27h1.36a3.63,3.63,0,0,0,2.31-.64,2.49,2.49,0,0,0,0-3.68,3.63,3.63,0,0,0-2.31-.64h-1.36Zm0,6.28h2.35a3.77,3.77,0,0,0,2.38-.67,2.3,2.3,0,0,0,.84-1.91,2.36,2.36,0,0,0-.85-1.93,3.64,3.64,0,0,0-2.37-.69h-2.35Z"/><path class="cls-6" d="M1345.42,438.61a4.45,4.45,0,0,1-3.43-1.24,5.4,5.4,0,0,1-1.14-3.74v-8.47h1.21v8.21a4.65,4.65,0,0,0,.84,3,3.68,3.68,0,0,0,5,0,4.65,4.65,0,0,0,.83-3v-8.21H1350v8.47a5.35,5.35,0,0,1-1.15,3.74A4.45,4.45,0,0,1,1345.42,438.61Z"/><path class="cls-6" d="M1357.08,438.61a5,5,0,0,1-1.8-.3,5.19,5.19,0,0,1-1.32-.75,5,5,0,0,1-.86-.85,7.46,7.46,0,0,1-.45-.62l.69-.9c.1.15.24.35.44.6a4.48,4.48,0,0,0,.75.77,4.16,4.16,0,0,0,1.09.66,3.79,3.79,0,0,0,1.48.27,3.62,3.62,0,0,0,1.46-.29,2.49,2.49,0,0,0,1.06-.86,2.37,2.37,0,0,0,.4-1.41,2.43,2.43,0,0,0-.27-1.19,2.57,2.57,0,0,0-.77-.84,6.14,6.14,0,0,0-1.11-.61c-.42-.18-.86-.35-1.32-.52s-.65-.27-1-.44a4.81,4.81,0,0,1-1-.63,2.82,2.82,0,0,1-.74-.93,2.79,2.79,0,0,1-.29-1.31,3.47,3.47,0,0,1,.27-1.36,3.94,3.94,0,0,1,.76-1.13,3.45,3.45,0,0,1,1.17-.77,3.9,3.9,0,0,1,1.51-.28,4,4,0,0,1,1.45.26,4.54,4.54,0,0,1,1.17.65,3.64,3.64,0,0,1,.77.82l-.63.84a2.84,2.84,0,0,0-.62-.7,3.47,3.47,0,0,0-.94-.55,3.29,3.29,0,0,0-1.2-.21,2.62,2.62,0,0,0-1.38.35,2.37,2.37,0,0,0-.87.91,2.43,2.43,0,0,0-.3,1.17,1.86,1.86,0,0,0,.23,1,2,2,0,0,0,.62.66,4.27,4.27,0,0,0,.84.46q.46.2.93.36c.52.2,1,.4,1.49.62a6.18,6.18,0,0,1,1.28.76,3.27,3.27,0,0,1,.88,1.08,3.33,3.33,0,0,1,.33,1.54,3.48,3.48,0,0,1-.56,2,3.61,3.61,0,0,1-1.51,1.27A5.1,5.1,0,0,1,1357.08,438.61Z"/><path class="cls-6" d="M1364.72,438.36v-13.2h1.21v13.2Z"/><path class="cls-6" d="M1370.24,438.36v-13.2h1.21l7.09,11.13V425.16h1.22v13.2h-1.22l-7.09-11.11v11.11Z"/><path class="cls-6" d="M1384.06,438.36v-13.2h6.65v1.07h-5.43v5h5.24v1.07h-5.24v5h5.43v1.07Z"/><path class="cls-6" d="M1397.57,438.61a4.92,4.92,0,0,1-1.8-.3,5.19,5.19,0,0,1-1.32-.75,5,5,0,0,1-.86-.85c-.22-.28-.37-.49-.46-.62l.7-.9c.1.15.24.35.44.6a4.79,4.79,0,0,0,.74.77,4.23,4.23,0,0,0,1.1.66,3.79,3.79,0,0,0,1.48.27,3.66,3.66,0,0,0,1.46-.29,2.49,2.49,0,0,0,1.06-.86,2.37,2.37,0,0,0,.4-1.41,2.33,2.33,0,0,0-.28-1.19,2.43,2.43,0,0,0-.76-.84,5.92,5.92,0,0,0-1.12-.61c-.41-.18-.85-.35-1.31-.52s-.66-.27-1-.44a5.1,5.1,0,0,1-1-.63,3,3,0,0,1-.74-.93,2.79,2.79,0,0,1-.28-1.31,3.47,3.47,0,0,1,.27-1.36,3.75,3.75,0,0,1,.76-1.13,3.45,3.45,0,0,1,1.17-.77,3.82,3.82,0,0,1,1.5-.28,4,4,0,0,1,1.46.26,4.48,4.48,0,0,1,1.16.65,3.7,3.7,0,0,1,.78.82l-.63.84a2.84,2.84,0,0,0-.62-.7,3.47,3.47,0,0,0-.94-.55,3.29,3.29,0,0,0-1.2-.21,2.66,2.66,0,0,0-1.39.35,2.34,2.34,0,0,0-.86.91,2.43,2.43,0,0,0-.3,1.17,1.86,1.86,0,0,0,.23,1,2,2,0,0,0,.62.66,3.77,3.77,0,0,0,.84.46q.46.2.93.36c.51.2,1,.4,1.49.62a6.1,6.1,0,0,1,1.27.76,3.14,3.14,0,0,1,1.22,2.62,3.55,3.55,0,0,1-.56,2,3.61,3.61,0,0,1-1.51,1.27A5.13,5.13,0,0,1,1397.57,438.61Z"/><path class="cls-6" d="M1408.18,438.61a5,5,0,0,1-1.8-.3,5.12,5.12,0,0,1-1.31-.75,5.43,5.43,0,0,1-.87-.85c-.21-.28-.37-.49-.45-.62l.7-.9c.09.15.24.35.43.6a5.38,5.38,0,0,0,.75.77,4.07,4.07,0,0,0,1.1.66,3.76,3.76,0,0,0,1.48.27,3.66,3.66,0,0,0,1.46-.29,2.49,2.49,0,0,0,1.06-.86,2.68,2.68,0,0,0,.12-2.6,2.53,2.53,0,0,0-.76-.84,6.24,6.24,0,0,0-1.12-.61c-.42-.18-.86-.35-1.32-.52s-.65-.27-1-.44a4.81,4.81,0,0,1-1-.63,3,3,0,0,1-.74-.93,2.79,2.79,0,0,1-.28-1.31,3.47,3.47,0,0,1,.27-1.36,3.57,3.57,0,0,1,.76-1.13,3.27,3.27,0,0,1,1.17-.77,3.82,3.82,0,0,1,1.5-.28,4.07,4.07,0,0,1,1.46.26,4.48,4.48,0,0,1,1.16.65,3.64,3.64,0,0,1,.77.82l-.62.84a2.89,2.89,0,0,0-.63-.7,3.33,3.33,0,0,0-.94-.55,3.27,3.27,0,0,0-1.19-.21,2.63,2.63,0,0,0-1.39.35,2.44,2.44,0,0,0-.87.91,2.42,2.42,0,0,0-.29,1.17,1.76,1.76,0,0,0,.23,1,1.93,1.93,0,0,0,.61.66,4.08,4.08,0,0,0,.85.46c.3.13.61.25.92.36.52.2,1,.4,1.49.62a5.93,5.93,0,0,1,1.28.76,3.43,3.43,0,0,1,.89,1.08,3.33,3.33,0,0,1,.33,1.54,3.55,3.55,0,0,1-.56,2,3.64,3.64,0,0,1-1.52,1.27A5.1,5.1,0,0,1,1408.18,438.61Z"/><path class="cls-6" d="M1309.65,457.56v-13.2h1.22v13.2Z"/><path class="cls-6" d="M1315.17,457.56v-13.2h1.22l7.09,11.13V444.36h1.21v13.2h-1.21l-7.09-11.11v11.11Z"/><path class="cls-6" d="M1331,457.56v-12.1h-4v-1.1h9.28v1.1h-4v12.1Z"/><path class="cls-6" d="M1339.29,457.56v-13.2h6.65v1.07h-5.44v5h5.24v1.07h-5.24v5h5.44v1.07Z"/><path class="cls-6" d="M1349.49,457.56v-13.2h1.22v12.13h5.53v1.07Z"/><path class="cls-6" d="M1359.28,457.56v-13.2h1.22v12.13H1366v1.07Z"/><path class="cls-6" d="M1369.06,457.56v-13.2h1.22v13.2Z"/><path class="cls-6" d="M1380.29,457.81a6.23,6.23,0,0,1-2.56-.52,6.42,6.42,0,0,1-2.06-1.47,6.74,6.74,0,0,1-1.38-2.18,7.16,7.16,0,0,1-.5-2.67,7.7,7.7,0,0,1,.44-2.56,6.54,6.54,0,0,1,1.29-2.19,6,6,0,0,1,2.08-1.53,6.48,6.48,0,0,1,2.78-.57,7.16,7.16,0,0,1,1.94.25,6.79,6.79,0,0,1,1.67.72,5.9,5.9,0,0,1,1.34,1.07l-.64.93a5.63,5.63,0,0,0-1.88-1.38,5.9,5.9,0,0,0-2.44-.51,5.11,5.11,0,0,0-2.23.46,4.84,4.84,0,0,0-1.66,1.27,5.69,5.69,0,0,0-1,1.83,6.85,6.85,0,0,0,0,4.44,5.69,5.69,0,0,0,1.11,1.84,5,5,0,0,0,1.66,1.23,4.89,4.89,0,0,0,2,.43,5.58,5.58,0,0,0,1.75-.29,5.17,5.17,0,0,0,1.54-.86,4.26,4.26,0,0,0,1.08-1.34,3.77,3.77,0,0,0,.41-1.76V452h-4.87v-1h6.11v1.18a5.5,5.5,0,0,1-.52,2.46,5.17,5.17,0,0,1-1.41,1.75,6.38,6.38,0,0,1-2,1.06A6.78,6.78,0,0,1,1380.29,457.81Z"/><path class="cls-6" d="M1389.73,457.56v-13.2h6.64v1.07h-5.43v5h5.24v1.07h-5.24v5h5.43v1.07Z"/><path class="cls-6" d="M1399.93,457.56v-13.2h1.22l7.09,11.13V444.36h1.21v13.2h-1.21l-7.09-11.11v11.11Z"/><path class="cls-6" d="M1419.52,457.81a7.09,7.09,0,0,1-2.75-.52,6.67,6.67,0,0,1-2.22-1.45,6.53,6.53,0,0,1-1.48-2.18,7.12,7.12,0,0,1,0-5.39,6.53,6.53,0,0,1,1.48-2.18,6.73,6.73,0,0,1,2.21-1.45,7.18,7.18,0,0,1,2.76-.52,7.38,7.38,0,0,1,2.33.36,6.73,6.73,0,0,1,1.92,1l-.58,1a5.2,5.2,0,0,0-1.63-.87,6.39,6.39,0,0,0-2-.3,5.93,5.93,0,0,0-2.3.43,5.61,5.61,0,0,0-1.81,1.2,5.39,5.39,0,0,0-1.19,1.8,6.05,6.05,0,0,0,0,4.43,5.39,5.39,0,0,0,1.19,1.8,5.61,5.61,0,0,0,1.81,1.2,5.93,5.93,0,0,0,2.3.43,6.39,6.39,0,0,0,2-.3,5,5,0,0,0,1.63-.87l.58,1a6.79,6.79,0,0,1-1.91,1A7.36,7.36,0,0,1,1419.52,457.81Z"/><path class="cls-6" d="M1426.62,457.56v-13.2h6.65v1.07h-5.43v5h5.24v1.07h-5.24v5h5.43v1.07Z"/><path class="cls-6" d="M0,377.74V362.89H3.85a5.78,5.78,0,0,1,2.52.5A3.79,3.79,0,0,1,8,364.83a4.14,4.14,0,0,1,.59,2.25A4.41,4.41,0,0,1,8,369.37a3.86,3.86,0,0,1-1.64,1.53,5.51,5.51,0,0,1-2.52.55H1.37v6.29Zm1.37-7.45H3.53a4.66,4.66,0,0,0,1.94-.38,2.93,2.93,0,0,0,1.27-1.11,3.08,3.08,0,0,0,.45-1.68,3,3,0,0,0-.45-1.69,2.77,2.77,0,0,0-1.27-1.06A4.66,4.66,0,0,0,3.53,364H1.37Z"/><path class="cls-6" d="M12.32,377.74V362.89h1.37v13.64h6.22v1.21Z"/><path class="cls-6" d="M22.48,377.74l1.93-14.85h1.45l4.36,11.62,4.38-11.62H36L38,377.74H36.6L35,365.43l-4.24,11.4h-1l-4.24-11.4-1.65,12.31Z"/><path class="cls-6" d="M34.84,477.16V462.3h3.85a5.78,5.78,0,0,1,2.52.51,3.79,3.79,0,0,1,1.64,1.44,4.14,4.14,0,0,1,.59,2.25,4.41,4.41,0,0,1-.59,2.29,3.86,3.86,0,0,1-1.64,1.53,5.51,5.51,0,0,1-2.52.54H36.21v6.3Zm1.37-7.45h2.16a4.66,4.66,0,0,0,1.94-.38,2.93,2.93,0,0,0,1.27-1.11,3.08,3.08,0,0,0,.45-1.68,3,3,0,0,0-.45-1.69,2.77,2.77,0,0,0-1.27-1.06,4.66,4.66,0,0,0-1.94-.37H36.21Z"/><path class="cls-6" d="M47.16,477.16V462.3h3.35a7.55,7.55,0,0,1,2.94.57,7.44,7.44,0,0,1,2.38,1.58,7.33,7.33,0,0,1,1.59,2.36A7.46,7.46,0,0,1,55.84,475a7.26,7.26,0,0,1-2.38,1.57,7.6,7.6,0,0,1-3,.57Zm1.37-1.23h1.85a6.31,6.31,0,0,0,2.44-.47,6.1,6.1,0,0,0,2-1.32,5.91,5.91,0,0,0,1.31-2,6.57,6.57,0,0,0,0-4.88,6,6,0,0,0-1.31-2,6.2,6.2,0,0,0-2-1.32,6.3,6.3,0,0,0-2.43-.47H48.53Z"/><path class="cls-6" d="M61.06,477.16,63,462.3h1.45l4.37,11.62,4.37-11.62h1.45l1.93,14.86H75.18l-1.65-12.31-4.24,11.4h-1l-4.24-11.4-1.65,12.31Z"/><path class="cls-6" d="M506.47,383.27v-19H517v3.27H510.2v4.56h6.55v3.27H510.2V380H517v3.27Z"/><path class="cls-6" d="M519.71,383.27l5-6.08-4.32-5.7h1.94l3.46,4.54,3.46-4.54h1.92l-4.3,5.7,5,6.08h-2l-4.06-5-4.07,5Z"/><path class="cls-6" d="M537.93,383.63a2.49,2.49,0,0,1-2-.89,3.83,3.83,0,0,1-.73-2.51v-7.47H534v-1.27h1.2v-4.4h1.68v4.4h2.93v1.27h-2.93v7.38a2.5,2.5,0,0,0,.38,1.49,1.24,1.24,0,0,0,1.08.52,2,2,0,0,0,1.2-.38l.42,1.34a3.69,3.69,0,0,1-.92.38A3.81,3.81,0,0,1,537.93,383.63Z"/><path class="cls-6" d="M543.58,383.27V371.49h1.68v1.74a3.8,3.8,0,0,1,3.52-2.11,4.83,4.83,0,0,1,1.05.12,3.76,3.76,0,0,1,.93.3l-.69,1.41a3.49,3.49,0,0,0-.79-.26,4.36,4.36,0,0,0-.85-.1,3,3,0,0,0-1.54.42,3.57,3.57,0,0,0-1.18,1.07,2.46,2.46,0,0,0-.45,1.41v7.78Z"/><path class="cls-6" d="M558.69,383.63a5.6,5.6,0,0,1-3-.81,5.85,5.85,0,0,1-2.11-2.22,7.08,7.08,0,0,1,0-6.44,5.8,5.8,0,0,1,2.09-2.22,5.6,5.6,0,0,1,3-.82,5.7,5.7,0,0,1,2.9.75,5.06,5.06,0,0,1,2,2.07v-2.45h1.68v11.78h-1.68v-2.49a5.71,5.71,0,0,1-2,2.1A5.51,5.51,0,0,1,558.69,383.63Zm.41-1.46a4.32,4.32,0,0,0,3.95-2.31,5.61,5.61,0,0,0,0-5,4.27,4.27,0,0,0-1.6-1.69,4.74,4.74,0,0,0-4.69,0,4.36,4.36,0,0,0-1.61,1.69,5.53,5.53,0,0,0,0,5,4.39,4.39,0,0,0,1.61,1.7A4.44,4.44,0,0,0,559.1,382.17Z"/><path class="cls-6" d="M575.66,383.63a6.59,6.59,0,0,1-2.48-.46,6.14,6.14,0,0,1-3.4-3.31,6.14,6.14,0,0,1-.5-2.48,6.29,6.29,0,0,1,.48-2.47,6.22,6.22,0,0,1,3.39-3.32,6.67,6.67,0,0,1,2.51-.47,7,7,0,0,1,2.21.35,5.87,5.87,0,0,1,1.81.95l-.69,1.13a5.4,5.4,0,0,0-5.68-.36,4.51,4.51,0,0,0-1.71,1.73,5.07,5.07,0,0,0-.61,2.46,4.84,4.84,0,0,0,.63,2.46,4.49,4.49,0,0,0,1.72,1.74,5,5,0,0,0,2.53.63,5.6,5.6,0,0,0,1.7-.26,4.52,4.52,0,0,0,1.41-.74l.7,1.13a6.33,6.33,0,0,1-1.81.94A6.65,6.65,0,0,1,575.66,383.63Z"/><path class="cls-6" d="M586.15,383.63a2.49,2.49,0,0,1-2-.89,3.83,3.83,0,0,1-.73-2.51v-7.47h-1.2v-1.27h1.2v-4.4h1.68v4.4H588v1.27h-2.93v7.38a2.43,2.43,0,0,0,.38,1.49,1.24,1.24,0,0,0,1.08.52,2,2,0,0,0,1.19-.38l.43,1.34a3.69,3.69,0,0,1-.92.38A3.86,3.86,0,0,1,586.15,383.63Z"/><path class="cls-6" d="M489.6,410.87V395.18h-4.81v-3.29h13.34v3.29h-4.82v15.69Z"/><path class="cls-6" d="M501,410.87V399.09h1.68v1.74a4,4,0,0,1,1.46-1.57,3.88,3.88,0,0,1,2.06-.54,4.77,4.77,0,0,1,1.05.12,3.63,3.63,0,0,1,.93.3l-.69,1.41a3.33,3.33,0,0,0-.79-.26,4.35,4.35,0,0,0-.84-.1,3.06,3.06,0,0,0-1.55.42,3.44,3.44,0,0,0-1.17,1.07,2.42,2.42,0,0,0-.46,1.41v7.78Z"/><path class="cls-6" d="M516.15,411.23a5.6,5.6,0,0,1-3-.81,5.85,5.85,0,0,1-2.11-2.22,7.16,7.16,0,0,1,0-6.44,5.82,5.82,0,0,1,2.1-2.22,5.63,5.63,0,0,1,3-.82,5.7,5.7,0,0,1,2.9.75,4.94,4.94,0,0,1,2,2.07v-2.45h1.68v11.78H521v-2.49a5.71,5.71,0,0,1-2,2.1A5.51,5.51,0,0,1,516.15,411.23Zm.42-1.46a4.29,4.29,0,0,0,3.94-2.31,5.16,5.16,0,0,0,.59-2.48,5.26,5.26,0,0,0-.58-2.49,4.36,4.36,0,0,0-1.61-1.69,4.74,4.74,0,0,0-4.69,0,4.36,4.36,0,0,0-1.61,1.69,5.53,5.53,0,0,0,0,5,4.39,4.39,0,0,0,1.61,1.7A4.45,4.45,0,0,0,516.57,409.77Z"/><path class="cls-6" d="M527.65,410.87V399.09h1.68v1.61a3.85,3.85,0,0,1,1.5-1.4,4.85,4.85,0,0,1,2.47-.58,4.66,4.66,0,0,1,2.36.57,3.67,3.67,0,0,1,1.51,1.63,5.77,5.77,0,0,1,.53,2.6v7.35H536v-7a4.07,4.07,0,0,0-.85-2.79,3,3,0,0,0-2.4-1,3.69,3.69,0,0,0-1.85.43,3.06,3.06,0,0,0-1.17,1.14,3,3,0,0,0-.42,1.54v7.67Z"/><path class="cls-6" d="M545.39,411.23a4.71,4.71,0,0,1-2.58-.7,4.77,4.77,0,0,1-1.74-2l.9-1a4.54,4.54,0,0,0,1.44,1.76,3.29,3.29,0,0,0,2,.62,2.92,2.92,0,0,0,1.33-.29,2.44,2.44,0,0,0,1-.86,2.41,2.41,0,0,0,.36-1.33,1.63,1.63,0,0,0-.34-1.1,2.86,2.86,0,0,0-1-.7c-.43-.19-1-.41-1.61-.66a13.74,13.74,0,0,1-1.45-.68,3.53,3.53,0,0,1-1.16-1,2.35,2.35,0,0,1-.45-1.48,2.8,2.8,0,0,1,.48-1.61,3.33,3.33,0,0,1,1.33-1.12,4.49,4.49,0,0,1,1.94-.41,4.19,4.19,0,0,1,1.85.43,5,5,0,0,1,1.56,1.21l-.77,1a3.2,3.2,0,0,0-2.63-1.39,2.33,2.33,0,0,0-1.57.51,1.66,1.66,0,0,0-.61,1.32,1.37,1.37,0,0,0,.38,1,3.43,3.43,0,0,0,1,.67c.41.18.85.36,1.33.55a17.87,17.87,0,0,1,1.8.78,3.19,3.19,0,0,1,1.19,1,2.79,2.79,0,0,1,.42,1.63,3.7,3.7,0,0,1-.55,2.05,3.58,3.58,0,0,1-1.54,1.33A5.17,5.17,0,0,1,545.39,411.23Z"/><path class="cls-6" d="M554,410.87V400.36h-1.18v-1.27H554v-4.22a5.92,5.92,0,0,1,.38-2.24,3,3,0,0,1,1.11-1.41,3.13,3.13,0,0,1,1.78-.48,4,4,0,0,1,1.22.18,3.32,3.32,0,0,1,1,.51l-.59,1.2a2.07,2.07,0,0,0-1.33-.42,1.71,1.71,0,0,0-1.06.32,1.87,1.87,0,0,0-.62.9,4.43,4.43,0,0,0-.2,1.39v4.27h3v1.27h-3v10.51Z"/><path class="cls-6" d="M567.67,411.23a6.93,6.93,0,0,1-3.32-.79,6.06,6.06,0,0,1-2.34-2.21,6.19,6.19,0,0,1,2.34-8.71,7.29,7.29,0,0,1,6.64,0,6,6,0,0,1,2.34,2.2,6.59,6.59,0,0,1,0,6.51,5.93,5.93,0,0,1-2.34,2.21A6.9,6.9,0,0,1,567.67,411.23Zm0-1.49a4.88,4.88,0,0,0,2.46-.61,4.5,4.5,0,0,0,1.7-1.68,5.16,5.16,0,0,0,0-4.94,4.43,4.43,0,0,0-1.7-1.68,5.27,5.27,0,0,0-4.92,0,4.43,4.43,0,0,0-1.7,1.68,5.21,5.21,0,0,0,0,4.93,4.45,4.45,0,0,0,1.7,1.69A4.88,4.88,0,0,0,567.67,409.74Z"/><path class="cls-6" d="M578.19,410.87V399.09h1.68v1.74a4,4,0,0,1,1.46-1.57,3.88,3.88,0,0,1,2.06-.54,4.7,4.7,0,0,1,1.05.12,3.63,3.63,0,0,1,.93.3l-.69,1.41a3.33,3.33,0,0,0-.79-.26,4.18,4.18,0,0,0-.84-.1,3,3,0,0,0-1.54.42,3.38,3.38,0,0,0-1.18,1.07,2.42,2.42,0,0,0-.46,1.41v7.78Z"/><path class="cls-6" d="M588.46,410.87V399.09h1.68v1.61a4.55,4.55,0,0,1,3.87-2,4.74,4.74,0,0,1,2.52.67,3.46,3.46,0,0,1,1.49,1.82,5.46,5.46,0,0,1,1.73-1.81,4.54,4.54,0,0,1,2.5-.68,4.73,4.73,0,0,1,2.23.51,3.77,3.77,0,0,1,1.54,1.5,4.79,4.79,0,0,1,.56,2.4v7.74H604.9V403.6a3.68,3.68,0,0,0-.84-2.55,2.86,2.86,0,0,0-2.24-.95,3.52,3.52,0,0,0-1.75.43,3.4,3.4,0,0,0-1.24,1.1,2.38,2.38,0,0,0-.46,1.38v7.86h-1.68v-7.44a3.42,3.42,0,0,0-.84-2.43,2.85,2.85,0,0,0-2.2-.9,3.91,3.91,0,0,0-1.77.41,3.57,3.57,0,0,0-1.27,1.05,2.25,2.25,0,0,0-.47,1.33v8Z"/><path class="cls-6" d="M517.82,438.47v-19h3.73V435.2h6.85v3.27Z"/><path class="cls-6" d="M536.94,438.83a6.86,6.86,0,0,1-3.31-.79,5.93,5.93,0,0,1-2.34-2.21,6.52,6.52,0,0,1,0-6.51,5.94,5.94,0,0,1,2.33-2.2,7.29,7.29,0,0,1,6.64,0,5.9,5.9,0,0,1,2.34,2.2,6.59,6.59,0,0,1,0,6.51,5.93,5.93,0,0,1-2.34,2.21A6.87,6.87,0,0,1,536.94,438.83Zm0-1.49a4.94,4.94,0,0,0,2.47-.61,4.57,4.57,0,0,0,1.7-1.68,5.23,5.23,0,0,0,0-4.94,4.42,4.42,0,0,0-1.7-1.68,4.94,4.94,0,0,0-2.47-.61,4.88,4.88,0,0,0-2.46.61,4.42,4.42,0,0,0-1.7,1.68,5.21,5.21,0,0,0,0,4.93,4.52,4.52,0,0,0,1.7,1.69A4.88,4.88,0,0,0,536.94,437.34Z"/><path class="cls-6" d="M552.42,438.83a5.6,5.6,0,0,1-3-.81,5.85,5.85,0,0,1-2.11-2.22,7.16,7.16,0,0,1,0-6.44,5.75,5.75,0,0,1,2.1-2.22,5.54,5.54,0,0,1,3-.82,5.67,5.67,0,0,1,2.9.75,4.94,4.94,0,0,1,2,2.07v-2.45H559v11.78H557.3V436a5.71,5.71,0,0,1-2,2.1A5.48,5.48,0,0,1,552.42,438.83Zm.42-1.46a4.44,4.44,0,0,0,2.34-.61,4.37,4.37,0,0,0,1.6-1.7,5.16,5.16,0,0,0,.59-2.48,5.26,5.26,0,0,0-.58-2.49,4.29,4.29,0,0,0-1.61-1.69,4.74,4.74,0,0,0-4.69,0,4.36,4.36,0,0,0-1.61,1.69,5.53,5.53,0,0,0,0,5,4.39,4.39,0,0,0,1.61,1.7A4.48,4.48,0,0,0,552.84,437.37Z"/><path class="cls-6" d="M569,438.83a5.63,5.63,0,0,1-3-.8,5.9,5.9,0,0,1-2.1-2.22,6.57,6.57,0,0,1-.78-3.23,6.66,6.66,0,0,1,.77-3.22,5.9,5.9,0,0,1,2.1-2.22,5.61,5.61,0,0,1,3-.82,5.52,5.52,0,0,1,2.85.75,5.31,5.31,0,0,1,2,2.07V418.67h1.68v19.8h-1.68V436a5.45,5.45,0,0,1-4.87,2.85Zm.4-1.46a4.5,4.5,0,0,0,2.35-.61,4.39,4.39,0,0,0,1.61-1.7,5.59,5.59,0,0,0,0-5,4.25,4.25,0,0,0-1.61-1.7,4.48,4.48,0,0,0-2.35-.62,4.43,4.43,0,0,0-2.33.62,4.32,4.32,0,0,0-1.61,1.7,5.15,5.15,0,0,0-.59,2.49,5.09,5.09,0,0,0,.58,2.47,4.32,4.32,0,0,0,1.61,1.7A4.49,4.49,0,0,0,569.35,437.37Z"/><rect class="cls-5" x="1118.43" y="355.58" width="7.9" height="81.71"/><rect class="cls-5" x="1158.75" y="389.07" width="7.9" height="88.53" transform="translate(1596.03 -729.36) rotate(90)"/><rect class="cls-5" x="1119.52" y="365.54" width="39.37" height="7.46" transform="matrix(0.87, -0.5, 0.5, 0.87, -32.01, 619.08)"/><rect class="cls-5" x="1148.82" y="366.06" width="36.18" height="7.46" transform="translate(440.05 -615.14) rotate(35.99)"/><rect class="cls-5" x="1171.18" y="363.83" width="39.37" height="7.46" transform="translate(183.12 1100.86) rotate(-53.19)"/><rect class="cls-5" x="1130.89" y="385.3" width="16.09" height="39.93"/><rect class="cls-5" x="1150.82" y="379.43" width="16.09" height="45.64"/><rect class="cls-5" x="1171.07" y="404.25" width="16.09" height="20.82"/><rect class="cls-5" x="1190.87" y="382.75" width="16.09" height="42.48"/><line class="cls-7" x1="157.11" y1="272.3" x2="106.62" y2="272.3"/><line class="cls-7" x1="100.16" y1="370.95" x2="55.27" y2="370.95"/><line class="cls-7" x1="157.11" y1="469.59" x2="106.62" y2="469.59"/><path class="cls-5" d="M258.31,687.91h-87.4V591.29h87.4Zm-80.07-7.33H251v-82H178.24Z"/><rect class="cls-5" x="174.57" y="620" width="80.08" height="7.33"/><rect class="cls-5" x="175.97" y="648.9" width="80.08" height="7.33"/><circle class="cls-5" cx="226.83" cy="668.87" r="4.19"/><circle class="cls-5" cx="240.67" cy="668.87" r="4.19"/><circle class="cls-5" cx="226.83" cy="638.77" r="4.19"/><circle class="cls-5" cx="240.67" cy="638.77" r="4.19"/><circle class="cls-5" cx="226.83" cy="609.3" r="4.19"/><circle class="cls-5" cx="240.67" cy="609.3" r="4.19"/><path class="cls-5" d="M211.49,613H187.16a3.67,3.67,0,0,1,0-7.33h24.33a3.67,3.67,0,0,1,0,7.33Z"/><path class="cls-5" d="M212.27,641.78H187.94a3.67,3.67,0,0,1,0-7.33h24.33a3.67,3.67,0,0,1,0,7.33Z"/><path class="cls-5" d="M211.49,672.53H187.16a3.67,3.67,0,0,1,0-7.33h24.33a3.67,3.67,0,0,1,0,7.33Z"/><path class="cls-5" d="M1353.05,310.72a39.22,39.22,0,1,1,39.21-39.21A39.26,39.26,0,0,1,1353.05,310.72Zm0-70.43a31.22,31.22,0,1,0,31.21,31.22A31.26,31.26,0,0,0,1353.05,240.29Z"/><rect class="cls-5" x="1389.37" y="293.96" width="19.04" height="35.26" transform="translate(2565.72 -520.56) rotate(131.95)"/><rect class="cls-5" x="1380.46" y="289.73" width="10.63" height="20.15" transform="translate(2535.07 -530.47) rotate(131.95)"/><polygon class="cls-5" points="1375.59 286.66 1332.73 286.66 1332.73 254.44 1338.73 254.44 1338.73 280.66 1375.59 280.66 1375.59 286.66"/><polygon class="cls-5" points="1352.85 277.32 1345.09 267.44 1336.89 272.05 1335.91 270.31 1345.6 264.86 1353.13 274.44 1366.28 263.14 1367.59 264.66 1352.85 277.32"/><polygon class="cls-5" points="1367.89 270.54 1365.91 270.3 1366.64 264.08 1359.96 264.08 1359.96 262.08 1368.89 262.08 1367.89 270.54"/><path class="cls-5" d="M1342.32,535.52a7,7,0,1,1,7-7A7,7,0,0,1,1342.32,535.52Zm0-10.23a3.23,3.23,0,1,0,3.23,3.23A3.23,3.23,0,0,0,1342.32,525.29Z"/><path class="cls-5" d="M1395.86,550.58a7,7,0,1,1,7-7A7,7,0,0,1,1395.86,550.58Zm0-10.23a3.23,3.23,0,1,0,3.23,3.23A3.23,3.23,0,0,0,1395.86,540.35Z"/><polygon class="cls-5" points="1366.99 558.23 1351.47 558.23 1351.47 544.12 1340.43 544 1340.43 532.35 1344.21 532.35 1344.21 540.26 1355.25 540.38 1355.25 554.46 1366.99 554.46 1366.99 558.23"/><rect class="cls-5" x="1365.11" y="550.68" width="3.78" height="11.33"/><rect class="cls-5" x="1370.93" y="546.98" width="3.78" height="18.89"/><polygon class="cls-5" points="1386.9 558.33 1373.43 558.23 1373.46 554.46 1383.12 554.52 1383.12 541.69 1391.83 541.69 1391.83 545.46 1386.9 545.46 1386.9 558.33"/><path class="cls-5" d="M1380,522.91h-20.46v-8.43a10,10,0,0,0-3.18-7.53,20.19,20.19,0,1,1,27.05-.2,10.77,10.77,0,0,0-3.41,7.94Zm-12.9-7.56h5.35v-.66a18.34,18.34,0,0,1,5.86-13.51,12.65,12.65,0,0,0,4.1-9.32,12.65,12.65,0,0,0-13.26-12.63,12.65,12.65,0,0,0-7.77,22.08,17.56,17.56,0,0,1,5.72,13.17Z"/><rect class="cls-5" x="1359.69" y="527.44" width="20.14" height="7.3"/><rect class="cls-5" x="1362.3" y="536.46" width="14.96" height="5.32"/><polyline class="cls-8" points="366.43 345.57 392.86 372.3 366.14 398.73"/><polyline class="cls-8" points="689.5 345.57 715.93 372.3 689.2 398.73"/><polyline class="cls-8" points="981.75 345.57 1008.18 372.3 981.46 398.73"/></g></g></svg>