<svg xmlns="http://www.w3.org/2000/svg" viewBox="0 0 1569.95 735.91"><defs><style>.cls-1{fill:#f4ce45;}.cls-2{fill:#1c1a17;}.cls-23,.cls-24,.cls-3,.cls-5{fill:none;stroke-miterlimit:10;}.cls-3{stroke:#4c6ba7;stroke-width:5px;}.cls-4{fill:#4c6ba7;}.cls-5{stroke:#191919;}.cls-23,.cls-5{stroke-width:6px;}.cls-6{font-size:50px;font-family:Spartan-Black, Spartan;font-weight:800;}.cls-11,.cls-18,.cls-6,.cls-7{fill:#191919;}.cls-7{font-size:18px;}.cls-11,.cls-19,.cls-20,.cls-21,.cls-22,.cls-7{font-family:Spartan-Regular, Spartan;}.cls-8{letter-spacing:-0.05em;}.cls-9{letter-spacing:-0.02em;}.cls-10{letter-spacing:0em;}.cls-11{font-size:16px;}.cls-12{letter-spacing:-0.05em;}.cls-13{letter-spacing:-0.09em;}.cls-14{letter-spacing:-0.05em;}.cls-15{letter-spacing:-0.02em;}.cls-16{letter-spacing:-0.08em;}.cls-17{letter-spacing:-0.08em;}.cls-18{font-size:23px;font-family:Spartan-Bold, Spartan;font-weight:700;}.cls-19,.cls-20,.cls-21,.cls-22{font-weight:400;}.cls-20{letter-spacing:-0.01em;}.cls-21{letter-spacing:0em;}.cls-22{letter-spacing:0em;}.cls-23{stroke:#1c1a17;stroke-linecap:round;}.cls-24{stroke:#f5b646;stroke-width:7px;}</style></defs><g id="Layer_2" data-name="Layer 2"><g id="Layer_2-2" data-name="Layer 2"><path class="cls-1" d="M1491.07,150.59l57,98.64-69.22,120.44,69.07,119.41-57,98.64H1377L1307.11,467.8H1170.57l-57-98.64,57-98.65,136.54-.16,70.06-119.77h113.9m11-19H1366.27l-5.5,9.4L1296.2,251.37l-125.65.15h-11l-5.48,9.49-57,98.65-5.48,9.5,5.48,9.5,57,98.64,5.48,9.5h136.59l64.41,110.49,5.5,9.43h135.79l5.49-9.5,56.95-98.64,5.49-9.51-5.5-9.51-63.58-109.92L1564.5,258.7l5.45-9.49-5.47-9.48-57-98.64-5.49-9.5Z"/><path class="cls-2" d="M328.85,183.66H226.43l.06-53.11H328.85ZM233.6,176.5h88.08V138H233.61Z"/><path class="cls-2" d="M328.85,183.66H226.44V115.79l43.05-.27,3.87-10.4h44.69l3.45,10.28,7.35.07ZM233.6,176.5h88.08V122.56l-5.34,0-3.44-10.23H278.34l-3.86,10.37-40.88.26Z"/><polygon class="cls-2" points="267.42 112.28 226.49 112.28 226.49 105.12 269.86 105.12 267.42 112.28"/><path class="cls-1" d="M334.59,19l57,98.65-57,98.64-.54,53L391,368,334.05,466.6v53L391,618.26l-56.95,98.65H220.14l-56.95-98.65,60.21-98.64-3.26-53L163.19,368l56.95-98.64.55-53-57-98.64,57-98.65h113.9m11-19H209.72l-5.49,9.5-56.95,98.65-5.49,9.5,5.49,9.5,54.35,94.14-.44,42.84-54.46,94.32-5.48,9.5,5.48,9.5,54.72,94.78,2.62,42.59L147,608.36,141.09,618l5.64,9.77,57,98.65,5.48,9.5H345l5.48-9.5,56.95-98.65,5.49-9.5-5.49-9.5-54.4-94.24V471.69l54.4-94.24,5.49-9.5-5.49-9.5L353.1,264.31l.44-42.84L408,127.15l5.49-9.5-5.49-9.5L351.05,9.5,345.56,0Z"/><polygon class="cls-3" points="678.11 256.55 548.09 256.55 483.08 369.15 548.09 481.76 678.11 481.76 743.12 369.15 678.11 256.55"/><polygon class="cls-4" points="616.95 252.05 624.75 256.55 616.95 261.06 609.14 265.56 609.14 256.55 609.14 247.54 616.95 252.05"/><polygon class="cls-4" points="716.06 313.36 716.06 322.37 708.25 317.87 700.45 313.36 708.25 308.85 716.06 304.35 716.06 313.36"/><polygon class="cls-4" points="617.44 482.32 617.44 491.33 609.64 486.83 601.83 482.32 609.64 477.81 617.44 473.31 617.44 482.32"/><polygon class="cls-4" points="518.85 431.57 511.04 436.08 511.04 427.07 511.04 418.06 518.85 422.56 526.65 427.07 518.85 431.57"/><polygon class="cls-4" points="515.27 313.56 507.47 309.06 515.27 304.55 523.08 300.05 523.08 309.06 523.08 318.07 515.27 313.56"/><polygon class="cls-5" points="973.77 270.51 859.87 270.51 802.91 369.15 859.87 467.8 973.77 467.8 1030.73 369.15 973.77 270.51"/><path class="cls-2" d="M962.94,350.06V350l-.3-.58c-1.94-3.83-6.73-6.41-15.51-8.33a146.52,146.52,0,0,0-29.8-2.72l-3.31,0h-.28c-2.89.07-4.83.15-6.47.25l-2.52.15q-3,.19-5.83.5l-1.17.14-1.75.22c-2.5.34-4.62.68-6.52,1l-.41.08-.89.18-.67.15q-2.71.6-4.91,1.28l-1,.33a26.94,26.94,0,0,0-4.57,2,11.47,11.47,0,0,0-5,4.74,8.36,8.36,0,0,0-.9,3.88v78.94l3,1.62c.51.29,13.43,7.45,42,7.45,27,0,42.27-6.49,43.94-7.24l3.46-1.54V353.25A8.56,8.56,0,0,0,962.94,350.06Zm-56.76.69,1.5-.09c2.2-.13,4.28-.2,6.22-.23,1.13,0,2.3,0,3.43,0a138.35,138.35,0,0,1,26.72,2.3c.84.17,1.64.35,2.39.55l-2.39.53a135.92,135.92,0,0,1-26.32,2.32c-1.28,0-2.56,0-3.88-.05-1.8,0-3.78-.09-6.19-.23-1.43-.08-2.85-.18-4.25-.29-2.2-.18-4.36-.4-6.39-.67l-1.83-.26-1.15-.18q-1.2-.19-2.31-.42l-.9-.18-2.5-.59c.59-.15,1.19-.29,1.84-.43l.47-.1.29-.07c.94-.18,1.92-.36,3-.54s2-.31,3.11-.47C899.82,351.25,902.9,351,906.18,350.75Zm46,73.42c-5.74,1.85-18.05,5-36.06,5-17.66,0-28.62-3-33.64-4.79V412.42a124.17,124.17,0,0,0,35.39,5,126.91,126.91,0,0,0,34.31-4.66Zm0-24a113.45,113.45,0,0,1-34.31,5.17,110.35,110.35,0,0,1-35.39-5.59v-11.6a123.68,123.68,0,0,0,35.39,5,126.39,126.39,0,0,0,34.31-4.67Zm0-24.28A113.78,113.78,0,0,1,917.88,381a115.46,115.46,0,0,1-27.32-3.23c-3.06-.75-5.59-1.53-7.51-2.18l-.56-.18V364.13c1.51.47,3.19.92,5,1.31l1.17.26.77.15,1.46.26h0c1.51.26,3.17.52,5,.77,3.07.42,6.34.73,9.77.95h0l1.47.09c2.09.11,4.16.19,6.52.23H914l3.32,0a145.06,145.06,0,0,0,29.8-2.74c1.87-.4,3.55-.84,5.06-1.31Z"/><polygon class="cls-5" points="1490.92 390.43 1377.02 390.43 1320.07 489.08 1377.02 587.72 1490.92 587.72 1547.88 489.08 1490.92 390.43"/><polygon class="cls-5" points="1491.07 150.59 1377.17 150.59 1320.21 249.23 1377.17 347.88 1491.07 347.88 1548.03 249.23 1491.07 150.59"/><polygon class="cls-5" points="1284.48 270.52 1170.57 270.52 1113.62 369.17 1170.57 467.81 1284.48 467.81 1341.43 369.17 1284.48 270.52"/><polygon class="cls-5" points="670.32 270.51 556.41 270.51 499.46 369.15 556.41 467.8 670.32 467.8 727.27 369.15 670.32 270.51"/><polygon class="cls-5" points="334.59 19 220.69 19 163.73 117.65 220.69 216.29 334.59 216.29 391.55 117.65 334.59 19"/><polygon class="cls-5" points="334.05 269.31 220.14 269.31 163.19 367.95 220.14 466.6 334.05 466.6 391 367.95 334.05 269.31"/><polygon class="cls-5" points="334.05 519.62 220.14 519.62 163.19 618.26 220.14 716.91 334.05 716.91 391 618.26 334.05 519.62"/><path class="cls-2" d="M326.14,326.28v-.11l-.32-.63c-2.09-4.13-7.23-6.89-16.68-9-8.63-1.88-20-2.93-32.05-2.93l-3.56,0h-.31c-3.1.08-5.19.16-7,.27l-2.71.16q-3.19.21-6.27.55l-1.26.14c-.64.08-1.26.15-1.88.24-2.69.37-5,.74-7,1.12l-.44.08-.95.2-.72.16q-2.93.65-5.28,1.38c-.39.11-.77.23-1.12.36a28.9,28.9,0,0,0-4.92,2.11,12.41,12.41,0,0,0-5.34,5.1,9.07,9.07,0,0,0-1,4.17v84.91l3.28,1.73c.55.32,14.45,8,45.12,8,29,0,45.46-7,47.25-7.77l3.73-1.67V329.71A9.17,9.17,0,0,0,326.14,326.28Zm-61,.75c.53,0,1.07-.08,1.61-.1,2.37-.15,4.61-.22,6.69-.25,1.21,0,2.47,0,3.69,0a148.82,148.82,0,0,1,28.73,2.47c.92.18,1.78.38,2.58.59-.82.18-1.66.38-2.58.57a145.49,145.49,0,0,1-28.3,2.49c-1.38,0-2.76,0-4.17,0-1.94,0-4.07-.1-6.66-.25-1.54-.09-3.07-.2-4.57-.32-2.37-.19-4.69-.43-6.88-.71l-2-.29L252,331c-.86-.14-1.68-.29-2.48-.45l-1-.19-2.68-.64c.63-.16,1.28-.31,2-.46l.51-.11.3-.07c1-.2,2.07-.4,3.2-.58s2.15-.34,3.35-.51C258.26,327.56,261.57,327.25,265.1,327Zm49.49,79c-6.18,2-19.42,5.37-38.79,5.37-19,0-30.78-3.22-36.19-5.16V393.35a133.59,133.59,0,0,0,38.07,5.38,136.9,136.9,0,0,0,36.91-5Zm0-25.83a122.66,122.66,0,0,1-36.91,5.56,118.59,118.59,0,0,1-38.07-6V367.22a133,133,0,0,0,38.07,5.39,135.92,135.92,0,0,0,36.91-5Zm0-26.12a125.5,125.5,0,0,1-66.29,2.08c-3.3-.8-6-1.64-8.08-2.34l-.61-.19V341.41c1.63.51,3.44,1,5.43,1.41l1.26.28.82.16,1.57.28s0,0,0,0c1.63.29,3.41.56,5.43.83,3.3.45,6.82.79,10.51,1h0l1.58.1c2.25.12,4.48.21,7,.24h.25c1.18,0,2.39,0,3.57,0,12,0,23.42-1,32.05-2.95,2-.43,3.82-.9,5.45-1.41Z"/><text class="cls-6" transform="translate(567.93 343.05)">ETL</text><text class="cls-7" transform="translate(864.18 315.67)">D<tspan class="cls-8" x="14.74" y="0">AT</tspan><tspan x="40.37" y="0">AB</tspan><tspan class="cls-9" x="66.95" y="0">A</tspan><tspan class="cls-10" x="81.5" y="0">SE </tspan></text><text class="cls-11" transform="translate(212.5 68.6)">OPER<tspan class="cls-12" x="48.34" y="0">A</tspan><tspan x="60.83" y="0">TIONAL</tspan><tspan class="cls-13" x="25.54" y="19.2">S</tspan><tspan class="cls-14" x="35.04" y="19.2">YS</tspan><tspan x="56.28" y="19.2">TE</tspan><tspan class="cls-15" x="77.54" y="19.2">M</tspan><tspan x="93.79" y="19.2">S </tspan></text><text class="cls-11" transform="translate(237.9 564.2)">SERVERS</text><text class="cls-7" transform="translate(89.9 280.48)">ED<tspan class="cls-9" x="26.23" y="0">M</tspan><tspan x="44.5" y="0">S</tspan></text><text class="cls-11" transform="translate(1202.96 311.59)">D<tspan class="cls-12" x="13.1" y="0">AT</tspan><tspan x="35.88" y="0">A</tspan><tspan class="cls-16" x="-47.31" y="19.2"> </tspan><tspan x="-44.56" y="19.2">V</tspan><tspan class="cls-15" x="-30.82" y="19.2">I</tspan><tspan x="-25.62" y="19.2">SUAL</tspan><tspan class="cls-15" x="21.42" y="19.2">I</tspan><tspan x="26.62" y="19.2">S</tspan><tspan class="cls-14" x="37.55" y="19.2">A</tspan><tspan x="50.04" y="19.2">TION</tspan></text><text class="cls-11" transform="translate(1409.55 193.76)">D<tspan class="cls-12" x="13.1" y="0">AT</tspan><tspan x="35.88" y="0">A</tspan><tspan x="-25.98" y="19.2">ANA</tspan><tspan class="cls-17" x="14.36" y="19.2">L</tspan><tspan x="22.9" y="19.2">YTICS</tspan></text><text class="cls-11" transform="translate(1391.54 435.36)">B<tspan class="cls-15" x="10.38" y="0">U</tspan><tspan x="23.12" y="0">SINE</tspan><tspan class="cls-15" x="63.61" y="0">S</tspan><tspan x="74.22" y="0">S</tspan><tspan x="-21.01" y="19.2">I</tspan><tspan class="cls-12" x="-15.49" y="19.2">N</tspan><tspan x="-2.43" y="19.2">TELLIGENCE</tspan></text><text class="cls-7" transform="translate(60.61 374.74)">PLM</text><text class="cls-7" transform="translate(95.45 474.16)">PDM</text><text class="cls-18" transform="translate(570.38 380.54)">E<tspan class="cls-19" x="15.11" y="0">xt</tspan><tspan class="cls-20" x="37.22" y="0">r</tspan><tspan class="cls-19" x="47.31" y="0">a</tspan><tspan class="cls-21" x="63.83" y="0">c</tspan><tspan class="cls-19" x="76.86" y="0">t</tspan><tspan x="-19.54" y="27.6">T</tspan><tspan class="cls-20" x="-5.31" y="27.6">r</tspan><tspan class="cls-19" x="4.77" y="27.6">a</tspan><tspan class="cls-21" x="21.3" y="27.6">n</tspan><tspan class="cls-19" x="35.97" y="27.6">sf</tspan><tspan class="cls-22" x="55.69" y="27.6">o</tspan><tspan class="cls-19" x="71.84" y="27.6">rm</tspan><tspan x="11.35" y="55.2">L</tspan><tspan class="cls-21" x="24.97" y="55.2">o</tspan><tspan class="cls-19" x="41.04" y="55.2">ad</tspan></text><rect class="cls-2" x="1181.46" y="352.58" width="7.9" height="81.71"/><rect class="cls-2" x="1221.78" y="386.08" width="7.9" height="88.53" transform="translate(1656.07 -795.38) rotate(90)"/><rect class="cls-2" x="1182.55" y="362.54" width="39.37" height="7.46" transform="matrix(0.87, -0.5, 0.5, 0.87, -22.07, 650.19)"/><rect class="cls-2" x="1211.85" y="363.07" width="36.18" height="7.46" transform="translate(450.32 -652.76) rotate(35.99)"/><rect class="cls-2" x="1234.21" y="360.84" width="39.37" height="7.46" transform="translate(210.79 1150.13) rotate(-53.19)"/><rect class="cls-2" x="1193.92" y="382.31" width="16.09" height="39.93"/><rect class="cls-2" x="1213.85" y="376.44" width="16.09" height="45.64"/><rect class="cls-2" x="1234.1" y="401.25" width="16.09" height="20.82"/><rect class="cls-2" x="1253.9" y="379.75" width="16.09" height="42.48"/><line class="cls-23" x1="220.14" y1="269.31" x2="169.65" y2="269.88"/><line class="cls-23" x1="163.19" y1="367.95" x2="118.3" y2="367.22"/><line class="cls-23" x1="220.14" y1="466.6" x2="169.65" y2="466.6"/><path class="cls-2" d="M321.34,684.91h-87.4V588.3h87.4Zm-80.07-7.32H314v-82H241.27Z"/><rect class="cls-2" x="237.6" y="617" width="80.08" height="7.33"/><rect class="cls-2" x="239.01" y="645.9" width="80.08" height="7.33"/><circle class="cls-2" cx="289.86" cy="665.87" r="4.19"/><circle class="cls-2" cx="303.7" cy="665.87" r="4.19"/><circle class="cls-2" cx="289.86" cy="635.77" r="4.19"/><circle class="cls-2" cx="303.7" cy="635.77" r="4.19"/><circle class="cls-2" cx="289.86" cy="606.3" r="4.19"/><circle class="cls-2" cx="303.7" cy="606.3" r="4.19"/><path class="cls-2" d="M274.52,610H250.19a3.67,3.67,0,0,1,0-7.33h24.33a3.67,3.67,0,1,1,0,7.33Z"/><path class="cls-2" d="M275.3,638.78H251a3.67,3.67,0,0,1,0-7.33H275.3a3.67,3.67,0,1,1,0,7.33Z"/><path class="cls-2" d="M274.52,669.54H250.19a3.67,3.67,0,0,1,0-7.33h24.33a3.67,3.67,0,1,1,0,7.33Z"/><path class="cls-2" d="M1416.08,307.72a39.21,39.21,0,1,1,39.21-39.21A39.26,39.26,0,0,1,1416.08,307.72Zm0-70.42a31.21,31.21,0,1,0,31.21,31.21A31.24,31.24,0,0,0,1416.08,237.3Z"/><rect class="cls-2" x="1452.4" y="290.97" width="19.04" height="35.26" transform="translate(2668.65 -572.43) rotate(131.95)"/><rect class="cls-2" x="1443.49" y="286.74" width="10.63" height="20.15" transform="translate(2638.01 -582.34) rotate(131.95)"/><polygon class="cls-2" points="1438.62 283.67 1395.76 283.67 1395.76 251.45 1401.76 251.45 1401.76 277.67 1438.62 277.67 1438.62 283.67"/><polygon class="cls-2" points="1415.88 274.33 1408.12 264.45 1399.92 269.06 1398.94 267.31 1408.63 261.87 1416.17 271.45 1429.31 260.15 1430.62 261.66 1415.88 274.33"/><polygon class="cls-2" points="1430.93 267.54 1428.94 267.31 1429.67 261.08 1422.99 261.08 1422.99 259.08 1431.92 259.08 1430.93 267.54"/><path class="cls-2" d="M1405.35,532.53a7,7,0,1,1,7-7A7,7,0,0,1,1405.35,532.53Zm0-10.23a3.23,3.23,0,1,0,3.23,3.23A3.23,3.23,0,0,0,1405.35,522.3Z"/><path class="cls-2" d="M1458.89,547.58a7,7,0,1,1,7-7A7,7,0,0,1,1458.89,547.58Zm0-10.23a3.23,3.23,0,1,0,3.23,3.23A3.23,3.23,0,0,0,1458.89,537.35Z"/><polygon class="cls-2" points="1430.03 555.24 1414.51 555.24 1414.51 541.12 1403.46 541 1403.46 529.35 1407.24 529.35 1407.24 537.26 1418.28 537.38 1418.28 551.46 1430.03 551.46 1430.03 555.24"/><rect class="cls-2" x="1428.14" y="547.68" width="3.78" height="11.33"/><rect class="cls-2" x="1433.96" y="543.98" width="3.78" height="18.89"/><polygon class="cls-2" points="1449.93 555.33 1436.47 555.24 1436.49 551.46 1446.15 551.53 1446.15 538.69 1454.86 538.69 1454.86 542.47 1449.93 542.47 1449.93 555.33"/><path class="cls-2" d="M1443,519.91h-20.46v-8.43a10,10,0,0,0-3.19-7.52,20.19,20.19,0,1,1,27-.21,10.8,10.8,0,0,0-3.4,7.95Zm-12.91-7.55h5.35v-.66a18.33,18.33,0,0,1,5.86-13.51,12.67,12.67,0,0,0,4.1-9.33,12.65,12.65,0,0,0-13.26-12.62,12.64,12.64,0,0,0-7.77,22.07,17.56,17.56,0,0,1,5.72,13.17Z"/><rect class="cls-2" x="1422.72" y="524.45" width="20.14" height="7.3"/><rect class="cls-2" x="1425.33" y="533.47" width="14.96" height="5.32"/><polyline class="cls-24" points="427.18 342.86 453.61 369.58 426.88 396.01"/><polyline class="cls-24" points="754.88 342.58 781.31 369.3 754.58 395.73"/><polyline class="cls-24" points="1042.67 342.58 1069.1 369.3 1042.38 395.73"/></g></g></svg>