<svg xmlns="http://www.w3.org/2000/svg" viewBox="0 0 1550.34 701.91"><defs><style>.cls-1{fill:#1c1a17;}.cls-2,.cls-22,.cls-23,.cls-4{fill:none;stroke-miterlimit:10;}.cls-2{stroke:#4c6ba7;stroke-width:5px;}.cls-3{fill:#4c6ba7;}.cls-4{stroke:#191919;}.cls-22,.cls-4{stroke-width:4px;}.cls-5{font-size:50px;font-family:Spartan-Black, Spartan;font-weight:800;}.cls-10,.cls-17,.cls-5,.cls-6{fill:#191919;}.cls-6{font-size:18px;}.cls-10,.cls-18,.cls-19,.cls-20,.cls-21,.cls-6{font-family:Spartan-Regular, Spartan;}.cls-7{letter-spacing:-0.05em;}.cls-8{letter-spacing:-0.02em;}.cls-9{letter-spacing:0em;}.cls-10{font-size:16px;}.cls-11{letter-spacing:-0.05em;}.cls-12{letter-spacing:-0.09em;}.cls-13{letter-spacing:-0.05em;}.cls-14{letter-spacing:-0.02em;}.cls-15{letter-spacing:-0.08em;}.cls-16{letter-spacing:-0.08em;}.cls-17{font-size:23px;font-family:Spartan-Bold, Spartan;font-weight:700;}.cls-18,.cls-19,.cls-20,.cls-21{font-weight:400;}.cls-19{letter-spacing:-0.01em;}.cls-20{letter-spacing:0em;}.cls-21{letter-spacing:0em;}.cls-22{stroke:#1c1a17;stroke-linecap:round;}.cls-23{stroke:#f5b646;stroke-width:7px;}</style></defs><g id="Layer_2" data-name="Layer 2"><g id="Layer_2-2" data-name="Layer 2"><path class="cls-1" d="M328.85,166.66H226.43l.06-53.11H328.85ZM233.6,159.5h88.08V121H233.61Z"/><path class="cls-1" d="M328.85,166.66H226.44V98.79l43.05-.27,3.87-10.4h44.69L321.5,98.4l7.35.07ZM233.6,159.5h88.08V105.56l-5.34,0L312.9,95.28H278.34l-3.86,10.37-40.88.26Z"/><polygon class="cls-1" points="267.42 95.28 226.49 95.28 226.49 88.12 269.86 88.12 267.42 95.28"/><polygon class="cls-2" points="678.11 239.55 548.09 239.55 483.08 352.15 548.09 464.76 678.11 464.76 743.12 352.15 678.11 239.55"/><polygon class="cls-3" points="616.95 235.05 624.75 239.55 616.95 244.06 609.14 248.56 609.14 239.55 609.14 230.54 616.95 235.05"/><polygon class="cls-3" points="716.06 296.36 716.06 305.37 708.25 300.87 700.45 296.36 708.25 291.85 716.06 287.35 716.06 296.36"/><polygon class="cls-3" points="617.44 465.32 617.44 474.33 609.64 469.83 601.83 465.32 609.64 460.81 617.44 456.31 617.44 465.32"/><polygon class="cls-3" points="518.85 414.57 511.04 419.08 511.04 410.07 511.04 401.06 518.85 405.56 526.65 410.07 518.85 414.57"/><polygon class="cls-3" points="515.27 296.56 507.47 292.06 515.27 287.55 523.08 283.05 523.08 292.06 523.08 301.07 515.27 296.56"/><polygon class="cls-4" points="973.77 253.51 859.87 253.51 802.91 352.15 859.87 450.8 973.77 450.8 1030.73 352.15 973.77 253.51"/><path class="cls-1" d="M962.94,333.06V333l-.3-.58c-1.94-3.83-6.73-6.41-15.51-8.33a146.52,146.52,0,0,0-29.8-2.72l-3.31,0h-.28c-2.89.07-4.83.15-6.47.25l-2.52.15q-3,.19-5.83.5l-1.17.14-1.75.22c-2.5.34-4.62.68-6.52,1l-.41.08-.89.18-.67.15q-2.71.6-4.91,1.28l-1,.33a26.94,26.94,0,0,0-4.57,2,11.47,11.47,0,0,0-5,4.74,8.36,8.36,0,0,0-.9,3.88v78.94l3,1.62c.51.29,13.43,7.45,42,7.45,27,0,42.27-6.49,43.94-7.24l3.46-1.54V336.25A8.56,8.56,0,0,0,962.94,333.06Zm-56.76.69,1.5-.09c2.2-.13,4.28-.2,6.22-.23,1.13,0,2.3,0,3.43,0a138.35,138.35,0,0,1,26.72,2.3c.84.17,1.64.35,2.39.55l-2.39.53a135.92,135.92,0,0,1-26.32,2.32c-1.28,0-2.56,0-3.88-.05-1.8,0-3.78-.09-6.19-.23-1.43-.08-2.85-.18-4.25-.29-2.2-.18-4.36-.4-6.39-.67l-1.83-.26-1.15-.18q-1.2-.19-2.31-.42l-.9-.18-2.5-.59c.59-.15,1.19-.29,1.84-.43l.47-.1.29-.07c.94-.18,1.92-.36,3-.54s2-.31,3.11-.47C899.82,334.25,902.9,334,906.18,333.75Zm46,73.42c-5.74,1.85-18.05,5-36.06,5-17.66,0-28.62-3-33.64-4.79V395.42a124.17,124.17,0,0,0,35.39,5,126.91,126.91,0,0,0,34.31-4.66Zm0-24a113.45,113.45,0,0,1-34.31,5.17,110.35,110.35,0,0,1-35.39-5.59v-11.6a123.68,123.68,0,0,0,35.39,5,126.39,126.39,0,0,0,34.31-4.67Zm0-24.28A113.78,113.78,0,0,1,917.88,364a115.46,115.46,0,0,1-27.32-3.23c-3.06-.75-5.59-1.53-7.51-2.18l-.56-.18V347.13c1.51.47,3.19.92,5,1.31l1.17.26.77.15,1.46.26h0c1.51.26,3.17.52,5,.77,3.07.42,6.34.73,9.77.95h0l1.47.09c2.09.11,4.16.19,6.52.23H914l3.32,0a145.06,145.06,0,0,0,29.8-2.74c1.87-.4,3.55-.84,5.06-1.31Z"/><polygon class="cls-4" points="1490.92 373.43 1377.02 373.43 1320.07 472.08 1377.02 570.72 1490.92 570.72 1547.88 472.08 1490.92 373.43"/><polygon class="cls-4" points="1491.07 133.59 1377.17 133.59 1320.21 232.23 1377.17 330.88 1491.07 330.88 1548.03 232.23 1491.07 133.59"/><polygon class="cls-4" points="1284.48 253.52 1170.57 253.52 1113.62 352.17 1170.57 450.81 1284.48 450.81 1341.43 352.17 1284.48 253.52"/><polygon class="cls-4" points="670.32 253.51 556.41 253.51 499.46 352.15 556.41 450.8 670.32 450.8 727.27 352.15 670.32 253.51"/><polygon class="cls-4" points="334.59 2 220.69 2 163.73 100.65 220.69 199.29 334.59 199.29 391.55 100.65 334.59 2"/><polygon class="cls-4" points="334.05 252.31 220.14 252.31 163.19 350.95 220.14 449.6 334.05 449.6 391 350.95 334.05 252.31"/><polygon class="cls-4" points="334.05 502.62 220.14 502.62 163.19 601.26 220.14 699.91 334.05 699.91 391 601.26 334.05 502.62"/><path class="cls-1" d="M326.14,309.28v-.11l-.32-.63c-2.09-4.13-7.23-6.89-16.68-9-8.63-1.88-20-2.93-32.05-2.93l-3.56,0h-.31c-3.1.08-5.19.16-7,.27l-2.71.16q-3.19.21-6.27.55l-1.26.14c-.64.08-1.26.15-1.88.24-2.69.37-5,.74-7,1.12l-.44.08-.95.2-.72.16q-2.93.65-5.28,1.38c-.39.11-.77.23-1.12.36a28.9,28.9,0,0,0-4.92,2.11,12.41,12.41,0,0,0-5.34,5.1,9.07,9.07,0,0,0-1,4.17v84.91l3.28,1.73c.55.32,14.45,8,45.12,8,29,0,45.46-7,47.25-7.77l3.73-1.67V312.71A9.17,9.17,0,0,0,326.14,309.28Zm-61,.75c.53,0,1.07-.08,1.61-.1,2.37-.15,4.61-.22,6.69-.25,1.21,0,2.47,0,3.69,0a148.82,148.82,0,0,1,28.73,2.47c.92.18,1.78.38,2.58.59-.82.18-1.66.38-2.58.57a145.49,145.49,0,0,1-28.3,2.49c-1.38,0-2.76,0-4.17,0-1.94,0-4.07-.1-6.66-.25-1.54-.09-3.07-.2-4.57-.32-2.37-.19-4.69-.43-6.88-.71l-2-.29L252,314c-.86-.14-1.68-.29-2.48-.45l-1-.19-2.68-.64c.63-.16,1.28-.31,2-.46l.51-.11.3-.07c1-.2,2.07-.4,3.2-.58s2.15-.34,3.35-.51C258.26,310.56,261.57,310.25,265.1,310Zm49.49,79c-6.18,2-19.42,5.37-38.79,5.37-19,0-30.78-3.22-36.19-5.16V376.35a133.59,133.59,0,0,0,38.07,5.38,136.9,136.9,0,0,0,36.91-5Zm0-25.83a122.66,122.66,0,0,1-36.91,5.56,118.59,118.59,0,0,1-38.07-6V350.22a133,133,0,0,0,38.07,5.39,135.92,135.92,0,0,0,36.91-5Zm0-26.12a125.5,125.5,0,0,1-66.29,2.08c-3.3-.8-6-1.64-8.08-2.34l-.61-.19V324.41c1.63.51,3.44,1,5.43,1.41l1.26.28.82.16,1.57.28s0,0,0,0c1.63.29,3.41.56,5.43.83,3.3.45,6.82.79,10.51,1h0l1.58.1c2.25.12,4.48.21,7,.24h.25c1.18,0,2.39,0,3.57,0,12,0,23.42-1,32.05-2.95,2-.43,3.82-.9,5.45-1.41Z"/><text class="cls-5" transform="translate(567.93 326.05)">ETL</text><text class="cls-6" transform="translate(864.18 298.67)">D<tspan class="cls-7" x="14.74" y="0">AT</tspan><tspan x="40.37" y="0">AB</tspan><tspan class="cls-8" x="66.95" y="0">A</tspan><tspan class="cls-9" x="81.5" y="0">SE </tspan></text><text class="cls-10" transform="translate(212.5 51.6)">OPER<tspan class="cls-11" x="48.34" y="0">A</tspan><tspan x="60.83" y="0">TIONAL</tspan><tspan class="cls-12" x="25.54" y="19.2">S</tspan><tspan class="cls-13" x="35.04" y="19.2">YS</tspan><tspan x="56.28" y="19.2">TE</tspan><tspan class="cls-14" x="77.54" y="19.2">M</tspan><tspan x="93.79" y="19.2">S </tspan></text><text class="cls-10" transform="translate(237.9 547.2)">SERVERS</text><text class="cls-6" transform="translate(89.9 263.48)">ED<tspan class="cls-8" x="26.23" y="0">M</tspan><tspan x="44.5" y="0">S</tspan></text><text class="cls-10" transform="translate(1202.96 294.59)">D<tspan class="cls-11" x="13.1" y="0">AT</tspan><tspan x="35.88" y="0">A</tspan><tspan class="cls-15" x="-47.31" y="19.2"> </tspan><tspan x="-44.56" y="19.2">V</tspan><tspan class="cls-14" x="-30.82" y="19.2">I</tspan><tspan x="-25.62" y="19.2">SUAL</tspan><tspan class="cls-14" x="21.42" y="19.2">I</tspan><tspan x="26.62" y="19.2">S</tspan><tspan class="cls-13" x="37.55" y="19.2">A</tspan><tspan x="50.04" y="19.2">TION</tspan></text><text class="cls-10" transform="translate(1409.55 176.76)">D<tspan class="cls-11" x="13.1" y="0">AT</tspan><tspan x="35.88" y="0">A</tspan><tspan x="-25.98" y="19.2">ANA</tspan><tspan class="cls-16" x="14.36" y="19.2">L</tspan><tspan x="22.9" y="19.2">YTICS</tspan></text><text class="cls-10" transform="translate(1391.54 418.36)">B<tspan class="cls-14" x="10.38" y="0">U</tspan><tspan x="23.12" y="0">SINE</tspan><tspan class="cls-14" x="63.61" y="0">S</tspan><tspan x="74.22" y="0">S</tspan><tspan x="-21.01" y="19.2">I</tspan><tspan class="cls-11" x="-15.49" y="19.2">N</tspan><tspan x="-2.43" y="19.2">TELLIGENCE</tspan></text><text class="cls-6" transform="translate(60.61 357.74)">PLM</text><text class="cls-6" transform="translate(95.45 457.16)">PDM</text><text class="cls-17" transform="translate(570.38 363.54)">E<tspan class="cls-18" x="15.11" y="0">xt</tspan><tspan class="cls-19" x="37.22" y="0">r</tspan><tspan class="cls-18" x="47.31" y="0">a</tspan><tspan class="cls-20" x="63.83" y="0">c</tspan><tspan class="cls-18" x="76.86" y="0">t</tspan><tspan x="-19.54" y="27.6">T</tspan><tspan class="cls-19" x="-5.31" y="27.6">r</tspan><tspan class="cls-18" x="4.77" y="27.6">a</tspan><tspan class="cls-20" x="21.3" y="27.6">n</tspan><tspan class="cls-18" x="35.97" y="27.6">sf</tspan><tspan class="cls-21" x="55.69" y="27.6">o</tspan><tspan class="cls-18" x="71.84" y="27.6">rm</tspan><tspan x="11.35" y="55.2">L</tspan><tspan class="cls-20" x="24.97" y="55.2">o</tspan><tspan class="cls-18" x="41.04" y="55.2">ad</tspan></text><rect class="cls-1" x="1181.46" y="335.58" width="7.9" height="81.71"/><rect class="cls-1" x="1221.78" y="369.08" width="7.9" height="88.53" transform="translate(1639.07 -812.38) rotate(90)"/><rect class="cls-1" x="1182.55" y="345.54" width="39.37" height="7.46" transform="matrix(0.87, -0.5, 0.5, 0.87, -13.57, 647.91)"/><rect class="cls-1" x="1211.85" y="346.07" width="36.18" height="7.46" transform="translate(440.33 -656) rotate(35.99)"/><rect class="cls-1" x="1234.21" y="343.84" width="39.37" height="7.46" transform="translate(224.4 1143.31) rotate(-53.19)"/><rect class="cls-1" x="1193.92" y="365.31" width="16.09" height="39.93"/><rect class="cls-1" x="1213.85" y="359.44" width="16.09" height="45.64"/><rect class="cls-1" x="1234.1" y="384.25" width="16.09" height="20.82"/><rect class="cls-1" x="1253.9" y="362.75" width="16.09" height="42.48"/><line class="cls-22" x1="220.14" y1="252.31" x2="169.65" y2="252.88"/><line class="cls-22" x1="163.19" y1="350.95" x2="118.3" y2="350.22"/><line class="cls-22" x1="220.14" y1="449.6" x2="169.65" y2="449.6"/><path class="cls-1" d="M321.34,667.91h-87.4V571.3h87.4Zm-80.07-7.32H314v-82H241.27Z"/><rect class="cls-1" x="237.6" y="600" width="80.08" height="7.33"/><rect class="cls-1" x="239.01" y="628.9" width="80.08" height="7.33"/><circle class="cls-1" cx="289.86" cy="648.87" r="4.19"/><circle class="cls-1" cx="303.7" cy="648.87" r="4.19"/><circle class="cls-1" cx="289.86" cy="618.77" r="4.19"/><circle class="cls-1" cx="303.7" cy="618.77" r="4.19"/><circle class="cls-1" cx="289.86" cy="589.3" r="4.19"/><circle class="cls-1" cx="303.7" cy="589.3" r="4.19"/><path class="cls-1" d="M274.52,593H250.19a3.67,3.67,0,0,1,0-7.33h24.33a3.67,3.67,0,1,1,0,7.33Z"/><path class="cls-1" d="M275.3,621.78H251a3.67,3.67,0,0,1,0-7.33H275.3a3.67,3.67,0,1,1,0,7.33Z"/><path class="cls-1" d="M274.52,652.54H250.19a3.67,3.67,0,0,1,0-7.33h24.33a3.67,3.67,0,1,1,0,7.33Z"/><path class="cls-1" d="M1416.08,290.72a39.21,39.21,0,1,1,39.21-39.21A39.26,39.26,0,0,1,1416.08,290.72Zm0-70.42a31.21,31.21,0,1,0,31.21,31.21A31.24,31.24,0,0,0,1416.08,220.3Z"/><rect class="cls-1" x="1452.4" y="273.97" width="19.04" height="35.26" transform="translate(2656.01 -600.8) rotate(131.95)"/><rect class="cls-1" x="1443.49" y="269.74" width="10.63" height="20.15" transform="translate(2625.37 -610.71) rotate(131.95)"/><polygon class="cls-1" points="1438.62 266.67 1395.76 266.67 1395.76 234.45 1401.76 234.45 1401.76 260.67 1438.62 260.67 1438.62 266.67"/><polygon class="cls-1" points="1415.88 257.33 1408.12 247.45 1399.92 252.06 1398.94 250.31 1408.63 244.87 1416.17 254.45 1429.31 243.15 1430.62 244.66 1415.88 257.33"/><polygon class="cls-1" points="1430.93 250.54 1428.94 250.31 1429.67 244.08 1422.99 244.08 1422.99 242.08 1431.92 242.08 1430.93 250.54"/><path class="cls-1" d="M1405.35,515.53a7,7,0,1,1,7-7A7,7,0,0,1,1405.35,515.53Zm0-10.23a3.23,3.23,0,1,0,3.23,3.23A3.23,3.23,0,0,0,1405.35,505.3Z"/><path class="cls-1" d="M1458.89,530.59a7,7,0,1,1,7-7A7,7,0,0,1,1458.89,530.59Zm0-10.24a3.23,3.23,0,1,0,3.23,3.23A3.23,3.23,0,0,0,1458.89,520.35Z"/><polygon class="cls-1" points="1430.03 538.24 1414.51 538.24 1414.51 524.12 1403.46 524 1403.46 512.35 1407.24 512.35 1407.24 520.26 1418.28 520.38 1418.28 534.46 1430.03 534.46 1430.03 538.24"/><rect class="cls-1" x="1428.14" y="530.68" width="3.78" height="11.33"/><rect class="cls-1" x="1433.96" y="526.98" width="3.78" height="18.89"/><polygon class="cls-1" points="1449.93 538.33 1436.47 538.24 1436.49 534.46 1446.15 534.53 1446.15 521.69 1454.86 521.69 1454.86 525.47 1449.93 525.47 1449.93 538.33"/><path class="cls-1" d="M1443,502.91h-20.46v-8.43a10,10,0,0,0-3.19-7.52,20.19,20.19,0,1,1,27-.21,10.8,10.8,0,0,0-3.4,7.95Zm-12.91-7.55h5.35v-.66a18.33,18.33,0,0,1,5.86-13.51,12.67,12.67,0,0,0,4.1-9.33,12.65,12.65,0,0,0-13.26-12.62,12.64,12.64,0,0,0-7.77,22.07,17.56,17.56,0,0,1,5.72,13.17Z"/><rect class="cls-1" x="1422.72" y="507.45" width="20.14" height="7.3"/><rect class="cls-1" x="1425.33" y="516.47" width="14.96" height="5.32"/><polyline class="cls-23" points="427.18 325.86 453.61 352.58 426.88 379.01"/><polyline class="cls-23" points="754.88 325.58 781.31 352.3 754.58 378.73"/><polyline class="cls-23" points="1042.67 325.58 1069.1 352.3 1042.38 378.73"/></g></g></svg>