<svg xmlns="http://www.w3.org/2000/svg" viewBox="0 0 952.07 217.88"><defs><style>.cls-1{fill:none;stroke:#f4ce45;stroke-width:7px;}.cls-1,.cls-3{stroke-miterlimit:10;}.cls-2{fill:#f4ce45;}.cls-3{fill:#f5f7f5;stroke:#f5f7f5;stroke-width:6px;}.cls-4{fill:#4c6ba7;}.cls-5{fill-rule:evenodd;}</style></defs><g id="Layer_2" data-name="Layer 2"><g id="Layer_1-2" data-name="Layer 1"><polyline class="cls-1" points="284.61 81.92 309.57 108.64 284.61 135.07"/><polyline class="cls-1" points="635.5 81.92 660.18 108.64 635.5 135.07"/><polygon class="cls-2" points="413.25 217 350.61 108.5 413.25 0 538.54 0 601.18 108.5 538.54 217 413.25 217"/><polygon class="cls-3" points="532.77 10 419.02 10 362.16 108.5 419.02 207 532.77 207 589.63 108.5 532.77 10"/><path d="M442.84,41.23l1-9.9h2.06l2.37,6.19,2.36-6.19h2.07l1,9.9h-1.94l-.62-6.41L448.84,41h-1.19l-2.26-6.16-.62,6.41Z"/><path d="M460.17,41.42a4.84,4.84,0,0,1-1.94-.39,5,5,0,0,1-1.59-1.11,5.15,5.15,0,0,1-1.08-1.63,5.48,5.48,0,0,1,0-4,5.15,5.15,0,0,1,1.08-1.63,4.77,4.77,0,0,1,1.59-1.1,4.9,4.9,0,0,1,3.88,0,4.77,4.77,0,0,1,1.59,1.1,5,5,0,0,1,1.07,1.63,5.35,5.35,0,0,1,0,4A5.14,5.14,0,0,1,462.11,41,4.84,4.84,0,0,1,460.17,41.42Zm0-1.87a2.71,2.71,0,0,0,2.09-.92,3.1,3.1,0,0,0,.6-1,4,4,0,0,0,0-2.63,3.1,3.1,0,0,0-.6-1,2.71,2.71,0,0,0-2.09-.92,2.75,2.75,0,0,0-1.15.24,2.69,2.69,0,0,0-.92.68,3.31,3.31,0,0,0-.61,1,4.22,4.22,0,0,0,0,2.63,3.31,3.31,0,0,0,.61,1,2.69,2.69,0,0,0,.92.68A2.75,2.75,0,0,0,460.16,39.55Z"/><path d="M467.14,41.23v-9.9h1.94L473.35,38V31.33h1.94v9.9h-1.94l-4.27-6.66v6.66Z"/><path d="M478,41.23v-9.9h1.94v9.9Z"/><path d="M483.46,41.23V33.05H481V31.33h7v1.72h-2.52v8.18Z"/><path d="M493.37,41.42a4.84,4.84,0,0,1-1.94-.39,5.18,5.18,0,0,1-1.59-1.11,5.17,5.17,0,0,1-1.46-3.63,5.18,5.18,0,0,1,.39-2,5.13,5.13,0,0,1,1.07-1.63,5,5,0,0,1,1.59-1.1,4.93,4.93,0,0,1,3.89,0,5,5,0,0,1,1.59,1.1A5.3,5.3,0,0,1,498,34.28a5.35,5.35,0,0,1,0,4,5.3,5.3,0,0,1-1.07,1.63A5.18,5.18,0,0,1,495.32,41,4.89,4.89,0,0,1,493.37,41.42Zm0-1.87a2.71,2.71,0,0,0,2.08-.92,3.31,3.31,0,0,0,.61-1,4.22,4.22,0,0,0,0-2.63,3.31,3.31,0,0,0-.61-1,2.78,2.78,0,0,0-4.16,0,3.1,3.1,0,0,0-.6,1,4.22,4.22,0,0,0,0,2.63,3.1,3.1,0,0,0,.6,1,2.71,2.71,0,0,0,2.08.92Z"/><path d="M500.34,41.23v-9.9h3.37a4,4,0,0,1,1.76.36,2.63,2.63,0,0,1,1.16,1,3.06,3.06,0,0,1,.41,1.61,3.34,3.34,0,0,1-.26,1.34,2.73,2.73,0,0,1-.76,1,3.35,3.35,0,0,1-1.19.61l3.24,3.95H505.6l-2.85-3.73h-.47v3.73Zm1.94-5.35h.83a2.6,2.6,0,0,0,1-.18,1.31,1.31,0,0,0,.64-.51,1.45,1.45,0,0,0,.23-.81,1.33,1.33,0,0,0-.5-1.11,2.2,2.2,0,0,0-1.4-.39h-.83Z"/><polyline class="cls-2" points="701.5 108.5 764.14 0 889.43 0 952.07 108.5 889.43 217 764.14 217"/><polygon class="cls-3" points="883.66 10 769.92 10 713.05 108.5 769.92 207 883.66 207 940.53 108.5 883.66 10"/><path d="M800.75,42.23v-9.9h2.72a5,5,0,0,1,2,.38,4.79,4.79,0,0,1,1.59,1,4.91,4.91,0,0,1,1.44,3.53,4.84,4.84,0,0,1-3,4.56,5.12,5.12,0,0,1-2,.38Zm2-1.74h.56a3.19,3.19,0,0,0,1.24-.24,2.94,2.94,0,0,0,1-.67,3,3,0,0,0,.65-1,3.53,3.53,0,0,0,0-2.56,3,3,0,0,0-.65-1,2.94,2.94,0,0,0-1-.67,3.19,3.19,0,0,0-1.24-.24h-.56Z"/><path d="M810.43,42.23v-9.9h5.5V34h-3.56v2.39h3.42v1.7h-3.42v2.41h3.56v1.7Z"/><path d="M818.31,42.23v-9.9h1.94v8.2h3.58v1.7Z"/><path d="M825.41,42.23v-9.9h2v9.9Z"/><path d="M832,42.23l-4.15-9.9H830l2.72,7,2.72-7h2.19l-4.15,9.9Z"/><path d="M839.08,42.23v-9.9h5.5V34H841v2.39h3.42v1.7H841v2.41h3.56v1.7Z"/><path d="M847,42.23v-9.9h3.37a4,4,0,0,1,1.76.36,2.63,2.63,0,0,1,1.16,1,3.06,3.06,0,0,1,.41,1.61,3.34,3.34,0,0,1-.26,1.34,2.73,2.73,0,0,1-.76,1,3.35,3.35,0,0,1-1.19.61l3.24,3.95h-2.47l-2.85-3.73h-.47v3.73Zm1.94-5.35h.83a2.6,2.6,0,0,0,1-.18,1.31,1.31,0,0,0,.64-.51,1.45,1.45,0,0,0,.23-.81,1.33,1.33,0,0,0-.5-1.11,2.2,2.2,0,0,0-1.4-.39h-.83Z"/></g><g id="Layer_2-2" data-name="Layer 2"><polygon class="cls-2" points="62.64 217.88 0 109.38 62.64 0.88 187.93 0.88 250.57 109.38 187.93 217.88 62.64 217.88"/><polygon class="cls-3" points="182.16 10.88 68.41 10.88 11.55 109.38 68.41 207.88 182.16 207.88 239.02 109.38 182.16 10.88"/><line class="cls-4" x1="564.81" y1="166.95" x2="564.81" y2="175.96"/><line class="cls-4" x1="564.81" y1="166.95" x2="564.81" y2="175.96"/><path d="M88.35,42.52a5.46,5.46,0,0,1-2.08-.39A5.23,5.23,0,0,1,84.58,41a4.89,4.89,0,0,1-1.12-1.64,5.09,5.09,0,0,1,1.12-5.66,5.32,5.32,0,0,1,1.68-1.1,5.74,5.74,0,0,1,3.82-.12,4.7,4.7,0,0,1,1.43.73l-.55,1a3.82,3.82,0,0,0-1.15-.61,4.54,4.54,0,0,0-1.39-.21,4.25,4.25,0,0,0-1.62.3,3.85,3.85,0,0,0-1.28.84,3.54,3.54,0,0,0-.84,1.25,4.13,4.13,0,0,0,0,3.09,3.57,3.57,0,0,0,.84,1.26A4,4,0,0,0,86.8,41a4.25,4.25,0,0,0,1.62.3,4.54,4.54,0,0,0,1.39-.21A3.61,3.61,0,0,0,91,40.5l.55,1a4.93,4.93,0,0,1-1.41.72A5.58,5.58,0,0,1,88.35,42.52Z"/><path d="M97.84,42.52a4.84,4.84,0,0,1-1.94-.39A5,5,0,0,1,94.31,41a5.24,5.24,0,0,1,0-7.28,4.88,4.88,0,0,1,1.59-1.1,4.93,4.93,0,0,1,3.89,0,5,5,0,0,1,1.59,1.1,5.3,5.3,0,0,1,1.07,1.63,5.48,5.48,0,0,1,0,4A5.35,5.35,0,0,1,101.38,41a5.15,5.15,0,0,1-1.59,1.1A4.89,4.89,0,0,1,97.84,42.52Zm0-1.17a3.51,3.51,0,0,0,2.62-1.14,3.71,3.71,0,0,0,.78-1.26,4.2,4.2,0,0,0,.28-1.56,4.29,4.29,0,0,0-.28-1.57,3.71,3.71,0,0,0-.78-1.26,3.61,3.61,0,0,0-1.17-.83,3.65,3.65,0,0,0-2.9,0,3.84,3.84,0,0,0-1.17.83,4.05,4.05,0,0,0-.78,1.26,4.5,4.5,0,0,0-.27,1.57A4.41,4.41,0,0,0,94.44,39a4.05,4.05,0,0,0,.78,1.26,3.71,3.71,0,0,0,1.17.84A3.52,3.52,0,0,0,97.84,41.35Z"/><path d="M105.27,42.33v-9.9h1.21l5,7.84V32.43h1.22v9.9h-1.22l-5-7.84v7.84Z"/><path d="M115.78,42.33v-9.9H121V33.5H116.6l.39-.31v4.18l-.39-.54h4.08V37.9H116.6l.39-.54v5Z"/><path d="M123.26,42.33v-9.9h1.22v9.9Z"/><path d="M131.78,42.52A4.62,4.62,0,0,1,128.33,41a4.94,4.94,0,0,1-1-1.63,5.32,5.32,0,0,1-.37-2,5.73,5.73,0,0,1,.33-1.94,5.15,5.15,0,0,1,1-1.64,4.64,4.64,0,0,1,1.57-1.14,4.92,4.92,0,0,1,2.08-.42,5.45,5.45,0,0,1,1.41.18,5.1,5.1,0,0,1,1.25.5,4.46,4.46,0,0,1,1,.77l-.61.93a4,4,0,0,0-1.37-.94,4.24,4.24,0,0,0-1.72-.35,3.64,3.64,0,0,0-1.55.31,3.42,3.42,0,0,0-1.14.88,3.73,3.73,0,0,0-.71,1.28,4.82,4.82,0,0,0,0,3.15,4,4,0,0,0,.76,1.29,3.41,3.41,0,0,0,1.15.85,3.17,3.17,0,0,0,1.41.31A3.51,3.51,0,0,0,133,41.2a3.36,3.36,0,0,0,1-.58,3.09,3.09,0,0,0,.74-.91,2.56,2.56,0,0,0,.27-1.18v-.29h-3.34v-1h4.59v1.07a3.92,3.92,0,0,1-.39,1.78,3.85,3.85,0,0,1-1.05,1.31,5.1,5.1,0,0,1-1.46.81A5.19,5.19,0,0,1,131.78,42.52Z"/><path d="M142.07,42.52a3.51,3.51,0,0,1-2.64-.93,3.94,3.94,0,0,1-.88-2.79V32.43h1.21v6.06a3.34,3.34,0,0,0,.57,2.14,2.55,2.55,0,0,0,3.49,0,3.34,3.34,0,0,0,.56-2.14V32.43h1.23V38.8a3.94,3.94,0,0,1-.89,2.79A3.49,3.49,0,0,1,142.07,42.52Z"/><path d="M148.52,42.33v-9.9h2.81a3.92,3.92,0,0,1,1.71.34,2.59,2.59,0,0,1,1.11,1,2.91,2.91,0,0,1,.39,1.54,3,3,0,0,1-.3,1.38,2.55,2.55,0,0,1-.88,1,3.17,3.17,0,0,1-1.35.51l3.28,4.16h-1.55l-3.07-4h-.93v4Zm1.22-5.08H151a2.86,2.86,0,0,0,1.22-.23,1.86,1.86,0,0,0,.79-.67,1.91,1.91,0,0,0,.27-1,1.72,1.72,0,0,0-.6-1.4,2.52,2.52,0,0,0-1.68-.51h-1.26Z"/><path d="M157.11,42.33v-9.9h5.14V33.5h-3.92v3.33h3.78V37.9h-3.78v3.36h3.92v1.07Z"/><path class="cls-5" d="M61.23,138h12a2.55,2.55,0,0,1-1.92-2.47V63.81a2.56,2.56,0,0,1,2.55-2.54h106.9a2.55,2.55,0,0,1,2.55,2.54v71.67a2.53,2.53,0,0,1-1.92,2.46H194a3,3,0,0,1,3,3h0a3,3,0,0,1-3,3H61.23a3,3,0,0,1-3-3h0a3,3,0,0,1,3-3Zm93.05-34.28a1.11,1.11,0,0,0-.84-.19,1.09,1.09,0,0,0-.72.48l-1,1.38a8.36,8.36,0,0,0-1.1-.37c-.39-.1-.77-.18-1.15-.24l-.32-1.82a1.1,1.1,0,0,0-1.29-.9l-2.29.39a1.11,1.11,0,0,0-.71.45,1,1,0,0,0-.19.84l.29,1.66a9.44,9.44,0,0,0-1.05.54c-.34.21-.65.42-.94.64l-1.54-1.07a1.11,1.11,0,0,0-.83-.2,1.19,1.19,0,0,0-.72.46l-1.32,1.88a1.06,1.06,0,0,0-.19.84,1.05,1.05,0,0,0,.46.72l1.39,1a8.36,8.36,0,0,0-.37,1.1,6.69,6.69,0,0,0-.23,1.15l-1.83.31a1.13,1.13,0,0,0-.72.45,1,1,0,0,0-.18.84l.39,2.32a1.16,1.16,0,0,0,.45.71,1.13,1.13,0,0,0,.84.19l1.67-.29a10.12,10.12,0,0,0,.53,1,8.14,8.14,0,0,0,.66,1l-1.08,1.52a1,1,0,0,0-.19.82,1.19,1.19,0,0,0,.46.72l1.89,1.34a1.08,1.08,0,0,0,.84.17,1.12,1.12,0,0,0,.72-.44l1-1.41a8.06,8.06,0,0,0,1.11.38,9.36,9.36,0,0,0,1.15.23l.32,1.83a1,1,0,0,0,.45.72,1.07,1.07,0,0,0,.83.18l2.3-.41a1,1,0,0,0,.71-.45,1.07,1.07,0,0,0,.19-.83l-.3-1.67a9.52,9.52,0,0,0,1.06-.53,8.85,8.85,0,0,0,1-.65l1.53,1.07a1,1,0,0,0,.82.19,1.08,1.08,0,0,0,.73-.46l1.34-1.88a1.07,1.07,0,0,0,.17-.83,1.14,1.14,0,0,0-.44-.72l-1.41-1a10.32,10.32,0,0,0,.37-1.11c.1-.37.17-.76.24-1.15l1.83-.31a1.1,1.1,0,0,0,.9-1.29l-.4-2.28a1.08,1.08,0,0,0-.45-.71,1,1,0,0,0-.83-.19l-1.67.29a10,10,0,0,0-.53-1,8.54,8.54,0,0,0-.66-1l1.07-1.54a1.07,1.07,0,0,0,.2-.83,1.13,1.13,0,0,0-.47-.72l-1.89-1.33Zm-6.66,5.39a4.5,4.5,0,0,1,3.38.74,4.62,4.62,0,0,1,1.2,1.25,4.47,4.47,0,0,1,.64,1.67,4.69,4.69,0,0,1,0,1.79,4.75,4.75,0,0,1-.7,1.57,4.38,4.38,0,0,1-1.26,1.2,4.56,4.56,0,0,1-5-.11,4.22,4.22,0,0,1-1.2-1.25,4.65,4.65,0,0,1-.65-1.66,4.55,4.55,0,0,1,.75-3.37A4.58,4.58,0,0,1,146,109.7a4.3,4.3,0,0,1,1.67-.64ZM130,82a1,1,0,0,0-.26-.19.81.81,0,0,0-.29,0,.84.84,0,0,0-.3,0,.88.88,0,0,0-.24.18h0l-2.2,2.19a1.26,1.26,0,0,1-1.59.14c-.25-.15-.51-.31-.79-.46s-.6-.31-.88-.44l-.91-.38-.94-.34a1.25,1.25,0,0,1-.86-1.18h0V78.13a.76.76,0,0,0-.06-.32.72.72,0,0,0-.16-.24h0a.84.84,0,0,0-.24-.16.76.76,0,0,0-.32-.06h-4.22a.79.79,0,0,0-.28,0,.67.67,0,0,0-.27.2h0a.6.6,0,0,0-.17.23.68.68,0,0,0-.06.31V81.2a1.24,1.24,0,0,1-1,1.23c-.33.08-.63.15-.9.23s-.61.21-.92.32-.58.24-.89.38-.59.28-.84.43a1.25,1.25,0,0,1-1.47-.2h0L106.5,81.2l0,0h0a.79.79,0,0,0-.23-.17A.54.54,0,0,0,106,81a.61.61,0,0,0-.28.05.89.89,0,0,0-.27.19l-3,3h0a.94.94,0,0,0-.19.26.63.63,0,0,0,0,.29.58.58,0,0,0,0,.29.81.81,0,0,0,.18.26h0l2.19,2.19a1.27,1.27,0,0,1,.15,1.59c-.16.24-.32.5-.47.78s-.31.6-.44.88-.26.61-.38.91-.22.59-.34.94a1.25,1.25,0,0,1-1.19.86H98.63a.77.77,0,0,0-.32,0,.63.63,0,0,0-.23.17h0a.6.6,0,0,0-.16.24.75.75,0,0,0-.06.31v4.21a.7.7,0,0,0,0,.28.77.77,0,0,0,.19.28h0a.72.72,0,0,0,.22.15.68.68,0,0,0,.31.06h3.08a1.26,1.26,0,0,1,1.23,1q.12.5.24.9h0c.1.32.2.62.32.93s.23.59.38.91.29.63.43.89a1.23,1.23,0,0,1-.23,1.45h0l-2.39,2.39,0,0h0a.71.71,0,0,0-.17.24.54.54,0,0,0,0,.27.61.61,0,0,0,.06.28.7.7,0,0,0,.19.28l2.93,3a.74.74,0,0,0,.25.17,1.13,1.13,0,0,0,.32.06,1,1,0,0,0,.33-.06.76.76,0,0,0,.25-.16l2.15-2.24a1.27,1.27,0,0,1,1.61-.16c.25.16.51.32.79.47s.6.31.88.43.61.26.91.39l.95.34a1.24,1.24,0,0,1,.86,1.18h0v3.35a.76.76,0,0,0,.06.32.48.48,0,0,0,.17.23h0a.72.72,0,0,0,.55.23h4.22a1,1,0,0,0,.28,0,1.13,1.13,0,0,0,.28-.2h0a.75.75,0,0,0,.15-.23.68.68,0,0,0,.06-.31v-3.07a1.24,1.24,0,0,1,1-1.23l.9-.23c.31-.09.61-.21.92-.32s.59-.24.91-.38l.89-.43a1.25,1.25,0,0,1,1.46.22h0l2.38,2.39,0,0h0a.64.64,0,0,0,.23.17.56.56,0,0,0,.28.05.9.9,0,0,0,.3-.05.65.65,0,0,0,.22-.17l0,0,2.94-2.91a.74.74,0,0,0,.17-.25.79.79,0,0,0,.06-.32.88.88,0,0,0-.06-.33.63.63,0,0,0-.16-.24l-2.2-2.17a1.23,1.23,0,0,1-.16-1.58c.16-.25.32-.51.47-.79l.44-.88c.13-.29.26-.6.38-.91s.22-.59.33-.94a1.24,1.24,0,0,1,1.19-.85h3.36a.66.66,0,0,0,.32-.06.53.53,0,0,0,.23-.16h0a.72.72,0,0,0,.23-.55V95.24a.61.61,0,0,0-.05-.28.75.75,0,0,0-.19-.27h0a1,1,0,0,0-.23-.16,1.07,1.07,0,0,0-.31-.06H133a1.24,1.24,0,0,1-1.23-1c-.07-.28-.15-.57-.24-.85s-.19-.59-.33-.93c0,0,0-.05,0-.07-.11-.3-.24-.58-.36-.84s-.27-.58-.42-.85a1.23,1.23,0,0,1,.2-1.46h0L133,86l0,0h0a.79.79,0,0,0,.17-.23.68.68,0,0,0,.05-.27.78.78,0,0,0-.05-.28.89.89,0,0,0-.19-.27L130,82Zm.7-2.48a3.06,3.06,0,0,1,1.07.72h0l3,2.94h0a3.14,3.14,0,0,1,.72,1,3.21,3.21,0,0,1,0,2.53,3.11,3.11,0,0,1-.74,1L133,89.5a.89.89,0,0,1,.08.17c.15.33.3.66.42,1a.42.42,0,0,1,0,.06,9.08,9.08,0,0,1,.37,1.08l0,.13h2.12a3.2,3.2,0,0,1,1.27.25,3.61,3.61,0,0,1,1,.71l0,0a3.78,3.78,0,0,1,.7,1,3,3,0,0,1,.25,1.23v4.21a3.17,3.17,0,0,1-1,2.32h0a3.35,3.35,0,0,1-1.08.72,3.43,3.43,0,0,1-1.25.23h-2.48l-.08.21c-.14.35-.28.69-.45,1s-.34.71-.51,1a.6.6,0,0,0-.06.11l1.5,1.49s0,0,.06,0a3.39,3.39,0,0,1,.69,1.06,3.21,3.21,0,0,1,.24,1.23,3.16,3.16,0,0,1-.24,1.22,3,3,0,0,1-.68,1.06h0l0,0-3,2.92a3.14,3.14,0,0,1-1.05.74,3.24,3.24,0,0,1-1.28.24,3.38,3.38,0,0,1-1.27-.25,3,3,0,0,1-1-.75l-1.74-1.73-.18.08c-.33.14-.67.29-1,.42s-.72.26-1.1.39l-.16,0v2.12a3.15,3.15,0,0,1-.25,1.26,3,3,0,0,1-.71,1l0,0a3.78,3.78,0,0,1-1,.7,3.26,3.26,0,0,1-1.23.25h-4.22a3.16,3.16,0,0,1-2.33-1h0a3.2,3.2,0,0,1-1-2.32V113a.7.7,0,0,1-.2-.08q-.53-.2-1-.45c-.36-.17-.71-.33-1-.5a.6.6,0,0,0-.11-.06l-1.48,1.51,0,0a3.28,3.28,0,0,1-1.06.69,3.22,3.22,0,0,1-1.24.23,3.4,3.4,0,0,1-1.23-.23,3,3,0,0,1-1.06-.67h0l0-.05-3-3a3.42,3.42,0,0,1-.71-1.05,3.14,3.14,0,0,1,.74-3.56l1.74-1.73c0-.06-.06-.13-.1-.18-.14-.33-.29-.67-.42-1s-.28-.72-.39-1.09h0l0-.16H98.58a3.12,3.12,0,0,1-1.26-.25,3.61,3.61,0,0,1-1-.71l0,0a3.33,3.33,0,0,1-.7-1,3.21,3.21,0,0,1-.25-1.22V94.11a3.35,3.35,0,0,1,.24-1.25,2.82,2.82,0,0,1,.72-1h0a3.22,3.22,0,0,1,1.06-.72,3.27,3.27,0,0,1,1.25-.24h2.49a.77.77,0,0,1,.08-.19q.19-.52.45-1t.51-1l.06-.13-1.5-1.5a3.39,3.39,0,0,1-.72-1,3.27,3.27,0,0,1-.26-1.26,3.11,3.11,0,0,1,.26-1.25,3.21,3.21,0,0,1,.72-1.06h0l3-3h0a3.1,3.1,0,0,1,1-.71,3.19,3.19,0,0,1,1.26-.26,3.25,3.25,0,0,1,1.28.26,3.33,3.33,0,0,1,1,.73L110,81.13a.6.6,0,0,0,.16-.08l1-.44c.35-.13.71-.25,1.09-.37l.15,0V78.08a3.12,3.12,0,0,1,.25-1.26,3.15,3.15,0,0,1,.71-1l0,0a3.57,3.57,0,0,1,1-.7,3.15,3.15,0,0,1,1.23-.25h4.23a3.31,3.31,0,0,1,1.25.24,3.51,3.51,0,0,1,1.07.71h0a3.53,3.53,0,0,1,.73,1.06,3.47,3.47,0,0,1,.23,1.25v2.48l.19.07,1.07.44c.36.17.71.34,1,.51l.13.07,1.5-1.5a3.38,3.38,0,0,1,1.06-.72,3.28,3.28,0,0,1,1.27-.26,5.14,5.14,0,0,1,1.27.32Zm-13.4,7.83a10.92,10.92,0,0,1,1.9.18,9.38,9.38,0,0,1,1.8.57h0a10.49,10.49,0,0,1,1.62.87,9.12,9.12,0,0,1,1.4,1.15h0a9.2,9.2,0,0,1,1.15,1.41,10.92,10.92,0,0,1,.88,1.61.38.38,0,0,1,0,.1,8.39,8.39,0,0,1,.52,1.71,9.17,9.17,0,0,1,.18,1.89,9.8,9.8,0,0,1-.18,1.9,8.88,8.88,0,0,1-.56,1.8h0a10.92,10.92,0,0,1-.88,1.61,9.7,9.7,0,0,1-1.15,1.41h0a10.32,10.32,0,0,1-1.4,1.15,10.49,10.49,0,0,1-1.62.87l-.1,0a9.71,9.71,0,0,1-1.72.52,9.55,9.55,0,0,1-3.79,0,9.47,9.47,0,0,1-1.81-.57h0a10,10,0,0,1-1.61-.87,10.41,10.41,0,0,1-1.41-1.15h0a8.09,8.09,0,0,1-1.14-1.41,11,11,0,0,1-.89-1.61l0-.1a8.58,8.58,0,0,1-.52-1.71,10,10,0,0,1-.19-1.9A8.48,8.48,0,0,1,108,94.9a8.69,8.69,0,0,1,.56-1.8h0a10.12,10.12,0,0,1,.89-1.61,9.09,9.09,0,0,1,1.15-1.41h0A9.2,9.2,0,0,1,112,88.92a10.86,10.86,0,0,1,1.61-.87l.1,0a9.39,9.39,0,0,1,1.72-.52,10,10,0,0,1,1.9-.18Zm1.41,2.64a7.25,7.25,0,0,0-1.41-.14,7.21,7.21,0,0,0-2.66.51l-.06,0a7.46,7.46,0,0,0-1.22.66,5.91,5.91,0,0,0-1,.84,6.87,6.87,0,0,0-.85,1,7.43,7.43,0,0,0-.65,1.22h0a7.4,7.4,0,0,0-.4,4.13,6.65,6.65,0,0,0,.38,1.24l0,.07a8.82,8.82,0,0,0,.65,1.22,7.54,7.54,0,0,0,.85,1,6.31,6.31,0,0,0,1,.84,7.4,7.4,0,0,0,1.22.66h0a8.08,8.08,0,0,0,1.32.4,7.25,7.25,0,0,0,1.41.14,7.17,7.17,0,0,0,1.41-.14,6.87,6.87,0,0,0,1.24-.37l.08,0a8.31,8.31,0,0,0,1.22-.66,5.91,5.91,0,0,0,1-.84,6.87,6.87,0,0,0,.85-1,6.7,6.7,0,0,0,.65-1.22h0a7.81,7.81,0,0,0,.41-1.32,7.66,7.66,0,0,0,0-2.81,7.79,7.79,0,0,0-.37-1.24l0-.07a7.86,7.86,0,0,0-.65-1.22,6.87,6.87,0,0,0-.85-1,5.91,5.91,0,0,0-1-.84,6.4,6.4,0,0,0-1.22-.66h0a6.69,6.69,0,0,0-1.34-.4ZM75.65,65.26H179.28v69.5H75.65V65.26Zm47.79,73.8h8.39a1.44,1.44,0,0,1,1.43,1.43h0a1.43,1.43,0,0,1-1.43,1.43h-8.39a1.44,1.44,0,0,1-1.44-1.43h0a1.43,1.43,0,0,1,1.44-1.43Z"/><path class="cls-5" d="M531.94,60.88v76.88H492.69v7.74h11.47v7.38H444.79V145.5h12.28v-7.74H417.25V60.88Zm-101.09,56.9h76.8v3.41h-76.8Zm0-9.1h49v3.41h-49Zm74.95-19,13,0a13.76,13.76,0,0,1-3.88,9.57,13.94,13.94,0,0,1-1.9,1.61ZM504.47,87l-.69-14.42a.51.51,0,0,1,.47-.55h.56a14.09,14.09,0,0,1,9.94,4,15.14,15.14,0,0,1,4.62,10,.5.5,0,0,1-.46.55l-13.91,1a.52.52,0,0,1-.53-.48v0ZM504.8,73l.64,13.4,12.9-1a14.15,14.15,0,0,0-4.26-8.75A13.17,13.17,0,0,0,504.82,73Zm-1.89,16,7,12.53a13.58,13.58,0,0,1-7,1.94,14.52,14.52,0,0,1-2-28.79ZM463.12,73.54,462,72.11a.75.75,0,0,1-.16-.69c.19-.58.86-.52,1.33-.49,1.33.1,4.47.13,5.16.15a.75.75,0,0,1,.71.92c-.14.7-.78,4.07-1,5.34-.08.45-.21,1-.76,1.07a.76.76,0,0,1-.64-.32l-1.11-1.43L465,76l-6.93,4.53a3.3,3.3,0,0,1-6.6-.17,1.62,1.62,0,0,1,0-.22l-3.83-2.8a3.2,3.2,0,0,1-1.89.6,3.28,3.28,0,0,1-2.41-1.06L437,80.36c0,.11,0,.23,0,.34a3.3,3.3,0,1,1-3.3-3.33,3.25,3.25,0,0,1,1.8.53l7.06-3.83a3.3,3.3,0,0,1,6.57.54c0,.07,0,.14,0,.22l3.83,2.79a3.25,3.25,0,0,1,1.88-.59,3.32,3.32,0,0,1,2.17.81l6.3-4.12-.14-.18Zm1.52,8.61h4.55a.49.49,0,0,1,.48.48V100.5a.49.49,0,0,1-.48.48h-4.55a.49.49,0,0,1-.48-.48V82.63a.48.48,0,0,1,.48-.48Zm-11.09,6.12h4.56a.48.48,0,0,1,.47.49V100.5a.48.48,0,0,1-.47.48h-4.56a.48.48,0,0,1-.47-.48V88.76a.48.48,0,0,1,.47-.49Zm-11.08-6.12H447a.48.48,0,0,1,.48.48V100.5a.49.49,0,0,1-.48.48h-4.55a.48.48,0,0,1-.47-.48V82.63A.48.48,0,0,1,442.47,82.15Zm-11.08,7.11h4.55a.49.49,0,0,1,.48.48V100.5a.49.49,0,0,1-.48.48h-4.55a.49.49,0,0,1-.48-.48V89.74A.48.48,0,0,1,431.39,89.26Zm-10.72,38.65H528.5V64.34H420.67Z"/><path d="M843.8,64.63l-22,.55,10.74,10.71Zm-53.47,65.78a2.22,2.22,0,0,1-.09-.37c-.18-1.57-.35-3.29-.51-4.8l-8-7.93c-.21.43-.41.87-.59,1.33a22.19,22.19,0,0,0-1.3,4.92v.22l-4.69,26.51a1.91,1.91,0,0,1-.42.91,14.14,14.14,0,0,0-2.89,5.21,2.54,2.54,0,0,0,.69,2.51l17.2,17.19a7.27,7.27,0,0,0,3.88,2,12.84,12.84,0,0,0,5.81-.46h.12c.85-.23,1.95-.5,3-.77,4.61-1.12,8.62-2.1,12.35-5.49l4.79-5a2.11,2.11,0,0,1,.19-.23l1.17-1.14c3.27-3.21,7.34-7.16,4.87-10.63l-1.87-2c-.93.91-1.92,1.78-2.86,2.62s-1.68,1.47-2.42,2.22a2,2,0,1,1-2.85-2.84c.75-.75,1.65-1.55,2.6-2.39,3.26-2.86,7-6.14,5-9l-1.9-1.91a2.42,2.42,0,0,1-.28-.34c-1.09,1.12-2.28,2.19-3.46,3.23-.87.76-1.68,1.46-2.42,2.21a2,2,0,1,1-2.86-2.87c.75-.75,1.66-1.55,2.61-2.39,3.25-2.86,7-6.14,5-9L818.33,130a2.08,2.08,0,0,1-.34-.43l-5.57,5.58a2,2,0,0,1-2.82,0l0,0a2,2,0,0,1,0-2.82l0,0,8-8c2.51-2.5,3.08-5.11,2.42-7.08a4.63,4.63,0,0,0-3-3c-1.94-.64-4.54,0-7.11,2.52L790.57,136a2,2,0,0,1-2.86-2.86l2.67-2.69h0Zm30.83-3.3,2,2a3.47,3.47,0,0,1,.3.37,6.82,6.82,0,0,1,.37,8.26,2.32,2.32,0,0,1,.75.47l.54.54,49.1-49.1L850.08,65.51,834.34,81.25a2.53,2.53,0,0,1-3.59,0h0L815.89,66.41h0L777,105.3l19.27,19.27L807,113.84c3.82-3.83,7.94-4.58,11.26-3.5a8.85,8.85,0,0,1,5.6,5.61c1.09,3.3.34,7.49-3.41,11.24C819.33,128.26,820.4,126.29,821.16,127.11Zm6.94,15.8a7,7,0,0,1-1.21,6.5l.24.21,2,2a2,2,0,0,1,.3.37c4.61,6.31-.88,11.66-5.29,16L823,169.13l-4.92,5.16-.15.14c-4.51,4.09-9,5.19-14.13,6.45-.87.2-1.74.43-3,.75h-.08a17.14,17.14,0,0,1-7.6.54,11.28,11.28,0,0,1-6-3.09l-17.24-17.31a6.35,6.35,0,0,1-1.84-6.2,16.25,16.25,0,0,1,3.31-6.48l4.6-26V123a28.41,28.41,0,0,1,1.49-5.8,18.2,18.2,0,0,1,1.44-2.77L773,108.5a4.51,4.51,0,0,1,0-6.41l41.43-41.43a4.07,4.07,0,0,1,3-1.24h32.39a2.54,2.54,0,0,1,2,.72l26.34,26.27a4.53,4.53,0,0,1,0,6.41h0ZM855.53,96.6,845.94,87l2.76-2.76,9.59,9.59Zm-7,7L834.89,90l2.75-2.76,13.65,13.61Zm-7,7L812.45,81.52l2.75-2.75,29.08,29.08Z"/></g></g></svg>