<svg xmlns="http://www.w3.org/2000/svg" viewBox="0 0 952.07 217"><defs><style>.cls-1{fill:none;stroke:#f4ce45;stroke-width:7px;}.cls-1,.cls-3{stroke-miterlimit:10;}.cls-2{fill:#f4ce45;}.cls-3{fill:#f5f7f5;stroke:#f5f7f5;stroke-width:6px;}.cls-4{fill-rule:evenodd;}</style></defs><g id="Layer_2" data-name="Layer 2"><g id="Layer_2-2" data-name="Layer 2"><polyline class="cls-1" points="284.61 81.92 309.57 108.64 284.61 135.07"/><polyline class="cls-1" points="635.5 81.92 660.18 108.64 635.5 135.07"/><polygon class="cls-2" points="413.25 217 350.61 108.5 413.25 0 538.54 0 601.18 108.5 538.54 217 413.25 217"/><polygon class="cls-3" points="532.77 10 419.02 10 362.16 108.5 419.02 207 532.77 207 589.63 108.5 532.77 10"/><polyline class="cls-2" points="701.5 108.5 764.14 0 889.43 0 952.07 108.5 889.43 217 764.14 217"/><polygon class="cls-3" points="883.66 10 769.92 10 713.05 108.5 769.92 207 883.66 207 940.53 108.5 883.66 10"/><polygon class="cls-2" points="62.64 217 0 108.5 62.64 0 187.93 0 250.57 108.5 187.93 217 62.64 217"/><polygon class="cls-3" points="182.16 10 68.41 10 11.55 108.5 68.41 207 182.16 207 239.02 108.5 182.16 10"/><path class="cls-4" d="M140.49,127h37.12a9,9,0,0,1,9,9v35.15a9,9,0,0,1-9,9H140.49a9,9,0,0,1-9-9V136a9,9,0,0,1,9-9Zm-5.37-58.69L154,86H135.12ZM97.77,124.17a2,2,0,0,0-1.94,2.06v0a2,2,0,0,0,1.85,2.14h23.79v-4.26Zm0,15.26a2,2,0,0,0-1.92,2.07v.06a2,2,0,0,0,1.87,2.13h23.75v-4.26Zm0-45.79a2,2,0,0,0-2,2v.14a2,2,0,0,0,1.87,2.12h22a2,2,0,0,0,1.92-2.08v0a2,2,0,0,0-1.86-2.13H97.77Zm0-15.26a2,2,0,0,0-1.92,2.07v.06a2,2,0,0,0,1.87,2.13h12a2,2,0,0,0,1.92-2.08v0a2,2,0,0,0-1.86-2.13h-12Zm0,30.53a2,2,0,0,0-2,2V111a2,2,0,0,0,1.87,2.12h37.13a2.05,2.05,0,0,0,2-2.1v0a2,2,0,0,0-1.86-2.13H97.77Zm66.8-20.41a3.14,3.14,0,0,0-2.29-3l-27.83-27A3.09,3.09,0,0,0,132,57.28H83.43a5.63,5.63,0,0,0-5.66,5.6v96.83a5.65,5.65,0,0,0,1.65,4,5.71,5.71,0,0,0,4,1.65h4.81v7.92a7,7,0,0,0,6.92,6.92h26.36v-5.92H95.12a1,1,0,0,1-1-1v-7.89h27.39V159.1H84.09V63.57h44.68V89.11a3.17,3.17,0,0,0,3.17,3.17h26.27v25.2h6.31V99.72h7.81a1,1,0,0,1,.71.28,1,1,0,0,1,.28.7v16.79h6V100.7a6.87,6.87,0,0,0-2-4.88,6.77,6.77,0,0,0-4.88-2h-7.92V88.5Zm-7.36,76.71-11.55,3.07,1.66-12.34,9.84,9.28Zm-7.36-12.08,12.26-13.85a1.08,1.08,0,0,1,.76-.36,1.17,1.17,0,0,1,.52.12l8.76,8a.84.84,0,0,1,.28.63.91.91,0,0,1-.3.71l-12.47,14-9.82-9.27Z"/><path d="M533.89,70v40.58a6.11,6.11,0,0,1-6.11,6.11h-.16a15.44,15.44,0,0,0,.46-3.77h0v-.68a1.69,1.69,0,0,0,1.4-1.66V70H422.91v40.58a1.69,1.69,0,0,0,1.4,1.66v.68h0a15.42,15.42,0,0,0,.44,3.77h-.15a6.1,6.1,0,0,1-4.31-1.79h0a6.06,6.06,0,0,1-1.79-4.31V70h-.64a3.12,3.12,0,0,1-3.11-3.12V60.52a3.13,3.13,0,0,1,3.11-3.11H534.52a3.13,3.13,0,0,1,3.11,3.11v6.36A3.12,3.12,0,0,1,534.52,70Zm-40.82,64.49H459.31a.39.39,0,0,0-.37.37v6.4a.37.37,0,0,0,.37.37h13.83v23.29a.51.51,0,0,0,.5.5h5.65a.51.51,0,0,0,.5-.5V141.64h13.28a.38.38,0,0,0,.37-.37v-6.4A.38.38,0,0,0,493.07,134.49ZM476.14,87.35a8.36,8.36,0,1,1-8.39,8.35,8.36,8.36,0,0,1,8.39-8.35Zm-13,24.35a21.31,21.31,0,0,0-4,11.51,37.22,37.22,0,0,0-.65,4.32c-.08,2.09.36,4.39,3.22,4.38,3.49,0,3.73-2.18,4-4.6l.52-4.39a10.46,10.46,0,0,1,.77-3.7,6.38,6.38,0,0,1,1-1.61l0,2.5h0v11h16.26l.07-11h0v-2.5a6.38,6.38,0,0,1,1,1.61,10.46,10.46,0,0,1,.77,3.7l.52,4.39c.29,2.42.53,4.6,4,4.6,2.85,0,3.29-2.29,3.21-4.38a37.22,37.22,0,0,0-.65-4.32,20.84,20.84,0,0,0-4.46-12.1c-5.56-6.41-20-6.4-25.52.59Zm63.72,58.21a1.19,1.19,0,0,0-.34-.7,15.59,15.59,0,0,0-5.38-3.48,18.76,18.76,0,0,0-4.73-1.13l.31-1.83h11.43a2.17,2.17,0,0,0,2.16-2.16c0-8.94-2.1-16.71,0-26.88.62-3-5.59-3.45-5.59.16v22.9H503.19c-1.93,0-2.16,4-2.16,5.51a.48.48,0,0,0,.48.47h11.42l.44,1.79a18.13,18.13,0,0,0-5,1,15.67,15.67,0,0,0-5.22,3.12,1.22,1.22,0,0,0-.37,1.21,2,2,0,0,0-.92,1.84,2.3,2.3,0,0,0,4.59,0,2,2,0,0,0-.94-1.85,13.34,13.34,0,0,1,3.69-2A15.48,15.48,0,0,1,514,167l.26,2.48v.11a2.19,2.19,0,0,0-1.67,2.21,2.29,2.29,0,1,0,4.58,0,2.19,2.19,0,0,0-1.66-2.2v-.12l.18-2.46a15.71,15.71,0,0,1,4.59,1h0a13.34,13.34,0,0,1,3.67,2.13,1.82,1.82,0,0,0-.69,1.64,2.52,2.52,0,0,0,2.29,2.29,2.48,2.48,0,0,0,2.3-2.29,2,2,0,0,0-1-1.88Zm-101.44,0a1.32,1.32,0,0,1,.34-.7,15.59,15.59,0,0,1,5.38-3.48,18.76,18.76,0,0,1,4.73-1.13l-.31-1.83H424.23a2.17,2.17,0,0,1-2.16-2.16c0-8.94,2.1-16.71,0-26.88-.62-3,5.59-3.45,5.59.16v22.9h21.53c1.93,0,2.16,4,2.16,5.51a.48.48,0,0,1-.48.47H439.45l-.44,1.79a18.13,18.13,0,0,1,5,1,15.67,15.67,0,0,1,5.22,3.12,1.22,1.22,0,0,1,.37,1.21,2,2,0,0,1,.92,1.84,2.3,2.3,0,0,1-4.59,0,2,2,0,0,1,.94-1.85,13.34,13.34,0,0,0-3.69-2,15.48,15.48,0,0,0-4.81-.92l-.26,2.48v.11a2.19,2.19,0,0,1,1.67,2.21,2.29,2.29,0,1,1-4.58,0h0a2.19,2.19,0,0,1,1.66-2.2v-.12l-.18-2.46a15.71,15.71,0,0,0-4.59,1h0a13.75,13.75,0,0,0-3.67,2.13,1.82,1.82,0,0,1,.69,1.64,2.52,2.52,0,0,1-2.29,2.29,2.48,2.48,0,0,1-2.3-2.29,2,2,0,0,1,1-1.88Zm23-25.07h10.9a4.2,4.2,0,0,1,4.2,4.19v5.26h0v14.3H455v-13.1c0-1.85-.7-1.2-2.77-1.2H437.52a6.32,6.32,0,0,1-6.31-6.31V129.21a6.44,6.44,0,0,1,6.42-6.41c15.34,0,10.92,11.42,10.75,22Zm55.62,0H493.1a4.2,4.2,0,0,0-4.2,4.19v19.56h8.39v-13.1c0-1.85.7-1.2,2.77-1.2h14.75a6.32,6.32,0,0,0,6.31-6.31V129.21a6.44,6.44,0,0,0-6.37-6.41c-15.34,0-10.92,11.42-10.75,22Zm8.75-40.36a8.44,8.44,0,1,0,8.44,8.44,8.44,8.44,0,0,0-8.44-8.44Zm-73.14,0a8.44,8.44,0,1,1-8.44,8.44h0A8.44,8.44,0,0,1,439.61,104.48Z"/><path d="M842.85,167.6,864.33,145H842.85V167.6Zm-14.66-96A19.49,19.49,0,0,1,839,74.87a19.71,19.71,0,0,1,5.38,5.39,19.42,19.42,0,0,1,1.8,3.37,19.56,19.56,0,0,1,1.11,11.25,19,19,0,0,1-1.11,3.65h0a19,19,0,0,1-1.8,3.36,19.24,19.24,0,0,1-2.43,3,19.59,19.59,0,0,1-3,2.42,20.17,20.17,0,0,1-3.37,1.8h0a19.52,19.52,0,0,1-3.63,1.1,19.7,19.7,0,0,1-7.6,0,19,19,0,0,1-3.65-1.11,19.88,19.88,0,0,1-3.38-1.8,19.1,19.1,0,0,1-3-2.42,19.84,19.84,0,0,1-2.43-3,19.57,19.57,0,0,1-2.91-7,19.7,19.7,0,0,1,0-7.6,19,19,0,0,1,1.11-3.65,19.42,19.42,0,0,1,1.8-3.37,20.24,20.24,0,0,1,2.43-3,19.29,19.29,0,0,1,6.32-4.23h0a19.52,19.52,0,0,1,3.63-1.1,21,21,0,0,1,3.81-.36Zm-8.92,21.93a2.19,2.19,0,0,1-.4-.62,2,2,0,0,1-.16-.72,2.33,2.33,0,0,1,.12-.82,2,2,0,0,1,.43-.71l.1-.1a2.17,2.17,0,0,1,.63-.42,2,2,0,0,1,.73-.17h0a2.25,2.25,0,0,1,.81.12,2.11,2.11,0,0,1,.7.42h0c.71.68,1.47,1.36,2.23,2l.93.84,8.65-9a2.13,2.13,0,0,1,.66-.46,2.17,2.17,0,0,1,.8-.18h0a2.23,2.23,0,0,1,.77.14,2.06,2.06,0,0,1,.68.43l0,0a2.13,2.13,0,0,1,.46.66,2.22,2.22,0,0,1,.18.8v0a2.23,2.23,0,0,1-.14.77,2.12,2.12,0,0,1-.43.68L827,97.8a2.13,2.13,0,0,1-1.45.66h0a2.19,2.19,0,0,1-.8-.12,2.26,2.26,0,0,1-.7-.41c-1.51-1.42-3.42-2.93-4.81-4.4ZM839,80.31a15.14,15.14,0,0,0-7.8-4.17,15.46,15.46,0,0,0-6,0,15.93,15.93,0,0,0-2.85.86,14.79,14.79,0,0,0-2.63,1.41,16.29,16.29,0,0,0-2.32,1.9,15.76,15.76,0,0,0-1.9,2.32,15,15,0,0,0-2.27,5.48,15.46,15.46,0,0,0,0,6,15.68,15.68,0,0,0,.86,2.85,15.42,15.42,0,0,0,1.4,2.63,16.29,16.29,0,0,0,1.9,2.32,15.44,15.44,0,0,0,5,3.31,14.45,14.45,0,0,0,2.85.86,15.46,15.46,0,0,0,6,0,15.15,15.15,0,0,0,2.85-.86h0a15.33,15.33,0,0,0,2.62-1.4,16.29,16.29,0,0,0,2.32-1.9,15.2,15.2,0,0,0,3.3-4.95,15.15,15.15,0,0,0,.86-2.85,15.46,15.46,0,0,0,0-6,15.68,15.68,0,0,0-.86-2.85,14.79,14.79,0,0,0-1.41-2.63A14.1,14.1,0,0,0,839,80.31Zm-39.93,67h19.23v5.53H799v-5.53Zm0-14h27.29v5.53H799v-5.53Zm0-14h58.3v5.53H799v-5.53Zm77.24,22.91a3.58,3.58,0,0,1-2.6,3.45L842,178.86a3.56,3.56,0,0,1-2.76,1.32H786.54a6.42,6.42,0,0,1-6.43-6.44v-110a6.42,6.42,0,0,1,6.43-6.43h83.31a6.42,6.42,0,0,1,6.43,6.43v78.42Zm-7.18-4.3V64.47H787.29V173h48.38V141.45a3.61,3.61,0,0,1,3.61-3.61Z"/><path d="M104.08,40.38v-9.9h2.72a5.11,5.11,0,0,1,2,.38,4.9,4.9,0,0,1,2.65,2.64,5.17,5.17,0,0,1,0,3.89A4.69,4.69,0,0,1,110.35,39a4.79,4.79,0,0,1-1.59,1,5.07,5.07,0,0,1-2,.37ZM106,38.64h.56a3.15,3.15,0,0,0,1.24-.24,2.94,2.94,0,0,0,1-.67,3.16,3.16,0,0,0,.66-1,3.57,3.57,0,0,0,.23-1.29,3.5,3.5,0,0,0-.23-1.27,3.2,3.2,0,0,0-.66-1,3,3,0,0,0-1-.68,3.15,3.15,0,0,0-1.24-.24H106Z"/><path d="M113.75,40.38v-9.9h3.37a4,4,0,0,1,1.76.36,2.65,2.65,0,0,1,1.16,1,2.94,2.94,0,0,1,.41,1.61,3.41,3.41,0,0,1-.26,1.34,2.69,2.69,0,0,1-.76,1,3.05,3.05,0,0,1-1.19.61l3.24,4H119l-2.85-3.73h-.47v3.73ZM115.69,35h.83a2.81,2.81,0,0,0,1-.17,1.43,1.43,0,0,0,.64-.51,1.46,1.46,0,0,0,.23-.82,1.3,1.3,0,0,0-.5-1.1,2.2,2.2,0,0,0-1.4-.39h-.83Z"/><path d="M121.57,40.38l4-9.9h1.8l4,9.9h-2.09l-.84-2.25H124.5l-.84,2.25Zm3.6-4h2.56l-1.28-3.31Z"/><path d="M132.79,40.38v-9.9h5.57v1.71h-4.09l.47-.43v3.35l-.47-.54h3.82v1.7h-3.82l.47-.54v4.65Z"/><path d="M141.13,40.38V32.2h-2.5V30.48h7V32.2h-2.52v8.18Z"/><path d="M451.31,40.38v-9.9h3.37a4,4,0,0,1,1.76.36,2.65,2.65,0,0,1,1.16,1,3,3,0,0,1,.41,1.61,3.41,3.41,0,0,1-.26,1.34,2.69,2.69,0,0,1-.76,1,3.05,3.05,0,0,1-1.19.61l3.24,4h-2.47l-2.85-3.73h-.47v3.73ZM453.25,35h.83a2.81,2.81,0,0,0,1-.17,1.43,1.43,0,0,0,.64-.51,1.46,1.46,0,0,0,.23-.82,1.3,1.3,0,0,0-.5-1.1,2.2,2.2,0,0,0-1.4-.39h-.83Z"/><path d="M460.36,40.38v-9.9h5.51v1.71h-3.56v2.38h3.42v1.7h-3.42v2.41h3.56v1.7Z"/><path d="M471.15,40.38,467,30.48h2.2l2.71,7,2.73-7h2.19l-4.15,9.9Z"/><path d="M478.28,40.38v-9.9h1.94v9.9Z"/><path d="M482.93,40.38v-9.9h5.51v1.71h-3.57v2.38h3.42v1.7h-3.42v2.41h3.57v1.7Z"/><path d="M492.57,40.38l-2.85-9.9h2.16l1.87,7.24,2.12-7.24h1.45l2.11,7.24,1.87-7.24h2.17l-2.86,9.9h-2.16l-1.86-6.15-1.85,6.15Z"/><path d="M796,40.38l4-9.9h1.81l4,9.9h-2.09l-.84-2.25h-3.89l-.84,2.25Zm3.6-4h2.56l-1.29-3.31Z"/><path d="M807.22,40.38v-9.9h3.37a4.22,4.22,0,0,1,1.72.34,2.68,2.68,0,0,1,1.18,1,2.94,2.94,0,0,1,.43,1.65,3.09,3.09,0,0,1-.43,1.68,2.84,2.84,0,0,1-1.18,1.07,3.92,3.92,0,0,1-1.72.37h-1.42v3.79ZM809.17,35H810a2.81,2.81,0,0,0,.94-.15,1.52,1.52,0,0,0,.7-.48,1.59,1.59,0,0,0,0-1.74,1.43,1.43,0,0,0-.7-.47A2.81,2.81,0,0,0,810,32h-.82Z"/><path d="M815.72,40.38v-9.9h3.37a4.26,4.26,0,0,1,1.72.34,2.68,2.68,0,0,1,1.18,1,2.94,2.94,0,0,1,.43,1.65,3.09,3.09,0,0,1-.43,1.68,2.84,2.84,0,0,1-1.18,1.07,4,4,0,0,1-1.72.37h-1.43v3.79ZM817.66,35h.83a2.85,2.85,0,0,0,.94-.15,1.44,1.44,0,0,0,.69-.48,1.54,1.54,0,0,0,0-1.74,1.36,1.36,0,0,0-.69-.47,2.85,2.85,0,0,0-.94-.15h-.83Z"/><path d="M824.21,40.38v-9.9h3.38a4,4,0,0,1,1.76.36,2.7,2.7,0,0,1,1.16,1,3,3,0,0,1,.41,1.61,3.24,3.24,0,0,1-.27,1.34,2.67,2.67,0,0,1-.75,1,3.1,3.1,0,0,1-1.2.61l3.24,4h-2.46l-2.86-3.73h-.46v3.73ZM826.16,35H827a2.79,2.79,0,0,0,1-.17,1.32,1.32,0,0,0,.87-1.33,1.3,1.3,0,0,0-.49-1.1A2.22,2.22,0,0,0,827,32h-.83Z"/><path d="M837.54,40.58a4.84,4.84,0,0,1-1.94-.4,4.77,4.77,0,0,1-1.59-1.1,5,5,0,0,1-1.07-1.64,5.32,5.32,0,0,1,0-4A5,5,0,0,1,834,31.8a4.77,4.77,0,0,1,1.59-1.1,4.9,4.9,0,0,1,3.88,0,4.77,4.77,0,0,1,1.59,1.1,5.2,5.2,0,0,1,1.08,1.64,5.45,5.45,0,0,1,0,4,5.2,5.2,0,0,1-1.08,1.64,4.77,4.77,0,0,1-1.59,1.1A4.84,4.84,0,0,1,837.54,40.58Zm0-1.88a2.75,2.75,0,0,0,2.09-.91,3.15,3.15,0,0,0,.6-1,4,4,0,0,0,0-2.62,3.15,3.15,0,0,0-.6-1,2.86,2.86,0,0,0-3.24-.67,2.66,2.66,0,0,0-.92.67,3.36,3.36,0,0,0-.61,1,4.19,4.19,0,0,0,0,2.62,3.36,3.36,0,0,0,.61,1,2.66,2.66,0,0,0,.92.67A2.75,2.75,0,0,0,837.53,38.7Z"/><path d="M847,40.38l-4.16-9.9h2.2l2.72,7,2.72-7h2.19l-4.15,9.9Z"/><path d="M854.15,40.38v-9.9h5.51v1.71H856.1v2.38h3.42v1.7H856.1v2.41h3.56v1.7Z"/></g></g></svg>