<svg xmlns="http://www.w3.org/2000/svg" viewBox="0 0 946.01 217"><defs><style>.cls-1{fill:#f4ce45;}.cls-2{fill:#f5f7f5;stroke:#f5f7f5;stroke-width:6px;}.cls-2,.cls-3{stroke-miterlimit:10;}.cls-3{fill:none;stroke:#f4ce45;stroke-width:7px;}.cls-4{fill-rule:evenodd;}</style></defs><g id="Layer_2" data-name="Layer 2"><g id="Layer_2-2" data-name="Layer 2"><polygon class="cls-1" points="62.64 217 0 108.5 62.64 0 187.93 0 250.57 108.5 187.93 217 62.64 217"/><polygon class="cls-2" points="182.16 10 68.41 10 11.55 108.5 68.41 207 182.16 207 239.02 108.5 182.16 10"/><polyline class="cls-3" points="278.55 81.92 303.51 108.64 278.55 135.07"/><polyline class="cls-3" points="629.44 81.92 654.12 108.64 629.44 135.07"/><polygon class="cls-1" points="407.19 217 344.55 108.5 407.19 0 532.48 0 595.12 108.5 532.48 217 407.19 217"/><polygon class="cls-2" points="526.71 10 412.97 10 356.1 108.5 412.97 207 526.71 207 583.58 108.5 526.71 10"/><polyline class="cls-1" points="695.44 108.5 758.08 0 883.37 0 946.01 108.5 883.37 217 758.08 217"/><polygon class="cls-2" points="877.6 10 763.86 10 706.99 108.5 763.86 207 877.6 207 934.47 108.5 877.6 10"/><path class="cls-4" d="M120.35,78.54a8.2,8.2,0,0,0-1.81-.48,8.65,8.65,0,0,0-1.6-.14h-.27a8.69,8.69,0,0,0-1.69.22c-.56.12-.06,0-.11,0a11.07,11.07,0,0,0-3.23,1.5,7.21,7.21,0,0,0-1.31,1.16,8.09,8.09,0,0,0-1.09,1.45,8.18,8.18,0,0,0-.79,1.63,8,8,0,0,0-.47,1.81,8.19,8.19,0,0,0-.15,1.57v.31a9.78,9.78,0,0,0,.22,1.69c.11.56,0,.06,0,.11a9.72,9.72,0,0,0,1.46,3.24,7.5,7.5,0,0,0,1.16,1.3,9.15,9.15,0,0,0,4.89,2.42,9.26,9.26,0,0,0,1.49.12h.38a9.75,9.75,0,0,0,1.7-.21c.55-.11,0,0,.1,0a11,11,0,0,0,1.74-.63,11.29,11.29,0,0,0,1.51-.86,9.23,9.23,0,0,0,1.27-1.15,9.17,9.17,0,0,0,2.39-4.9,9.91,9.91,0,0,0,.15-1.53v-.31a13.46,13.46,0,0,0-.22-1.69c-.12-.56,0-.06,0-.11a10.52,10.52,0,0,0-.6-1.74,10.22,10.22,0,0,0-.87-1.51,7.93,7.93,0,0,0-1.15-1.3A10.39,10.39,0,0,0,122,79.39a10.15,10.15,0,0,0-1.63-.78h0Zm41.57,74a3.46,3.46,0,1,1,4.35-5.37h0l5.88,4.76a3.44,3.44,0,0,1,.48,4.85,3.49,3.49,0,0,1-1.48,1.06l-52.66,22.93a3.5,3.5,0,0,1-2.73,0l-52.85-23a3.44,3.44,0,0,1-1.8-4.53,3.38,3.38,0,0,1,1-1.28l5.47-4.54a3.44,3.44,0,0,1,4.4,5.3l-1.16,1,46.31,20.13,46.26-20.09-1.47-1.19ZM151.27,107.9a3.45,3.45,0,1,1,3.21-6.11l17.1,9a3.45,3.45,0,0,1-.44,6.3L118.49,140a3.41,3.41,0,0,1-2.73,0l-52.85-23a3.44,3.44,0,0,1-1.81-4.52,3.36,3.36,0,0,1,1.57-1.69h0l16.61-8.77a3.45,3.45,0,0,1,3.22,6.1l-10.27,5.42,44.9,19.5L162,113.58Zm11.43,24.27a3.45,3.45,0,1,1,4.49-5.24l5,4.31a3.44,3.44,0,0,1,.38,4.86h0a3.64,3.64,0,0,1-1.45,1L118.49,160a3.5,3.5,0,0,1-2.73,0L62.91,137a3.44,3.44,0,0,1-1.8-4.53,3.38,3.38,0,0,1,1-1.28h0l5.4-4.51a3.45,3.45,0,0,1,4.43,5.3l-1.11,1,46.3,20.14,46.42-20.17ZM138.17,67.45a4.56,4.56,0,0,1,1.24,1.16l3.22,4.46h0a4.58,4.58,0,0,1,.72,1.51,4.15,4.15,0,0,1,.12,1,4.23,4.23,0,0,1-.06.7,4.64,4.64,0,0,1-.6,1.56A4.14,4.14,0,0,1,141.63,79L139,81a1.29,1.29,0,0,0,.06.25c.14.46.24.94.34,1.4v.08c.1.48.19,1,.25,1.47v.18l2.78.46a3.9,3.9,0,0,1,1.57.59,4.26,4.26,0,0,1,1.27,1.16h0a4.46,4.46,0,0,1,.71,1.53,5.47,5.47,0,0,1,.12,1c0,.21,0,.43,0,.65l-.9,5.49a4.21,4.21,0,0,1-1.73,2.82,4.38,4.38,0,0,1-1.57.71,6,6,0,0,1-.84.08,5.7,5.7,0,0,1-.84-.08L137,98.24c0,.07-.1.17-.14.24-.25.43-.53.84-.79,1.27a15,15,0,0,1-.87,1.22l-.11.15,1.61,2.29.06.09a4.16,4.16,0,0,1,.66,1.56,4.42,4.42,0,0,1-1.64,4.44h-.05l-4.49,3.2a4.17,4.17,0,0,1-3.24.8,5.12,5.12,0,0,1-1.62-.61,4.09,4.09,0,0,1-1.2-1.18l-1.84-2.54a1.28,1.28,0,0,1-.27,0l-1.46.34c-.46.1-1,.17-1.49.24h-.21l-.49,2.77a4,4,0,0,1-.59,1.6,4.18,4.18,0,0,1-1.16,1.21h0a4.5,4.5,0,0,1-1.51.69,4.86,4.86,0,0,1-1,.11c-.22,0-.45,0-.66-.05l-5.49-1a4.26,4.26,0,0,1-3.53-3.3,3.42,3.42,0,0,1-.08-.84,3.33,3.33,0,0,1,.08-.84L106,107l-.23-.15c-.43-.25-.85-.52-1.27-.78a13.4,13.4,0,0,1-1.23-.85l-.14-.1-2.3,1.68-.08.06a4.26,4.26,0,0,1-1.53.66,5,5,0,0,1-.94.1A4.56,4.56,0,0,1,96,107a4.32,4.32,0,0,1-1.25-1.12h0l-3.21-4.54a4.59,4.59,0,0,1-.71-1.52,3.8,3.8,0,0,1-.12-1,4,4,0,0,1,.06-.7,4.11,4.11,0,0,1,1.78-2.79l2.66-1.88a.58.58,0,0,1-.06-.26c-.11-.46-.24-1-.33-1.46a11.34,11.34,0,0,1-.34-1.51V90l-2.75-.44A4.2,4.2,0,0,1,89,87.76h0a4,4,0,0,1-.68-1.5,4.27,4.27,0,0,1-.12-1,3.39,3.39,0,0,1,0-.64l.9-5.48a4.36,4.36,0,0,1,.57-1.57,4.47,4.47,0,0,1,1.16-1.29,4.05,4.05,0,0,1,1.57-.7,4.37,4.37,0,0,1,1.69,0l3.23.52.14-.23c.25-.43.52-.85.78-1.27a10.51,10.51,0,0,1,.87-1.23l.1-.13-1.68-2.36a3.9,3.9,0,0,1-.7-1.57,4.27,4.27,0,0,1-.12-1,4.29,4.29,0,0,1,.66-2.26,4.13,4.13,0,0,1,1.16-1.23L103,61.56h0a4.37,4.37,0,0,1,1.51-.71,4.18,4.18,0,0,1,1.7-.06,4.3,4.3,0,0,1,1.57.6,4.08,4.08,0,0,1,1.17,1.17l1.9,2.61h.24c.46-.13,1-.23,1.46-.36a13.63,13.63,0,0,1,1.49-.25h.21l.49-2.78a3.71,3.71,0,0,1,.6-1.61A3.8,3.8,0,0,1,116.47,59h0a4,4,0,0,1,1.51-.68,4.14,4.14,0,0,1,1-.11,3.85,3.85,0,0,1,.67,0l5.48.89a5,5,0,0,1,1.57.58,3.79,3.79,0,0,1,1.23,1.16,4.3,4.3,0,0,1,.71,1.57,4.5,4.5,0,0,1,0,1.69l-.53,3.23.23.14c.43.25.85.52,1.27.78a13.32,13.32,0,0,1,1.22.91l.14.1,2.29-1.62a4,4,0,0,1,1.57-.74,4.15,4.15,0,0,1,1-.12,4.2,4.2,0,0,1,.7,0,4.1,4.1,0,0,1,1.56.61h.08Zm-21.1,3.89h0a15.82,15.82,0,1,1-15.79,15.85v0h0a15.79,15.79,0,0,1,15.79-15.8Z"/><path class="cls-4" d="M478.63,153.19a1.52,1.52,0,0,0-2.13,0l0,0-1.66,1.65a14.37,14.37,0,0,0-1.4-.74c-.49-.22-1-.41-1.49-.58v-2.58a1.51,1.51,0,0,0-1.5-1.5h-3.21a1.54,1.54,0,0,0-1.49,1.51v2.38a13.11,13.11,0,0,0-1.54.48c-.49.2-1,.42-1.42.66l-1.83-1.81a1.41,1.41,0,0,0-1-.45h0a1.51,1.51,0,0,0-1.07.45l-2.34,2.19a1.49,1.49,0,0,0,0,2.17l1.65,1.65a9.94,9.94,0,0,0-.75,1.4,12.39,12.39,0,0,0-.58,1.49h-2.58a1.5,1.5,0,0,0-1.49,1.5v3.18h0a1.46,1.46,0,0,0,.44,1.06,1.4,1.4,0,0,0,1,.46h2.35a13.11,13.11,0,0,0,.48,1.54,12.57,12.57,0,0,0,.65,1.45l-1.8,1.8a1.34,1.34,0,0,0-.45,1h0a1.46,1.46,0,0,0,.45,1.08l2.24,2.24a1.61,1.61,0,0,0,2.17,0l1.65-1.68a8.9,8.9,0,0,0,1.4.74,10.83,10.83,0,0,0,1.5.58v2.54a1.47,1.47,0,0,0,1.46,1.5h3.21a1.5,1.5,0,0,0,1.49-1.5v-2.27a14.4,14.4,0,0,0,1.54-.48c.5-.19,1-.41,1.49-.65l1.8,1.8a1.35,1.35,0,0,0,1,.46h.06a1.38,1.38,0,0,0,1-.46l2.37-2.12a1.59,1.59,0,0,0,0-2.17l-1.68-1.65a9.87,9.87,0,0,0,.75-1.4,14.84,14.84,0,0,0,.58-1.49h2.56a1.52,1.52,0,0,0,1.5-1.51v-3.18h0a1.53,1.53,0,0,0-1.5-1.51h-2.34a13.59,13.59,0,0,0-.48-1.49,11.56,11.56,0,0,0-.65-1.44l1.8-1.83a1.43,1.43,0,0,0,.46-1h0a1.58,1.58,0,0,0-.46-1.08l-2.24-2.24h.06Zm-11.74,10.14L462.35,165l4.54,1.72v4l-7.05-4v-3.43l7.05-4Zm10,0v3.43l-7.05,4v-4l4.54-1.72-4.51-1.71v-4l7.05,4ZM457,121.13a30.14,30.14,0,0,1-2.95,6.7,1.66,1.66,0,0,1-.38.37c.51,4.09,14.54,9.32,15.38,14.75H423.91a4,4,0,0,0-3.86,4.14,3.93,3.93,0,0,0,.07.6l4.42,33.52h-4c-3.72-.29-5.62-2.21-5.93-5.54.19-15-5.5-33.09,10.27-41.88,5.77-3.23,20.66-4.32,27.16-8.58a47,47,0,0,0,2.36-6l-.52-.5c-3.68-3.62-6.15-9-6.86-17.17l-1.33-1.35a1.84,1.84,0,0,1-.66-1.42V95.58h4V98l1.36,1.36a1.92,1.92,0,0,1,.54,1.21h0c.55,7.52,2.65,12.34,5.78,15.43s7.16,4.43,11.85,5.15a19,19,0,0,0,11.82-6.26c3-3.51,4.86-8.38,5.43-14.34a1.82,1.82,0,0,1,.42-1h0L487.46,98V95.42h4v3.1a2,2,0,0,1-.42,1.32l-1.32,1.64c-.67,6.48-2.78,11.85-6.23,15.85a19.93,19.93,0,0,1-1.62,1.69l-.41.33q.44.62.9,1.32c1.06,1.55,2.27,3.32,3.39,4.7,6.62,4.12,21.2,5.23,26.91,8.41,14.5,8.09,9.21,27.73,10.26,41.88-.31,3.33-2.21,5.25-5.93,5.54h-4l4.41-33.52a4,4,0,0,0-3.19-4.67,4.09,4.09,0,0,0-.6-.07H470.24c1.38-10,13.56-10,13.86-14.66a57.64,57.64,0,0,1-4.33-5.84c-.29-.42-.56-.83-.83-1.21-.36.26-.73.51-1.1.76a25.25,25.25,0,0,1-8.92,3,1.83,1.83,0,0,1-.66,0,29.69,29.69,0,0,1-9.62-2.86c-.55-.32-1.09-.66-1.62-1ZM460,64a1.63,1.63,0,0,1-.66-.1c-5.89,2.62-10.64,8.43-11.93,18a2,2,0,0,1-4-.48c1.51-11.18,7.28-18,14.34-21.07a24.62,24.62,0,0,1,11.34-2,28,28,0,0,1,11.1,3c7.27,3.77,12.8,10.81,13.2,20.17a2,2,0,0,1-4,.16h0a19.86,19.86,0,0,0-11.1-16.84l-.8-.39a1.92,1.92,0,0,1-.71.11c-1.83,0-2.31,3.21-2.42,7.6-.05,2,0,4.13,0,6.34,0,1.76.07,3.55.07,4.75a2,2,0,0,1-4,0c0-2,0-3.33-.06-4.69,0-2.26-.08-4.46,0-6.5.1-4,.57-7.3,2-9.33a22.41,22.41,0,0,0-8-.28c1.32,2.07,1.82,5.37,1.92,9.26v6.73c0,1.4-.06,2.83-.06,4.81a2,2,0,0,1-1.81,2.09,1.94,1.94,0,0,1-2.08-1.81,1.31,1.31,0,0,1,0-.28c0-1.24,0-3.07.07-4.87,0-2.3.08-4.55,0-6.58-.1-4.5-.59-7.83-2.45-7.78ZM443.64,84a7.33,7.33,0,0,0,2.92,3c4.47,2.79,12.33,4.13,20.44,4.16s16.51-1.31,21.86-3.85a10.46,10.46,0,0,0,4.5-3.45l3.45,2a14.2,14.2,0,0,1-6.18,4.93c-5.91,2.74-14.91,4.2-23.66,4.18s-17.49-1.6-22.62-4.78A11.26,11.26,0,0,1,440,85.56l3.65-1.6Z"/><path d="M764.23,77.8h4.5V67.94a2.48,2.48,0,0,1,2.48-2.48h4.41V59.54a2.48,2.48,0,0,1,2.48-2.48h40.26a2.48,2.48,0,0,1,2.48,2.48v5.92h54.3a2.48,2.48,0,0,1,2.48,2.48V77.8h4.53a2.48,2.48,0,0,1,2.48,2.48,2.87,2.87,0,0,1,0,.52l-8.68,63.81a9.38,9.38,0,0,1-2.59,5.4,7.46,7.46,0,0,1-5.36,2.24h-91.5A7.57,7.57,0,0,1,771,150a9,9,0,0,1-2.54-5.46l-6.72-64A2.46,2.46,0,0,1,764,77.82l.25,0Zm59,11.26A26.94,26.94,0,1,1,804.14,97a26.91,26.91,0,0,1,19.05-7.89Zm15.72,11.23A22.22,22.22,0,1,0,845.42,116a22.17,22.17,0,0,0-6.51-15.71Zm-28.53,13.52h8.12v12.8h9.15v-12.8H836l-12.8-12.46-12.82,12.46Zm-39.18-31H767L773.42,144a4,4,0,0,0,1.1,2.46,2.69,2.69,0,0,0,1.93.81H868a2.57,2.57,0,0,0,1.87-.79A4.46,4.46,0,0,0,871,144l8.32-61.2Zm2.49-12.34v7.36l99-1.05V70.43h-54.3A2.48,2.48,0,0,1,815.88,68V62h-35.3V68a2.48,2.48,0,0,1-2.48,2.48Z"/><path d="M93.79,40.15v-9.9h1.94v9.9Z"/><path d="M98.44,40.15v-9.9h1.94l4.27,6.66V30.25h1.94v9.9h-1.94l-4.27-6.66v6.66Z"/><path d="M109.29,40.15v-9.9h1.95v9.9Z"/><path d="M114.76,40.15V32h-2.51V30.25h7V32H116.7v8.18Z"/><path d="M120.79,40.15v-9.9h1.94v9.9Z"/><path d="M124.2,40.15l4-9.9H130l4,9.9h-2.1L131,37.9h-3.88l-.84,2.25Zm3.6-4h2.56l-1.28-3.31Z"/><path d="M136.24,40.15V32h-2.5V30.25h7V32h-2.52v8.18Z"/><path d="M142.27,40.15v-9.9h5.51V32h-3.56v2.38h3.42V36h-3.42v2.41h3.56v1.7Z"/><path d="M437.26,40.15l1-9.9h2.06l2.37,6.2,2.36-6.2h2.07l1,9.9h-1.94l-.62-6.4-2.26,6.16h-1.19l-2.26-6.16-.62,6.4Z"/><path d="M449.08,40.15l4-9.9h1.81l4,9.9h-2.1l-.84-2.25H452l-.84,2.25Zm3.6-4h2.56L454,32.88Z"/><path d="M460.31,40.15v-9.9h1.94v9.9Z"/><path d="M465,40.15v-9.9h1.94l4.27,6.66V30.25h1.94v9.9h-1.94l-4.27-6.66v6.66Z"/><path d="M476.63,40.15V32h-2.51V30.25h7V32h-2.51v8.18Z"/><path d="M480.85,40.15l4-9.9h1.81l4,9.9h-2.09l-.84-2.25h-3.89l-.84,2.25Zm3.6-4H487l-1.29-3.31Z"/><path d="M492.07,40.15v-9.9H494v9.9Z"/><path d="M496.72,40.15v-9.9h1.95l4.26,6.66V30.25h1.95v9.9h-1.95l-4.26-6.66v6.66Z"/><path d="M785.1,40.15v-9.9H787v4.09h3.7V30.25h1.94v9.9h-1.94V36H787v4.11Z"/><path d="M794.15,40.15l4-9.9h1.8l4,9.9h-2.1L801,37.9h-3.89l-.84,2.25Zm3.6-4h2.56L799,32.88Z"/><path d="M805.38,40.15v-9.9h1.94l4.27,6.66V30.25h1.94v9.9h-1.94l-4.27-6.66v6.66Z"/><path d="M816.23,40.15v-9.9H819a4.92,4.92,0,0,1,4.61,3,5.17,5.17,0,0,1,0,3.89,4.86,4.86,0,0,1-2.65,2.62,5.07,5.07,0,0,1-2,.37Zm1.94-1.74h.56a3.15,3.15,0,0,0,1.24-.24,2.94,2.94,0,0,0,1-.67,3.2,3.2,0,0,0,.66-1,3.65,3.65,0,0,0,0-2.55,3.2,3.2,0,0,0-.66-1,3,3,0,0,0-1-.68,3.15,3.15,0,0,0-1.24-.24h-.56Z"/><path d="M830.17,40.35a4.84,4.84,0,0,1-1.94-.4,5,5,0,0,1-1.59-1.1,5.25,5.25,0,0,1,0-7.28,5,5,0,0,1,1.59-1.1,4.93,4.93,0,0,1,3.89,0,5,5,0,0,1,1.59,1.1,5.35,5.35,0,0,1,1.07,1.64,5.32,5.32,0,0,1,0,4,5.35,5.35,0,0,1-1.07,1.64,5,5,0,0,1-1.59,1.1A4.89,4.89,0,0,1,830.17,40.35Zm0-1.88a2.75,2.75,0,0,0,2.08-.91,3.36,3.36,0,0,0,.61-1,4.19,4.19,0,0,0,0-2.62,3.36,3.36,0,0,0-.61-1,2.75,2.75,0,0,0-2.08-.91,2.8,2.8,0,0,0-1.16.24,2.76,2.76,0,0,0-.92.67,3.15,3.15,0,0,0-.6,1,4.19,4.19,0,0,0,0,2.62,3.15,3.15,0,0,0,.6,1,2.76,2.76,0,0,0,.92.67A2.8,2.8,0,0,0,830.17,38.47Z"/><path d="M839.66,40.15l-4.15-9.9h2.19l2.72,7,2.73-7h2.19l-4.16,9.9Z"/><path d="M846.79,40.15v-9.9h5.51V32h-3.57v2.38h3.42V36h-3.42v2.41h3.57v1.7Z"/><path d="M854.67,40.15v-9.9H858a4.05,4.05,0,0,1,1.77.36,2.68,2.68,0,0,1,1.15,1,2.94,2.94,0,0,1,.41,1.61,3.24,3.24,0,0,1-.26,1.34,2.69,2.69,0,0,1-.76,1,3,3,0,0,1-1.19.61l3.24,3.95h-2.47l-2.85-3.73h-.46v3.73Zm2-5.35h.82a2.81,2.81,0,0,0,1-.17,1.47,1.47,0,0,0,.65-.52,1.4,1.4,0,0,0,.22-.81,1.36,1.36,0,0,0-.49-1.11,2.3,2.3,0,0,0-1.41-.38h-.82Z"/></g></g></svg>