<svg xmlns="http://www.w3.org/2000/svg" viewBox="0 0 200.75 173.85"><defs><style>.cls-1{fill:#f5f7f5;}</style></defs><g id="Layer_2" data-name="Layer 2"><g id="Layer_2-2" data-name="Layer 2"><path class="cls-1" d="M147.68,5,195,86.93l-47.3,81.92H53.07L5.77,86.93,53.07,5h94.61m2.88-5H50.19L0,86.93l50.19,86.92H150.56l50.19-86.92L150.56,0Z"/><path class="cls-1" d="M133,30.45l32.61,56.48L133,143.41H67.77L35.16,86.93,67.77,30.45H133m12.13-21H55.64L10.91,86.93l44.73,77.48h89.47l44.73-77.48L145.11,9.45Z"/><path class="cls-1" d="M65.72,123.44v-73H80.35l40.05,51.47V50.42H135v73H120.4L80.35,72v51.47Z"/></g></g></svg>