<svg xmlns="http://www.w3.org/2000/svg" viewBox="0 0 234.94 203.46"><defs><style>.cls-1{fill:#f4ce45;}</style></defs><g id="Layer_2" data-name="Layer 2"><g id="Layer_1-2" data-name="Layer 1"><path class="cls-1" d="M109.94,77.28l-.91.29a23.36,23.36,0,0,0-4,1.72,10,10,0,0,0-4.34,4.14,7.35,7.35,0,0,0-.78,3.39V97L99,98.55H75.86L64.26,78.47l11.6-20.09H99L108,73.88l1.47,2.55Z"/><path class="cls-1" d="M165.73,86.82c-.66.15-1.35.31-2.09.46a118.12,118.12,0,0,1-23,2c-1.12,0-2.24,0-3.39,0-1.57,0-3.3-.08-5.41-.2-1.25-.07-2.49-.16-3.71-.26-1.93-.15-3.81-.35-5.59-.58l-1.6-.23-1-.16c-.7-.11-1.37-.23-2-.36l-.79-.16L115,86.8c.51-.13,1-.25,1.61-.37l.41-.09.25-.06c.82-.16,1.68-.32,2.6-.47s1.74-.27,2.72-.41c2.45-.33,5.14-.58,8-.76l1.31-.08c1.92-.12,3.74-.18,5.43-.2,1,0,2,0,3,0a121,121,0,0,1,23.35,2C164.38,86.49,165.08,86.65,165.73,86.82Z"/><path class="cls-1" d="M170.76,96.33v10.26a99.42,99.42,0,0,1-30,4.52,100.36,100.36,0,0,1-23.87-2.83c-2.68-.65-4.89-1.33-6.57-1.9l-.49-.16V96.33c1.32.41,2.79.8,4.41,1.14l1,.23.67.13,1.28.23h0c1.32.23,2.77.45,4.41.67,2.68.37,5.54.64,8.54.83h0l1.28.08c1.83.1,3.64.17,5.7.2h.2l2.9,0a126.43,126.43,0,0,0,26-2.4C168,97.12,169.44,96.74,170.76,96.33Z"/><path class="cls-1" d="M170.76,117.6v10.21a99.42,99.42,0,0,1-30,4.52,96.46,96.46,0,0,1-30.93-4.89V117.3a108.1,108.1,0,0,0,30.93,4.38A110.37,110.37,0,0,0,170.76,117.6Z"/><path class="cls-1" d="M170.76,138.83v10c-5,1.62-15.78,4.36-31.52,4.36-15.43,0-25-2.61-29.4-4.19V138.53a108.52,108.52,0,0,0,30.93,4.37A111.23,111.23,0,0,0,170.76,138.83Z"/><path class="cls-1" d="M190.68,25.07,176.2,0H58.74L0,101.74,30.2,154l21.34,37,7.1,12.3.1.17H176.2l58.74-101.72Zm-10,131-3,1.35c-1.46.65-14.81,6.32-38.4,6.32-24.92,0-36.21-6.25-36.66-6.51l-2.66-1.41V111.29h-7v7.52H82v-7.52H68.52L61.74,99.57l-6.38,3.69-5.48-9.5,6.37-3.68L49.54,78.47l6.73-11.63-6.39-3.68,5.48-9.49,6.38,3.68,6.77-11.71H82V38.23h11v7.41h13.48l6.7,11.62,6.22-3.59,5.47,9.49-6.21,3.59,3.11,5.39,1,1.67.52.89,1-.12c1.67-.18,3.37-.33,5.1-.44l2.2-.13c1.43-.09,3.13-.16,5.65-.22h.25l2.89,0a127.89,127.89,0,0,1,26,2.38c7.68,1.68,11.86,3.93,13.56,7.28l.26.51V84a7.48,7.48,0,0,1,.52,2.79Z"/></g></g></svg>