<svg xmlns="http://www.w3.org/2000/svg" viewBox="0 0 234.94 203.46"><defs><style>.cls-1{fill:#f5f7f5;}.cls-2{fill:#191919;}</style></defs><g id="Layer_2" data-name="Layer 2"><g id="Layer_1-2" data-name="Layer 1"><polygon class="cls-1" points="176.2 0 58.73 0 0 101.73 58.73 203.46 176.2 203.46 234.94 101.73 176.2 0"/><rect class="cls-2" x="56.02" y="47.19" width="10.77" height="111.37"/><rect class="cls-2" x="110.97" y="92.84" width="10.77" height="120.68" transform="translate(269.54 36.82) rotate(90)"/><rect class="cls-2" x="57.5" y="60.77" width="53.67" height="10.17" transform="translate(-21.63 50.99) rotate(-30)"/><rect class="cls-2" x="97.45" y="61.48" width="49.31" height="10.17" transform="matrix(0.81, 0.59, -0.59, 0.81, 62.42, -59.05)"/><rect class="cls-2" x="127.93" y="58.44" width="53.67" height="10.17" transform="translate(11.18 149.38) rotate(-53.19)"/><rect class="cls-2" x="73" y="87.71" width="21.93" height="54.42"/><rect class="cls-2" x="100.17" y="79.71" width="21.93" height="62.21"/><rect class="cls-2" x="127.77" y="113.53" width="21.93" height="28.38"/><rect class="cls-2" x="154.76" y="84.22" width="21.93" height="57.91"/></g></g></svg>