<svg xmlns="http://www.w3.org/2000/svg" viewBox="0 0 253.6 61.27"><defs><style>.cls-1{fill:#191919;}</style></defs><g id="Layer_1" data-name="Layer 1"><path class="cls-1" d="M465.51,555.17v-17h17v-6.12h-17V515.72h21.82v-5.3H459.61a3.23,3.23,0,0,0-.48,0c-21.07,4.42-41.9,31.71-45.84,60.39l6.17,0c1.89-9.51,4.63-16.88,7.74-21.52L459,549l0,11.44h28.24v-5.31ZM459,542.28H430.54c5.37-10.2,16.69-21,28.43-25.7Z" transform="translate(-413.29 -509.58)"/><path class="cls-1" d="M510.42,561.32q-10.51,0-16.84-7T487.25,536q0-12.07,6.45-19.27t17.55-7.19q10.25,0,16.5,7T534,534.82q0,12.25-6.41,19.38T510.42,561.32Zm.42-46.44a15.85,15.85,0,0,0-12.66,5.7q-4.86,5.68-4.86,14.94t4.74,14.89a15.38,15.38,0,0,0,12.36,5.64q8.15,0,12.83-5.38t4.69-15q0-9.92-4.55-15.32T510.84,514.88Z" transform="translate(-413.29 -509.58)"/><path class="cls-1" d="M578.81,529.14l-.2-18.93h-6.48L571.89,546c-1.33-2.53-1.91-3.87-2.7-5.38a82.42,82.42,0,0,0-10.7-15.15c-5.87-6.71-16.07-15.3-16.07-15.3H534v50.06h6.48V524.1c0-3.51-.07-6.87-.07-6.87,3.41,2,13.24,11.95,16,15.4a93.76,93.76,0,0,1,8.38,12.57,110.05,110.05,0,0,1,5,10.06L579,544.08Z" transform="translate(-413.29 -509.58)"/><path class="cls-1" d="M599,519.44c5-.12,7.14-.12,11.26-.12,17.78,0,22.79,10.15,22.78,21.51,0,7.35-1.86,13.61-6,18.17-3.9,4.19-8.9,6.19-17.94,6.14-4.45,0-5.79.06-10.07-.13Zm2.63,43.63c2.44,0,7,.07,9,0,14.07-.49,20.07-9,20.07-22.2,0-12-6.08-19.18-20.15-19.6-2.79-.09-6.47.1-9,.16Z" transform="translate(-413.29 -509.58)"/><path class="cls-1" d="M666.9,552.7a11.2,11.2,0,0,1-1.17,5.08,12.1,12.1,0,0,1-3.26,4,15.29,15.29,0,0,1-5,2.65,20.48,20.48,0,0,1-6.39.95,29.34,29.34,0,0,1-7.95-1,16.24,16.24,0,0,1-5.62-2.69,11.62,11.62,0,0,1-3.43-4.16,14.59,14.59,0,0,1-1.33-4.69v-.15h2l0,.11a13,13,0,0,0,1.87,4.75,11.22,11.22,0,0,0,3.63,3.47,15,15,0,0,0,4.85,1.81,30.09,30.09,0,0,0,5.66.51,22.21,22.21,0,0,0,5.69-.67,13.53,13.53,0,0,0,4.41-2,9.33,9.33,0,0,0,2.87-3.21,9,9,0,0,0,1-4.24,9.29,9.29,0,0,0-.87-4.18,7.78,7.78,0,0,0-2.93-3,21.58,21.58,0,0,0-5.13-2.17c-2.08-.62-4.66-1.26-7.7-1.9a41.54,41.54,0,0,1-6.37-1.9,16.21,16.21,0,0,1-4.29-2.43,8.39,8.39,0,0,1-2.41-3.06,10.71,10.71,0,0,1,.28-8.66,10.56,10.56,0,0,1,3-3.59A14.94,14.94,0,0,1,643.1,520a21.45,21.45,0,0,1,6.24-.85,23.19,23.19,0,0,1,6.27.79,16,16,0,0,1,4.93,2.27,12.09,12.09,0,0,1,3.38,3.57,11.77,11.77,0,0,1,1.48,3.85l0,.15h-1.91l0-.09a12.06,12.06,0,0,0-1.43-3,11,11,0,0,0-2.88-2.93,14,14,0,0,0-4.14-1.9,20.27,20.27,0,0,0-5.41-.67c-4.23,0-7.51.8-9.72,2.39a7.89,7.89,0,0,0-3.45,6.75,8.66,8.66,0,0,0,.64,3.42,6.9,6.9,0,0,0,2.21,2.67,14.11,14.11,0,0,0,3.89,2,43.5,43.5,0,0,0,5.83,1.55l4.15.88c1.41.31,2.8.67,4.11,1.08a24.11,24.11,0,0,1,3.77,1.51,11.92,11.92,0,0,1,3,2.14,9.65,9.65,0,0,1,2,3A10.42,10.42,0,0,1,666.9,552.7Z" transform="translate(-413.29 -509.58)"/><polygon class="cls-1" points="183.5 32.49 183.5 39.29 170.93 54.28 165.22 54.28 183.5 32.49"/><polygon class="cls-1" points="206.41 0.7 205.56 1.72 161.53 54.22 148.01 54.22 148.61 53.51 192.9 0.7 206.41 0.7"/></g></svg>