<svg xmlns="http://www.w3.org/2000/svg" viewBox="0 0 97.82 84.71"><defs><style>.cls-1{fill:#f5f7f5;}.cls-2{fill:none;stroke:#f6f7f5;stroke-miterlimit:10;stroke-width:8px;}</style></defs><g id="Layer_1" data-name="Layer 1"><polygon class="cls-1" points="58.01 47.28 55.41 50.38 54.88 51.02 54.51 51.45 54.06 51.98 44.38 63.54 43.89 64.11 40.04 64.11 51.64 50.28 51.83 50.06 52.47 49.3 52.67 49.05 54.16 47.28 58.01 47.28"/><polygon class="cls-1" points="72.7 20.83 72.01 21.65 61.62 34.05 61.36 34.36 49.03 49.05 48.83 49.3 48.19 50.06 48.01 50.28 36.41 64.11 25.47 64.11 25.96 63.54 35.64 51.98 36.09 51.45 36.46 51.02 36.99 50.38 41.88 44.55 42.83 43.41 43 43.21 43.96 42.07 61.77 20.83 72.7 20.83"/><polygon class="cls-2" points="93.2 42.36 71.05 80.71 26.77 80.71 26.73 80.65 24.05 76.01 16.01 62.08 4.62 42.36 26.77 4 71.05 4 76.51 13.45 93.2 42.36"/></g></svg>