<svg id="Layer_1" data-name="Layer 1" xmlns="http://www.w3.org/2000/svg" xmlns:xlink="http://www.w3.org/1999/xlink" viewBox="0 0 156.56 170.15"><defs><style>.cls-1,.cls-2{fill:none;}.cls-2{stroke:#f6f7f5;stroke-miterlimit:10;}.cls-3{fill:url(#New_Pattern_6);}.cls-4{fill:#f6f7f5;}.cls-5{fill:url(#New_Pattern_6-7);}</style><pattern id="New_Pattern_6" data-name="New Pattern 6" width="100.06" height="61.96" patternTransform="translate(-453.44 -390.98) scale(1.01)" patternUnits="userSpaceOnUse" viewBox="0 0 100.06 61.96"><rect class="cls-1" width="100.06" height="61.96"/><polygon class="cls-2" points="117.17 61.97 105.41 61.97 99.52 72.16 105.41 82.34 117.17 82.34 123.06 72.16 117.17 61.97"/><polygon class="cls-2" points="99.31 51.46 87.54 51.46 81.66 61.65 87.54 71.84 99.31 71.84 105.19 61.65 99.31 51.46"/><polygon class="cls-2" points="81.31 62.46 69.54 62.46 63.66 72.65 69.54 82.84 81.31 82.84 87.19 72.65 81.31 62.46"/><polygon class="cls-2" points="99.31 31.35 87.54 31.35 81.66 41.54 87.54 51.73 99.31 51.73 105.19 41.54 99.31 31.35"/><polygon class="cls-2" points="116.46 42.46 105.26 42.46 99.66 52.16 105.26 61.85 116.46 61.85 122.06 52.16 116.46 42.46"/><polygon class="cls-2" points="49.28 62.33 37.52 62.33 31.63 72.52 37.52 82.71 49.28 82.71 55.16 72.52 49.28 62.33"/><polygon class="cls-2" points="17.12 61.97 5.35 61.97 -0.53 72.16 5.35 82.34 17.12 82.34 23 72.16 17.12 61.97"/><polygon class="cls-2" points="34.12 51.97 22.35 51.97 16.47 62.16 22.35 72.34 34.12 72.34 40 62.16 34.12 51.97"/><polygon class="cls-2" points="-0.75 51.46 -12.51 51.46 -18.39 61.65 -12.51 71.84 -0.75 71.84 5.14 61.65 -0.75 51.46"/><polygon class="cls-2" points="-0.75 31.35 -12.51 31.35 -18.39 41.54 -12.51 51.73 -0.75 51.73 5.14 41.54 -0.75 31.35"/><polygon class="cls-2" points="16.4 42.46 5.2 42.46 -0.4 52.16 5.2 61.85 16.4 61.85 22 52.16 16.4 42.46"/><polygon class="cls-2" points="117.17 0 105.41 0 99.52 10.19 105.41 20.38 117.17 20.38 123.06 10.19 117.17 0"/><polygon class="cls-2" points="99.31 -10.51 87.54 -10.51 81.66 -0.32 87.54 9.87 99.31 9.87 105.19 -0.32 99.31 -10.51"/><polygon class="cls-2" points="81.31 0.49 69.54 0.49 63.66 10.69 69.54 20.87 81.31 20.87 87.19 10.69 81.31 0.49"/><polygon class="cls-2" points="99.31 10.49 87.54 10.49 81.66 20.68 87.54 30.87 99.31 30.87 105.19 20.68 99.31 10.49"/><polygon class="cls-2" points="116.46 -19.5 105.26 -19.5 99.66 -9.81 105.26 -0.11 116.46 -0.11 122.06 -9.81 116.46 -19.5"/><polygon class="cls-2" points="67.14 30.98 55.38 30.98 49.5 41.17 55.38 51.36 67.14 51.36 73.03 41.17 67.14 30.98"/><polygon class="cls-2" points="84.14 41.98 72.38 41.98 66.5 52.17 72.38 62.36 84.14 62.36 90.03 52.17 84.14 41.98"/><polygon class="cls-2" points="84.14 20.98 72.38 20.98 66.5 31.17 72.38 41.36 84.14 41.36 90.03 31.17 84.14 20.98"/><polygon class="cls-2" points="49.28 20.48 37.52 20.48 31.63 30.67 37.52 40.85 49.28 40.85 55.16 30.67 49.28 20.48"/><polygon class="cls-2" points="31.28 31.48 19.52 31.48 13.63 41.67 19.52 51.85 31.28 51.85 37.16 41.67 31.28 31.48"/><polygon class="cls-2" points="49.28 41.48 37.52 41.48 31.63 51.67 37.52 61.85 49.28 61.85 55.16 51.67 49.28 41.48"/><polygon class="cls-2" points="49.28 0.37 37.52 0.37 31.63 10.56 37.52 20.75 49.28 20.75 55.16 10.56 49.28 0.37"/><polygon class="cls-2" points="66.43 11.48 55.23 11.48 49.63 21.17 55.23 30.87 66.43 30.87 72.03 21.17 66.43 11.48"/><polygon class="cls-2" points="17.12 0 5.35 0 -0.53 10.19 5.35 20.38 17.12 20.38 23 10.19 17.12 0"/><polygon class="cls-2" points="34.12 11 22.35 11 16.47 21.19 22.35 31.38 34.12 31.38 40 21.19 34.12 11"/><polygon class="cls-2" points="34.12 -10 22.35 -10 16.47 0.19 22.35 10.38 34.12 10.38 40 0.19 34.12 -10"/><polygon class="cls-2" points="-0.75 -10.51 -12.51 -10.51 -18.39 -0.32 -12.51 9.87 -0.75 9.87 5.14 -0.32 -0.75 -10.51"/><polygon class="cls-2" points="-0.75 10.49 -12.51 10.49 -18.39 20.68 -12.51 30.87 -0.75 30.87 5.14 20.68 -0.75 10.49"/><polygon class="cls-2" points="16.4 -19.5 5.2 -19.5 -0.4 -9.81 5.2 -0.11 16.4 -0.11 22 -9.81 16.4 -19.5"/><polygon class="cls-2" points="84.14 -19.98 72.38 -19.98 66.5 -9.79 72.38 0.4 84.14 0.4 90.03 -9.79 84.14 -19.98"/><polygon class="cls-2" points="49.28 -20.49 37.52 -20.49 31.63 -10.3 37.52 -0.11 49.28 -0.11 55.16 -10.3 49.28 -20.49"/></pattern><pattern id="New_Pattern_6-7" data-name="New Pattern 6" width="100.06" height="61.96" patternTransform="translate(-525.75 -450.85) scale(1.01 1.01)" patternUnits="userSpaceOnUse" viewBox="0 0 100.06 61.96"><rect class="cls-1" width="100.06" height="61.96"/><polygon class="cls-2" points="117.17 61.97 105.41 61.97 99.52 72.16 105.41 82.34 117.17 82.34 123.06 72.16 117.17 61.97"/><polygon class="cls-2" points="99.31 51.46 87.54 51.46 81.66 61.65 87.54 71.84 99.31 71.84 105.19 61.65 99.31 51.46"/><polygon class="cls-2" points="81.31 62.46 69.54 62.46 63.66 72.65 69.54 82.84 81.31 82.84 87.19 72.65 81.31 62.46"/><polygon class="cls-2" points="99.31 31.35 87.54 31.35 81.66 41.54 87.54 51.73 99.31 51.73 105.19 41.54 99.31 31.35"/><polygon class="cls-2" points="116.46 42.46 105.26 42.46 99.66 52.16 105.26 61.85 116.46 61.85 122.06 52.16 116.46 42.46"/><polygon class="cls-2" points="49.28 62.33 37.52 62.33 31.63 72.52 37.52 82.71 49.28 82.71 55.16 72.52 49.28 62.33"/><polygon class="cls-2" points="17.12 61.97 5.35 61.97 -0.53 72.16 5.35 82.34 17.12 82.34 23 72.16 17.12 61.97"/><polygon class="cls-2" points="34.12 51.97 22.35 51.97 16.47 62.16 22.35 72.34 34.12 72.34 40 62.16 34.12 51.97"/><polygon class="cls-2" points="-0.75 51.46 -12.51 51.46 -18.39 61.65 -12.51 71.84 -0.75 71.84 5.14 61.65 -0.75 51.46"/><polygon class="cls-2" points="-0.75 31.35 -12.51 31.35 -18.39 41.54 -12.51 51.73 -0.75 51.73 5.14 41.54 -0.75 31.35"/><polygon class="cls-2" points="16.4 42.46 5.2 42.46 -0.4 52.16 5.2 61.85 16.4 61.85 22 52.16 16.4 42.46"/><polygon class="cls-2" points="117.17 0 105.41 0 99.52 10.19 105.41 20.38 117.17 20.38 123.06 10.19 117.17 0"/><polygon class="cls-2" points="99.31 -10.51 87.54 -10.51 81.66 -0.32 87.54 9.87 99.31 9.87 105.19 -0.32 99.31 -10.51"/><polygon class="cls-2" points="81.31 0.49 69.54 0.49 63.66 10.69 69.54 20.87 81.31 20.87 87.19 10.69 81.31 0.49"/><polygon class="cls-2" points="99.31 10.49 87.54 10.49 81.66 20.68 87.54 30.87 99.31 30.87 105.19 20.68 99.31 10.49"/><polygon class="cls-2" points="116.46 -19.5 105.26 -19.5 99.66 -9.81 105.26 -0.11 116.46 -0.11 122.06 -9.81 116.46 -19.5"/><polygon class="cls-2" points="67.14 30.98 55.38 30.98 49.5 41.17 55.38 51.36 67.14 51.36 73.03 41.17 67.14 30.98"/><polygon class="cls-2" points="84.14 41.98 72.38 41.98 66.5 52.17 72.38 62.36 84.14 62.36 90.03 52.17 84.14 41.98"/><polygon class="cls-2" points="84.14 20.98 72.38 20.98 66.5 31.17 72.38 41.36 84.14 41.36 90.03 31.17 84.14 20.98"/><polygon class="cls-2" points="49.28 20.48 37.52 20.48 31.63 30.67 37.52 40.85 49.28 40.85 55.16 30.67 49.28 20.48"/><polygon class="cls-2" points="31.28 31.48 19.52 31.48 13.63 41.67 19.52 51.85 31.28 51.85 37.16 41.67 31.28 31.48"/><polygon class="cls-2" points="49.28 41.48 37.52 41.48 31.63 51.67 37.52 61.85 49.28 61.85 55.16 51.67 49.28 41.48"/><polygon class="cls-2" points="49.28 0.37 37.52 0.37 31.63 10.56 37.52 20.75 49.28 20.75 55.16 10.56 49.28 0.37"/><polygon class="cls-2" points="66.43 11.48 55.23 11.48 49.63 21.17 55.23 30.87 66.43 30.87 72.03 21.17 66.43 11.48"/><polygon class="cls-2" points="17.12 0 5.35 0 -0.53 10.19 5.35 20.38 17.12 20.38 23 10.19 17.12 0"/><polygon class="cls-2" points="34.12 11 22.35 11 16.47 21.19 22.35 31.38 34.12 31.38 40 21.19 34.12 11"/><polygon class="cls-2" points="34.12 -10 22.35 -10 16.47 0.19 22.35 10.38 34.12 10.38 40 0.19 34.12 -10"/><polygon class="cls-2" points="-0.75 -10.51 -12.51 -10.51 -18.39 -0.32 -12.51 9.87 -0.75 9.87 5.14 -0.32 -0.75 -10.51"/><polygon class="cls-2" points="-0.75 10.49 -12.51 10.49 -18.39 20.68 -12.51 30.87 -0.75 30.87 5.14 20.68 -0.75 10.49"/><polygon class="cls-2" points="16.4 -19.5 5.2 -19.5 -0.4 -9.81 5.2 -0.11 16.4 -0.11 22 -9.81 16.4 -19.5"/><polygon class="cls-2" points="84.14 -19.98 72.38 -19.98 66.5 -9.79 72.38 0.4 84.14 0.4 90.03 -9.79 84.14 -19.98"/><polygon class="cls-2" points="49.28 -20.49 37.52 -20.49 31.63 -10.3 37.52 -0.11 49.28 -0.11 55.16 -10.3 49.28 -20.49"/></pattern></defs><polygon class="cls-3" points="10.45 135.37 1.16 119.27 10.45 103.17 29.04 103.17 38.33 119.27 29.04 135.37 10.45 135.37"/><path class="cls-4" d="M456.83,555.07l8.71,15.1-8.71,15.1H439.39l-8.71-15.1,8.71-15.1h17.44m1.15-2H438.24l-9.87,17.1,9.87,17.1H458l9.87-17.1L458,553.07Z" transform="translate(-428.37 -450.9)"/><polygon class="cls-3" points="40.02 152.31 30.73 136.21 40.02 120.11 58.61 120.11 67.9 136.21 58.61 152.31 40.02 152.31"/><path class="cls-4" d="M486.4,572l8.71,15.09-8.71,15.1H469l-8.72-15.1L469,572H486.4m1.15-2H467.81l-9.87,17.09,9.87,17.1h19.74l9.87-17.1L487.55,570Z" transform="translate(-428.37 -450.9)"/><polygon class="cls-3" points="40.02 118.32 30.73 102.22 40.02 86.13 58.61 86.13 67.9 102.22 58.61 118.32 40.02 118.32"/><path class="cls-4" d="M486.4,538l8.71,15.09-8.71,15.1H469l-8.72-15.1L469,538H486.4m1.15-2H467.81l-9.87,17.09,9.87,17.1h19.74l9.87-17.1L487.55,536Z" transform="translate(-428.37 -450.9)"/><polygon class="cls-5" points="69.02 33.07 59.73 17.03 69.02 1 87.61 1 96.9 17.03 87.61 33.07 69.02 33.07"/><path class="cls-4" d="M515.4,452.9l8.71,15-8.71,15H498l-8.71-15,8.71-15H515.4m1.15-2H496.81l-9.87,17,9.87,17h19.74l9.87-17-9.87-17Z" transform="translate(-428.37 -450.9)"/><polygon class="cls-5" points="68.58 100.84 59.29 84.81 68.58 68.77 87.17 68.77 96.46 84.81 87.17 100.84 68.58 100.84"/><path class="cls-4" d="M515,520.67l8.71,15-8.71,15H497.52l-8.71-15,8.71-15H515m1.15-2H496.37l-9.87,17,9.87,17h19.74l9.87-17-9.87-17Z" transform="translate(-428.37 -450.9)"/><polygon class="cls-5" points="97.99 83.8 88.7 67.77 97.99 51.74 116.58 51.74 125.87 67.77 116.58 83.8 97.99 83.8"/><path class="cls-4" d="M544.37,503.64l8.71,15-8.71,15H526.93l-8.71-15,8.71-15h17.44m1.15-2H525.78l-9.87,17,9.87,17h19.74l9.87-17-9.87-17Z" transform="translate(-428.37 -450.9)"/><polygon class="cls-5" points="127.52 33.17 118.23 17.14 127.52 1.1 146.11 1.1 155.4 17.14 146.11 33.17 127.52 33.17"/><path class="cls-4" d="M573.9,453l8.71,15-8.71,15H556.47l-8.72-15,8.72-15H573.9m1.16-2H555.31l-9.87,17,9.87,17h19.75l9.87-17-9.87-17Z" transform="translate(-428.37 -450.9)"/><polygon class="cls-5" points="39.45 49.95 30.16 33.91 39.45 17.88 58.04 17.88 67.33 33.91 58.04 49.95 39.45 49.95"/><path class="cls-4" d="M485.83,469.78l8.71,15-8.71,15H468.39l-8.71-15,8.71-15h17.44m1.15-2H467.24l-9.87,17,9.87,17H487l9.87-17-9.87-17Z" transform="translate(-428.37 -450.9)"/><polygon class="cls-5" points="68.8 66.88 59.51 50.84 68.8 34.81 87.39 34.81 96.68 50.84 87.39 66.88 68.8 66.88"/><path class="cls-4" d="M515.18,486.71l8.71,15-8.71,15H497.74l-8.71-15,8.71-15h17.44m1.15-2H496.59l-9.87,17,9.87,17h19.74l9.87-17-9.87-17Z" transform="translate(-428.37 -450.9)"/><polygon class="cls-3" points="68.93 169.15 59.64 153.05 68.93 136.95 87.52 136.95 96.81 153.05 87.52 169.15 68.93 169.15"/><path class="cls-4" d="M515.31,588.85,524,604l-8.72,15.1H497.88L489.16,604l8.72-15.1h17.43m1.16-2H496.72L486.85,604l9.87,17.1h19.75l9.87-17.1-9.87-17.1Z" transform="translate(-428.37 -450.9)"/></svg>