<svg id="Layer_1" data-name="Layer 1" xmlns="http://www.w3.org/2000/svg" xmlns:xlink="http://www.w3.org/1999/xlink" viewBox="0 0 98.68 135.37"><defs><style>.cls-1,.cls-2{fill:none;}.cls-2{stroke:#f5f7f5;stroke-miterlimit:10;}.cls-3{fill:url(#New_Pattern_2);}.cls-4{fill:#f5f7f5;}</style><pattern id="New_Pattern_2" data-name="New Pattern 2" width="100.06" height="61.96" patternTransform="translate(-599.22 -167.82) rotate(-120) scale(1.01)" patternUnits="userSpaceOnUse" viewBox="0 0 100.06 61.96"><rect class="cls-1" width="100.06" height="61.96"/><polygon class="cls-2" points="117.17 61.97 105.41 61.97 99.52 72.16 105.41 82.34 117.17 82.34 123.06 72.16 117.17 61.97"/><polygon class="cls-2" points="99.31 51.46 87.54 51.46 81.66 61.65 87.54 71.84 99.31 71.84 105.19 61.65 99.31 51.46"/><polygon class="cls-2" points="81.31 62.46 69.54 62.46 63.66 72.65 69.54 82.84 81.31 82.84 87.19 72.65 81.31 62.46"/><polygon class="cls-2" points="99.31 31.35 87.54 31.35 81.66 41.54 87.54 51.73 99.31 51.73 105.19 41.54 99.31 31.35"/><polygon class="cls-2" points="116.46 42.46 105.26 42.46 99.66 52.16 105.26 61.85 116.46 61.85 122.06 52.16 116.46 42.46"/><polygon class="cls-2" points="49.28 62.33 37.52 62.33 31.63 72.52 37.52 82.71 49.28 82.71 55.16 72.52 49.28 62.33"/><polygon class="cls-2" points="17.12 61.97 5.35 61.97 -0.53 72.16 5.35 82.34 17.12 82.34 23 72.16 17.12 61.97"/><polygon class="cls-2" points="34.12 51.97 22.35 51.97 16.47 62.16 22.35 72.34 34.12 72.34 40 62.16 34.12 51.97"/><polygon class="cls-2" points="-0.75 51.46 -12.51 51.46 -18.39 61.65 -12.51 71.84 -0.75 71.84 5.14 61.65 -0.75 51.46"/><polygon class="cls-2" points="-0.75 31.35 -12.51 31.35 -18.39 41.54 -12.51 51.73 -0.75 51.73 5.14 41.54 -0.75 31.35"/><polygon class="cls-2" points="16.4 42.46 5.2 42.46 -0.4 52.16 5.2 61.85 16.4 61.85 22 52.16 16.4 42.46"/><polygon class="cls-2" points="117.17 0 105.41 0 99.52 10.19 105.41 20.38 117.17 20.38 123.06 10.19 117.17 0"/><polygon class="cls-2" points="99.31 -10.51 87.54 -10.51 81.66 -0.32 87.54 9.87 99.31 9.87 105.19 -0.32 99.31 -10.51"/><polygon class="cls-2" points="81.31 0.49 69.54 0.49 63.66 10.69 69.54 20.87 81.31 20.87 87.19 10.69 81.31 0.49"/><polygon class="cls-2" points="99.31 10.49 87.54 10.49 81.66 20.68 87.54 30.87 99.31 30.87 105.19 20.68 99.31 10.49"/><polygon class="cls-2" points="116.46 -19.5 105.26 -19.5 99.66 -9.81 105.26 -0.11 116.46 -0.11 122.06 -9.81 116.46 -19.5"/><polygon class="cls-2" points="67.14 30.98 55.38 30.98 49.5 41.17 55.38 51.36 67.14 51.36 73.03 41.17 67.14 30.98"/><polygon class="cls-2" points="84.14 41.98 72.38 41.98 66.5 52.17 72.38 62.36 84.14 62.36 90.03 52.17 84.14 41.98"/><polygon class="cls-2" points="84.14 20.98 72.38 20.98 66.5 31.17 72.38 41.36 84.14 41.36 90.03 31.17 84.14 20.98"/><polygon class="cls-2" points="49.28 20.48 37.52 20.48 31.63 30.67 37.52 40.85 49.28 40.85 55.16 30.67 49.28 20.48"/><polygon class="cls-2" points="31.28 31.48 19.52 31.48 13.63 41.67 19.52 51.85 31.28 51.85 37.16 41.67 31.28 31.48"/><polygon class="cls-2" points="49.28 41.48 37.52 41.48 31.63 51.67 37.52 61.85 49.28 61.85 55.16 51.67 49.28 41.48"/><polygon class="cls-2" points="49.28 0.37 37.52 0.37 31.63 10.56 37.52 20.75 49.28 20.75 55.16 10.56 49.28 0.37"/><polygon class="cls-2" points="66.43 11.48 55.23 11.48 49.63 21.17 55.23 30.87 66.43 30.87 72.03 21.17 66.43 11.48"/><polygon class="cls-2" points="17.12 0 5.35 0 -0.53 10.19 5.35 20.38 17.12 20.38 23 10.19 17.12 0"/><polygon class="cls-2" points="34.12 11 22.35 11 16.47 21.19 22.35 31.38 34.12 31.38 40 21.19 34.12 11"/><polygon class="cls-2" points="34.12 -10 22.35 -10 16.47 0.19 22.35 10.38 34.12 10.38 40 0.19 34.12 -10"/><polygon class="cls-2" points="-0.75 -10.51 -12.51 -10.51 -18.39 -0.32 -12.51 9.87 -0.75 9.87 5.14 -0.32 -0.75 -10.51"/><polygon class="cls-2" points="-0.75 10.49 -12.51 10.49 -18.39 20.68 -12.51 30.87 -0.75 30.87 5.14 20.68 -0.75 10.49"/><polygon class="cls-2" points="16.4 -19.5 5.2 -19.5 -0.4 -9.81 5.2 -0.11 16.4 -0.11 22 -9.81 16.4 -19.5"/><polygon class="cls-2" points="84.14 -19.98 72.38 -19.98 66.5 -9.79 72.38 0.4 84.14 0.4 90.03 -9.79 84.14 -19.98"/><polygon class="cls-2" points="49.28 -20.49 37.52 -20.49 31.63 -10.3 37.52 -0.11 49.28 -0.11 55.16 -10.3 49.28 -20.49"/></pattern></defs><polygon class="cls-3" points="10.45 67.37 1.16 51.27 10.45 35.18 29.04 35.18 38.33 51.27 29.04 67.37 10.45 67.37"/><path class="cls-4" d="M531.68,427.45l8.71,15.1-8.71,15.1H514.24l-8.71-15.1,8.71-15.1h17.44m1.15-2H513.09l-9.87,17.1,9.87,17.1h19.74l9.87-17.1-9.87-17.1Z" transform="translate(-503.22 -391.28)"/><polygon class="cls-3" points="39.69 83.84 30.4 67.75 39.69 51.65 58.28 51.65 67.57 67.75 58.28 83.84 39.69 83.84"/><path class="cls-4" d="M560.92,443.92l8.71,15.1-8.71,15.1H543.49L534.77,459l8.72-15.1h17.43m1.15-2H542.33L532.46,459l9.87,17.1h19.74l9.87-17.1-9.87-17.1Z" transform="translate(-503.22 -391.28)"/><polygon class="cls-3" points="40.04 50.28 30.75 34.18 40.04 18.09 58.63 18.09 67.92 34.18 58.63 50.28 40.04 50.28"/><path class="cls-4" d="M561.27,410.36l8.72,15.1-8.72,15.1H543.84l-8.71-15.1,8.71-15.1h17.43m1.16-2H542.69l-9.87,17.1,9.87,17.1h19.74l9.87-17.1-9.87-17.1Z" transform="translate(-503.22 -391.28)"/><polygon class="cls-3" points="69.64 33.19 60.35 17.1 69.64 1 88.23 1 97.52 17.1 88.23 33.19 69.64 33.19"/><path class="cls-4" d="M590.87,393.28l8.72,15.09-8.72,15.1H573.44l-8.72-15.1,8.72-15.09h17.43m1.16-2H572.28l-9.87,17.09,9.87,17.1H592l9.87-17.1L592,391.28Z" transform="translate(-503.22 -391.28)"/><polygon class="cls-3" points="69.29 66.75 59.99 50.66 69.29 34.56 87.87 34.56 97.17 50.66 87.87 66.75 69.29 66.75"/><path class="cls-4" d="M590.52,426.84l8.71,15.09L590.52,457H573.08l-8.71-15.1,8.71-15.09h17.44m1.15-2H571.93l-9.87,17.09,9.87,17.1h19.74l9.87-17.1-9.87-17.09Z" transform="translate(-503.22 -391.28)"/><polygon class="cls-3" points="39.85 117.82 30.55 101.72 39.85 85.63 58.43 85.63 67.73 101.72 58.43 117.82 39.85 117.82"/><path class="cls-4" d="M561.08,477.9l8.71,15.1-8.71,15.09H543.64L534.93,493l8.71-15.1h17.44m1.15-2H542.49L532.62,493l9.87,17.09h19.74L572.1,493l-9.87-17.1Z" transform="translate(-503.22 -391.28)"/><polygon class="cls-3" points="69.06 134.37 59.76 118.27 69.06 102.17 87.64 102.17 96.94 118.27 87.64 134.37 69.06 134.37"/><path class="cls-4" d="M590.29,494.45l8.71,15.1-8.71,15.09H572.85l-8.71-15.09,8.71-15.1h17.44m1.15-2H571.7l-9.87,17.1,9.87,17.09h19.74l9.87-17.09-9.87-17.1Z" transform="translate(-503.22 -391.28)"/></svg>