<svg xmlns="http://www.w3.org/2000/svg" viewBox="0 0 655.29 567.5"><defs><style>.cls-1{fill:#191919;}</style></defs><g id="Layer_2" data-name="Layer 2"><g id="final_logos" data-name="final logos"><path class="cls-1" d="M491.46,567.5H163.65l-6.79-12.09L0,283.77,163.83,0H491.46L655.29,283.77Zm-301-46.12H464.83L602,283.77,464.83,46.13H190.46L53.26,283.77Z"/><path class="cls-1" d="M490.68,237.93v-.36l-.92-1.82c-4.71-9.3-15.94-15.45-36.36-19.91-18.14-4-42-6.15-67.27-6.15-2.46,0-4.95,0-7.41.05H378c-6.81.18-11,.34-14.55.57-1.92.1-3.8.2-5.67.33-4.76.31-9.53.72-14.22,1.26l-2.64.3-2.92.36c-6,.85-10.63,1.59-14.73,2.38l-3,.57-1.51.36c-4.33.95-8.2,2-11.68,3-.8.25-1.57.51-2.34.77a61,61,0,0,0-10.17,4.45c-5.89,3.28-9.84,7.08-12.09,11.64a21,21,0,0,0-2.26,9.76V423.77l8,4.25c1.2.69,30.18,17,95.17,17,60.76,0,95.61-14.71,99.4-16.4l9.2-4.1v-179A20.94,20.94,0,0,0,490.68,237.93ZM310.51,326.88a282,282,0,0,0,76.85,10.4,287,287,0,0,0,74.42-9.66v21.19a252.77,252.77,0,0,1-74.42,10.95c-35.54,0-62.83-7.18-76.85-11.84Zm0-33.37V273.14c2.64.74,5.46,1.44,8.38,2.08l2.66.56,1.75.36c4.28.79,9.12,1.56,14.78,2.33,6.72.9,14.15,1.64,22,2.13,1.1.07,2.23.18,3.33.23,5.54.25,10.07.41,14.74.49l2.94,0c1.67,0,3.33.05,5,.05,25.22,0,49.1-2.2,67.24-6.17,3.1-.7,5.9-1.36,8.41-2.08v21.3a252.16,252.16,0,0,1-74.42,10.94,254,254,0,0,1-60.6-7.18C321.17,296.84,315.74,295.26,310.51,293.51Zm0,87.77a281.9,281.9,0,0,0,76.85,10.38A289,289,0,0,0,461.78,382v20.6c-13.4,4.15-40.13,10.53-78.34,10.53-37.46,0-61.3-6-72.93-10ZM451.32,245.54c-1.69.39-3.46.8-5.35,1.18-16.15,3.36-37.08,5.2-58.94,5.2-2.87,0-5.74,0-8.69-.1-4,0-8.46-.2-13.86-.51-3.21-.18-6.38-.41-9.51-.67-5-.38-9.76-.9-14.32-1.48-1.39-.18-2.77-.39-4.11-.59-.87-.13-1.71-.26-2.56-.41-1.79-.29-3.51-.59-5.17-.93l-2-.41-5.58-1.33c1.3-.33,2.66-.64,4.12-1l1.05-.23.64-.15c2.1-.41,4.31-.82,6.66-1.21,2.16-.36,4.46-.69,7-1,6.27-.84,13.17-1.48,20.52-1.94,1.1-.08,2.23-.16,3.36-.21,4.92-.31,9.58-.46,13.91-.51,2.54-.05,5.15-.08,7.69-.08,22.45,0,43.74,1.82,59.84,5.15C447.86,244.7,449.66,245.11,451.32,245.54Z"/><path class="cls-1" d="M488.27,238.39v-.23l-.66-1.31c-4.36-8.58-15.07-14.35-34.75-18.65-18-3.92-41.64-6.1-66.73-6.1-2.43,0-4.95,0-7.41.05h-.64c-6.45.16-10.81.33-14.47.57-1.9.1-3.77.2-5.64.33q-6.66.42-13.07,1.13l-2.61.3c-1.34.16-2.62.31-3.93.49-5.58.77-10.35,1.54-14.6,2.33l-.92.18-2,.41-1.51.33c-4.05.9-7.71,1.85-11,2.88-.8.23-1.59.48-2.34.74a60,60,0,0,0-10.22,4.41c-5.46,3.05-9.1,6.53-11.12,10.6a18.85,18.85,0,0,0-2,8.69V422.33L289.5,426c1.15.66,30.08,16.68,93.94,16.68,60.45,0,94.66-14.53,98.4-16.2l7.77-3.46V245.54A19.13,19.13,0,0,0,488.27,238.39ZM361.17,240c1.1-.08,2.23-.16,3.36-.21,4.92-.31,9.58-.46,13.91-.51,2.54-.05,5.15-.08,7.69-.08,22.45,0,43.74,1.82,59.84,5.15,1.89.39,3.69.8,5.35,1.23-1.69.39-3.46.8-5.35,1.18-16.15,3.36-37.08,5.2-58.94,5.2-2.87,0-5.74,0-8.69-.1-4,0-8.46-.2-13.86-.51-3.21-.18-6.38-.41-9.51-.67-5-.38-9.76-.9-14.32-1.48-1.39-.18-2.77-.39-4.11-.59-.87-.13-1.71-.26-2.56-.41-1.79-.29-3.51-.59-5.17-.93l-2-.41-5.58-1.33c1.3-.33,2.66-.64,4.12-1l1.05-.23.64-.15c2.1-.41,4.31-.82,6.66-1.21,2.16-.36,4.46-.69,7-1C346.92,241.06,353.82,240.42,361.17,240Zm103,164.41c-12.86,4.15-40.44,11.17-80.77,11.17-39.54,0-64.09-6.69-75.34-10.73V378.05a278,278,0,0,0,79.26,11.2,285.12,285.12,0,0,0,76.85-10.43Zm0-53.79a254.65,254.65,0,0,1-76.85,11.58c-37.54,0-65.91-7.91-79.26-12.53v-26a276.87,276.87,0,0,0,79.26,11.22,282.82,282.82,0,0,0,76.85-10.45Zm0-54.38a254.57,254.57,0,0,1-76.85,11.59,256.91,256.91,0,0,1-61.17-7.26c-6.87-1.66-12.53-3.4-16.83-4.86-.44-.13-.85-.29-1.26-.41V269.91c3.38,1,7.15,2,11.3,2.92l2.62.59,1.71.34,3.28.59s.05,0,.08,0c3.38.58,7.1,1.15,11.3,1.71,6.87.95,14.2,1.64,21.88,2.13h0c1.08.08,2.18.15,3.28.2,4.69.26,9.33.44,14.61.52h.51c2.46,0,5,.07,7.43.07,25.06,0,48.77-2.17,66.73-6.15,4.2-.89,8-1.87,11.35-2.92Z"/><path class="cls-1" d="M336.54,248.57c-.87-.13-1.71-.26-2.56-.41-1.79-.29-3.51-.59-5.17-.93l-2-.41-5.58-1.33c1.3-.33,2.66-.64,4.12-1l1.05-.23.64-.15c2.1-.41,4.31-.82,6.66-1.21-4-.36-8.09-.79-12.17-1.33-2.74-.33-5.43-.74-8-1.2,2.51-.41,5.17-.85,8-1.26,6.13-.79,13-1.46,20.35-1.92l1.28-.08,7.51-13-5.74-10-1.31-2.28L333.83,195l15.91-9.2-16.45-28.49-15.94,9.2-16.66-28.88H267.18v-19H234.27v19H200.78L184,166.72l-16.37-9.43-16.46,28.49,16.38,9.43-16.74,28.93L167.47,253l-16.33,9.43L167.6,291,184,281.52l16.84,29.14h33.46V330h32.91V310.66h33.51l8.67-15,1.05-1.82-2.31-.57-.82-.2c-5.56-1.36-11-2.92-16.25-4.69V268c2.64.74,5.46,1.44,8.38,2l2.67.59,1.74.33c1.36.26,2.79.52,4.28.77,3.15.54,6.64,1.05,10.51,1.57,2.69.35,5.48.69,8.4,1,0,0,.05,0,.08,0q6.54.69,13.73,1.15h1.41l7.51-13.05-15.91-9.17Zm-29.18-24.43-24.68,42.75-2.41,4.18L279,273.19H222.43l-28.34-49.05,28.34-49.07H279l22.22,38.52,3.53,6.1,1.23,2.15Z"/><path class="cls-1" d="M334,248.16c-1.79-.29-3.51-.59-5.17-.93l-2-.41-5.58-1.33c1.3-.33,2.66-.64,4.12-1-1.41-.15-2.79-.33-4.15-.51-4.2-.54-8.2-1.2-11.84-1.9l-2-.41-5.59-1.35c1.61-.39,3.33-.8,5.18-1.18l.64-.16c4-.77,8.38-1.51,13.63-2.25,6.28-.82,13.17-1.49,20.53-1.95l6.15-10.69-5.56-9.66L341,212.2l-2.46-4.28-8-13.81,15.92-9.2-14-24.32-15.94,9.2L299.31,140H264.77V121H236.71v19H202.19l-17.35,30-16.35-9.43-14,24.32,16.37,9.43-17.24,29.8,17.19,29.76-16.32,9.43,14,24.34,16.35-9.46,17.38,30h34.49v19.27h28.06V308.25h34.54l7.41-12.81c-7.54-1.85-13.66-3.77-18.09-5.31V264.79q5.07,1.6,11.3,2.94l2.61.57,1.72.33c4.25.82,9,1.56,14.65,2.33,6.87.93,14.2,1.62,21.89,2.13h0l5.62-9.76-15.89-9.18Zm-51.3,23.55-2.26,3.89H221L191.3,224.14,221,172.66h59.4l22.94,39.72,3.77,6.54,1.23,2.18,1.76,3Z"/></g></g></svg>