<svg xmlns="http://www.w3.org/2000/svg" viewBox="0 0 655.29 567.5"><defs><style>.cls-1{fill:#191919;}</style></defs><g id="Layer_2" data-name="Layer 2"><g id="final_logos" data-name="final logos"><path class="cls-1" d="M491.46,567.5H163.65l-6.79-12.09L0,283.77,163.83,0H491.46L655.29,283.77Zm-301-46.12H464.83L602,283.76,464.84,46.13H190.46L53.26,283.76Z"/><rect class="cls-1" x="286.91" y="187.36" width="105.91" height="65.57"/><path class="cls-1" d="M226.35,135.28V444.53H450.93V135.28ZM407.67,377.75H270.83V360.19H407.67Zm0-49.79H270.83V310.4H407.67Zm.62-61.94H271.42V174.28H408.29Z"/><rect class="cls-1" x="198.67" y="174.28" width="41.66" height="29.61"/><rect class="cls-1" x="198.67" y="243.93" width="41.66" height="29.61"/><rect class="cls-1" x="198.67" y="313.67" width="41.66" height="29.61"/><rect class="cls-1" x="198.67" y="381.63" width="41.66" height="29.61"/><path class="cls-1" d="M479.93,196.27H416.05v-44h63.88ZM426.3,186h43.38V162.54H426.3Z"/><path class="cls-1" d="M496.46,249.06H416.05v-44h80.41ZM426.3,238.81h59.91V215.33H426.3Z"/></g></g></svg>