<svg xmlns="http://www.w3.org/2000/svg" viewBox="0 0 655.29 567.5"><defs><style>.cls-1{fill:#191919;}</style></defs><g id="Layer_2" data-name="Layer 2"><g id="final_logos" data-name="final logos"><rect class="cls-1" x="170.18" y="144.68" width="27.59" height="285.4"/><path class="cls-1" d="M491.46,567.5H163.66l-6.8-12.08L0,283.77,163.83,0H491.46L655.29,283.77Zm-301-46.12H464.83L602,283.76,464.83,46.13H190.46L53.26,283.76Z"/><rect class="cls-1" x="311" y="261.67" width="27.59" height="309.24" transform="translate(741.08 91.49) rotate(90)"/><rect class="cls-1" x="173.98" y="179.47" width="137.53" height="26.05" transform="translate(-63.73 147.16) rotate(-30)"/><rect class="cls-1" x="276.33" y="181.29" width="126.37" height="26.05" transform="translate(179 -162.43) rotate(35.99)"/><rect class="cls-1" x="354.45" y="173.52" width="137.53" height="26.05" transform="translate(20.31 413.64) rotate(-53.19)"/><rect class="cls-1" x="213.69" y="248.51" width="56.21" height="139.46"/><rect class="cls-1" x="283.31" y="228" width="56.21" height="159.42"/><rect class="cls-1" x="354.05" y="314.68" width="56.21" height="72.74"/><rect class="cls-1" x="423.21" y="239.58" width="56.21" height="148.39"/></g></g></svg>