<svg xmlns="http://www.w3.org/2000/svg" viewBox="0 0 224.22 194.18"><defs><style>.cls-1{fill:#f5b646;}.cls-2{fill:#191919;}</style></defs><g id="Layer_2" data-name="Layer 2"><g id="Layer_2-2" data-name="Layer 2"><path class="cls-1" d="M165.28,5l53.17,92.09-53.17,92.09H58.94L5.77,97.09,58.94,5H165.28m2.89-5H56.06L0,97.09l56.06,97.09H168.17l56.05-97.09L168.17,0Z"/><path class="cls-2" d="M69.6,169,28.1,97.1,69.6,25.22h83L194.1,97.1,152.6,169ZM123,140.87l4.09,1.95h30.12V51.36H118.69V77L96.33,51.36H65v91.47h38.55V118.7Z"/><path class="cls-2" d="M146.53,35.72l3,5.14H108.19V49l-.81-.93-6.28-7.18H72.7l3-5.14h70.87M54.46,72.45v49.29L40.23,97.1,54.46,72.45m113.28,0L182,97.1l-14.23,24.64V72.45M114,146.51l2.44,2.77,3.67,1.83,4.43,2.22h25l-3,5.14H75.66l-3-5.14H114v-6.82M158.66,14.72H63.54L16,97.1l47.56,82.37h95.12L206.22,97.1,158.66,14.72Zm-29.47,90.22V61.86h17.55v70.47H129.49L93,90.88v41.45H75.46V61.86h16.1l37.63,43.08Z"/></g></g></svg>