<svg xmlns="http://www.w3.org/2000/svg" viewBox="0 0 209.4 183.85"><defs><style>.cls-1{fill:#191919;}</style></defs><g id="Layer_2" data-name="Layer 2"><g id="Layer_2-2" data-name="Layer 2"><polygon class="cls-1" points="60.51 58.38 60.51 96 51.31 96 51.3 95.99 31.83 73.87 31.83 96 22.46 96 22.46 58.38 31.06 58.38 51.14 81.38 51.14 58.38 60.51 58.38"/><polygon class="cls-1" points="117.33 0.42 116.48 0.42 116.96 0 117.33 0.42"/><polygon class="cls-1" points="209.4 166.86 208.97 167.24 208.64 166.86 209.4 166.86"/><polygon class="cls-1" points="208.64 166.86 208.6 166.86 208.6 166.82 208.64 166.86"/><path class="cls-1" d="M61.42,116.6l16.23,28.13L61.42,172.85H28.94L12.7,144.73,28.94,116.6H61.42m6.35-11H22.59L0,144.73l22.59,39.12H67.77l22.59-39.12L67.77,105.6Z"/><path class="cls-1" d="M120.22,83.72l16.24,28.12L120.22,140H87.75L71.51,111.84,87.75,83.72h32.47m6.36-11H81.4L58.81,111.84,81.4,151h45.18l22.58-39.13L126.58,72.72Z"/><path class="cls-1" d="M121.93,16.37l16.23,28.12L121.93,72.62H89.45L73.21,44.49,89.45,16.37h32.48m6.35-11H83.1L60.51,44.49,83.1,83.62h45.18l22.59-39.13L128.28,5.37Z"/></g></g></svg>