<svg id="Layer_1" data-name="Layer 1" xmlns="http://www.w3.org/2000/svg" xmlns:xlink="http://www.w3.org/1999/xlink" viewBox="0 0 130.45 96.5"><defs><style>.cls-1,.cls-2{fill:none;}.cls-2{stroke:#191919;stroke-miterlimit:10;}.cls-3{opacity:0.5;}.cls-4{fill:url(#New_Pattern_3);}.cls-5{fill:url(#New_Pattern_3-3);}</style><pattern id="New_Pattern_3" data-name="New Pattern 3" width="100.06" height="61.96" patternTransform="matrix(0.18, 0, 0, -0.18, -479.53, 1498.38)" patternUnits="userSpaceOnUse" viewBox="0 0 100.06 61.96"><rect class="cls-1" width="100.06" height="61.96"/><rect class="cls-1" width="100.06" height="61.96"/><polygon class="cls-2" points="117.17 -0.01 105.41 -0.01 99.52 -10.2 105.41 -20.38 117.17 -20.38 123.06 -10.2 117.17 -0.01"/><polygon class="cls-2" points="99.31 10.5 87.54 10.5 81.66 0.31 87.54 -9.88 99.31 -9.88 105.19 0.31 99.31 10.5"/><polygon class="cls-2" points="81.31 -0.5 69.54 -0.5 63.66 -10.69 69.54 -20.88 81.31 -20.88 87.19 -10.69 81.31 -0.5"/><polygon class="cls-2" points="99.31 30.61 87.54 30.61 81.66 20.42 87.54 10.23 99.31 10.23 105.19 20.42 99.31 30.61"/><polygon class="cls-2" points="116.46 19.5 105.26 19.5 99.66 9.8 105.26 0.11 116.46 0.11 122.06 9.8 116.46 19.5"/><polygon class="cls-2" points="49.28 -0.37 37.52 -0.37 31.63 -10.56 37.52 -20.75 49.28 -20.75 55.16 -10.56 49.28 -0.37"/><polygon class="cls-2" points="17.12 -0.01 5.35 -0.01 -0.53 -10.2 5.35 -20.38 17.12 -20.38 23 -10.2 17.12 -0.01"/><polygon class="cls-2" points="34.12 9.99 22.35 9.99 16.47 -0.2 22.35 -10.38 34.12 -10.38 40 -0.2 34.12 9.99"/><polygon class="cls-2" points="-0.75 10.5 -12.51 10.5 -18.39 0.31 -12.51 -9.88 -0.75 -9.88 5.14 0.31 -0.75 10.5"/><polygon class="cls-2" points="-0.75 30.61 -12.51 30.61 -18.39 20.42 -12.51 10.23 -0.75 10.23 5.14 20.42 -0.75 30.61"/><polygon class="cls-2" points="16.4 19.5 5.2 19.5 -0.4 9.8 5.2 0.11 16.4 0.11 22 9.8 16.4 19.5"/><polygon class="cls-2" points="117.17 61.96 105.41 61.96 99.52 51.77 105.41 41.58 117.17 41.58 123.06 51.77 117.17 61.96"/><polygon class="cls-2" points="99.31 72.47 87.54 72.47 81.66 62.28 87.54 52.09 99.31 52.09 105.19 62.28 99.31 72.47"/><polygon class="cls-2" points="81.31 61.47 69.54 61.47 63.66 51.27 69.54 41.09 81.31 41.09 87.19 51.27 81.31 61.47"/><polygon class="cls-2" points="99.31 51.47 87.54 51.47 81.66 41.28 87.54 31.09 99.31 31.09 105.19 41.28 99.31 51.47"/><polygon class="cls-2" points="116.46 81.46 105.26 81.46 99.66 71.77 105.26 62.07 116.46 62.07 122.06 71.77 116.46 81.46"/><polygon class="cls-2" points="67.14 30.98 55.38 30.98 49.5 20.79 55.38 10.6 67.14 10.6 73.03 20.79 67.14 30.98"/><polygon class="cls-2" points="84.14 19.98 72.38 19.98 66.5 9.79 72.38 -0.4 84.14 -0.4 90.03 9.79 84.14 19.98"/><polygon class="cls-2" points="84.14 40.98 72.38 40.98 66.5 30.79 72.38 20.6 84.14 20.6 90.03 30.79 84.14 40.98"/><polygon class="cls-2" points="49.28 41.48 37.52 41.48 31.63 31.29 37.52 21.11 49.28 21.11 55.16 31.29 49.28 41.48"/><polygon class="cls-2" points="31.28 30.48 19.52 30.48 13.63 20.29 19.52 10.11 31.28 10.11 37.16 20.29 31.28 30.48"/><polygon class="cls-2" points="49.28 20.48 37.52 20.48 31.63 10.29 37.52 0.11 49.28 0.11 55.16 10.29 49.28 20.48"/><polygon class="cls-2" points="49.28 61.59 37.52 61.59 31.63 51.4 37.52 41.21 49.28 41.21 55.16 51.4 49.28 61.59"/><polygon class="cls-2" points="66.43 50.48 55.23 50.48 49.63 40.79 55.23 31.09 66.43 31.09 72.03 40.79 66.43 50.48"/><polygon class="cls-2" points="17.12 61.96 5.35 61.96 -0.53 51.77 5.35 41.58 17.12 41.58 23 51.77 17.12 61.96"/><polygon class="cls-2" points="34.12 50.96 22.35 50.96 16.47 40.77 22.35 30.58 34.12 30.58 40 40.77 34.12 50.96"/><polygon class="cls-2" points="34.12 71.96 22.35 71.96 16.47 61.77 22.35 51.58 34.12 51.58 40 61.77 34.12 71.96"/><polygon class="cls-2" points="-0.75 72.47 -12.51 72.47 -18.39 62.28 -12.51 52.09 -0.75 52.09 5.14 62.28 -0.75 72.47"/><polygon class="cls-2" points="-0.75 51.47 -12.51 51.47 -18.39 41.28 -12.51 31.09 -0.75 31.09 5.14 41.28 -0.75 51.47"/><polygon class="cls-2" points="16.4 81.46 5.2 81.46 -0.4 71.77 5.2 62.07 16.4 62.07 22 71.77 16.4 81.46"/><polygon class="cls-2" points="84.14 81.94 72.38 81.94 66.5 71.75 72.38 61.56 84.14 61.56 90.03 71.75 84.14 81.94"/><polygon class="cls-2" points="49.28 82.45 37.52 82.45 31.63 72.26 37.52 62.07 49.28 62.07 55.16 72.26 49.28 82.45"/></pattern><pattern id="New_Pattern_3-3" data-name="New Pattern 3-3" width="100.06" height="61.96" patternTransform="matrix(0.18, 0, 0, -0.18, -467.65, 1490.37)" patternUnits="userSpaceOnUse" viewBox="0 0 100.06 61.96"><rect class="cls-1" width="100.06" height="61.96"/><rect class="cls-1" width="100.06" height="61.96"/><polygon class="cls-2" points="117.17 -0.01 105.41 -0.01 99.52 -10.2 105.41 -20.38 117.17 -20.38 123.06 -10.2 117.17 -0.01"/><polygon class="cls-2" points="99.31 10.5 87.54 10.5 81.66 0.31 87.54 -9.88 99.31 -9.88 105.19 0.31 99.31 10.5"/><polygon class="cls-2" points="81.31 -0.5 69.54 -0.5 63.66 -10.69 69.54 -20.88 81.31 -20.88 87.19 -10.69 81.31 -0.5"/><polygon class="cls-2" points="99.31 30.61 87.54 30.61 81.66 20.42 87.54 10.23 99.31 10.23 105.19 20.42 99.31 30.61"/><polygon class="cls-2" points="116.46 19.5 105.26 19.5 99.66 9.8 105.26 0.11 116.46 0.11 122.06 9.8 116.46 19.5"/><polygon class="cls-2" points="49.28 -0.37 37.52 -0.37 31.63 -10.56 37.52 -20.75 49.28 -20.75 55.16 -10.56 49.28 -0.37"/><polygon class="cls-2" points="17.12 -0.01 5.35 -0.01 -0.53 -10.2 5.35 -20.38 17.12 -20.38 23 -10.2 17.12 -0.01"/><polygon class="cls-2" points="34.12 9.99 22.35 9.99 16.47 -0.2 22.35 -10.38 34.12 -10.38 40 -0.2 34.12 9.99"/><polygon class="cls-2" points="-0.75 10.5 -12.51 10.5 -18.39 0.31 -12.51 -9.88 -0.75 -9.88 5.14 0.31 -0.75 10.5"/><polygon class="cls-2" points="-0.75 30.61 -12.51 30.61 -18.39 20.42 -12.51 10.23 -0.75 10.23 5.14 20.42 -0.75 30.61"/><polygon class="cls-2" points="16.4 19.5 5.2 19.5 -0.4 9.8 5.2 0.11 16.4 0.11 22 9.8 16.4 19.5"/><polygon class="cls-2" points="117.17 61.96 105.41 61.96 99.52 51.77 105.41 41.58 117.17 41.58 123.06 51.77 117.17 61.96"/><polygon class="cls-2" points="99.31 72.47 87.54 72.47 81.66 62.28 87.54 52.09 99.31 52.09 105.19 62.28 99.31 72.47"/><polygon class="cls-2" points="81.31 61.47 69.54 61.47 63.66 51.27 69.54 41.09 81.31 41.09 87.19 51.27 81.31 61.47"/><polygon class="cls-2" points="99.31 51.47 87.54 51.47 81.66 41.28 87.54 31.09 99.31 31.09 105.19 41.28 99.31 51.47"/><polygon class="cls-2" points="116.46 81.46 105.26 81.46 99.66 71.77 105.26 62.07 116.46 62.07 122.06 71.77 116.46 81.46"/><polygon class="cls-2" points="67.14 30.98 55.38 30.98 49.5 20.79 55.38 10.6 67.14 10.6 73.03 20.79 67.14 30.98"/><polygon class="cls-2" points="84.14 19.98 72.38 19.98 66.5 9.79 72.38 -0.4 84.14 -0.4 90.03 9.79 84.14 19.98"/><polygon class="cls-2" points="84.14 40.98 72.38 40.98 66.5 30.79 72.38 20.6 84.14 20.6 90.03 30.79 84.14 40.98"/><polygon class="cls-2" points="49.28 41.48 37.52 41.48 31.63 31.29 37.52 21.11 49.28 21.11 55.16 31.29 49.28 41.48"/><polygon class="cls-2" points="31.28 30.48 19.52 30.48 13.63 20.29 19.52 10.11 31.28 10.11 37.16 20.29 31.28 30.48"/><polygon class="cls-2" points="49.28 20.48 37.52 20.48 31.63 10.29 37.52 0.11 49.28 0.11 55.16 10.29 49.28 20.48"/><polygon class="cls-2" points="49.28 61.59 37.52 61.59 31.63 51.4 37.52 41.21 49.28 41.21 55.16 51.4 49.28 61.59"/><polygon class="cls-2" points="66.43 50.48 55.23 50.48 49.63 40.79 55.23 31.09 66.43 31.09 72.03 40.79 66.43 50.48"/><polygon class="cls-2" points="17.12 61.96 5.35 61.96 -0.53 51.77 5.35 41.58 17.12 41.58 23 51.77 17.12 61.96"/><polygon class="cls-2" points="34.12 50.96 22.35 50.96 16.47 40.77 22.35 30.58 34.12 30.58 40 40.77 34.12 50.96"/><polygon class="cls-2" points="34.12 71.96 22.35 71.96 16.47 61.77 22.35 51.58 34.12 51.58 40 61.77 34.12 71.96"/><polygon class="cls-2" points="-0.75 72.47 -12.51 72.47 -18.39 62.28 -12.51 52.09 -0.75 52.09 5.14 62.28 -0.75 72.47"/><polygon class="cls-2" points="-0.75 51.47 -12.51 51.47 -18.39 41.28 -12.51 31.09 -0.75 31.09 5.14 41.28 -0.75 51.47"/><polygon class="cls-2" points="16.4 81.46 5.2 81.46 -0.4 71.77 5.2 62.07 16.4 62.07 22 71.77 16.4 81.46"/><polygon class="cls-2" points="84.14 81.94 72.38 81.94 66.5 71.75 72.38 61.56 84.14 61.56 90.03 71.75 84.14 81.94"/><polygon class="cls-2" points="49.28 82.45 37.52 82.45 31.63 72.26 37.52 62.07 49.28 62.07 55.16 72.26 49.28 82.45"/></pattern></defs><title>page title icons3</title><g class="cls-3"><polygon points="114.19 58.42 82.78 95.89 61.41 95.89 87.23 65.1 87.64 64.62 89.06 62.91 89.53 62.37 114.61 31.53 114.19 58.42"/><polygon points="130.44 0 128.91 1.82 105.78 29.4 105.2 30.1 77.78 62.8 77.31 63.35 75.89 65.05 75.48 65.53 49.67 96.32 0.69 96.32 81.45 0 130.44 0"/></g><polygon class="cls-4" points="113.5 58.6 82.09 96.07 60.73 96.07 86.55 65.28 86.96 64.8 88.38 63.09 88.84 62.55 113.93 31.71 113.5 58.6"/><polygon class="cls-5" points="129.76 0.18 128.23 2 105.1 29.58 104.52 30.28 77.09 62.98 76.63 63.53 75.21 65.23 74.8 65.71 48.99 96.5 0 96.5 80.77 0.18 129.76 0.18"/></svg>