<svg xmlns="http://www.w3.org/2000/svg" viewBox="0 0 131.13 125.5"><defs><style>.cls-1{fill:#191919;}</style></defs><g id="Layer_2" data-name="Layer 2"><g id="Layer_1-2" data-name="Layer 1"><path class="cls-1" d="M130.61,45.8v-.09l-.26-.51c-1.7-3.35-5.88-5.6-13.56-7.28a127.89,127.89,0,0,0-26-2.38l-2.89,0h-.25c-2.52.06-4.22.13-5.65.22l-2.2.13c-1.73.11-3.43.26-5.1.44l-1,.12-1.53.19c-2.18.3-4,.6-5.7.91l-.36.07-.77.16-.59.13c-1.58.35-3,.72-4.29,1.12l-.91.29a23.36,23.36,0,0,0-4,1.72,10,10,0,0,0-4.34,4.14,7.35,7.35,0,0,0-.78,3.39v69L53,119c.45.26,11.74,6.51,36.66,6.51,23.59,0,36.94-5.67,38.4-6.32l3-1.35V48.59A7.48,7.48,0,0,0,130.61,45.8ZM81,46.41l1.31-.08c1.92-.12,3.74-.18,5.43-.2,1,0,2,0,3,0a121,121,0,0,1,23.35,2c.74.15,1.44.31,2.09.48-.66.15-1.35.31-2.09.46a118.12,118.12,0,0,1-23,2c-1.12,0-2.24,0-3.39,0-1.57,0-3.3-.08-5.41-.2-1.25-.07-2.49-.16-3.71-.26-1.93-.15-3.81-.35-5.59-.58l-1.6-.23-1-.16c-.7-.11-1.37-.23-2-.36l-.79-.16-2.18-.52c.51-.13,1-.25,1.61-.37l.41-.09.25-.06c.82-.16,1.68-.32,2.6-.47S72,47.31,73,47.17C75.45,46.84,78.14,46.59,81,46.41Zm40.21,64.16c-5,1.62-15.78,4.36-31.52,4.36-15.43,0-25-2.61-29.4-4.19V100.3a108.52,108.52,0,0,0,30.93,4.37,111.23,111.23,0,0,0,30-4.07Zm0-21a99.42,99.42,0,0,1-30,4.52A96.46,96.46,0,0,1,60.3,89.21V79.07a108.1,108.1,0,0,0,30.93,4.38,110.37,110.37,0,0,0,30-4.08Zm0-21.22a99.42,99.42,0,0,1-30,4.52,100.36,100.36,0,0,1-23.87-2.83c-2.68-.65-4.89-1.33-6.57-1.9L60.3,68V58.1c1.32.41,2.79.8,4.41,1.14l1,.23.67.13,1.28.23s0,0,0,0c1.32.23,2.77.45,4.41.67,2.68.37,5.54.64,8.54.83h0l1.28.08c1.83.1,3.64.17,5.7.2h.2l2.9,0a126.43,126.43,0,0,0,26-2.4c1.64-.35,3.11-.73,4.43-1.14Z"/><path class="cls-1" d="M70.4,49.61c-.7-.11-1.37-.23-2-.36l-.79-.16-2.18-.52c.51-.13,1-.25,1.61-.37L65.4,48c-1.64-.21-3.2-.47-4.62-.74L60,47.1l-2.18-.53c.63-.15,1.3-.31,2-.46l.25-.06c1.57-.3,3.27-.59,5.32-.88,2.45-.32,5.14-.58,8-.76l2.4-4.17-2.17-3.77-.52-.89-1-1.67-3.11-5.39,6.21-3.59-5.47-9.49L63.57,19,56.87,7.41H43.39V0h-11V7.41H19L12.2,19.12,5.82,15.44.34,24.93l6.39,3.68L0,40.24,6.71,51.85.34,55.53,5.82,65l6.38-3.69L19,73.06H32.44v7.52h11V73.06H56.87l2.89-5c-2.94-.72-5.33-1.47-7.06-2.07V56.1c1.32.42,2.79.8,4.41,1.15l1,.22.67.13c1.66.32,3.52.61,5.72.91,2.68.36,5.54.63,8.54.83h0l2.19-3.81L69.06,52Zm-20,9.19-.88,1.52H26.32L14.72,40.24l11.6-20.09H49.5l9,15.5,1.47,2.55.48.85.69,1.19Z"/></g></g></svg>