<svg xmlns="http://www.w3.org/2000/svg" viewBox="0 0 303.88 331.09"><defs><style>.cls-1{fill:#393637;}</style></defs><g id="Layer_2" data-name="Layer 2"><g id="Layer_1-2" data-name="Layer 1"><path class="cls-1" d="M200.57,63l20.78,36-20.78,36H159L138.29,99,159,63h41.53m2.77-4.77h-47L132.78,99l23.52,40.74h47L226.86,99Z"/><path class="cls-1" d="M180.64,139h-24l-12-20.83,12-20.83h24l12,20.83Zm-22.13-3.33h20.21l10.1-17.5-10.1-17.5H158.51l-10.1,17.5Z"/><path class="cls-1" d="M180.64,100.63h-24l-12-20.83,12-20.83h24l12,20.83ZM158.51,97.3h20.21l10.1-17.5-10.1-17.5H158.51l-10.1,17.5Z"/><path class="cls-1" d="M214,119.82H189.92L177.9,99l12-20.83H214L226,99Zm-22.13-3.33h20.2L222.15,99l-10.1-17.5h-20.2L181.74,99Z"/><path class="cls-1" d="M134.15,24.67l20.77,36-20.77,36H92.61l-20.75-36,20.75-36h41.54m2.76-4.76h-47L66.36,60.65,89.87,101.4h47l23.52-40.75Z"/><path class="cls-1" d="M114.21,100.62h-24l-12-20.83L90.16,59h24l12,20.83ZM92.08,97.29h20.21l10.1-17.5L112.29,62.3H92.08L82,79.79Z"/><path class="cls-1" d="M114.21,62.3h-24l-12-20.84,12-20.83h24l12,20.83ZM92.08,59h20.21l10.1-17.5L112.29,24H92.08L82,41.46Z"/><path class="cls-1" d="M147.55,81.48H123.49l-12-20.83,12-20.83h24.06l12,20.83Zm-22.13-3.33h20.2l10.11-17.5-10.11-17.5h-20.2l-10.1,17.5Z"/><path class="cls-1" d="M267.07,101.41l20.78,36-20.78,36H225.54l-20.76-36,20.76-36h41.53m2.76-4.77h-47l-23.52,40.75,23.52,40.75h47l23.52-40.75Z"/><path class="cls-1" d="M247.14,177.36H223.08l-12-20.83,12-20.83h24.06l12,20.83ZM225,174h20.2l10.11-17.5L245.21,139H225l-10.1,17.49Z"/><path class="cls-1" d="M247.14,139H223.08l-12-20.84,12-20.83h24.06l12,20.83ZM225,135.7h20.2l10.11-17.5-10.11-17.49H225l-10.1,17.49Z"/><path class="cls-1" d="M280.47,158.22H256.42l-12-20.83,12-20.83h24.05l12,20.83Zm-22.13-3.33h20.21l10.1-17.5-10.1-17.5H258.34l-10.1,17.5Z"/><path class="cls-1" d="M277.6,4.77l20.78,36-20.78,36H236.07l-20.75-36,20.75-36H277.6M280.37,0h-47L209.81,40.75l23.52,40.74h47l23.51-40.74Z"/><path class="cls-1" d="M257.67,80.72H233.62l-12-20.83,12-20.83h24.05l12,20.83Zm-22.13-3.33h20.2l10.11-17.5-10.11-17.5h-20.2l-10.1,17.5Z"/><path class="cls-1" d="M257.67,42.39H233.62l-12-20.83,12-20.83h24.05l12,20.83Zm-22.13-3.33h20.2l10.11-17.5L255.74,4.06h-20.2l-10.1,17.5Z"/><path class="cls-1" d="M291,61.58H267l-12-20.83,12-20.84H291l12,20.84Zm-22.13-3.34h20.21l10.1-17.49-10.1-17.5H268.87l-10.1,17.5Z"/><path class="cls-1" d="M200.57,139.73l20.78,36-20.78,36H159l-20.75-36,20.75-36h41.53m2.77-4.76h-47l-23.52,40.74,23.52,40.75h47l23.52-40.75Z"/><path class="cls-1" d="M180.64,215.69h-24l-12-20.83,12-20.83h24l12,20.83Zm-22.13-3.34h20.21l10.1-17.49-10.1-17.5H158.51l-10.1,17.5Z"/><path class="cls-1" d="M180.64,177.36h-24l-12-20.83,12-20.83h24l12,20.83ZM158.51,174h20.21l10.1-17.5L178.72,139H158.51l-10.1,17.5Z"/><path class="cls-1" d="M214,196.55H189.92l-12-20.84,12-20.83H214l12,20.83Zm-22.13-3.34h20.2l10.1-17.5-10.1-17.49h-20.2l-10.11,17.49Z"/><path class="cls-1" d="M200.85,216.46l20.78,36-20.78,36H159.32l-20.76-36,20.76-36h41.53m2.76-4.77h-47l-23.52,40.75,23.52,40.75h47l23.52-40.75Z"/><path class="cls-1" d="M180.92,292.41H156.86l-12-20.83,12-20.83h24.06l12,20.83Zm-22.13-3.33H179l10.11-17.5L179,254.08h-20.2l-10.1,17.5Z"/><path class="cls-1" d="M180.92,254.08H156.86l-12-20.83,12-20.83h24.06l12,20.83Zm-22.13-3.33H179l10.11-17.5L179,215.76h-20.2l-10.1,17.49Z"/><path class="cls-1" d="M214.25,273.27H190.2l-12-20.83,12-20.83h24.05l12,20.83Zm-22.13-3.33h20.21l10.1-17.5-10.1-17.5H192.12L182,252.44Z"/><path class="cls-1" d="M266.94,254.37l20.77,36-20.77,36H225.4l-20.75-36,20.75-36h41.54m2.76-4.77h-47l-23.51,40.75,23.51,40.74h47l23.52-40.74Z"/><path class="cls-1" d="M247,330.32H223l-12-20.83,12-20.83H247l12,20.83ZM224.87,327h20.21l10.1-17.5L245.08,292H224.87l-10.1,17.5Z"/><path class="cls-1" d="M247,292H223l-12-20.83,12-20.83H247l12,20.83Zm-22.13-3.33h20.21l10.1-17.5-10.1-17.5H224.87l-10.1,17.5Z"/><path class="cls-1" d="M280.34,311.18H256.28l-12-20.83,12-20.83h24.06l12,20.83Zm-22.13-3.33h20.2l10.1-17.5-10.1-17.5h-20.2l-10.1,17.5Z"/><path class="cls-1" d="M134.36,178.39l20.78,36-20.78,36H92.83l-20.76-36,20.76-36h41.53m2.76-4.77h-47L66.57,214.37l23.52,40.74h47l23.52-40.74Z"/><path class="cls-1" d="M114.43,254.34H90.37l-12-20.83,12-20.83h24.06l12,20.83ZM92.3,251h20.2l10.1-17.5L112.5,216H92.3l-10.1,17.5Z"/><path class="cls-1" d="M114.43,216H90.37l-12-20.83,12-20.83h24.06l12,20.83ZM92.3,212.68h20.2l10.1-17.5-10.1-17.5H92.3l-10.1,17.5Z"/><path class="cls-1" d="M147.76,235.2h-24l-12-20.83,12-20.83h24l12,20.83Zm-22.13-3.34h20.21l10.1-17.49-10.1-17.5H125.63l-10.1,17.5Z"/><path class="cls-1" d="M67.79,63.13l20.78,36-20.78,36H26.26L5.5,99.11l20.76-36H67.79m2.76-4.77h-47L0,99.11l23.52,40.75h47L94.07,99.11Z"/><path class="cls-1" d="M47.86,139.08H23.8l-12-20.83,12-20.83H47.86l12,20.83Zm-22.13-3.33h20.2L56,118.25l-10.11-17.5H25.73l-10.1,17.5Z"/><path class="cls-1" d="M47.86,100.75H23.8l-12-20.83,12-20.83H47.86l12,20.83ZM25.73,97.42h20.2L56,79.92,45.93,62.43H25.73L15.63,79.92Z"/><path class="cls-1" d="M81.19,119.94h-24l-12-20.83,12-20.83h24l12,20.83Zm-22.13-3.33H79.27l10.1-17.5-10.1-17.5H59.06L49,99.11Z"/></g></g></svg>