<svg xmlns="http://www.w3.org/2000/svg" viewBox="0 0 293.73 235.21"><defs><style>.cls-1{fill:#393637;}</style></defs><g id="Layer_2" data-name="Layer 2"><g id="Layer_1-2" data-name="Layer 1"><path class="cls-1" d="M199.69,192.91l-41.55-.38L137.7,156.35l21.1-35.77,41.54.4,20.45,36.16-21.1,35.77m2.7,4.8,23.89-40.51-23.15-41-47-.44L132.2,156.31l23.14,41Z"/><path class="cls-1" d="M144.39,137.16l12.22-20.72,24,.22L192.5,137.6l-12.22,20.72-24.06-.22Zm14.11-17.37-10.26,17.4,9.94,17.59,20.2.19,10.27-17.4L178.71,120Z"/><path class="cls-1" d="M177.41,156.63l12.22-20.72,24.05.22,11.83,20.94-12.22,20.72-24-.22Zm14.11-17.37-10.27,17.4,9.94,17.59,20.21.19L221.66,157l-9.94-17.59Z"/><path class="cls-1" d="M144,175.59l12.21-20.72,24.06.23L192.05,176l-12.22,20.72-24.05-.23Zm14.11-17.36-10.27,17.4,9.94,17.59,20.21.19L188.2,176l-9.94-17.59Z"/><path class="cls-1" d="M266.57,155.25,225,154.87,204.58,118.7l21.1-35.78,41.54.41,20.45,36.15-21.1,35.77m2.7,4.81,23.89-40.52L270,78.58l-47-.44-23.89,40.52,23.14,41Z"/><path class="cls-1" d="M211.27,99.5l12.22-20.72,24,.22,11.84,21-12.22,20.72-24.06-.23Zm14.11-17.37L215.12,99.54l9.94,17.59,20.2.18,10.27-17.4-9.94-17.59Z"/><path class="cls-1" d="M244.29,119l12.22-20.72,24.05.23,11.83,20.94-12.22,20.72-24.05-.23ZM258.4,101.6,248.13,119l9.94,17.59,20.21.19,10.26-17.41-9.94-17.59Z"/><path class="cls-1" d="M210.83,137.94,223,117.22l24.06.22,11.83,20.94L246.71,159.1l-24.05-.22Zm14.11-17.37L214.67,138l9.94,17.59,20.21.19,10.26-17.4-9.94-17.59Z"/><path class="cls-1" d="M132.72,230.41,91.18,230,70.74,193.85l21.1-35.77,41.53.4,20.45,36.15-21.1,35.78m2.7,4.8,23.9-40.52-23.15-40.95-47-.45-23.9,40.52,23.15,41Z"/><path class="cls-1" d="M77.43,174.65l12.22-20.72,24,.23,11.83,20.94-12.22,20.72-24-.23Zm14.11-17.36-10.27,17.4,9.94,17.59,20.21.19,10.26-17.41-9.94-17.59Z"/><path class="cls-1" d="M110.44,194.12l12.22-20.71,24.05.22,11.84,20.94-12.22,20.72-24.06-.22Zm14.11-17.36-10.26,17.4,9.94,17.59,20.2.19,10.27-17.41-9.94-17.59Z"/><path class="cls-1" d="M77,213.09,89.2,192.37l24,.22,11.84,20.95-12.22,20.71L88.81,234Zm14.11-17.37-10.26,17.4,9.94,17.6,20.2.18,10.27-17.4-9.94-17.59Z"/><path class="cls-1" d="M133.56,153.77,92,153.39,71.58,117.22l21.1-35.78,41.53.41L154.66,118l-21.1,35.77m2.7,4.81,23.9-40.52L137,77.1l-47-.44L66.07,117.18l23.15,40.95Z"/><path class="cls-1" d="M78.26,98,90.48,77.3l24.06.22,11.83,21-12.22,20.71L90.1,119ZM92.38,80.65,82.11,98.06l9.94,17.59,20.21.18,10.26-17.4-9.94-17.59Z"/><path class="cls-1" d="M111.28,117.49,123.5,96.77l24.05.23,11.83,20.94-12.22,20.72-24-.23Zm14.11-17.37-10.26,17.41,9.94,17.59,20.2.18,10.26-17.4-9.93-17.59Z"/><path class="cls-1" d="M77.82,136.46,90,115.74l24,.22,11.83,20.94L113.7,157.62l-24-.22Zm14.11-17.37-10.26,17.4,9.94,17.59,20.2.19,10.26-17.4-9.93-17.59Z"/><path class="cls-1" d="M67.49,114.69,26,114.31,5.51,78.14l21.1-35.78,41.53.4L88.59,78.92l-21.1,35.77m2.7,4.8L94.09,79,70.94,38l-47-.44L0,78.09l23.15,41Z"/><path class="cls-1" d="M12.2,58.94,24.41,38.22l24.06.22L60.3,59.38,48.08,80.1l-24-.22ZM26.31,41.57,16,59,26,76.56l20.21.19,10.26-17.4L46.51,41.76Z"/><path class="cls-1" d="M45.21,78.41,57.43,57.69l24.05.22,11.83,21L81.1,99.57,57,99.35ZM59.32,61,49.06,78.44,59,96l20.2.18,10.27-17.4L79.53,61.23Z"/><path class="cls-1" d="M11.75,97.37,24,76.66,48,76.88,59.85,97.82,47.64,118.54l-24.06-.22ZM25.86,80,15.6,97.41,25.54,115l20.2.19L56,97.78,46.07,80.19Z"/><path class="cls-1" d="M134.38,77.11l-41.54-.38L72.4,40.55,93.5,4.78l41.53.4,20.45,36.16-21.1,35.77m2.71,4.8L161,41.4,137.83.44,90.79,0,66.89,40.51,90,81.47Z"/><path class="cls-1" d="M79.09,21.36,91.31.64l24,.22L127.19,21.8,115,42.52l-24-.22ZM93.2,4,82.94,21.39,92.88,39l20.2.19,10.26-17.4L113.4,4.18Z"/><path class="cls-1" d="M112.1,40.83l12.22-20.72,24.05.22,11.84,20.94L148,62l-24.05-.22Zm14.12-17.37L116,40.86l9.94,17.59,20.2.19,10.27-17.4-9.94-17.59Z"/><path class="cls-1" d="M78.64,59.79,90.86,39.08l24,.22,11.84,20.94L114.53,81l-24-.22ZM92.75,42.43,82.49,59.83l9.94,17.59,20.2.19L122.9,60.2,113,42.61Z"/><path class="cls-1" d="M267.14,78.46l-41.55-.39L205.15,41.9l21.1-35.77,41.54.4,20.45,36.15-21.1,35.78m2.7,4.8,23.89-40.52L270.58,1.79l-47-.45L199.65,41.86l23.14,41Z"/><path class="cls-1" d="M211.84,22.7,224.06,2l24.05.23L260,23.15,247.73,43.87l-24.06-.23ZM226,5.33,215.69,22.74l9.94,17.59,20.2.19L256.1,23.11,246.16,5.52Z"/><path class="cls-1" d="M244.86,42.17l12.22-20.72,24.05.23L293,42.62,280.74,63.34l-24.05-.23ZM259,24.81,248.7,42.21l9.94,17.59,20.21.19,10.26-17.41L279.17,25Z"/><path class="cls-1" d="M211.4,61.14l12.21-20.72,24.06.22L259.5,61.58,247.28,82.3l-24.05-.22Zm14.11-17.37-10.27,17.4,9.94,17.59,20.21.19,10.26-17.4L245.71,44Z"/></g></g></svg>