<svg xmlns="http://www.w3.org/2000/svg" viewBox="0 0 213.34 184.75"><defs><style>.cls-1{fill:#191919;}.cls-2{fill:#f5b646;}</style></defs><g id="Layer_2" data-name="Layer 2"><g id="Layer_2-2" data-name="Layer 2"><path class="cls-1" d="M71.52,184.75,24.25,102.88,71.52,21h94.54l47.28,81.88-47.28,81.87ZM132,157.25h33.46V48.51H127.2V82.18L105.63,48.51H72.16V157.25h38.23V123.58Z" transform="translate(-12.12 -10.5)"/><path class="cls-1" d="M160,31.5,163.76,38H116.7v8.32L111.37,38H73.82l3.76-6.51H160m15.92,27.58,25.29,43.8-25.29,43.8V59.08m-114.26,0v87.6l-25.29-43.8,25.29-43.8m59.23,100.36,5.32,8.31h37.55l-3.76,6.5H77.58l-3.75-6.5h47.06v-8.31M172.13,10.5H65.46L12.12,102.88l53.34,92.37H172.13l53.33-92.37L172.13,10.5ZM137.7,118V59h17.22v87.74H137.7l-37.81-59v59H82.66V59H99.89l37.81,59Z" transform="translate(-12.12 -10.5)"/><path class="cls-2" d="M158,35.05l39.16,67.83L158,170.7H79.63L40.47,102.88,79.63,35.05H158m2.89-5H76.75l-42,72.83L76.75,175.7h84.09l42-72.82-42-72.83Z" transform="translate(-12.12 -10.5)"/></g></g></svg>