<svg xmlns="http://www.w3.org/2000/svg" xmlns:xlink="http://www.w3.org/1999/xlink" viewBox="0 0 141.1 122.23"><defs><style>.cls-1,.cls-2{fill:none;}.cls-2{stroke:#f5f7f5;stroke-miterlimit:10;}.cls-3{fill:url(#Unnamed_Pattern_2);}.cls-4{fill:#f5f7f5;}</style><pattern id="Unnamed_Pattern_2" data-name="Unnamed Pattern 2" width="100.06" height="61.96" patternTransform="matrix(-1.8, -3.13, -3.13, 1.8, -1258.04, 4554.59)" patternUnits="userSpaceOnUse" viewBox="0 0 100.06 61.96"><rect class="cls-1" width="100.06" height="61.96"/><rect class="cls-1" width="100.06" height="61.96"/><polygon class="cls-2" points="117.17 -0.01 105.41 -0.01 99.52 -10.2 105.41 -20.38 117.17 -20.38 123.06 -10.2 117.17 -0.01"/><polygon class="cls-2" points="99.31 10.5 87.54 10.5 81.66 0.31 87.54 -9.88 99.31 -9.88 105.19 0.31 99.31 10.5"/><polygon class="cls-2" points="81.31 -0.5 69.54 -0.5 63.66 -10.69 69.54 -20.88 81.31 -20.88 87.19 -10.69 81.31 -0.5"/><polygon class="cls-2" points="99.31 30.61 87.54 30.61 81.66 20.42 87.54 10.23 99.31 10.23 105.19 20.42 99.31 30.61"/><polygon class="cls-2" points="116.46 19.5 105.26 19.5 99.66 9.8 105.26 0.11 116.46 0.11 122.06 9.8 116.46 19.5"/><polygon class="cls-2" points="49.28 -0.37 37.52 -0.37 31.63 -10.56 37.52 -20.75 49.28 -20.75 55.16 -10.56 49.28 -0.37"/><polygon class="cls-2" points="17.12 -0.01 5.35 -0.01 -0.53 -10.2 5.35 -20.38 17.12 -20.38 23 -10.2 17.12 -0.01"/><polygon class="cls-2" points="34.12 9.99 22.35 9.99 16.47 -0.2 22.35 -10.38 34.12 -10.38 40 -0.2 34.12 9.99"/><polygon class="cls-2" points="-0.75 10.5 -12.51 10.5 -18.39 0.31 -12.51 -9.88 -0.75 -9.88 5.14 0.31 -0.75 10.5"/><polygon class="cls-2" points="-0.75 30.61 -12.51 30.61 -18.39 20.42 -12.51 10.23 -0.75 10.23 5.14 20.42 -0.75 30.61"/><polygon class="cls-2" points="16.4 19.5 5.2 19.5 -0.4 9.8 5.2 0.11 16.4 0.11 22 9.8 16.4 19.5"/><polygon class="cls-2" points="117.17 61.96 105.41 61.96 99.52 51.77 105.41 41.58 117.17 41.58 123.06 51.77 117.17 61.96"/><polygon class="cls-2" points="99.31 72.47 87.54 72.47 81.66 62.28 87.54 52.09 99.31 52.09 105.19 62.28 99.31 72.47"/><polygon class="cls-2" points="81.31 61.47 69.54 61.47 63.66 51.27 69.54 41.09 81.31 41.09 87.19 51.27 81.31 61.47"/><polygon class="cls-2" points="99.31 51.47 87.54 51.47 81.66 41.28 87.54 31.09 99.31 31.09 105.19 41.28 99.31 51.47"/><polygon class="cls-2" points="116.46 81.46 105.26 81.46 99.66 71.77 105.26 62.07 116.46 62.07 122.06 71.77 116.46 81.46"/><polygon class="cls-2" points="67.14 30.98 55.38 30.98 49.5 20.79 55.38 10.6 67.14 10.6 73.03 20.79 67.14 30.98"/><polygon class="cls-2" points="84.14 19.98 72.38 19.98 66.5 9.79 72.38 -0.4 84.14 -0.4 90.03 9.79 84.14 19.98"/><polygon class="cls-2" points="84.14 40.98 72.38 40.98 66.5 30.79 72.38 20.6 84.14 20.6 90.03 30.79 84.14 40.98"/><polygon class="cls-2" points="49.28 41.48 37.52 41.48 31.63 31.29 37.52 21.11 49.28 21.11 55.16 31.29 49.28 41.48"/><polygon class="cls-2" points="31.28 30.48 19.52 30.48 13.63 20.29 19.52 10.11 31.28 10.11 37.16 20.29 31.28 30.48"/><polygon class="cls-2" points="49.28 20.48 37.52 20.48 31.63 10.29 37.52 0.11 49.28 0.11 55.16 10.29 49.28 20.48"/><polygon class="cls-2" points="49.28 61.59 37.52 61.59 31.63 51.4 37.52 41.21 49.28 41.21 55.16 51.4 49.28 61.59"/><polygon class="cls-2" points="66.43 50.48 55.23 50.48 49.63 40.79 55.23 31.09 66.43 31.09 72.03 40.79 66.43 50.48"/><polygon class="cls-2" points="17.12 61.96 5.35 61.96 -0.53 51.77 5.35 41.58 17.12 41.58 23 51.77 17.12 61.96"/><polygon class="cls-2" points="34.12 50.96 22.35 50.96 16.47 40.77 22.35 30.58 34.12 30.58 40 40.77 34.12 50.96"/><polygon class="cls-2" points="34.12 71.96 22.35 71.96 16.47 61.77 22.35 51.58 34.12 51.58 40 61.77 34.12 71.96"/><polygon class="cls-2" points="-0.75 72.47 -12.51 72.47 -18.39 62.28 -12.51 52.09 -0.75 52.09 5.14 62.28 -0.75 72.47"/><polygon class="cls-2" points="-0.75 51.47 -12.51 51.47 -18.39 41.28 -12.51 31.09 -0.75 31.09 5.14 41.28 -0.75 51.47"/><polygon class="cls-2" points="16.4 81.46 5.2 81.46 -0.4 71.77 5.2 62.07 16.4 62.07 22 71.77 16.4 81.46"/><polygon class="cls-2" points="84.14 81.94 72.38 81.94 66.5 71.75 72.38 61.56 84.14 61.56 90.03 71.75 84.14 81.94"/><polygon class="cls-2" points="49.28 82.45 37.52 82.45 31.63 72.26 37.52 62.07 49.28 62.07 55.16 72.26 49.28 82.45"/></pattern></defs><g id="Layer_2" data-name="Layer 2"><g id="Layer_3" data-name="Layer 3"><polygon class="cls-3" points="37.31 118.66 4.11 61.12 37.31 3.61 103.75 3.61 136.96 61.12 103.75 118.66 37.31 118.66"/><path class="cls-4" d="M101.68,7.15l31.17,54-31.17,54H39.39l-31.13-54,31.13-54h62.29M105.83,0H35.28L0,61.12l35.28,61.11h70.55L141.1,61.12Z"/></g></g></svg>