<svg xmlns="http://www.w3.org/2000/svg" viewBox="0 0 141.1 122.23"><defs><style>.cls-1{fill:#f5f7f5;}.cls-2{fill:none;stroke:#f5f7f5;stroke-miterlimit:10;stroke-width:5px;}</style></defs><g id="Layer_2" data-name="Layer 2"><g id="Layer_3" data-name="Layer 3"><path class="cls-1" d="M101.68,7.15l31.17,54-31.17,54H39.39l-31.13-54,31.13-54h62.29M105.83,0H35.28L0,61.12l35.28,61.11h70.55L141.1,61.12Z"/><polygon class="cls-2" points="70.34 61.08 37.15 61.08 20.55 89.83 37.15 118.57 70.34 118.57 86.94 89.83 70.34 61.08"/><polygon class="cls-2" points="70.34 3.59 37.15 3.59 20.55 32.34 37.15 61.08 70.34 61.08 86.94 32.34 70.34 3.59"/><polygon class="cls-2" points="120.34 32.37 87.15 32.37 70.55 61.12 87.15 89.86 120.34 89.86 136.94 61.12 120.34 32.37"/></g></g></svg>