<svg xmlns="http://www.w3.org/2000/svg" viewBox="0 0 234.93 203.46"><defs><style>.cls-1{fill:#f4ce45;}</style></defs><g id="Layer_2" data-name="Layer 2"><g id="Layer_1-2" data-name="Layer 1"><rect class="cls-1" x="95.29" y="112.13" width="53.4" height="6.85"/><rect class="cls-1" x="95.29" y="131.56" width="53.4" height="6.85"/><path class="cls-1" d="M95.52,59v35.8h53.41V59Zm47.38,30.7H101.57V64.12H142.9Z"/><path class="cls-1" d="M165.57,54.43v9.16h7.32V54.43Zm0,0v9.16h7.32V54.43Zm25.1-29.36L176.2,0H58.73L0,101.74,30.2,154l21.33,37,7.11,12.3.09.17H176.2l58.73-101.72ZM183.34,88.2H165.57v76.27H77.93v-13H67.13V139.93h10.8V125H67.13V113.41h10.8V97.75H67.13V86.2h10.8V70.57H67.13V59h10.8V43.79h87.64v6.64h11.32V67.59H165.57V71h17.77Zm-17.77-4h13.77V75H165.57Zm7.32-29.77h-7.32v9.16h7.32Z"/></g></g></svg>