<svg xmlns="http://www.w3.org/2000/svg" viewBox="0 0 234.94 203.46"><defs><style>.cls-1{fill:#f5f7f5;}.cls-2{fill:#191919;}</style></defs><g id="Layer_2" data-name="Layer 2"><g id="Layer_1-2" data-name="Layer 1"><polygon class="cls-1" points="176.2 0 58.73 0 0 101.73 58.73 203.46 176.2 203.46 234.94 101.73 176.2 0"/><rect class="cls-2" x="101.57" y="64.12" width="41.33" height="25.59"/><path class="cls-2" d="M77.94,43.79V164.47h87.64V43.79Zm70.76,94.62H95.3v-6.85h53.4Zm0-19.43H95.3v-6.85h53.4Zm.24-24.17H95.53V59h53.41Z"/><rect class="cls-2" x="67.14" y="59.01" width="16.26" height="11.55"/><rect class="cls-2" x="67.14" y="86.19" width="16.26" height="11.55"/><rect class="cls-2" x="67.14" y="113.4" width="16.26" height="11.55"/><rect class="cls-2" x="67.14" y="139.92" width="16.26" height="11.55"/><path class="cls-2" d="M176.89,67.59H152V50.43h24.93Zm-20.93-4h16.93V54.43H156Z"/><path class="cls-2" d="M183.35,88.19H152V71h31.39Zm-27.39-4h23.39V75H156Z"/></g></g></svg>