<svg xmlns="http://www.w3.org/2000/svg" viewBox="0 0 234.94 203.46"><defs><style>.cls-1{fill:#f4ce45;}</style></defs><g id="Layer_2" data-name="Layer 2"><g id="Layer_1-2" data-name="Layer 1"><path class="cls-1" d="M190.68,25.07,176.2,0H58.74L0,101.74,30.21,154l21.33,37,7.1,12.3.1.17H176.2l58.74-101.72Zm-14,133.77H56V47.46H66.79V70.39L105,48.3l0,0,.08-.11,35.59,25.85,26-34.81,8.14,6.09-32.15,43-8.14-6.09,0,0L104.52,60.34,66.79,82.12v65.95H176.7Zm-27-45v28.39H127.78V113.8ZM122.1,80v62.21H100.17V80ZM94.94,88V142.4H73V88ZM176.7,142.4H154.76V84.5H176.7Z"/></g></g></svg>